<svg width="60" height="60" xmlns="http://www.w3.org/2000/svg" xmlns:xlink="http://www.w3.org/1999/xlink"><defs><rect id="a" x="3.875" y="0" width="24.219" height="26.182" rx="1.92"/><rect id="b" x="0" y="4" width="24.219" height="26.182" rx="1.92"/></defs><g fill="none" fill-rule="evenodd"><circle fill="#49A7FF" cx="30" cy="30" r="30"/><g transform="translate(15 14)"><use fill="#49A7FF" xlink:href="#a"/><rect stroke="#FFF" stroke-width="1.5" x="4.625" y=".75" width="22.719" height="24.682" rx="1.92"/><use fill="#49A7FF" xlink:href="#b"/><rect stroke="#FFF" stroke-width="1.5" x=".75" y="4.75" width="22.719" height="24.682" rx="1.92"/><g fill="#FFF"><path d="M6.786 9.727h11.339a.75.75 0 1 1 0 1.5H6.812a1.5 1.5 0 1 1-.026-1.5zM6.786 16.727h11.339a.75.75 0 1 1 0 1.5H6.812a1.5 1.5 0 1 1-.026-1.5zM6.786 23.727h7.339a.75.75 0 0 1 0 1.5H6.812a1.5 1.5 0 1 1-.026-1.5z"/></g><ellipse fill="#49A7FF" cx="23.734" cy="24.727" rx="7.266" ry="7.273"/><ellipse stroke="#FFF" stroke-width="1.44" fill="#49A7FF" cx="23.813" cy="24.818" rx="5.813" ry="5.818"/><path fill="#FFF" d="M21 22h1.454L24 24.53 25.546 22H27l-1.966 2.924h1.31v.555h-1.689l-.01.008v.698h1.7v.554h-1.7V28h-1.29v-1.26h-1.69v-.555h1.69v-.698l-.01-.008h-1.68v-.555h1.3z"/></g></g></svg>