<?xml version="1.0" encoding="UTF-8"?>
<svg width="60px" height="60px" viewBox="0 0 60 60" version="1.1" xmlns="http://www.w3.org/2000/svg" xmlns:xlink="http://www.w3.org/1999/xlink">
    <!-- Generator: Sketch 49.3 (51167) - http://www.bohemiancoding.com/sketch -->
    <title>业务报表-科目余额表</title>
    <desc>Created with Sketch.</desc>
    <defs>
        <rect id="path-1" x="3.875" y="0" width="24.21875" height="26.1818182" rx="1.92"></rect>
        <rect id="path-2" x="0" y="4" width="24.21875" height="26.1818182" rx="1.92"></rect>
    </defs>
    <g id="icon" stroke="none" stroke-width="1" fill="none" fill-rule="evenodd">
        <g id="业务报表-科目余额表">
            <circle id="Oval-Copy" fill="#49A7FF" cx="30" cy="30" r="30"></circle>
            <g id="Group-65" transform="translate(15.000000, 14.000000)">
                <g id="Rectangle-15">
                    <use fill="#49A7FF" fill-rule="evenodd" xlink:href="#path-1"></use>
                    <rect stroke="#FFFFFF" stroke-width="1.5" x="4.625" y="0.75" width="22.71875" height="24.6818182" rx="1.92"></rect>
                </g>
                <g id="Rectangle-15-Copy">
                    <use fill="#49A7FF" fill-rule="evenodd" xlink:href="#path-2"></use>
                    <rect stroke="#FFFFFF" stroke-width="1.5" x="0.75" y="4.75" width="22.71875" height="24.6818182" rx="1.92"></rect>
                </g>
                <g id="Group-64" transform="translate(4.000000, 9.000000)" fill="#FFFFFF">
                    <path d="M2.78591127,0.727272727 L14.125,0.727272727 C14.5392136,0.727272727 14.875,1.06305916 14.875,1.47727273 C14.875,1.89148629 14.5392136,2.22727273 14.125,2.22727273 L2.81221055,2.22727273 C2.55624253,2.68812737 2.06454214,3 1.5,3 C0.671572875,3 0,2.32842712 0,1.5 C0,0.671572875 0.671572875,0 1.5,0 C2.04577762,0 2.52347532,0.291484845 2.78591127,0.727272727 Z" id="Combined-Shape"></path>
                    <path d="M2.78591127,7.72727273 L14.125,7.72727273 C14.5392136,7.72727273 14.875,8.06305916 14.875,8.47727273 C14.875,8.89148629 14.5392136,9.22727273 14.125,9.22727273 L2.81221055,9.22727273 C2.55624253,9.68812737 2.06454214,10 1.5,10 C0.671572875,10 0,9.32842712 0,8.5 C0,7.67157288 0.671572875,7 1.5,7 C2.04577762,7 2.52347532,7.29148485 2.78591127,7.72727273 Z" id="Combined-Shape-Copy-2"></path>
                    <path d="M2.78591127,14.7272727 L10.125,14.7272727 C10.5392136,14.7272727 10.875,15.0630592 10.875,15.4772727 C10.875,15.8914863 10.5392136,16.2272727 10.125,16.2272727 L2.81221055,16.2272727 C2.55624253,16.6881274 2.06454214,17 1.5,17 C0.671572875,17 0,16.3284271 0,15.5 C0,14.6715729 0.671572875,14 1.5,14 C2.04577762,14 2.52347532,14.2914848 2.78591127,14.7272727 Z" id="Combined-Shape-Copy-3"></path>
                </g>
                <ellipse id="Oval-9" fill="#49A7FF" cx="23.734375" cy="24.7272727" rx="7.265625" ry="7.27272727"></ellipse>
                <ellipse id="Oval-9" stroke="#FFFFFF" stroke-width="1.44" fill="#49A7FF" cx="23.8125" cy="24.8181818" rx="5.8125" ry="5.81818182"></ellipse>
                <polygon id="￥" fill="#FFFFFF" points="21 22 22.4539249 22 24 24.5294118 25.5460751 22 27 22 25.0341297 24.9243697 26.3447099 24.9243697 26.3447099 25.4789916 24.6552901 25.4789916 24.6450512 25.487395 24.6450512 26.1848739 26.3447099 26.1848739 26.3447099 26.7394958 24.6450512 26.7394958 24.6450512 28 23.3549488 28 23.3549488 26.7394958 21.665529 26.7394958 21.665529 26.1848739 23.3549488 26.1848739 23.3549488 25.487395 23.3447099 25.4789916 21.665529 25.4789916 21.665529 24.9243697 22.9658703 24.9243697"></polygon>
            </g>
        </g>
    </g>
</svg>