<svg width="60" height="60" xmlns="http://www.w3.org/2000/svg" xmlns:xlink="http://www.w3.org/1999/xlink"><defs><rect id="a" x="3.875" y="0" width="24.219" height="26.182" rx="1.92"/><rect id="b" x="0" y="4.879" width="24.219" height="26.182" rx="1.92"/></defs><g fill="none" fill-rule="evenodd"><circle fill="#49A7FF" cx="30" cy="30" r="30"/><g transform="translate(16 14)"><use fill="#49A7FF" xlink:href="#a"/><rect stroke="#FFF" stroke-width="1.5" x="4.625" y=".75" width="22.719" height="24.682" rx="1.92"/><use fill="#49A7FF" xlink:href="#b"/><rect stroke="#FFF" stroke-width="1.5" x=".75" y="5.629" width="22.719" height="24.682" rx="1.92"/><rect fill="#FFF" x="4" y="9" width="14" height="2" rx="1"/><rect fill="#FFF" x="4" y="16.136" width="14" height="2" rx="1"/><rect fill="#FFF" x="3.875" y="23.273" width="10" height="2" rx="1"/><path fill="#49A7FF" d="M16 19h13v14H16z"/><g fill="#FFF"><path d="M18.548 26L18 25.205 23.426 20 29 25.169l-.82.534-4.793-4.407L18.548 26zm8.48 0h.97v1.593c0 .736.005 1.473-.001 2.21-.006.735-.392 1.191-1.025 1.193-2.323.006-4.646.005-6.969 0-.55 0-.98-.392-.99-.969-.024-1.327-.008-2.655-.008-4.018h.928v3.864h7.096V26z" fill-rule="nonzero"/><path d="M25.599 24.158v4.135H26v.544h-3.051v-.544h.45v-4.135h2.2zm-1.66 4.135h1.103v-.864h-1.103v.864zm0-1.396h1.103v-.859h-1.103v.859zm0-1.392h1.103v-.815h-1.103v.815zm-2.784-.108h.782v-.63c-.214.026-.428.054-.648.075l-.112-.51A8.33 8.33 0 0 0 22.97 24l.193.522c-.214.054-.434.108-.67.157v.718h.68v.538h-.68v.217c.247.212.493.446.745.707l-.31.478c-.172-.25-.317-.451-.434-.614V29h-.557v-2.234a5.653 5.653 0 0 1-.701 1.218L21 27.39a4.1 4.1 0 0 0 .878-1.456h-.723v-.538z"/></g></g></g></svg>