<?xml version="1.0" encoding="UTF-8"?>
<svg width="60px" height="60px" viewBox="0 0 60 60" version="1.1" xmlns="http://www.w3.org/2000/svg" xmlns:xlink="http://www.w3.org/1999/xlink">
    <!-- Generator: Sketch 49.3 (51167) - http://www.bohemiancoding.com/sketch -->
    <title>advancePayment</title>
    <desc>Created with Sketch.</desc>
    <defs>
        <rect id="path-1" x="3.875" y="0" width="24.21875" height="26.1818182" rx="1.92"></rect>
        <rect id="path-2" x="0" y="4.87878788" width="24.21875" height="26.1818182" rx="1.92"></rect>
    </defs>
    <g id="icon" stroke="none" stroke-width="1" fill="none" fill-rule="evenodd">
        <g id="advancePayment">
            <circle id="Oval-Copy" fill="#49A7FF" cx="30" cy="30" r="30"></circle>
            <g id="Group-80" transform="translate(16.000000, 14.000000)">
                <g id="Group-78">
                    <g id="Rectangle-15">
                        <use fill="#49A7FF" fill-rule="evenodd" xlink:href="#path-1"></use>
                        <rect stroke="#FFFFFF" stroke-width="1.5" x="4.625" y="0.75" width="22.71875" height="24.6818182" rx="1.92"></rect>
                    </g>
                    <g id="Rectangle-15-Copy">
                        <use fill="#49A7FF" fill-rule="evenodd" xlink:href="#path-2"></use>
                        <rect stroke="#FFFFFF" stroke-width="1.5" x="0.75" y="5.62878788" width="22.71875" height="24.6818182" rx="1.92"></rect>
                    </g>
                    <rect id="Rectangle-16-Copy" fill="#FFFFFF" x="4" y="9" width="14" height="2" rx="1"></rect>
                    <rect id="Rectangle-16-Copy-3" fill="#FFFFFF" x="4" y="16.1363636" width="14" height="2" rx="1"></rect>
                    <rect id="Rectangle-16-Copy-2" fill="#FFFFFF" x="3.875" y="23.2727273" width="10" height="2" rx="1"></rect>
                    <rect id="Rectangle-30" fill="#49A7FF" x="16" y="19" width="13" height="14"></rect>
                    <g id="Group-79" transform="translate(18.000000, 20.000000)" fill="#FFFFFF">
                        <path d="M0.548073644,6 C0.333405516,5.68855227 0.164171998,5.44298326 0,5.20488205 C1.80618968,3.47223696 3.6021372,1.74937528 5.42577425,0 C7.23208302,1.67498673 9.09984464,3.40693714 11,5.16893241 C10.7138751,5.35533793 10.4549037,5.52402913 10.1808074,5.70256162 C8.57374397,4.22515316 6.97710134,2.75735442 5.38730668,1.29586568 C3.77869506,2.85953013 2.18354112,4.41016932 0.548073644,6 Z M9.02873126,6 C9.37778366,6 9.66847737,6 9.99835183,6 C9.99835183,6.54749433 9.99835183,7.07000913 9.99835183,7.59252395 C9.99835183,8.32949907 10.0028885,9.06647418 9.99690833,9.80337026 C9.99099685,10.5382901 9.605307,10.9944827 8.97195355,10.9960637 C6.64894724,11.0016762 4.32600966,11.0008857 2.00300335,10.9962218 C1.45296055,10.9951151 1.02355323,10.6037428 1.01310502,10.0274746 C0.989046665,8.70031857 1.00547509,7.372214 1.00547509,6.00940684 C1.30689194,6.00940684 1.59676079,6.00940684 1.93344032,6.00940684 C1.93344032,7.28470659 1.93344032,8.56609313 1.93344032,9.87301254 C4.31817351,9.87301254 6.65678338,9.87301254 9.02873126,9.87301254 C9.02873126,8.58427444 9.02873126,7.3133224 9.02873126,6 Z" id="Shape" fill-rule="nonzero"></path>
                        <path d="M7.59850107,4.1576087 L7.59850107,8.29347826 L8,8.29347826 L8,8.83695652 L4.94860814,8.83695652 L4.94860814,8.29347826 L5.39828694,8.29347826 L5.39828694,4.1576087 L7.59850107,4.1576087 Z M5.93897216,8.29347826 L7.04175589,8.29347826 L7.04175589,7.42934783 L5.93897216,7.42934783 L5.93897216,8.29347826 Z M5.93897216,6.89673913 L7.04175589,6.89673913 L7.04175589,6.03804348 L5.93897216,6.03804348 L5.93897216,6.89673913 Z M5.93897216,5.50543478 L7.04175589,5.50543478 L7.04175589,4.69021739 L5.93897216,4.69021739 L5.93897216,5.50543478 Z M3.15524625,5.39673913 L3.93683084,5.39673913 L3.93683084,4.76630435 C3.72269807,4.79347826 3.50856531,4.82065217 3.28907923,4.8423913 L3.17665953,4.33152174 C3.84582441,4.27717391 4.44539615,4.16304348 4.97002141,4 L5.1627409,4.52173913 C4.94860814,4.57608696 4.72912206,4.63043478 4.49357602,4.67934783 L4.49357602,5.39673913 L5.17344754,5.39673913 L5.17344754,5.93478261 L4.49357602,5.93478261 L4.49357602,6.15217391 C4.73982869,6.36413043 4.98608137,6.59782609 5.23768737,6.85869565 L4.92719486,7.33695652 C4.75588865,7.08695652 4.61134904,6.88586957 4.49357602,6.72282609 L4.49357602,9 L3.93683084,9 L3.93683084,6.76630435 C3.74946467,7.21195652 3.51391863,7.61413043 3.23554604,7.98369565 L3,7.39130435 C3.39614561,6.96195652 3.69057816,6.47826087 3.87794433,5.93478261 L3.15524625,5.93478261 L3.15524625,5.39673913 Z" id="租"></path>
                    </g>
                </g>
            </g>
        </g>
    </g>
</svg>