<?xml version="1.0" encoding="UTF-8"?>
<svg width="30px" height="29px" viewBox="0 0 30 29" version="1.1" xmlns="http://www.w3.org/2000/svg" xmlns:xlink="http://www.w3.org/1999/xlink">
    <!-- Generator: Sketch 48.2 (47327) - http://www.bohemiancoding.com/sketch -->
    <title>Combined Shape</title>
    <desc>Created with Sketch.</desc>
    <defs></defs>
    <g id="Artboard" stroke="none" stroke-width="1" fill="none" fill-rule="evenodd" transform="translate(-658.000000, -996.000000)">
        <g id="纳税申报" fill="#FFFFFF">
            <g id="01-拷贝-7">
                <path d="M664.052991,997 L664.052991,997 C664.052991,997.552285 663.605276,998 663.052991,998 L659.970703,998 C660.042847,998 659.970703,1004.84888 659.970703,1010.18402 C659.970703,1011.87677 659.970703,1014.81545 659.970703,1019.00004 C659.970703,1019.06472 661.357788,1019.03224 664.052991,1019.00004 C665.229842,1018.98598 667.560058,1018.98598 671.04364,1019.00004 C671.476238,1019.00004 672.045105,1019.59505 672.045105,1020.02405 C672.045105,1020.45291 671.476238,1021.02435 671.04364,1021.02435 L659.970703,1021.02435 C658.720396,1021.02435 658,1020.30462 658,1019.06472 L658,998.248455 C658,997.008515 659.017392,996 660.267699,996 L663.052991,996 C663.605276,996 664.052991,996.447715 664.052991,997 Z M677.000038,996 L679.88525,996 C681.135557,996 682.070078,996.76006 682.069946,998 L681.999695,1007.00002 C681.999695,1007.42886 681.432623,1008.00003 681.000025,1008.00003 C680.567559,1008.00003 680.00009,1007.42886 680.00009,1007.00002 L680.00009,998 C679.000073,998 678.000055,998 677.000038,998 L677.000038,998 C676.447753,998 676.000038,997.552285 676.000038,997 L676.000038,997 C676.000038,996.447715 676.447753,996 677.000038,996 Z M677.023865,1015.76874 L676.355896,1016.54449 L679.646434,1019.68201 L683.759216,1015.69409 L683.034729,1014.987 L679.646411,1018.26772 L677.023865,1015.76874 Z M672.442282,1017.28685 C672.442282,1013.03388 675.931809,1009.57396 680.221323,1009.57396 C684.510606,1009.57396 688,1013.03417 688,1017.28685 C688,1021.53996 684.510606,1025 680.221323,1025 C675.931809,1025 672.442282,1021.53996 672.442282,1017.28685 Z M674.008532,1017.28685 C674.008532,1020.68357 676.795585,1023.447 680.221323,1023.447 C683.646961,1023.447 686.433883,1020.68357 686.433883,1017.28685 C686.433883,1013.89027 683.646961,1011.12696 680.221323,1011.12696 C676.795585,1011.12696 674.008532,1013.89027 674.008532,1017.28685 Z M664,1002.00002 L676.00004,1002.00002 C676.552325,1002.00002 677.00004,1002.44774 677.00004,1003.00002 C677.00004,1003.55231 676.552325,1004.00003 676.00004,1004.00003 L664,1004.00003 C663.447715,1004.00003 663,1003.55231 663,1003.00003 C663,1002.44774 663.447715,1002.00002 664,1002.00002 Z M664,1007.00002 L676.00004,1007.00002 C676.552325,1007.00002 677.00004,1007.44774 677.00004,1008.00002 C677.00004,1008.55231 676.552325,1009.00003 676.00004,1009.00003 L664,1009.00003 C663.447715,1009.00003 663,1008.55231 663,1008.00003 C663,1007.44774 663.447715,1007.00002 664,1007.00002 Z M666.941528,996 L673.008532,996 C673.560816,996 674.008532,996.447715 674.008532,997 C674.008532,997.552285 673.560816,998 673.008532,998 L666.941528,998 C666.389244,998 665.941528,997.552285 665.941528,997 C665.941528,996.447715 666.389244,996 666.941528,996 Z" id="Combined-Shape"></path>
            </g>
        </g>
    </g>
</svg>