<svg id="组_2_拷贝" data-name="组 2 拷贝" xmlns="http://www.w3.org/2000/svg" width="30" height="29" viewBox="0 0 30 29">
  <metadata><?xpacket begin="﻿" id="W5M0MpCehiHzreSzNTczkc9d"?>
<x:xmpmeta xmlns:x="adobe:ns:meta/" x:xmptk="Adobe XMP Core 5.6-c138 79.159824, 2016/09/14-01:09:01        ">
   <rdf:RDF xmlns:rdf="http://www.w3.org/1999/02/22-rdf-syntax-ns#">
      <rdf:Description rdf:about=""/>
   </rdf:RDF>
</x:xmpmeta>
                                                                                                    
                                                                                                    
                                                                                                    
                                                                                                    
                                                                                                    
                                                                                                    
                                                                                                    
                                                                                                    
                                                                                                    
                                                                                                    
                                                                                                    
                                                                                                    
                                                                                                    
                                                                                                    
                                                                                                    
                                                                                                    
                                                                                                    
                                                                                                    
                                                                                                    
                                                                                                    
                           
<?xpacket end="w"?></metadata>
<defs>
    <style>
      .cls-1 {
        fill: #fff;
        fill-rule: evenodd;
      }
    </style>
  </defs>
  <path id="形状_598" data-name="形状 598" class="cls-1" d="M394.339,1941.36l-4.763,4.34-1.882-1.71a1.509,1.509,0,0,0-2.058,0,1.253,1.253,0,0,0,0,1.87l2.94,2.63a1.7,1.7,0,0,0,2.117,0l5.821-5.31a1.211,1.211,0,0,0,0-1.87,1.743,1.743,0,0,0-2.175.05h0Z" transform="translate(-380 -1937)"/>
  <path id="形状_597" data-name="形状 597" class="cls-1" d="M391.748,1966h-9.915a1.831,1.831,0,0,1-1.833-1.8v-25.4a1.831,1.831,0,0,1,1.833-1.8h21.36a1.831,1.831,0,0,1,1.833,1.8v7.32A1.036,1.036,0,0,1,404,1947a1.12,1.12,0,0,1-1-1v-7c0-.05.048,0,0,0H382c-0.048,0,0-.05,0,0v25c0,0.05-.048,0,0,0h10a1.12,1.12,0,0,1,1,1,1.409,1.409,0,0,1-1.252,1h0Zm0,0,18.013-10.02a1.252,1.252,0,0,0-1.212-1.16h-0.063a1.659,1.659,0,0,1-1.658-1.63,1.57,1.57,0,0,1,.159-0.61,1.474,1.474,0,0,0-.542-1.79h-0.016l-2.088-1.12-0.064-.04a1.286,1.286,0,0,0-.589-0.11,1.606,1.606,0,0,0-1.116.46,3.061,3.061,0,0,1-1.307.77,3.158,3.158,0,0,1-1.339-.77,1.513,1.513,0,0,0-1.116-.46,1.942,1.942,0,0,0-.622.11h-0.032L396,1950.79l-0.063.04a1.41,1.41,0,0,0-.495,1.74,1.476,1.476,0,0,1,.16.61,1.662,1.662,0,0,1-1.658,1.63h-0.1a1.249,1.249,0,0,0-1.179,1.16,11.59,11.59,0,0,0-.176,1.67,11.811,11.811,0,0,0,.176,1.68,1.309,1.309,0,0,0,1.211,1.16h0.064a1.666,1.666,0,0,1,1.658,1.63,1.315,1.315,0,0,1-.16.61,1.468,1.468,0,0,0,.542,1.79h0.032l2.057,1.13,0.063,0.03a1.292,1.292,0,0,0,.59.11,1.523,1.523,0,0,0,1.148-.49,2.854,2.854,0,0,1,1.339-.81,2.984,2.984,0,0,1,1.371.81,1.52,1.52,0,0,0,1.147.49,1.7,1.7,0,0,0,.622-0.11h0.032l2.1-1.16,0.064-.03a1.413,1.413,0,0,0,.494-1.74,2.049,2.049,0,0,1-.159-0.61,1.662,1.662,0,0,1,1.657-1.63h0.1a1.259,1.259,0,0,0,1.18-1.16,9.31,9.31,0,0,0,.175-1.68c-0.048-.66-0.207-1.47-0.239-1.68h0Zm-4.575,6.49a3.006,3.006,0,0,0,.175,1.02l-1.371.77a5.856,5.856,0,0,0-.605-0.49,3.637,3.637,0,0,0-2.2-.83,3.493,3.493,0,0,0-2.152.83c-0.239.18-.43,0.35-0.574,0.47l-1.307-.72a2.781,2.781,0,0,0,.175-1.02,3.857,3.857,0,0,0-3.267-3.76,7.043,7.043,0,0,1-.112-1.02,5.436,5.436,0,0,1,.112-1.02,3.881,3.881,0,0,0,3.267-3.76,2.982,2.982,0,0,0-.175-1.02l1.435-.8a4.114,4.114,0,0,0,.605.47,3.574,3.574,0,0,0,2.105.8,3.945,3.945,0,0,0,2.1-.76c0.239-.18.43-0.35,0.574-0.48l1.371,0.77a2.667,2.667,0,0,0-.176,1.02,3.85,3.85,0,0,0,3.268,3.76,7.2,7.2,0,0,1,.111,1.02,5.427,5.427,0,0,1-.111,1.02,3.8,3.8,0,0,0-3.252,3.73h0Zm-3.969-8.35a3.526,3.526,0,1,0,3.586,3.52,3.559,3.559,0,0,0-3.586-3.52h0Zm0,5.44a1.88,1.88,0,1,1,1.913-1.88,1.9,1.9,0,0,1-1.913,1.88h0Zm0,0M384,1953h7v2h-7v-2Z" transform="translate(-380 -1937)"/>
</svg>
