<?xml version="1.0" encoding="UTF-8"?>
<svg width="30px" height="29px" viewBox="0 0 30 29" version="1.1" xmlns="http://www.w3.org/2000/svg" xmlns:xlink="http://www.w3.org/1999/xlink">
    <!-- Generator: Sketch 48.2 (47327) - http://www.bohemiancoding.com/sketch -->
    <title>Combined shape 3234</title>
    <desc>Created with Sketch.</desc>
    <defs></defs>
    <g id="Artboard" stroke="none" stroke-width="1" fill="none" fill-rule="evenodd" transform="translate(-380.000000, -2061.000000)">
        <g id="流程管理" transform="translate(14.000000, 2024.000000)" fill="#FFFFFF">
            <g id="01-拷贝-5" transform="translate(330.000000, 0.000000)">
                <g id="组-2-拷贝" transform="translate(36.000000, 37.000000)">
                    <path d="M11.74816,29.000064 L1.833248,29.000064 C0.828928,29.000064 6.4e-05,28.184672 6.4e-05,27.197184 L6.4e-05,1.802752 C6.4e-05,0.815264 0.828928,3.19999999e-05 1.833248,3.19999999e-05 L23.19344,3.19999999e-05 C24.1976,3.19999999e-05 25.026496,0.815264 25.026496,1.802752 L25.026496,9.123264 C25.026496,9.593536 24.478272,10.000032 23.999968,10.000032 C23.521952,10.000032 23.000032,9.470304 23.000032,9.000032 L23.000032,2.000064 C23.000032,1.952832 23.047648,2.000064 23.000032,2.000064 L2.000064,2.000064 C1.952192,2.000064 2.000064,1.952832 2.000064,2.000064 L2.000064,27.000032 C2.000064,27.047104 1.952192,27.000032 2.000064,27.000032 L11.999968,27.000032 C12.47824,27.000032 13.000032,27.52992 13.000032,28.000032 C13.000032,28.470336 12.226464,29.000064 11.74816,29.000064 Z M29.760928,18.98336 C29.792736,19.18704 29.952128,20.001984 30,20.66048 C30,21.365888 29.856512,22.243712 29.824704,22.33776 C29.697152,23.043328 29.234912,23.497824 28.645088,23.497824 L28.549504,23.497824 C27.6408,23.497824 26.891616,24.250176 26.891616,25.12816 C26.891616,25.347488 27.019168,25.645216 27.051008,25.739392 C27.337952,26.350784 27.114784,27.087488 26.556928,27.479264 L26.493024,27.510848 L24.38896,28.670752 L24.356992,28.670752 C24.133824,28.74912 23.958528,28.780416 23.73536,28.780416 C23.305088,28.780416 22.858624,28.608 22.587584,28.294496 C22.316704,28.027904 21.61536,27.479264 21.2168,27.479264 C20.866176,27.479264 20.196704,27.965312 19.877792,28.294496 C19.606912,28.608 19.160448,28.780416 18.730144,28.780416 C18.522912,28.780416 18.31552,28.764768 18.140224,28.670752 L18.076576,28.639296 L16.020224,27.510848 L15.988288,27.510848 C15.382688,27.087488 15.175328,26.334976 15.446368,25.723584 C15.510016,25.645216 15.605856,25.33184 15.605856,25.112352 C15.605856,24.21888 14.840512,23.482176 13.947872,23.482176 L13.884192,23.482176 C13.294272,23.482176 12.784288,22.980448 12.672768,22.322112 C12.672768,22.275008 12.497344,21.381536 12.497344,20.644672 C12.497344,19.908128 12.672768,18.998688 12.672768,18.967552 C12.800224,18.262144 13.262592,17.807488 13.852256,17.807488 L13.947872,17.807488 C14.856544,17.807488 15.605856,17.055136 15.605856,16.177152 C15.605856,15.957824 15.510016,15.675744 15.446368,15.56592 C15.159424,14.954528 15.382688,14.217824 15.940544,13.82576 L16.004192,13.794624 L18.156288,12.63456 L18.188096,12.63456 C18.411392,12.556192 18.586688,12.524736 18.809728,12.524736 C19.208192,12.524736 19.654496,12.665856 19.925664,12.979392 C20.21248,13.214656 20.866176,13.74752 21.26464,13.74752 C21.631296,13.74752 22.316704,13.214656 22.57168,12.979392 C22.858624,12.697312 23.257088,12.524736 23.687488,12.524736 C23.89488,12.524736 24.102016,12.540544 24.277312,12.63456 L24.341216,12.665856 L26.429376,13.794624 L26.44528,13.794624 C27.051008,14.217824 27.258112,14.970336 26.987232,15.581568 C26.923424,15.70704 26.82784,15.973472 26.82784,16.19296 C26.82784,17.086432 27.593056,17.823136 28.485728,17.823136 L28.549504,17.823136 C29.170976,17.823136 29.64928,18.277792 29.760928,18.98336 Z M25.185984,25.47296 C25.185984,23.59184 26.604672,22.008576 28.437856,21.742016 C28.501504,21.444128 28.549504,21.036736 28.549504,20.7232 C28.549504,20.409696 28.485728,20.001984 28.437856,19.704256 C26.58864,19.4064 25.17008,17.823136 25.17008,15.942016 C25.17008,15.550272 25.233856,15.174016 25.345504,14.923232 L23.97456,14.154944 C23.830976,14.280384 23.639776,14.45296 23.400672,14.625376 C22.667424,15.111424 21.966112,15.393376 21.296608,15.393376 C20.626976,15.393376 19.925664,15.126944 19.192384,14.59408 C18.93728,14.421504 18.714112,14.249248 18.586688,14.123776 L17.151968,14.923232 C17.263616,15.22112 17.327264,15.581568 17.327264,15.942016 C17.327264,17.776224 15.908608,19.4064 14.059488,19.704256 C13.995712,20.001984 13.947872,20.409696 13.947872,20.7232 C13.947872,21.036736 14.011776,21.444128 14.059488,21.742016 C15.908608,22.039872 17.327264,23.623136 17.327264,25.504096 C17.327264,25.864864 17.263616,26.272256 17.151968,26.5232 L18.459008,27.244416 C18.602592,27.118944 18.793824,26.9464 19.032896,26.773984 C19.766144,26.194016 20.515456,25.943104 21.18496,25.943104 C21.902176,25.943104 22.651488,26.209664 23.38464,26.773984 C23.639776,26.962016 23.862912,27.134592 23.990496,27.259904 L25.36128,26.491744 C25.249632,26.194016 25.185984,25.833408 25.185984,25.47296 Z M21.2168,17.117728 C23.209472,17.117728 24.81936,18.700992 24.803328,20.644672 C24.803328,22.588704 23.19344,24.171776 21.2168,24.171776 C19.240128,24.171776 17.63024,22.588704 17.63024,20.644672 C17.63024,18.700992 19.240128,17.117728 21.2168,17.117728 Z M21.2168,22.557248 C22.252928,22.557248 23.129664,21.71072 23.129664,20.676128 C23.129664,19.641696 22.268832,18.795008 21.2168,18.795008 C20.164736,18.795008 19.304032,19.641696 19.304032,20.676128 C19.304032,21.71072 20.164736,22.557248 21.2168,22.557248 Z M3.999936,16 L11.000032,16 L11.000032,18.000032 L3.999936,18.000032 L3.999936,16 Z M14.33875,4.363075 C14.867725,3.827232 15.808495,3.827232 16.51405,4.309285 C17.102185,4.791492 17.102185,5.648601 16.51405,6.184444 L10.692925,11.487775 C10.39879,11.755691 10.04602,11.862688 9.6346,11.862688 C9.22279,11.862688 8.87002,11.755691 8.576275,11.487775 L5.636005,8.862779 C5.048005,8.380583 5.10703,7.52376 5.636005,6.988071 C6.165355,6.452217 7.10614,6.452217 7.69414,6.988071 L9.57583,8.7023 L14.33875,4.363075 Z" id="Combined-shape-3234"></path>
                </g>
            </g>
        </g>
    </g>
</svg>