<?xml version="1.0" encoding="UTF-8"?>
<svg width="60px" height="60px" viewBox="0 0 60 60" version="1.1" xmlns="http://www.w3.org/2000/svg" xmlns:xlink="http://www.w3.org/1999/xlink">
    <!-- Generator: Sketch 49.3 (51167) - http://www.bohemiancoding.com/sketch -->
    <title>业务报表-可售面积</title>
    <desc>Created with Sketch.</desc>
    <defs></defs>
    <g id="icon" stroke="none" stroke-width="1" fill="none" fill-rule="evenodd">
        <g id="业务报表-可售面积">
            <circle id="Oval-Copy" fill="#F79E45" cx="30" cy="30" r="30"></circle>
            <g id="Group-18" transform="translate(15.000000, 16.000000)">
                <path d="M29.5876609,11.7916154 L16.6759848,0.582224707 C15.7252191,-0.194074902 14.2782508,-0.194074902 13.3274851,0.582224707 L0.412339078,11.7916154 C-0.10121321,12.2079374 -0.139382637,12.918502 0.322120432,13.3817775 C0.783623502,13.8450531 1.57477162,13.8794857 2.08485396,13.4631638 L15,2.25377306 L27.915146,13.4631638 C28.4286983,13.8794857 29.2163765,13.8450531 29.6778796,13.3817775 C30.1393826,12.918502 30.1012132,12.2079374 29.5876609,11.7916154 Z M26.1385327,15.9485746 C25.4480131,15.9485746 24.8893515,16.4525433 24.8893515,17.0754612 L24.8893515,25.7462269 L19.927326,25.7462269 L19.927326,18.2336501 C19.927326,16.9878144 18.8100028,15.979877 17.4289635,15.979877 L12.5710365,15.979877 C11.1899972,15.979877 10.072674,16.9878144 10.072674,18.2336501 L10.072674,25.7462269 L5.11064852,25.7462269 L5.11064852,17.0754612 C5.11064852,16.4525433 4.55198691,15.9485746 3.86146728,15.9485746 C3.17094765,15.9485746 2.61228604,16.4525433 2.61228604,17.0754612 L2.61228604,25.7462269 C2.61228604,26.9920626 3.72960926,28 5.11064852,28 L24.8893515,28 C26.2703907,28 27.387714,26.9920626 27.387714,25.7462269 L27.387714,17.0754612 C27.387714,16.4525433 26.8290524,15.9485746 26.1385327,15.9485746 Z M12.5710365,18.2336501 L17.4289635,18.2336501 L17.4289635,25.7462269 L12.5710365,25.7462269 L12.5710365,18.2336501 Z" id="Shape" fill="#FFFFFF" fill-rule="nonzero"></path>
                <rect id="Rectangle-20" fill="#F79E45" x="7" y="11" width="16" height="14.8000002"></rect>
                <path d="M20.6950673,13 C21.0717489,13 21.3811659,13.0947867 21.6233184,13.2843602 C21.8654709,13.4620853 21.9865471,13.6990521 21.9865471,13.9952607 C21.9865471,14.2085308 21.8923767,14.4218009 21.7040359,14.6350711 C21.5560538,14.8009479 21.3542601,14.9549763 21.0986547,15.1090047 C20.9641256,15.1800948 20.8161435,15.2748815 20.6547085,15.3933649 C20.5336323,15.4763033 20.3991031,15.57109 20.264574,15.6777251 L22,15.6777251 L22,16.2819905 L19.2690583,16.2819905 C19.2825112,15.8791469 19.4573991,15.5236967 19.793722,15.2393365 C19.8475336,15.1800948 20.1569507,14.978673 20.7085202,14.6350711 C20.8565022,14.5402844 20.9775785,14.4454976 21.058296,14.3507109 C21.1524664,14.2322275 21.206278,14.1255924 21.206278,14.0189573 C21.206278,13.8767773 21.1524664,13.7582938 21.0717489,13.6872038 C20.9910314,13.6161137 20.8565022,13.5805687 20.6816143,13.5805687 C20.4663677,13.5805687 20.3183857,13.6279621 20.2242152,13.7464455 C20.1165919,13.8530806 20.0627803,14.0189573 20.0627803,14.2559242 L19.2825112,14.2559242 C19.2825112,13.9004739 19.4170404,13.6042654 19.6860987,13.3672986 C19.955157,13.1184834 20.2914798,13 20.6950673,13 Z M13.4170404,16.7085308 C14.4394619,16.7085308 15.1659193,17.0402844 15.6098655,17.7037915 C15.9327354,17.3246445 16.2690583,17.063981 16.6188341,16.9218009 C16.9282511,16.7796209 17.3183857,16.7085308 17.7892377,16.7085308 C18.5022422,16.7085308 19.0941704,16.9099526 19.5650224,17.3364929 C20.0358744,17.7630332 20.2780269,18.3080569 20.2780269,18.9834123 L20.2780269,23 L18.7443946,23 L18.7443946,19.2203791 C18.7443946,18.7345972 18.6233184,18.3791469 18.3946188,18.1658768 C18.1524664,17.9407583 17.7757848,17.8341232 17.2376682,17.8341232 C16.8609865,17.8341232 16.5515695,17.9526066 16.2959641,18.2132701 C16.0269058,18.4620853 15.9058296,18.8056872 15.9058296,19.2559242 L15.9058296,23 L14.3721973,23 L14.3721973,19.2322275 C14.3721973,18.2962085 13.9147982,17.8341232 13,17.8341232 C12.5560538,17.8341232 12.206278,17.9763033 11.9372197,18.2843602 C11.6681614,18.5687204 11.5336323,18.9241706 11.5336323,19.3270142 L11.5336323,23 L10,23 L10,16.8744076 L11.5336323,16.8744076 L11.5336323,17.5023697 C12.1121076,16.9691943 12.7443946,16.7085308 13.4170404,16.7085308 Z" id="㎡" fill="#FFFFFF"></path>
            </g>
        </g>
    </g>
</svg>