<svg width="60" height="60" xmlns="http://www.w3.org/2000/svg"><g fill="none" fill-rule="evenodd"><circle fill="#F79E45" cx="30" cy="30" r="30"/><path d="M44.588 27.792l-12.912-11.21c-.95-.776-2.398-.776-3.349 0l-12.915 11.21c-.513.416-.551 1.127-.09 1.59.462.463 1.253.497 1.763.081L30 18.253l12.915 11.21c.514.416 1.301.382 1.763-.081.461-.463.423-1.174-.09-1.59zm-3.45 4.157c-.69 0-1.249.504-1.249 1.126v8.671h-4.962v-7.512c0-1.246-1.117-2.254-2.498-2.254h-4.858c-1.381 0-2.498 1.008-2.498 2.254v7.512H20.11v-8.67c0-.623-.559-1.127-1.25-1.127-.69 0-1.249.504-1.249 1.126v8.671c0 1.246 1.118 2.254 2.499 2.254h19.778c1.381 0 2.499-1.008 2.499-2.254v-8.67c0-.623-.559-1.127-1.25-1.127zm-13.567 2.285h4.858v7.512h-4.858v-7.512z" fill="#FFF" fill-rule="nonzero"/><path fill="#F79E45" d="M22 27h16v14.8H22z"/><path d="M35.695 29c.377 0 .686.095.928.284a.839.839 0 0 1 .364.711c0 .214-.095.427-.283.64-.148.166-.35.32-.605.474a3.636 3.636 0 0 0-.444.284 6.912 6.912 0 0 0-.39.285H37v.604h-2.73c.013-.403.187-.758.524-1.043.054-.059.363-.26.915-.604.148-.095.269-.19.35-.284.093-.119.147-.225.147-.332a.438.438 0 0 0-.134-.332c-.081-.07-.215-.106-.39-.106-.216 0-.364.047-.458.165-.107.107-.161.273-.161.51h-.78c0-.356.134-.652.403-.889.27-.249.605-.367 1.01-.367zm-7.278 3.709c1.022 0 1.749.331 2.193.995.323-.38.66-.64 1.009-.782.31-.142.7-.213 1.17-.213.713 0 1.305.201 1.776.627.47.427.713.972.713 1.647V39h-1.534v-3.78c0-.485-.12-.84-.35-1.054-.242-.225-.618-.332-1.156-.332-.377 0-.686.119-.942.38-.27.248-.39.592-.39 1.042V39h-1.534v-3.768c0-.936-.457-1.398-1.372-1.398-.444 0-.794.142-1.063.45-.269.285-.403.64-.403 1.043V39H25v-6.126h1.534v.628c.578-.533 1.21-.793 1.883-.793z" fill="#FFF"/></g></svg>