<svg width="60" height="60" xmlns="http://www.w3.org/2000/svg" xmlns:xlink="http://www.w3.org/1999/xlink"><defs><path d="M44.375 42.65h-.938V18.7c0-1.485-1.124-2.699-2.5-2.699h-2.5c-1.374 0-2.5 1.214-2.5 2.699V42.65h-1.874V24.77c0-1.484-1.126-2.699-2.5-2.699h-2.5c-1.375 0-2.5 1.215-2.5 2.7V42.65h-1.875V30.843c0-1.484-1.125-2.698-2.5-2.698h-2.5c-1.375 0-2.5 1.214-2.5 2.698v11.808h-1.563c-.375 0-.625.27-.625.674 0 .405.25.675.625.675h28.75c.375 0 .625-.27.625-.675s-.25-.674-.625-.674zM37.187 18.7c0-.742.563-1.35 1.25-1.35h2.5c.688 0 1.25.608 1.25 1.35v23.614h-5V18.7zm-9.374 6.072c0-.742.562-1.35 1.25-1.35h2.5c.687 0 1.25.608 1.25 1.35v17.542h-5V24.771zm-9.375 6.072c0-.742.562-1.349 1.25-1.349h2.5c.687 0 1.25.607 1.25 1.35v11.47h-5v-11.47z" id="a"/></defs><g fill="none" fill-rule="evenodd"><circle fill="#2A98FF" cx="30" cy="30" r="30"/><g fill-rule="nonzero"><use fill="#FFF" fill-rule="evenodd" xlink:href="#a"/><path stroke="#FFF" stroke-width=".3" d="M17.038 42.5V30.844c0-1.564 1.189-2.848 2.65-2.848h2.5c1.46 0 2.65 1.284 2.65 2.848v11.658h1.575V24.77c0-1.565 1.189-2.849 2.65-2.849h2.5c1.46 0 2.65 1.284 2.65 2.85V42.5h1.575V18.699c0-1.565 1.189-2.849 2.65-2.849h2.5c1.46 0 2.65 1.284 2.65 2.849V42.5h.787c.46 0 .775.34.775.824 0 .486-.314.825-.775.825h-28.75c-.46 0-.775-.34-.775-.825 0-.485.314-.824.775-.824h1.413zm20.3-.337h4.7V18.7c0-.662-.499-1.2-1.1-1.2h-2.5c-.602 0-1.1.538-1.1 1.2v23.464zm-9.376 0h4.7V24.771c0-.662-.498-1.2-1.1-1.2h-2.5c-.601 0-1.1.538-1.1 1.2v17.392zm-9.375 0h4.7v-11.32c0-.661-.498-1.199-1.1-1.199h-2.5c-.601 0-1.1.538-1.1 1.2v11.32z"/></g></g></svg>