<svg width="60" height="60" xmlns="http://www.w3.org/2000/svg" xmlns:xlink="http://www.w3.org/1999/xlink"><defs><rect id="a" x="0" y="0" width="25" height="27" rx="2"/><path d="M22 22.867V19.8a.8.8 0 0 1 .8-.8h.4a.8.8 0 0 1 .8.8v3.067a.8.8 0 0 1-.8.8h-.4a.8.8 0 0 1-.8-.8zm0 2.355c0 .43.448.778 1 .778s1-.348 1-.778c0-.43-.448-.778-1-.778s-1 .349-1 .778z" id="b"/></defs><g fill="none" fill-rule="evenodd"><circle fill="#05DCAC" cx="30" cy="30" r="30"/><g transform="translate(15 15)"><use fill="#05DCAC" xlink:href="#a"/><rect stroke="#FFF" stroke-width="1.5" x=".75" y=".75" width="23.5" height="25.5" rx="2"/><rect fill="#FFF" x="5" y="5" width="15" height="1.5" rx=".75"/><rect fill="#FFF" x="5" y="10" width="15" height="1.5" rx=".75"/><rect fill="#FFF" x="5" y="15" width="10" height="1.5" rx=".75"/><circle fill="#05DCAC" cx="22.5" cy="22.5" r="7.5"/><g fill-rule="nonzero"><use fill="#FFF" fill-rule="evenodd" xlink:href="#b"/><path stroke="#05DCAC" stroke-width=".2" d="M22.1 22.867a.7.7 0 0 0 .7.7h.4a.7.7 0 0 0 .7-.7V19.8a.7.7 0 0 0-.7-.7h-.4a.7.7 0 0 0-.7.7v3.067zm0 2.355c0 .368.398.678.9.678s.9-.31.9-.678c0-.368-.398-.678-.9-.678s-.9.31-.9.678z"/></g><path d="M22.692 29.385a6.692 6.692 0 1 1 0-13.385 6.692 6.692 0 0 1 0 13.385zm0-1.385a5.308 5.308 0 1 0 0-10.615 5.308 5.308 0 0 0 0 10.615z" fill="#FFF" fill-rule="nonzero"/></g></g></svg>