<?xml version="1.0" encoding="UTF-8"?>
<svg width="60px" height="60px" viewBox="0 0 60 60" version="1.1" xmlns="http://www.w3.org/2000/svg" xmlns:xlink="http://www.w3.org/1999/xlink">
    <!-- Generator: Sketch 49.3 (51167) - http://www.bohemiancoding.com/sketch -->
    <title>销项管理-开票销售台账</title>
    <desc>Created with Sketch.</desc>
    <defs>
        <rect id="path-1" x="17" y="16" width="25" height="27" rx="2"></rect>
    </defs>
    <g id="icon" stroke="none" stroke-width="1" fill="none" fill-rule="evenodd">
        <g id="销项管理-开票销售台账">
            <circle id="Oval-Copy" fill="#05DCAC" cx="30" cy="30" r="30"></circle>
            <g id="Rectangle-4">
                <use fill="#05DCAC" fill-rule="evenodd" xlink:href="#path-1"></use>
                <rect stroke="#FFFFFF" stroke-width="1.5" x="17.75" y="16.75" width="23.5" height="25.5" rx="2"></rect>
            </g>
            <rect id="Rectangle-3" fill="#FFFFFF" x="22" y="21" width="15" height="1.5" rx="0.75"></rect>
            <rect id="Rectangle-3-Copy" fill="#FFFFFF" x="22" y="26" width="15" height="1.5" rx="0.75"></rect>
            <rect id="Rectangle-3-Copy-2" fill="#FFFFFF" x="22" y="31" width="10" height="1.5" rx="0.75"></rect>
            <circle id="Oval-2" fill="#05DCAC" cx="39.5" cy="38.5" r="7.5"></circle>
            <path d="M39.6923077,45.3846154 C35.9962482,45.3846154 33,42.3883672 33,38.6923077 C33,34.9962482 35.9962482,32 39.6923077,32 C43.3883672,32 46.3846154,34.9962482 46.3846154,38.6923077 C46.3846154,42.3883672 43.3883672,45.3846154 39.6923077,45.3846154 Z M39.6923077,44 C42.6236652,44 45,41.6236652 45,38.6923077 C45,35.7609502 42.6236652,33.3846154 39.6923077,33.3846154 C36.7609502,33.3846154 34.3846154,35.7609502 34.3846154,38.6923077 C34.3846154,41.6236652 36.7609502,44 39.6923077,44 Z" id="Oval-3" fill="#FFFFFF" fill-rule="nonzero"></path>
            <path d="M37.7381562,39.5990254 L43.2381562,39.5990254 C43.5142985,39.5990254 43.7381562,39.822883 43.7381562,40.0990254 C43.7381562,40.3751677 43.5142985,40.5990254 43.2381562,40.5990254 L37.2381562,40.5990254 C36.9620138,40.5990254 36.7381562,40.3751677 36.7381562,40.0990254 L36.7381562,36.0990254 C36.7381562,35.822883 36.9620138,35.5990254 37.2381562,35.5990254 C37.5142985,35.5990254 37.7381562,35.822883 37.7381562,36.0990254 L37.7381562,39.5990254 Z" id="Combined-Shape" fill="#FFFFFF" transform="translate(39.988156, 38.099025) rotate(-51.000000) translate(-39.988156, -38.099025) "></path>
        </g>
    </g>
</svg>