<?xml version="1.0" encoding="UTF-8"?>
<svg width="30px" height="29px" viewBox="0 0 30 29" version="1.1" xmlns="http://www.w3.org/2000/svg" xmlns:xlink="http://www.w3.org/1999/xlink">
    <!-- Generator: Sketch 48.2 (47327) - http://www.bohemiancoding.com/sketch -->
    <title>Combined shape 2615</title>
    <desc>Created with Sketch.</desc>
    <defs></defs>
    <g id="Artboard" stroke="none" stroke-width="1" fill="none" fill-rule="evenodd" transform="translate(-50.000000, -638.000000)">
        <g id="销项税台账" transform="translate(14.000000, 602.000000)" fill="#FFFFFF">
            <g id="01-拷贝-3">
                <path d="M54.999946,41 C55.432543,41 56.000011,41.571168 56.000011,42.000032 C56.000011,42.429024 55.432543,43.000032 54.999946,43.000032 L41.999992,43.000032 C41.567263,43.000032 41.000059,42.429024 41.000059,42.000032 C41.000059,41.571168 41.567263,41 41.999992,41 L54.999946,41 Z M54.999946,44.999936 C55.432543,44.999936 56.000011,45.571072 56.000011,45.999936 C56.000011,46.42896 55.432543,47.000096 54.999946,47.000096 L41.999992,47.000096 C41.567263,47.000096 41.000059,46.42896 41.000059,45.999936 C41.000059,45.571072 41.567263,44.999936 41.999992,44.999936 L54.999946,44.999936 Z M50.000017,49 C50.432614,49 50.99995,49.570848 50.99995,50 C50.99995,50.428864 50.432614,51.000032 50.000017,51.000032 L41.999992,51.000032 C41.567263,51.000032 41.000059,50.428864 41.000059,50 C41.000059,49.570848 41.567263,49 41.999992,49 L50.000017,49 Z M58.221274,49.573984 C62.510515,49.573984 65.999902,53.034176 65.999902,57.286816 C65.999902,61.539904 62.510515,64.999968 58.221274,64.999968 C53.931736,64.999968 50.442217,61.539904 50.442217,57.286816 C50.442217,53.033888 53.931736,49.573984 58.221274,49.573984 Z M58.221274,63.446976 C61.646872,63.446976 64.43392,60.683552 64.43392,57.286816 C64.43392,53.890272 61.646872,51.126976 58.221274,51.126976 C54.795544,51.126976 52.008496,53.890272 52.008496,57.286816 C52.008496,60.683552 54.795544,63.446976 58.221274,63.446976 Z M63.423064,54.714304 C63.729007,55.017536 63.729007,55.50912 63.423328,55.812064 L57.774949,61.412512 C57.622357,61.564192 57.421783,61.640064 57.221473,61.640064 C57.02113,61.640064 56.820556,61.564192 56.667733,61.412512 L53.123797,57.898656 C52.817986,57.595424 52.817986,57.10368 53.123797,56.800608 C53.429476,56.497376 53.925598,56.497376 54.231145,56.800608 L57.221473,59.765472 L62.315848,54.714304 C62.621263,54.410912 63.117517,54.410912 63.423064,54.714304 Z M48.937846,59.760256 C49.370443,59.760256 49.721035,60.107776 49.721035,60.536768 C49.721035,60.965632 49.370443,61.31328 48.937846,61.31328 L38.267692,61.31328 C37.017355,61.31328 35.999965,60.304608 35.999965,59.064672 L35.999965,38.248512 C35.999965,37.008576 37.017355,36.000064 38.267692,36.000064 L57.885169,36.000064 C59.135605,36.000064 60.152863,37.008576 60.152731,38.248512 L60.152731,46.870752 C60.152731,47.299616 59.802139,47.647104 59.369542,47.647104 C58.937077,47.647104 58.586485,47.299616 58.586485,46.870752 L58.586485,38.248512 C58.586485,37.865088 58.271698,37.553056 57.885037,37.553056 L38.267692,37.553056 C37.881031,37.553056 37.566244,37.865088 37.566244,38.248512 L37.566244,59.064832 C37.566244,59.448096 37.880899,59.760256 38.267692,59.760256 L48.937846,59.760256 Z" id="Combined-shape-2615"></path>
            </g>
        </g>
    </g>
</svg>