<?xml version="1.0" encoding="UTF-8"?>
<svg width="60px" height="60px" viewBox="0 0 60 60" version="1.1" xmlns="http://www.w3.org/2000/svg" xmlns:xlink="http://www.w3.org/1999/xlink">
    <!-- Generator: Sketch 49.3 (51167) - http://www.bohemiancoding.com/sketch -->
    <title>销项管理-开票销售台账</title>
    <desc>Created with Sketch.</desc>
    <defs>
        <rect id="path-1" x="0" y="0" width="25" height="27" rx="2"></rect>
    </defs>
    <g id="icon" stroke="none" stroke-width="1" fill="none" fill-rule="evenodd">
        <g id="销项管理-开票销售台账">
            <circle id="Oval-Copy" fill="#05DCAC" cx="30" cy="30" r="30"></circle>
            <g id="Group-39" transform="translate(15.000000, 15.000000)">
                <g id="Rectangle-4">
                    <use fill="#05DCAC" fill-rule="evenodd" xlink:href="#path-1"></use>
                    <rect stroke="#FFFFFF" stroke-width="1.5" x="0.75" y="0.75" width="23.5" height="25.5" rx="2"></rect>
                </g>
                <rect id="Rectangle-3" fill="#FFFFFF" x="5" y="5" width="15" height="1.5" rx="0.75"></rect>
                <rect id="Rectangle-3-Copy" fill="#FFFFFF" x="5" y="10" width="15" height="1.5" rx="0.75"></rect>
                <rect id="Rectangle-3-Copy-2" fill="#FFFFFF" x="5" y="15" width="10" height="1.5" rx="0.75"></rect>
                <circle id="Oval-2" fill="#05DCAC" cx="22.5" cy="22.5" r="7.5"></circle>
                <path d="M22.6923077,29.3846154 C18.9962482,29.3846154 16,26.3883672 16,22.6923077 C16,18.9962482 18.9962482,16 22.6923077,16 C26.3883672,16 29.3846154,18.9962482 29.3846154,22.6923077 C29.3846154,26.3883672 26.3883672,29.3846154 22.6923077,29.3846154 Z M22.6923077,28 C25.6236652,28 28,25.6236652 28,22.6923077 C28,19.7609502 25.6236652,17.3846154 22.6923077,17.3846154 C19.7609502,17.3846154 17.3846154,19.7609502 17.3846154,22.6923077 C17.3846154,25.6236652 19.7609502,28 22.6923077,28 Z" id="Oval-3" fill="#FFFFFF" fill-rule="nonzero"></path>
                <path d="M20.7381562,23.5990254 L26.2381562,23.5990254 C26.5142985,23.5990254 26.7381562,23.822883 26.7381562,24.0990254 C26.7381562,24.3751677 26.5142985,24.5990254 26.2381562,24.5990254 L20.2381562,24.5990254 C19.9620138,24.5990254 19.7381562,24.3751677 19.7381562,24.0990254 L19.7381562,20.0990254 C19.7381562,19.822883 19.9620138,19.5990254 20.2381562,19.5990254 C20.5142985,19.5990254 20.7381562,19.822883 20.7381562,20.0990254 L20.7381562,23.5990254 Z" id="Combined-Shape" fill="#FFFFFF" transform="translate(22.988156, 22.099025) rotate(-51.000000) translate(-22.988156, -22.099025) "></path>
            </g>
        </g>
    </g>
</svg>