<svg xmlns="http://www.w3.org/2000/svg" width="30" height="29" viewBox="0 0 30 29">
  <metadata><?xpacket begin="﻿" id="W5M0MpCehiHzreSzNTczkc9d"?>
<x:xmpmeta xmlns:x="adobe:ns:meta/" x:xmptk="Adobe XMP Core 5.6-c138 79.159824, 2016/09/14-01:09:01        ">
   <rdf:RDF xmlns:rdf="http://www.w3.org/1999/02/22-rdf-syntax-ns#">
      <rdf:Description rdf:about=""/>
   </rdf:RDF>
</x:xmpmeta>
                                                                                                    
                                                                                                    
                                                                                                    
                                                                                                    
                                                                                                    
                                                                                                    
                                                                                                    
                                                                                                    
                                                                                                    
                                                                                                    
                                                                                                    
                                                                                                    
                                                                                                    
                                                                                                    
                                                                                                    
                                                                                                    
                                                                                                    
                                                                                                    
                                                                                                    
                                                                                                    
                           
<?xpacket end="w"?></metadata>
<defs>
    <style>
      .cls-1 {
        fill: #fff;
        fill-rule: evenodd;
      }
    </style>
  </defs>
  <path id="形状_17" data-name="形状 17" class="cls-1" d="M69,643H56a1,1,0,0,0,0,2H69a1,1,0,0,0,0-2h0Zm0,0,0,4H56a1,1,0,0,0,0,2H69a1,1,0,0,0,0-2h0Zm0,0-5,4H56a1,1,0,0,0,0,2h8a1,1,0,0,0,0-2h0Zm0,0,8.221,0.574A7.713,7.713,0,1,0,80,659.287a7.755,7.755,0,0,0-7.779-7.713h0Zm0,13.873a6.16,6.16,0,1,1,6.213-6.16,6.193,6.193,0,0,1-6.213,6.16h0Zm0,0,5.2-8.733a0.788,0.788,0,0,0-1.107,0l-5.094,5.051-2.99-2.964a0.786,0.786,0,0,0-1.107,0,0.772,0.772,0,0,0,0,1.1l3.544,3.513a0.786,0.786,0,0,0,1.107,0l5.648-5.6a0.772,0.772,0,0,0,0-1.1h0Zm0,0M62.938,661.76H52.268a0.7,0.7,0,0,1-.7-0.695V640.248a0.7,0.7,0,0,1,.7-0.7H71.885a0.7,0.7,0,0,1,.7.7v8.623a0.783,0.783,0,0,0,1.566,0v-8.623A2.261,2.261,0,0,0,71.885,638H52.268A2.261,2.261,0,0,0,50,640.248v20.817a2.26,2.26,0,0,0,2.268,2.248h10.67a0.777,0.777,0,1,0,0-1.553h0Zm0,0" transform="translate(-50 -638)"/>
</svg>
