<svg width="60" height="60" xmlns="http://www.w3.org/2000/svg" xmlns:xlink="http://www.w3.org/1999/xlink"><defs><rect id="a" x="0" y="4" width="30" height="22" rx="2"/></defs><g fill="none" fill-rule="evenodd"><circle fill="#F79E45" cx="30" cy="30" r="30"/><g transform="translate(15 16)"><use fill="#F79E45" xlink:href="#a"/><rect stroke="#FFF" stroke-width="1.5" x=".75" y="4.75" width="28.5" height="20.5" rx="2"/><circle fill="#F79E45" cx="25" cy="22" r="6"/><path d="M4 9h12v1.206h-3.897v.777h2.973V14.2H4.924v-3.216h2.973v-.777H4V9zm6.777 1.983v-.777H9.223v.777h1.554zm2.96 2.09v-.964h-1.634v.964h1.634zm-2.96 0v-.964H9.223v.964h1.554zm-2.88 0v-.964H6.263v.964h1.634zm-2.343 1.823h8.986v1.152H5.554v-1.152zm-1.34 1.782h11.572v1.192h-4.969v1.715c0 .911-.469 1.367-1.393 1.367H8.192l-.281-1.233c.375.04.736.067 1.071.067.322 0 .496-.174.496-.509V17.87H4.214v-1.192zm8.692 1.38c1.192.616 2.197 1.22 3.027 1.822l-.978.978c-.696-.59-1.674-1.233-2.96-1.916l.911-.884zm-5.544.027l.897.817c-.884.75-1.969 1.393-3.255 1.956l-.843-1.099c1.272-.482 2.343-1.031 3.2-1.674zM19 9h8v1.5h-8zM19 12h8v1.5h-8z" fill="#FFF"/><rect fill="#FFF" x="5" y="4" width="20" height="1.5" rx=".75"/><rect fill="#FFF" x="2" width="26" height="2" rx="1"/><g transform="translate(21 18)"><path d="M4.5 9a4.5 4.5 0 1 1 0-9 4.5 4.5 0 0 1 0 9zm2.488-2.686a.748.748 0 0 1 .603.216l1.768 1.768a.75.75 0 1 1-1.06 1.06L6.53 7.592a.748.748 0 0 1-.216-.603 3.079 3.079 0 1 1 .674-.674z" fill="#FFF" fill-rule="nonzero"/><circle fill="#F79E45" cx="4.5" cy="4.5" r="3.5"/></g></g></g></svg>