<svg id="组_4" data-name="组 4" xmlns="http://www.w3.org/2000/svg" width="30" height="26" viewBox="0 0 30 26">
  <metadata><?xpacket begin="﻿" id="W5M0MpCehiHzreSzNTczkc9d"?>
<x:xmpmeta xmlns:x="adobe:ns:meta/" x:xmptk="Adobe XMP Core 5.6-c138 79.159824, 2016/09/14-01:09:01        ">
   <rdf:RDF xmlns:rdf="http://www.w3.org/1999/02/22-rdf-syntax-ns#">
      <rdf:Description rdf:about=""/>
   </rdf:RDF>
</x:xmpmeta>
                                                                                                    
                                                                                                    
                                                                                                    
                                                                                                    
                                                                                                    
                                                                                                    
                                                                                                    
                                                                                                    
                                                                                                    
                                                                                                    
                                                                                                    
                                                                                                    
                                                                                                    
                                                                                                    
                                                                                                    
                                                                                                    
                                                                                                    
                                                                                                    
                                                                                                    
                                                                                                    
                           
<?xpacket end="w"?></metadata>
<defs>
    <style>
      .cls-1 {
        fill: #fff;
        fill-rule: evenodd;
      }
    </style>
  </defs>
  <path id="形状_25" data-name="形状 25" class="cls-1" d="M1528.31,894v-2.795h1.14V894h-1.14Zm0.31-4.134a0.614,0.614,0,0,1-.43-1.061l3.98-3.921a0.83,0.83,0,0,1,1.1-.061l3.07,2.419,2.68-3.057L1537.89,883H1541v3.106l-1.07-1.071-3.05,3.366a0.8,0.8,0,0,1-1.1.083l-3.07-2.513-3.67,3.729a0.608,0.608,0,0,1-.42.166h0Zm0,0M1539.86,894v-6.345H1541V894h-1.14Zm-3.96,0v-3.632h1.14V894h-1.14Zm-3.9,0-0.05-5.393h1.14V894H1532Zm-0.05,0" transform="translate(-1520 -878)"/>
  <path id="形状_24" data-name="形状 24" class="cls-1" d="M1526.71,904a0.744,0.744,0,0,1,0-1.487H1533l-0.37-3.561h-11.48A1.108,1.108,0,0,1,1520,897.9V879.052a1.108,1.108,0,0,1,1.15-1.052h27.79a1.159,1.159,0,0,1,.85.395,0.781,0.781,0,0,1,.2.617V897.9a1.108,1.108,0,0,1-1.15,1.05h-11.48l-0.37,3.561h6.29a0.744,0.744,0,0,1,0,1.487h-16.57Zm-5.22-6.534h26.83V897l0.19,0.184V879.487h-27.02v17.979Zm0,0" transform="translate(-1520 -878)"/>
</svg>
