<svg xmlns="http://www.w3.org/2000/svg" width="23" height="30" viewBox="0 0 23 30">
  <metadata><?xpacket begin="﻿" id="W5M0MpCehiHzreSzNTczkc9d"?>
<x:xmpmeta xmlns:x="adobe:ns:meta/" x:xmptk="Adobe XMP Core 5.6-c138 79.159824, 2016/09/14-01:09:01        ">
   <rdf:RDF xmlns:rdf="http://www.w3.org/1999/02/22-rdf-syntax-ns#">
      <rdf:Description rdf:about=""/>
   </rdf:RDF>
</x:xmpmeta>
                                                                                                    
                                                                                                    
                                                                                                    
                                                                                                    
                                                                                                    
                                                                                                    
                                                                                                    
                                                                                                    
                                                                                                    
                                                                                                    
                                                                                                    
                                                                                                    
                                                                                                    
                                                                                                    
                                                                                                    
                                                                                                    
                                                                                                    
                                                                                                    
                                                                                                    
                                                                                                    
                           
<?xpacket end="w"?></metadata>
<defs>
    <style>
      .cls-1 {
        fill: #fff;
        fill-rule: evenodd;
      }
    </style>
  </defs>
  <path id="形状_15" data-name="形状 15" class="cls-1" d="M668.533,301.759h2.255v2.329h-2.255v-2.329Zm4.875,0h2.255v2.329h-2.255v-2.329Zm-4.875,5h2.255v2.331h-2.255v-2.331Zm4.875,0h2.254v2.331h-2.254v-2.331Zm-4.875,5h2.255v2.329h-2.255v-2.329Zm4.875,0h2.254v2.329h-2.254v-2.329Zm12.845-9.631h-1.529v-2.563a0.747,0.747,0,1,0-1.494,0v2.563h-2.969c-0.412,0-.24.347-0.24,0.774v3.939H680.2v-9.176a0.76,0.76,0,0,0-.747-0.773h-2.168v-4.376a0.76,0.76,0,0,0-.747-0.773h-3.656v-2.972a0.747,0.747,0,1,0-1.493,0v2.972h-3.656a0.76,0.76,0,0,0-.747.773v4.376h-2.242a0.76,0.76,0,0,0-.747.773v19.56a0.76,0.76,0,0,0,.747.773h21.506a0.76,0.76,0,0,0,.747-0.773V302.9a0.761,0.761,0,0,0-.747-0.774h0ZM680.2,317.1v-3.581h-0.182V317.1H680.2Zm-0.071-3.581h5.375V317.1h-5.375v-3.581Zm5.375-1.546h-5.375v-3.581h5.375v3.581Zm-5.375-8.293h5.375v3.166h-5.375v-3.166Zm-0.111,4.712v3.581H680.2v-3.581h-0.182Zm-11.539-15.1h7.312v3.6h-7.312v-3.6Zm-2.988,5.149h13.215v18.014H665.494V298.44Zm14.638,18.014" transform="translate(-664 -288)"/>
</svg>
