<?xml version="1.0" encoding="UTF-8"?>
<svg width="23px" height="29px" viewBox="0 0 23 29" version="1.1" xmlns="http://www.w3.org/2000/svg" xmlns:xlink="http://www.w3.org/1999/xlink">
    <!-- Generator: Sketch 48.2 (47327) - http://www.bohemiancoding.com/sketch -->
    <title>Combined shape 2609</title>
    <desc>Created with Sketch.</desc>
    <defs></defs>
    <g id="Artboard" stroke="none" stroke-width="1" fill="none" fill-rule="evenodd" transform="translate(-663.000000, -287.000000)">
        <g id="销项管理" transform="translate(14.000000, 252.000000)" fill="#FFFFFF">
            <g id="01-拷贝-7" transform="translate(610.000000, 0.000000)">
                <path d="M54.814392,57.678513 L59.775264,57.678513 L59.775264,54.413841 L54.814392,54.413841 L54.879768,54.413841 L54.879768,57.678513 L54.814392,57.678513 Z M54.879768,50.116869 L54.814392,50.116869 L54.814392,53.00424 L54.711912,53.00424 L54.711912,49.412022 C54.711912,49.02291 54.5526,48.70702 54.933192,48.70702 L57.674064,48.70702 L57.674064,46.370178 C57.674064,45.981066 57.982632,45.665455 58.363368,45.665455 C58.7442,45.665455 59.052792,45.981066 59.052792,46.370178 L59.052792,48.70702 L60.464448,48.70702 C60.84516,48.70702 61.153872,49.02291 61.153872,49.412022 L61.153872,62.471485 C61.153872,62.860752 60.84516,63.176487 60.464448,63.176487 L40.612296,63.176487 C40.23168,63.176487 39.923112,62.860752 39.923112,62.471485 L39.923112,44.63765 C39.923112,44.248259 40.23168,43.932927 40.612296,43.932927 L42.681984,43.932927 L42.681984,39.942731 C42.681984,39.55334 42.990552,39.238008 43.371408,39.238008 L46.746024,39.238008 L46.746024,36.52836 C46.746024,36.139093 47.054592,35.823482 47.435424,35.823482 C47.81616,35.823482 48.124728,36.139093 48.124728,36.52836 L48.124728,39.238008 L51.499464,39.238008 C51.8802,39.238008 52.188768,39.55334 52.188768,39.942731 L52.188768,43.932927 L54.190344,43.932927 C54.57108,43.932927 54.879768,44.248259 54.879768,44.63765 L54.879768,50.116869 Z M54.879768,62.352755 L54.814392,62.352755 L54.814392,59.088083 L54.879768,59.088083 L54.711912,59.088083 L54.711912,62.352755 L54.879768,62.352755 Z M54.879768,62.352755 L59.775264,62.352755 L59.775264,59.088083 L54.879768,59.088083 L54.879768,62.352755 Z M54.879768,50.116869 L54.879768,53.00424 L54.814392,53.00424 L59.775264,53.00424 L59.775264,50.116869 L54.879768,50.116869 Z M54.814392,57.678513 L54.814392,54.413841 L54.711912,54.413841 L54.711912,57.678513 L54.814392,57.678513 Z M44.060712,40.647609 L44.060712,43.932927 L50.81004,43.932927 L50.81004,40.647609 L44.060712,40.647609 Z M44.107728,48.368872 L46.188912,48.368872 L46.188912,50.492124 L44.107728,50.492124 L44.107728,48.368872 Z M48.607224,48.368872 L50.688624,48.368872 L50.688624,50.492124 L48.607224,50.492124 L48.607224,48.368872 Z M44.107728,52.927763 L46.188912,52.927763 L46.188912,55.052813 L44.107728,55.052813 L44.107728,52.927763 Z M48.607224,52.927763 L50.688384,52.927763 L50.688384,55.052813 L48.607224,55.052813 L48.607224,52.927763 Z M44.107728,57.488421 L46.188912,57.488421 L46.188912,59.611828 L44.107728,59.611828 L44.107728,57.488421 Z M48.607224,57.488421 L50.688384,57.488421 L50.688384,59.611828 L48.607224,59.611828 L48.607224,57.488421 Z M41.30172,45.342497 L41.30172,61.766638 L53.50104,61.766638 L53.50104,45.342497 L41.30172,45.342497 Z" id="Combined-shape-2609"></path>
            </g>
        </g>
    </g>
</svg>