<?xml version="1.0" encoding="UTF-8"?>
<svg width="60px" height="60px" viewBox="0 0 60 60" version="1.1" xmlns="http://www.w3.org/2000/svg" xmlns:xlink="http://www.w3.org/1999/xlink">
    <!-- Generator: Sketch 52.2 (67145) - http://www.bohemiancoding.com/sketch -->
    <title>checkOutAccount</title>
    <desc>Created with Sketch.</desc>
    <g id="icon" stroke="none" stroke-width="1" fill="none" fill-rule="evenodd">
        <g id="checkOutAccount">
            <circle id="Oval-Copy" fill="#2A98FF" cx="30" cy="30" r="30"></circle>
            <rect id="Rectangle-4" stroke="#FFFFFF" stroke-width="1.5" fill="#2A98FF" x="16.75" y="16.75" width="23.5" height="25.5" rx="2"></rect>
            <circle id="Oval-2" fill="#2A98FF" cx="37.5" cy="37.5" r="7.5"></circle>
            <circle id="Oval-2" stroke="#FFFFFF" stroke-width="1.5" fill="#2A98FF" cx="37.75" cy="37.75" r="6"></circle>
            <rect id="Rectangle-3" fill="#FFFFFF" x="21" y="21" width="15" height="1.5" rx="0.75"></rect>
            <rect id="Rectangle-3-Copy" fill="#FFFFFF" x="21" y="26" width="15" height="1.5" rx="0.75"></rect>
            <rect id="Rectangle-3-Copy-2" fill="#FFFFFF" x="21" y="31" width="10" height="1.5" rx="0.75"></rect>
            <path d="M34.688,34 C35.216,34.424 35.672,34.84 36.04,35.256 L35.488,35.8 C35.176,35.4 34.736,34.968 34.16,34.504 L34.688,34 Z M39.232,41.168 C38.8,41.168 38.328,41.16 37.816,41.152 C37.304,41.144 36.88,41.096 36.552,41.016 C36.232,40.92 35.96,40.728 35.72,40.456 C35.608,40.32 35.512,40.256 35.424,40.256 C35.256,40.256 34.968,40.616 34.56,41.336 L34,40.816 C34.4,40.168 34.76,39.76 35.08,39.6 L35.08,37.336 L34.008,37.336 L34.008,36.632 L35.792,36.632 L35.792,39.664 C35.824,39.696 35.864,39.728 35.904,39.776 C36.088,39.992 36.28,40.152 36.472,40.256 C36.712,40.368 37.064,40.44 37.528,40.456 C37.976,40.464 38.504,40.472 39.128,40.472 C39.528,40.472 39.928,40.464 40.344,40.456 C40.752,40.448 41.072,40.432 41.296,40.416 L41.104,41.168 L39.232,41.168 Z M38.456,37.48 C38.872,37.712 39.256,37.952 39.616,38.2 C39.872,37.96 40.104,37.72 40.296,37.48 L40.84,37.896 C40.616,38.16 40.392,38.392 40.168,38.6 C40.536,38.872 40.872,39.16 41.176,39.456 L40.712,40.016 C40.008,39.296 39.12,38.624 38.032,38 L38.456,37.48 Z M37.456,36.056 L37.456,36.624 L39.912,36.624 L39.912,36.056 L37.456,36.056 Z M39.912,35.432 L39.912,34.864 L37.456,34.864 L37.456,35.432 L39.912,35.432 Z M37.456,37.296 L37.456,39.192 C37.928,39.104 38.4,38.992 38.864,38.856 L39.032,39.536 C38.392,39.704 37.592,39.872 36.616,40.032 L36.456,39.392 C36.632,39.328 36.72,39.224 36.72,39.096 L36.72,34.192 L40.656,34.192 L40.656,37.296 L37.456,37.296 Z" id="退" fill="#FFFFFF"></path>
        </g>
    </g>
</svg>