<svg width="60" height="60" xmlns="http://www.w3.org/2000/svg" xmlns:xlink="http://www.w3.org/1999/xlink"><defs><path d="M23.331 8.252L14.65.582a2.385 2.385 0 0 0-.46-.314c-.043-.022-.087-.044-.134-.063-.028-.014-.06-.025-.087-.035a2.51 2.51 0 0 0-.906-.17H2.28C1.037 0 0 .88 0 1.969V26.03C0 27.12 1.038 28 2.281 28H21.75c1.244 0 2.219-.88 2.219-1.969V9.64c0-.52-.219-1.018-.638-1.387zM14.22 3.02l6.275 5.512h-6.275V3.02zm7.5 23.012H2.25V1.97h9.719V8.53c0 1.089 1.037 1.969 2.281 1.969h7.469v15.531zM14.25 13.234c0-.544-.503-.984-1.125-.984h-8c-.622 0-1.125.44-1.125.984 0 .545.503.985 1.125.985h8c.622 0 1.125-.44 1.125-.985zm6 4.375c0-.544-.503-.984-1.125-.984h-14c-.622 0-1.125.44-1.125.984 0 .545.503.985 1.125.985h14c.622 0 1.125-.44 1.125-.985zm-4 4.375c0-.544-.503-.984-1.125-.984h-10C4.503 21 4 21.44 4 21.984c0 .545.503.985 1.125.985h10c.622 0 1.125-.44 1.125-.985z" id="a"/><path d="M22.143 22.143v-2.286a.857.857 0 0 1 1.714 0v2.286h2.286a.857.857 0 0 1 0 1.714h-2.286v2.286a.857.857 0 0 1-1.714 0v-2.286h-2.286a.857.857 0 0 1 0-1.714h2.286z" id="b"/></defs><g fill="none" fill-rule="evenodd"><circle fill="#49A7FF" cx="30" cy="30" r="30"/><g transform="translate(15 15)"><g fill-rule="nonzero"><use fill="#FFF" fill-rule="evenodd" xlink:href="#a"/><path stroke="#49A7FF" stroke-width=".3" d="M23.232 8.365h0l-8.68-7.67A2.23 2.23 0 0 0 13.99.34l-.033-.014-.044-.017a2.36 2.36 0 0 0-.851-.159H2.28C1.11.15.15.974.15 1.969V26.03c0 .995.96 1.819 2.131 1.819H21.75c1.159 0 2.069-.812 2.069-1.819V9.64c0-.485-.207-.939-.587-1.274zM14.07 2.687l6.823 5.994h-6.673l-.15-.15V2.687zm7.65 23.494H2.25l-.15-.15V1.97l.15-.15h9.719l.15.15V8.53c0 .995.96 1.819 2.131 1.819h7.469l.15.15v15.531l-.15.15zM14.1 13.234c0-.456-.432-.834-.975-.834h-8c-.543 0-.975.378-.975.834 0 .457.432.835.975.835h8c.543 0 .975-.378.975-.835zm6 4.375c0-.456-.432-.834-.975-.834h-14c-.543 0-.975.378-.975.834 0 .457.432.835.975.835h14c.543 0 .975-.378.975-.835zm-4 4.375c0-.456-.432-.834-.975-.834h-10c-.543 0-.975.378-.975.834 0 .457.432.835.975.835h10c.543 0 .975-.378.975-.835z"/></g><circle fill="#49A7FF" cx="22.5" cy="22.5" r="7.5"/><path d="M22.692 29.385a6.692 6.692 0 1 1 0-13.385 6.692 6.692 0 0 1 0 13.385zm0-1.385a5.308 5.308 0 1 0 0-10.615 5.308 5.308 0 0 0 0 10.615z" fill="#FFF" fill-rule="nonzero"/><use fill="#FFF" xlink:href="#b"/><path stroke="#49A7FF" stroke-width=".2" d="M22.243 22.143l-.1.1h-2.286a.757.757 0 1 0 0 1.514h2.286l.1.1v2.286a.757.757 0 1 0 1.514 0v-2.286l.1-.1h2.286a.757.757 0 1 0 0-1.514h-2.286l-.1-.1v-2.286a.757.757 0 1 0-1.514 0v2.286z"/></g></g></svg>