<?xml version="1.0" encoding="UTF-8"?>
<svg width="60px" height="60px" viewBox="0 0 60 60" version="1.1" xmlns="http://www.w3.org/2000/svg" xmlns:xlink="http://www.w3.org/1999/xlink">
    <!-- Generator: Sketch 49.3 (51167) - http://www.bohemiancoding.com/sketch -->
    <title>纳税申报-创建申报</title>
    <desc>Created with Sketch.</desc>
    <defs>
        <path d="M40.33125,23.2523438 L31.65,15.5824219 C31.509375,15.459375 31.35625,15.3554688 31.190625,15.2679687 C31.146875,15.2460938 31.103125,15.2242188 31.05625,15.2050781 C31.028125,15.1914062 30.996875,15.1804687 30.96875,15.1695313 C30.6875,15.0601563 30.378125,15 30.0625,15 L19.28125,15 C18.0375,15 17,15.8804688 17,16.96875 L17,41.03125 C17,42.1195312 18.0375,43 19.28125,43 L38.75,43 C39.99375,43 40.96875,42.1195312 40.96875,41.03125 L40.96875,24.6386719 C40.96875,24.1191406 40.75,23.6214844 40.33125,23.2523438 Z M31.21875,18.01875 L37.49375,23.53125 L31.21875,23.53125 L31.21875,18.01875 Z M38.71875,41.03125 L19.25,41.03125 L19.25,16.96875 L28.96875,16.96875 L28.96875,23.53125 C28.96875,24.6195313 30.00625,25.5 31.25,25.5 L38.71875,25.5 L38.71875,41.03125 Z M31.25,28.234375 C31.25,27.6902344 30.746875,27.25 30.125,27.25 L22.125,27.25 C21.503125,27.25 21,27.6902344 21,28.234375 C21,28.7785156 21.503125,29.21875 22.125,29.21875 L30.125,29.21875 C30.746875,29.21875 31.25,28.7785156 31.25,28.234375 Z M37.25,32.609375 C37.25,32.0652344 36.746875,31.625 36.125,31.625 L22.125,31.625 C21.503125,31.625 21,32.0652344 21,32.609375 C21,33.1535156 21.503125,33.59375 22.125,33.59375 L36.125,33.59375 C36.746875,33.59375 37.25,33.1535156 37.25,32.609375 Z M33.25,36.984375 C33.25,36.4402344 32.746875,36 32.125,36 L22.125,36 C21.503125,36 21,36.4402344 21,36.984375 C21,37.5285156 21.503125,37.96875 22.125,37.96875 L32.125,37.96875 C32.746875,37.96875 33.25,37.5285156 33.25,36.984375 Z" id="path-1"></path>
        <path d="M39.1428571,37.1428571 L39.1428571,34.8571429 C39.1428571,34.3837559 39.5266131,34 40,34 C40.4733869,34 40.8571429,34.3837559 40.8571429,34.8571429 L40.8571429,37.1428571 L43.1428571,37.1428571 C43.6162441,37.1428571 44,37.5266131 44,38 C44,38.4733869 43.6162441,38.8571429 43.1428571,38.8571429 L40.8571429,38.8571429 L40.8571429,41.1428571 C40.8571429,41.6162441 40.4733869,42 40,42 C39.5266131,42 39.1428571,41.6162441 39.1428571,41.1428571 L39.1428571,38.8571429 L36.8571429,38.8571429 C36.3837559,38.8571429 36,38.4733869 36,38 C36,37.5266131 36.3837559,37.1428571 36.8571429,37.1428571 L39.1428571,37.1428571 Z" id="path-2"></path>
    </defs>
    <g id="icon" stroke="none" stroke-width="1" fill="none" fill-rule="evenodd">
        <g id="纳税申报-创建申报">
            <circle id="Oval-Copy" fill="#49A7FF" cx="30" cy="30" r="30"></circle>
            <g id="Shape" fill-rule="nonzero">
                <use fill="#FFFFFF" fill-rule="evenodd" xlink:href="#path-1"></use>
                <path stroke="#49A7FF" stroke-width="0.3" d="M40.2320588,23.3648654 L40.231934,23.3647552 L31.5512243,15.6953084 C31.4212734,15.5816013 31.2782249,15.4838941 31.123543,15.4021328 C31.0612739,15.3709983 31.0339523,15.3579966 30.9906711,15.3399833 C30.9764503,15.3334128 30.9764503,15.3334128 30.9578228,15.3259589 C30.937501,15.3181627 30.937501,15.3181627 30.9143831,15.309332 C30.6461513,15.2050196 30.3549591,15.15 30.0625,15.15 L19.28125,15.15 C18.1097269,15.15 17.15,15.9739463 17.15,16.96875 L17.15,41.03125 C17.15,42.0260537 18.1097269,42.85 19.28125,42.85 L38.75,42.85 C39.9085125,42.85 40.81875,42.0379559 40.81875,41.03125 L40.81875,24.6386719 C40.81875,24.154163 40.6124083,23.7001548 40.2320588,23.3648654 Z M31.06875,17.6873171 L37.8917756,23.68125 L31.21875,23.68125 L31.06875,23.53125 L31.06875,17.6873171 Z M38.71875,41.18125 L19.25,41.18125 L19.1,41.03125 L19.1,16.96875 L19.25,16.81875 L28.96875,16.81875 L29.11875,16.96875 L29.11875,23.53125 C29.11875,24.5260537 30.0784769,25.35 31.25,25.35 L38.71875,25.35 L38.86875,25.5 L38.86875,41.03125 L38.71875,41.18125 Z M31.1,28.234375 C31.1,27.777863 30.6681565,27.4 30.125,27.4 L22.125,27.4 C21.5818435,27.4 21.15,27.777863 21.15,28.234375 C21.15,28.690887 21.5818435,29.06875 22.125,29.06875 L30.125,29.06875 C30.6681565,29.06875 31.1,28.690887 31.1,28.234375 Z M37.1,32.609375 C37.1,32.152863 36.6681565,31.775 36.125,31.775 L22.125,31.775 C21.5818435,31.775 21.15,32.152863 21.15,32.609375 C21.15,33.065887 21.5818435,33.44375 22.125,33.44375 L36.125,33.44375 C36.6681565,33.44375 37.1,33.065887 37.1,32.609375 Z M33.1,36.984375 C33.1,36.527863 32.6681565,36.15 32.125,36.15 L22.125,36.15 C21.5818435,36.15 21.15,36.527863 21.15,36.984375 C21.15,37.440887 21.5818435,37.81875 22.125,37.81875 L32.125,37.81875 C32.6681565,37.81875 33.1,37.440887 33.1,36.984375 Z"></path>
            </g>
            <circle id="Oval-2" fill="#49A7FF" cx="39.5" cy="37.5" r="7.5"></circle>
            <path d="M39.6923077,44.3846154 C35.9962482,44.3846154 33,41.3883672 33,37.6923077 C33,33.9962482 35.9962482,31 39.6923077,31 C43.3883672,31 46.3846154,33.9962482 46.3846154,37.6923077 C46.3846154,41.3883672 43.3883672,44.3846154 39.6923077,44.3846154 Z M39.6923077,43 C42.6236652,43 45,40.6236652 45,37.6923077 C45,34.7609502 42.6236652,32.3846154 39.6923077,32.3846154 C36.7609502,32.3846154 34.3846154,34.7609502 34.3846154,37.6923077 C34.3846154,40.6236652 36.7609502,43 39.6923077,43 Z" id="Oval-3" fill="#FFFFFF" fill-rule="nonzero"></path>
            <g id="Combined-Shape">
                <use fill="#FFFFFF" fill-rule="evenodd" xlink:href="#path-2"></use>
                <path stroke="#49A7FF" stroke-width="0.2" d="M39.2428571,37.1428571 L39.1428571,37.2428571 L36.8571429,37.2428571 C36.4389844,37.2428571 36.1,37.5818415 36.1,38 C36.1,38.4181585 36.4389844,38.7571429 36.8571429,38.7571429 L39.1428571,38.7571429 L39.2428571,38.8571429 L39.2428571,41.1428571 C39.2428571,41.5610156 39.5818415,41.9 40,41.9 C40.4181585,41.9 40.7571429,41.5610156 40.7571429,41.1428571 L40.7571429,38.8571429 L40.8571429,38.7571429 L43.1428571,38.7571429 C43.5610156,38.7571429 43.9,38.4181585 43.9,38 C43.9,37.5818415 43.5610156,37.2428571 43.1428571,37.2428571 L40.8571429,37.2428571 L40.7571429,37.1428571 L40.7571429,34.8571429 C40.7571429,34.4389844 40.4181585,34.1 40,34.1 C39.5818415,34.1 39.2428571,34.4389844 39.2428571,34.8571429 L39.2428571,37.1428571 Z"></path>
            </g>
        </g>
    </g>
</svg>