<?xml version="1.0" encoding="UTF-8"?>
<svg width="24px" height="25px" viewBox="0 0 24 25" version="1.1" xmlns="http://www.w3.org/2000/svg" xmlns:xlink="http://www.w3.org/1999/xlink">
    <!-- Generator: Sketch 48.2 (47327) - http://www.bohemiancoding.com/sketch -->
    <title>Combined shape 3355</title>
    <desc>Created with Sketch.</desc>
    <defs></defs>
    <g id="Artboard" stroke="none" stroke-width="1" fill="none" fill-rule="evenodd" transform="translate(-53.000000, -1705.000000)">
        <g id="用户权限管理-拷贝" fill="#FFFFFF">
            <g id="01">
                <path d="M56.470836,1730.00007 C55.661076,1730.00007 54.937948,1729.75749 54.321836,1729.27902 C53.53428,1728.66941 53.042516,1727.54824 53.00312,1726.28016 C53.000824,1726.20742 53.00004,1726.12921 53.00004,1726.03502 L53.00004,1708.21623 C53.00004,1706.74816 53.835084,1705.5799 55.178188,1705.16595 C55.52172,1705.06225 55.878076,1705.00874 56.236644,1705.00755 C59.893752,1705.00086 64.863668,1704.99996 68.78476,1704.99996 L76.999988,1704.99996 L76.999988,1725.10653 C76.450852,1725.48576 76.12258,1726.11297 76.12258,1726.78322 C76.12258,1727.45332 76.450852,1728.0805 76.999988,1728.45974 L76.999988,1729.88117 L76.97238,1729.88117 L76.97238,1730.00007 L56.470836,1730.00007 Z M55.000052,1724.99998 L55.000052,1726.00002 L55.000052,1728.00006 L74.999976,1728.00006 C73.631336,1727.06142 73.29178,1726.14635 74.999976,1724.99998 L55.000052,1724.99998 Z M55.999988,1707 L55.000052,1707 C55.000052,1707 55.001984,1716.3016 55.000052,1720.00006 L55.000052,1722.99997 L57.000064,1722.99997 C60.760492,1723.00055 66.877008,1722.93066 72.113204,1722.96972 L74.999976,1722.99997 L74.999976,1707 C73.445136,1707 72.00028,1706.99759 70.000016,1707 L62.999932,1707 C60.263856,1707 57.624632,1707.004 55.999988,1707 Z M58,1721.99993 L58,1711.00006 L60.999948,1711.00006 L60.999948,1721.99993 L58,1721.99993 Z M58.999936,1720.99992 L60.000012,1720.99992 L60.000012,1712.00006 L58.999936,1712.00006 L58.999936,1720.99992 Z M62.999932,1721.99993 L62.999932,1712.99995 L66.00002,1712.99995 L66.00002,1721.99993 L62.999932,1721.99993 Z M64.000008,1720.99992 L64.999944,1720.99992 L64.999944,1713.99996 L64.000008,1713.99996 L64.000008,1720.99992 Z M68.000032,1721.99993 L68.000032,1708.00001 L70.999952,1708.00001 L70.999952,1721.99993 L68.000032,1721.99993 Z M68.999968,1720.99992 L69.849628,1720.85226 L69.849628,1708.91345 L68.999968,1709.00001 L68.999968,1720.99992 Z" id="Combined-shape-3355"></path>
            </g>
        </g>
    </g>
</svg>