<?xml version="1.0" encoding="UTF-8"?>
<svg width="60px" height="60px" viewBox="0 0 60 60" version="1.1" xmlns="http://www.w3.org/2000/svg" xmlns:xlink="http://www.w3.org/1999/xlink">
    <!-- Generator: Sketch 49.3 (51167) - http://www.bohemiancoding.com/sketch -->
    <title>系统维护-数据字典维护</title>
    <desc>Created with Sketch.</desc>
    <defs>
        <path d="M1.59585492,23.7 L0.14507772,23.7 L0.14507772,0.75 C0.14507772,0.33 0.464248705,0 0.870466321,0 L27.2746114,0 C27.680829,0 28,0.33 28,0.75 L28,19.5 C28,21.105 26.7378238,22.41 25.1854922,22.41 L25.1854922,20.91 C25.9544041,20.91 26.5492228,20.295 26.5492228,19.5 L26.5492228,1.5 L1.59585492,1.5 L1.59585492,23.7 Z M26.2905208,25.605 L3.68668132,25.605 C3.29575636,25.605 2.98860104,25.495 2.98860104,25.355 C2.98860104,25.215 3.29575636,25.105 3.68668132,25.105 L26.2905208,25.105 C26.6814457,25.105 26.988601,25.215 26.988601,25.355 C26.988601,25.495 26.6814457,25.605 26.2905208,25.605 Z M28.2020725,30 L3.4238342,30 C1.50880829,29.912476 0,27.9344338 0,25.5012668 C0,23.1556238 1.43626943,21.1250672 3.27875648,20.88 L25.3015544,20.88 C25.707772,20.88 26.026943,21.2651056 26.026943,21.7552399 C26.026943,22.2453743 25.707772,22.6304798 25.3015544,22.6304798 L3.39481865,22.6304798 C2.30673575,22.8055278 1.4507772,24.0483685 1.4507772,25.5012668 C1.4507772,26.9891747 2.3357513,28.1970058 3.46735751,28.2495202 L28.2020725,28.2495202 C28.6082902,28.2495202 28.9274611,28.6346257 28.9274611,29.1247601 C28.9274611,29.6148944 28.6082902,30 28.2020725,30 Z" id="path-1"></path>
    </defs>
    <g id="icon" stroke="none" stroke-width="1" fill="none" fill-rule="evenodd">
        <g id="系统维护-数据字典维护">
            <circle id="Oval-Copy" fill="#07D3CF" cx="30" cy="30" r="30"></circle>
            <g id="Group-27" transform="translate(16.000000, 15.000000)" fill-rule="nonzero">
                <g id="Combined-Shape">
                    <use fill="#FFFFFF" fill-rule="evenodd" xlink:href="#path-1"></use>
                    <path stroke="#FFFFFF" stroke-width="0.4" d="M26.3492228,1.7 L1.79585492,1.7 L1.79585492,23.9 L-0.0549222798,23.9 L-0.0549222798,0.75 C-0.0549222798,0.221008727 0.352270962,-0.2 0.870466321,-0.2 L27.2746114,-0.2 C27.7928068,-0.2 28.2,0.221008727 28.2,0.75 L28.2,19.5 C28.2,21.2139913 26.8498016,22.61 25.1854922,22.61 L24.9854922,22.61 L24.9854922,20.71 L25.1854922,20.71 C25.8424264,20.71 26.3492228,20.1860087 26.3492228,19.5 L26.3492228,1.7 Z M26.2905208,25.805 L3.68668132,25.805 C3.18970239,25.805 2.78860104,25.6613556 2.78860104,25.355 C2.78860104,25.0486444 3.18970239,24.905 3.68668132,24.905 L26.2905208,24.905 C26.7874997,24.905 27.188601,25.0486444 27.188601,25.355 C27.188601,25.6613556 26.7874997,25.805 26.2905208,25.805 Z M28.2020725,30.2 L3.41470297,30.1997914 C1.38066686,30.1068282 -0.2,28.0313435 -0.2,25.5012668 C-0.2,23.0607609 1.30248326,20.9411005 3.27875648,20.68 L25.3015544,20.68 C25.8274023,20.68 26.226943,21.1620781 26.226943,21.7552399 C26.226943,22.3484017 25.8274023,22.8304798 25.3015544,22.8304798 L3.42658568,22.8279409 C2.43999454,22.9866611 1.6507772,24.1461419 1.6507772,25.5012668 C1.6507772,26.8924347 2.46516174,28.0027961 3.46735751,28.0495202 L28.2020725,28.0495202 C28.7279204,28.0495202 29.1274611,28.5315983 29.1274611,29.1247601 C29.1274611,29.7179219 28.7279204,30.2 28.2020725,30.2 Z"></path>
                </g>
                <path d="M20.9059023,9.8905881 L20.8475644,9.52213849 L19.7222579,9.14601285 C19.6240047,8.84204192 19.5011881,8.54421182 19.3553435,8.26019859 L19.886525,7.19937076 L19.6685257,6.89539983 C19.2263861,6.2920636 18.698275,5.7639525 18.0980092,5.32795379 L17.7955735,5.10995444 L16.7347457,5.64113596 C16.4491972,5.49529132 16.1529023,5.37247479 15.8489314,5.27422156 L15.474341,4.15198546 L15.1089618,4.09518282 C14.702132,4.03070413 14.3505697,4 14.0005425,4 C13.6597267,4 13.3066291,4.03070413 12.8905881,4.09671802 L12.5221385,4.15505588 L12.1475481,5.28189759 C11.8374363,5.38322123 11.5396062,5.50603777 11.2617338,5.64727679 L10.2024412,5.11456006 L9.90000545,5.33255941 C9.29820443,5.76855812 8.77009332,6.29513401 8.33102421,6.90000545 L8.11302486,7.20397638 L8.64420637,8.26480421 C8.49989694,8.54881744 8.37708041,8.84511234 8.27882718,9.14908326 L7.15352067,9.52213849 L7.09518282,9.8905881 C7.03070413,10.2974179 7,10.6597267 7,11.0020777 C7,11.345964 7.03070413,11.7082728 7.09518282,12.1120322 L7.15352067,12.4804818 L8.27882718,12.8566074 C8.37708041,13.1605784 8.49989694,13.4584085 8.64574158,13.7424217 L8.11763048,14.8001791 L8.33562983,15.1010796 C8.56284042,15.4173322 8.79772704,15.6952046 9.05257135,15.9515841 C9.29052839,16.1910764 9.56840081,16.425963 9.90154066,16.6700609 L10.2039764,16.8880602 L11.263269,16.3568787 C11.5488174,16.5027233 11.8451123,16.6270751 12.1490833,16.7237931 L12.5236737,17.8506348 L12.8921233,17.9089727 C13.2958827,17.9734514 13.6581914,18.0041555 14.0005425,18.0041555 C14.3428936,18.0041555 14.7052024,17.9734514 15.110497,17.9089727 L15.4789466,17.8506348 L15.853537,16.7237931 C16.1544375,16.6255399 16.4507324,16.5027233 16.7378161,16.3584139 L17.7986439,16.8895954 L18.1010796,16.6715961 C18.4311491,16.433639 18.7090215,16.1987524 18.9500489,15.9531193 C19.2002876,15.7028807 19.433639,15.423473 19.6669905,15.1026148 L19.8849898,14.7986439 L19.3538083,13.7378161 C19.4996529,13.4538028 19.6224695,13.157508 19.7207227,12.8520018 L20.8460292,12.4758762 L20.9043671,12.1074266 C20.9688457,11.7036672 20.9995499,11.3413584 20.9995499,10.9990073 C21.0041555,10.6597267 20.9734514,10.2958827 20.9059023,9.8905881 Z M19.9003419,10.9897961 L19.9003419,10.9974721 C19.9003419,11.204725 19.886525,11.4150483 19.8604265,11.6407237 L19.3169633,11.8218781 L18.8364436,11.98461 L18.6875286,12.4682001 C18.6030922,12.7476078 18.4910221,13.0193393 18.3543887,13.2772541 L18.1179669,13.7239992 L18.6000218,14.6865738 C18.4587828,14.8646578 18.319079,15.0227841 18.1732343,15.1686287 L18.1701639,15.1716991 C18.0273897,15.3160086 17.8692634,15.4557124 17.6911794,15.5954162 L16.7316753,15.1148965 L16.2864653,15.3467127 C16.023945,15.4833461 15.7476078,15.5969514 15.4666649,15.6859934 L14.9861452,15.8364436 L14.8295542,16.3123577 L14.6483998,16.8558209 C14.4242596,16.8834546 14.2124011,16.8957363 14.0051482,16.8957363 C13.7994305,16.8957363 13.5875719,16.8819194 13.3618966,16.8558209 L13.1807422,16.3123577 L13.0226159,15.831838 L12.5390258,15.682923 C12.2534773,15.5954162 11.9817457,15.4833461 11.7299718,15.3497831 L11.2816915,15.1164317 L10.8288055,15.3421071 L10.3175817,15.5969514 C10.1394977,15.4557124 9.98137141,15.3160086 9.83552677,15.1701639 C9.68661172,15.0212489 9.54690791,14.8631226 9.40873931,14.688109 L9.8877238,13.7286048 L9.65437238,13.2833949 C9.51466857,13.0162689 9.40106328,12.7430021 9.31816211,12.4697354 L9.16924706,11.9861452 L8.1467994,11.6468646 C8.11916568,11.4227244 8.10688403,11.2108659 8.10688403,11.003613 C8.10688403,10.7963601 8.12070089,10.5860367 8.1467994,10.3603613 L9.16617665,10.0210807 L9.3150917,9.53902576 C9.40106328,9.26115335 9.51466857,8.98635135 9.65130197,8.7222958 L9.88465338,8.27708586 L9.66051321,7.8272703 L9.4056689,7.31604647 C9.67433007,6.98137141 9.9798362,6.67586527 10.3145113,6.4072041 L11.2755507,6.8877238 L11.7222958,6.65283717 C11.9802105,6.51773898 12.2550125,6.40413369 12.5390258,6.3150917 L13.0195455,6.16464144 L13.179207,5.68719216 L13.3603613,5.14372899 C13.5921776,5.11763048 13.8025009,5.10381362 14.0020777,5.10381362 C14.2077954,5.10381362 14.419654,5.11763048 14.6437941,5.14372899 L14.98461,6.16157103 L15.4651297,6.31048608 C15.7445373,6.39799286 16.0193393,6.51159816 16.2818597,6.64669635 L16.7270696,6.88004776 L17.6865738,6.39952807 C18.0212489,6.66818924 18.3282902,6.97369537 18.6000218,7.30990564 L18.1210373,8.26940983 L18.3513183,8.71308456 C18.4879517,8.97714011 18.6030922,9.25347732 18.690599,9.53442014 L18.8410493,10.0149398 L19.3184985,10.1746013 L19.8619617,10.3557557 C19.8911306,10.5860367 19.9034123,10.7932896 19.9003419,10.9897961 Z M14.003613,8.32621247 C12.5282793,8.32621247 11.3277477,9.52674411 11.3277477,11.0020777 C11.3277477,12.4774114 12.5282793,13.677943 14.003613,13.677943 C15.4789466,13.677943 16.6794782,12.4774114 16.6794782,11.0020777 C16.6794782,9.52674411 15.4789466,8.32621247 14.003613,8.32621247 Z M15.1135674,12.1120322 C14.8172725,12.4083271 14.4227244,12.5725942 14.003613,12.5725942 C13.5845015,12.5725942 13.1899534,12.4098623 12.8936585,12.1120322 C12.5973636,11.8157373 12.4330965,11.4211892 12.4330965,11.0020777 C12.4330965,10.5829663 12.5958284,10.1884182 12.8936585,9.89212331 C13.1899534,9.59582841 13.5845015,9.4315613 14.003613,9.4315613 C14.4227244,9.4315613 14.8172725,9.59429321 15.1135674,9.89212331 C15.4098623,10.1899534 15.5741294,10.5829663 15.5741294,11.0020777 C15.5741294,11.4211892 15.4098623,11.8157373 15.1135674,12.1120322 Z" id="Shape" fill="#FFFFFF"></path>
            </g>
        </g>
    </g>
</svg>