<svg width="60" height="60" xmlns="http://www.w3.org/2000/svg" xmlns:xlink="http://www.w3.org/1999/xlink"><defs><path d="M1.596 23.7H.146V.75C.145.33.463 0 .87 0h26.405A.73.73 0 0 1 28 .75V19.5c0 1.605-1.262 2.91-2.815 2.91v-1.5c.77 0 1.364-.615 1.364-1.41v-18H1.596v22.2zm24.695 1.905H3.687c-.391 0-.698-.11-.698-.25s.307-.25.698-.25H26.29c.39 0 .698.11.698.25s-.308.25-.698.25zM28.202 30H3.424C1.509 29.912 0 27.934 0 25.501c0-2.345 1.436-4.376 3.279-4.621h22.023c.406 0 .725.385.725.875s-.32.875-.725.875H3.395c-1.088.176-1.944 1.418-1.944 2.871 0 1.488.885 2.696 2.016 2.749h24.735c.406 0 .725.385.725.875s-.319.875-.725.875z" id="a"/></defs><g fill="none" fill-rule="evenodd"><circle fill="#07D3CF" cx="30" cy="30" r="30"/><g fill-rule="nonzero"><g transform="translate(16 15)"><use fill="#FFF" fill-rule="evenodd" xlink:href="#a"/><path stroke="#FFF" stroke-width=".4" d="M26.35 1.7H1.795v22.2h-1.85V.75A.93.93 0 0 1 .87-.2h26.405a.93.93 0 0 1 .925.95V19.5c0 1.714-1.35 3.11-3.015 3.11h-.2v-1.9h.2c.657 0 1.164-.524 1.164-1.21V1.7zm-.06 24.105H3.688c-.497 0-.898-.144-.898-.45 0-.306.4-.45.898-.45H26.29c.496 0 .898.144.898.45 0 .306-.402.45-.898.45zm1.912 4.395H3.415C1.38 30.107-.2 28.03-.2 25.5c0-2.44 1.502-4.56 3.479-4.821h22.023c.525 0 .925.482.925 1.075s-.4 1.075-.925 1.075l-21.875-.002c-.987.159-1.776 1.318-1.776 2.673 0 1.391.814 2.502 1.816 2.549h24.735c.526 0 .925.482.925 1.075s-.4 1.075-.925 1.075z"/></g><path d="M36.906 24.89l-.058-.368-1.126-.376a5.948 5.948 0 0 0-.367-.886l.532-1.06-.218-.305a7.174 7.174 0 0 0-1.571-1.567l-.302-.218-1.061.531a6.016 6.016 0 0 0-.886-.367l-.375-1.122-.365-.057A6.946 6.946 0 0 0 30.001 19c-.341 0-.694.03-1.11.097l-.369.058-.374 1.127a6.23 6.23 0 0 0-.886.365l-1.06-.532-.302.218a7.036 7.036 0 0 0-1.569 1.567l-.218.304.531 1.06a6.09 6.09 0 0 0-.365.885l-1.125.373-.059.369c-.064.406-.095.769-.095 1.111 0 .344.03.706.095 1.11l.059.368 1.125.377c.098.304.22.601.367.885l-.528 1.058.218.301c.227.316.462.594.717.85.238.24.515.475.849.72l.302.217 1.06-.531c.285.146.581.27.885.367l.375 1.127.368.058a6.99 6.99 0 0 0 1.109.095c.342 0 .704-.03 1.11-.095l.368-.058.375-1.127c.3-.098.597-.221.884-.366l1.06.532.303-.218c.33-.238.608-.473.849-.719.25-.25.484-.53.717-.85l.218-.304-.531-1.061a5.88 5.88 0 0 0 .367-.886l1.125-.376.058-.369A6.99 6.99 0 0 0 37 26a6.215 6.215 0 0 0-.094-1.108zm-1.006 1.1v.007c0 .208-.013.418-.04.644l-.543.18-.48.164-.15.483c-.084.28-.196.551-.333.81l-.236.446.482.963c-.141.178-.28.336-.427.482l-.003.003a5.08 5.08 0 0 1-.479.423l-.96-.48-.445.232c-.262.136-.538.25-.82.339l-.48.15-.156.476-.182.544a5.22 5.22 0 0 1-1.286 0l-.181-.544-.158-.48-.484-.15a4.612 4.612 0 0 1-.809-.332l-.448-.234-.453.226-.511.255a5.455 5.455 0 0 1-.909-.909l.479-.96-.234-.445a4.72 4.72 0 0 1-.336-.813l-.149-.484-1.022-.34a5.22 5.22 0 0 1 0-1.286l1.02-.339.148-.482a5 5 0 0 1 .336-.817l.234-.445-.224-.45-.255-.511c.268-.335.574-.64.909-.909l.96.48.447-.234c.258-.135.533-.249.817-.338l.48-.15.16-.478.181-.543c.232-.026.443-.04.642-.04.206 0 .418.014.642.04l.34 1.018.481.148c.28.088.554.202.817.337l.445.233.96-.48c.334.268.641.574.913.91l-.479.96.23.443c.137.264.252.54.34.821l.15.48.477.16.544.182c.03.23.041.437.038.634zm-5.896-2.664a2.68 2.68 0 0 0-2.676 2.676 2.68 2.68 0 0 0 2.676 2.676 2.68 2.68 0 0 0 2.675-2.676 2.68 2.68 0 0 0-2.675-2.676zm1.11 3.786c-.297.296-.691.46-1.11.46-.42 0-.814-.162-1.11-.46a1.561 1.561 0 0 1-.46-1.11c0-.419.162-.814.46-1.11.296-.296.69-.46 1.11-.46.419 0 .813.162 1.11.46a1.564 1.564 0 0 1 0 2.22z" fill="#FFF"/></g></g></svg>