<svg id="组_5" data-name="组 5" xmlns="http://www.w3.org/2000/svg" width="30" height="28" viewBox="0 0 30 28">
  <metadata><?xpacket begin="﻿" id="W5M0MpCehiHzreSzNTczkc9d"?>
<x:xmpmeta xmlns:x="adobe:ns:meta/" x:xmptk="Adobe XMP Core 5.6-c138 79.159824, 2016/09/14-01:09:01        ">
   <rdf:RDF xmlns:rdf="http://www.w3.org/1999/02/22-rdf-syntax-ns#">
      <rdf:Description rdf:about=""/>
   </rdf:RDF>
</x:xmpmeta>
                                                                                                    
                                                                                                    
                                                                                                    
                                                                                                    
                                                                                                    
                                                                                                    
                                                                                                    
                                                                                                    
                                                                                                    
                                                                                                    
                                                                                                    
                                                                                                    
                                                                                                    
                                                                                                    
                                                                                                    
                                                                                                    
                                                                                                    
                                                                                                    
                                                                                                    
                                                                                                    
                           
<?xpacket end="w"?></metadata>
<defs>
    <style>
      .cls-1 {
        fill: #fff;
        fill-rule: evenodd;
      }
    </style>
  </defs>
  <path id="形状_37" data-name="形状 37" class="cls-1" d="M969.833,1232.32a1.2,1.2,0,0,0-.871.37,1.222,1.222,0,0,0-.361.87v12.89a1.232,1.232,0,0,0,2.464,0v-12.89a1.241,1.241,0,0,0-1.232-1.24h0Zm5.088-6.32a1.23,1.23,0,0,0-1.232,1.23v19.22a1.232,1.232,0,1,0,2.463,0v-19.22a1.232,1.232,0,0,0-1.231-1.23h0Zm4.872,8.06a1.23,1.23,0,0,0-1.232,1.23v4.52a1.232,1.232,0,0,0,2.463,0v-4.52a1.229,1.229,0,0,0-1.231-1.23h0Zm-4.528,15.86H962.817l2.847-9.4h-1.911L960,1251.79h17.8" transform="translate(-960 -1226)"/>
  <path id="形状_32_拷贝_4" data-name="形状 32 拷贝 4" class="cls-1" d="M989.8,1252.82l-3.257-3.1a4.628,4.628,0,0,0,1.2-3.11,4.976,4.976,0,1,0-4.972,4.78,5.038,5.038,0,0,0,2.7-.77l3.326,3.16a0.723,0.723,0,0,0,1,0,0.657,0.657,0,0,0,0-.96h0Zm-10.578-6.21a3.554,3.554,0,1,1,3.551,3.41,3.478,3.478,0,0,1-3.551-3.41h0Zm0,0" transform="translate(-960 -1226)"/>
</svg>
