<svg xmlns="http://www.w3.org/2000/svg" width="27" height="29" viewBox="0 0 27 29">
  <metadata><?xpacket begin="﻿" id="W5M0MpCehiHzreSzNTczkc9d"?>
<x:xmpmeta xmlns:x="adobe:ns:meta/" x:xmptk="Adobe XMP Core 5.6-c138 79.159824, 2016/09/14-01:09:01        ">
   <rdf:RDF xmlns:rdf="http://www.w3.org/1999/02/22-rdf-syntax-ns#">
      <rdf:Description rdf:about=""/>
   </rdf:RDF>
</x:xmpmeta>
                                                                                                    
                                                                                                    
                                                                                                    
                                                                                                    
                                                                                                    
                                                                                                    
                                                                                                    
                                                                                                    
                                                                                                    
                                                                                                    
                                                                                                    
                                                                                                    
                                                                                                    
                                                                                                    
                                                                                                    
                                                                                                    
                                                                                                    
                                                                                                    
                                                                                                    
                                                                                                    
                           
<?xpacket end="w"?></metadata>
<defs>
    <style>
      .cls-1 {
        fill: #fff;
        fill-rule: evenodd;
      }
    </style>
  </defs>
  <path id="形状_10" data-name="形状 10" class="cls-1" d="M75.75,169H53.25a2.25,2.25,0,0,0-1.59.652A2.227,2.227,0,0,0,51,171.23v24.539a2.227,2.227,0,0,0,.66,1.579,2.25,2.25,0,0,0,1.59.652h22.5a2.25,2.25,0,0,0,1.59-.652,2.227,2.227,0,0,0,.66-1.579V171.23A2.241,2.241,0,0,0,75.75,169h0Zm-22.763,3.254a1.146,1.146,0,0,1,1.151-1.141H74.862a1.146,1.146,0,0,1,1.151,1.141v2.284c0,3.55-4.548,6.472-10.362,6.849V180.04a3.45,3.45,0,1,0-2.3,0v1.347c-5.815-.342-10.362-3.265-10.362-6.849v-2.284ZM63,176.807a1.5,1.5,0,1,1,2.56,1.053,1.508,1.508,0,0,1-2.119,0,1.485,1.485,0,0,1-.44-1.053h0Zm0,11.273a1.486,1.486,0,0,1,.441-1.052,1.508,1.508,0,0,1,2.119,0A1.494,1.494,0,1,1,63,188.08h0Zm12.8,6.606a1.126,1.126,0,0,1-1.13,1.12H54.33a1.134,1.134,0,0,1-.8-0.327,1.12,1.12,0,0,1-.332-0.793V179.47a15.76,15.76,0,0,0,10.171,4.011v1.367a3.386,3.386,0,1,0,2.26,0v-1.366A15.76,15.76,0,0,0,75.8,179.5v15.182Zm0,0" transform="translate(-51 -169)"/>
</svg>
