<svg xmlns="http://www.w3.org/2000/svg" width="32" height="30" viewBox="0 0 32 30">
  <metadata><?xpacket begin="﻿" id="W5M0MpCehiHzreSzNTczkc9d"?>
<x:xmpmeta xmlns:x="adobe:ns:meta/" x:xmptk="Adobe XMP Core 5.6-c138 79.159824, 2016/09/14-01:09:01        ">
   <rdf:RDF xmlns:rdf="http://www.w3.org/1999/02/22-rdf-syntax-ns#">
      <rdf:Description rdf:about=""/>
   </rdf:RDF>
</x:xmpmeta>
                                                                                                    
                                                                                                    
                                                                                                    
                                                                                                    
                                                                                                    
                                                                                                    
                                                                                                    
                                                                                                    
                                                                                                    
                                                                                                    
                                                                                                    
                                                                                                    
                                                                                                    
                                                                                                    
                                                                                                    
                                                                                                    
                                                                                                    
                                                                                                    
                                                                                                    
                                                                                                    
                           
<?xpacket end="w"?></metadata>
<defs>
    <style>
      .cls-1 {
        fill: #fff;
        fill-rule: evenodd;
      }
    </style>
  </defs>
  <path id="形状_36" data-name="形状 36" class="cls-1" d="M667.125,55.844a1.14,1.14,0,0,0-.809.337,1.156,1.156,0,0,0-.334.814V70.911a1.143,1.143,0,1,0,2.285,0V56.995a1.15,1.15,0,0,0-1.142-1.151h0ZM671.846,49a1.147,1.147,0,0,0-1.143,1.151V70.914a1.143,1.143,0,1,0,2.285,0V50.151A1.149,1.149,0,0,0,671.846,49h0Zm4.521,9.4a1.147,1.147,0,0,0-1.143,1.151V70.914a1.143,1.143,0,1,0,2.286,0V59.553a1.145,1.145,0,0,0-1.143-1.151h0Zm4.525-2.558a1.145,1.145,0,0,0-1.142,1.151V70.911a1.143,1.143,0,1,0,2.285,0V56.995a1.148,1.148,0,0,0-1.143-1.151h0Zm0,0,3.757,12.632,3,8.782H660.614l2.642-8.782h-1.774L658,79h32l-3.437-10.524h-1.914Zm0,0" transform="translate(-658 -49)"/>
</svg>
