<?xml version="1.0" encoding="UTF-8"?>
<svg width="24px" height="28px" viewBox="0 0 24 28" version="1.1" xmlns="http://www.w3.org/2000/svg" xmlns:xlink="http://www.w3.org/1999/xlink">
    <!-- Generator: Sketch 48.2 (47327) - http://www.bohemiancoding.com/sketch -->
    <title>Combined shape 3043</title>
    <desc>Created with Sketch.</desc>
    <defs></defs>
    <g id="Artboard" stroke="none" stroke-width="1" fill="none" fill-rule="evenodd" transform="translate(-1613.000000, -1225.000000)">
        <g id="业务报表" fill="#FFFFFF">
            <g id="业务报表2">
                <g id="01-拷贝-4" transform="translate(1574.000000, 1188.000000)">
                    <path d="M39.857128,63.51124 L39.857128,38.488704 C39.857128,38.18314 40.124512,37.933352 40.451618,37.933352 L54.649828,37.933352 C55.15519,37.933352 55.661046,38.127504 56.017584,38.460732 L57.311318,39.668624 L60.284184,42.4453 L61.548382,43.625248 C61.919922,43.972532 62.142898,44.458444 62.142898,44.943684 L62.142898,63.233088 C62.142898,63.691336 61.741666,64.066284 61.250708,64.066284 L40.451618,64.066284 C40.124512,64.066564 39.857128,63.817056 39.857128,63.51124 Z M54.723824,44.30534 L54.70942,40.21006 C54.70942,39.904916 54.441906,39.654708 54.114436,39.654708 L42.310202,39.654708 C41.983226,39.654708 41.715712,39.904916 41.715712,40.21006 L41.715712,61.775968 C41.715712,62.081672 41.983226,62.331292 42.310202,62.331292 L59.659534,62.331292 C60.0168,62.331292 60.299212,62.067056 60.299212,61.734388 L60.299212,45.415596 C60.299212,45.110172 60.031698,44.860664 59.704826,44.860664 L55.318938,44.860664 C54.991832,44.860664 54.723824,44.611016 54.723824,44.30534 Z M43.57141,59.399972 L57.499948,59.399972 L57.499948,60.333324 L43.57141,60.333324 L43.57141,59.399972 Z M43.57141,56.599916 L52.857154,56.599916 L52.857154,57.533268 L43.57141,57.533268 L43.57141,56.599916 Z M56.998174,54.871476 L56.998772,54.871476 C57.35245,55.212908 57.35245,55.781168 56.998772,56.137216 C56.638048,56.478368 56.061784,56.478368 55.701216,56.137216 L52.39789,52.951628 C51.365482,53.63438 50.11249,54.0324 48.75581,54.0324 C45.201792,54.0324 42.311398,51.245448 42.311398,47.819116 C42.311398,44.392112 45.201792,41.605132 48.75581,41.605132 C52.309256,41.605132 55.19965,44.392112 55.19965,47.819116 C55.19965,49.297656 54.668054,50.67716 53.75444,51.743764 L56.998174,54.871476 Z M48.75581,52.468628 C50.034438,52.469468 51.260962,51.978656 52.165294,51.103712 C53.069626,50.228908 53.577614,49.042044 53.57725,47.804528 C53.57725,45.245216 51.42445,43.154456 48.75581,43.154456 C47.476974,43.153224 46.25032,43.644428 45.345754,44.519232 C44.441292,45.394316 43.933304,46.58132 43.933798,47.819116 C43.933798,50.378288 46.086468,52.468628 48.75581,52.468628 Z M59.357102,43.533324 L55.64282,40.733408 L55.64282,43.533324 L59.357102,43.533324 Z" id="Combined-shape-3043"></path>
                </g>
            </g>
        </g>
    </g>
</svg>