<?xml version="1.0" encoding="UTF-8"?>
<svg width="60px" height="60px" viewBox="0 0 60 60" version="1.1" xmlns="http://www.w3.org/2000/svg" xmlns:xlink="http://www.w3.org/1999/xlink">
    <!-- Generator: Sketch 49.3 (51167) - http://www.bohemiancoding.com/sketch -->
    <title>纳税申报-申报办理</title>
    <desc>Created with Sketch.</desc>
    <defs>
        <path d="M40.33125,23.2523438 L31.65,15.5824219 C31.509375,15.459375 31.35625,15.3554688 31.190625,15.2679687 C31.146875,15.2460938 31.103125,15.2242188 31.05625,15.2050781 C31.028125,15.1914062 30.996875,15.1804687 30.96875,15.1695313 C30.6875,15.0601563 30.378125,15 30.0625,15 L19.28125,15 C18.0375,15 17,15.8804688 17,16.96875 L17,41.03125 C17,42.1195312 18.0375,43 19.28125,43 L38.75,43 C39.99375,43 40.96875,42.1195312 40.96875,41.03125 L40.96875,24.6386719 C40.96875,24.1191406 40.75,23.6214844 40.33125,23.2523438 Z M31.21875,18.01875 L37.49375,23.53125 L31.21875,23.53125 L31.21875,18.01875 Z M38.71875,41.03125 L19.25,41.03125 L19.25,16.96875 L28.96875,16.96875 L28.96875,23.53125 C28.96875,24.6195313 30.00625,25.5 31.25,25.5 L38.71875,25.5 L38.71875,41.03125 Z M31.25,28.234375 C31.25,27.6902344 30.746875,27.25 30.125,27.25 L22.125,27.25 C21.503125,27.25 21,27.6902344 21,28.234375 C21,28.7785156 21.503125,29.21875 22.125,29.21875 L30.125,29.21875 C30.746875,29.21875 31.25,28.7785156 31.25,28.234375 Z M37.25,32.609375 C37.25,32.0652344 36.746875,31.625 36.125,31.625 L22.125,31.625 C21.503125,31.625 21,32.0652344 21,32.609375 C21,33.1535156 21.503125,33.59375 22.125,33.59375 L36.125,33.59375 C36.746875,33.59375 37.25,33.1535156 37.25,32.609375 Z M33.25,36.984375 C33.25,36.4402344 32.746875,36 32.125,36 L22.125,36 C21.503125,36 21,36.4402344 21,36.984375 C21,37.5285156 21.503125,37.96875 22.125,37.96875 L32.125,37.96875 C32.746875,37.96875 33.25,37.5285156 33.25,36.984375 Z" id="path-1"></path>
        <path d="M42.7179687,39.4674556 L42.0320312,39.4674556 L42.0320312,38.7812884 C42.0320312,38.6257676 41.9054687,38.4991627 41.75,38.4991627 C41.5945312,38.4991627 41.4679687,38.6257676 41.4679687,38.7812884 L41.4679687,39.4674556 L40.7820312,39.4674556 C40.6265625,39.4674556 40.5,39.5940605 40.5,39.7495813 C40.5,39.9051022 40.6265625,40.031707 40.7820312,40.031707 L41.4679687,40.031707 L41.4679687,40.7178743 C41.4679687,40.8733951 41.5945312,41 41.75,41 C41.9054687,41 42.0320312,40.8733951 42.0320312,40.7178743 L42.0320312,40.031707 L42.7179687,40.031707 C42.8734375,40.031707 43,39.9051022 43,39.7495813 C43,39.593279 42.8734375,39.4674556 42.7179687,39.4674556 Z M41.75,35.7544937 C41.75,34.7854192 40.9664062,34 40,34 C39.0335938,34 38.25,34.7854192 38.25,35.7544937 C38.25,36.7235682 39.0335938,37.5089874 40,37.5089874 C40.9664062,37.5089874 41.75,36.7235682 41.75,35.7544937 Z M40,36.944736 C39.3445313,36.944736 38.8125,36.411745 38.8125,35.7544937 C38.8125,35.0972424 39.3445313,34.5642514 40,34.5642514 C40.6554687,34.5642514 41.1875,35.0972424 41.1875,35.7544937 C41.1875,36.411745 40.6554687,36.944736 40,36.944736 Z M41.640625,37.9982137 C41.16875,37.6887351 40.6054688,37.5089874 40,37.5089874 C38.3429687,37.5089874 37,38.855532 37,40.5170258 L37.0007813,40.5170258 C37.0007813,40.5224964 37,40.5271854 37,40.532656 C37,40.6881768 37.1257813,40.8147817 37.28125,40.8147817 C37.4367187,40.8147817 37.5625,40.6881768 37.5625,40.532656 C37.5625,40.5271854 37.5625,40.5224964 37.5617187,40.5170258 L37.5625,40.5170258 C37.5625,39.1673551 38.6539062,38.0732388 40,38.0732388 C40.30625,38.0732388 40.5992187,38.1295076 40.86875,38.2334487 C41.0984375,38.0990287 41.3601563,38.0154069 41.640625,37.9982137 Z" id="path-2"></path>
    </defs>
    <g id="icon" stroke="none" stroke-width="1" fill="none" fill-rule="evenodd">
        <g id="纳税申报-申报办理">
            <circle id="Oval-Copy" fill="#49A7FF" cx="30" cy="30" r="30"></circle>
            <g id="Shape" fill-rule="nonzero">
                <use fill="#FFFFFF" fill-rule="evenodd" xlink:href="#path-1"></use>
                <path stroke="#49A7FF" stroke-width="0.3" d="M40.2320588,23.3648654 L40.231934,23.3647552 L31.5512243,15.6953084 C31.4212734,15.5816013 31.2782249,15.4838941 31.123543,15.4021328 C31.0612739,15.3709983 31.0339523,15.3579966 30.9906711,15.3399833 C30.9764503,15.3334128 30.9764503,15.3334128 30.9578228,15.3259589 C30.937501,15.3181627 30.937501,15.3181627 30.9143831,15.309332 C30.6461513,15.2050196 30.3549591,15.15 30.0625,15.15 L19.28125,15.15 C18.1097269,15.15 17.15,15.9739463 17.15,16.96875 L17.15,41.03125 C17.15,42.0260537 18.1097269,42.85 19.28125,42.85 L38.75,42.85 C39.9085125,42.85 40.81875,42.0379559 40.81875,41.03125 L40.81875,24.6386719 C40.81875,24.154163 40.6124083,23.7001548 40.2320588,23.3648654 Z M31.06875,17.6873171 L37.8917756,23.68125 L31.21875,23.68125 L31.06875,23.53125 L31.06875,17.6873171 Z M38.71875,41.18125 L19.25,41.18125 L19.1,41.03125 L19.1,16.96875 L19.25,16.81875 L28.96875,16.81875 L29.11875,16.96875 L29.11875,23.53125 C29.11875,24.5260537 30.0784769,25.35 31.25,25.35 L38.71875,25.35 L38.86875,25.5 L38.86875,41.03125 L38.71875,41.18125 Z M31.1,28.234375 C31.1,27.777863 30.6681565,27.4 30.125,27.4 L22.125,27.4 C21.5818435,27.4 21.15,27.777863 21.15,28.234375 C21.15,28.690887 21.5818435,29.06875 22.125,29.06875 L30.125,29.06875 C30.6681565,29.06875 31.1,28.690887 31.1,28.234375 Z M37.1,32.609375 C37.1,32.152863 36.6681565,31.775 36.125,31.775 L22.125,31.775 C21.5818435,31.775 21.15,32.152863 21.15,32.609375 C21.15,33.065887 21.5818435,33.44375 22.125,33.44375 L36.125,33.44375 C36.6681565,33.44375 37.1,33.065887 37.1,32.609375 Z M33.1,36.984375 C33.1,36.527863 32.6681565,36.15 32.125,36.15 L22.125,36.15 C21.5818435,36.15 21.15,36.527863 21.15,36.984375 C21.15,37.440887 21.5818435,37.81875 22.125,37.81875 L32.125,37.81875 C32.6681565,37.81875 33.1,37.440887 33.1,36.984375 Z"></path>
            </g>
            <circle id="Oval-2" fill="#49A7FF" cx="39.5" cy="37.5" r="7.5"></circle>
            <path d="M40,44.6923077 C36.3039405,44.6923077 33.3076923,41.6960595 33.3076923,38 C33.3076923,34.3039405 36.3039405,31.3076923 40,31.3076923 C43.6960595,31.3076923 46.6923077,34.3039405 46.6923077,38 C46.6923077,41.6960595 43.6960595,44.6923077 40,44.6923077 Z M40,43.3076923 C42.9313575,43.3076923 45.3076923,40.9313575 45.3076923,38 C45.3076923,35.0686425 42.9313575,32.6923077 40,32.6923077 C37.0686425,32.6923077 34.6923077,35.0686425 34.6923077,38 C34.6923077,40.9313575 37.0686425,43.3076923 40,43.3076923 Z" id="Oval-3" fill="#FFFFFF" fill-rule="nonzero"></path>
            <g id="Shape" fill-rule="nonzero">
                <use fill="#FFFFFF" fill-rule="evenodd" xlink:href="#path-2"></use>
                <path stroke="#FFFFFF" stroke-width="0.2" d="M42.1320312,40.131707 L42.1320312,40.7178743 C42.1320312,40.9286161 41.9607047,41.1 41.75,41.1 C41.5392953,41.1 41.3679687,40.9286161 41.3679687,40.7178743 L41.3679687,40.131707 L40.7820312,40.131707 C40.5713265,40.131707 40.4,39.9603231 40.4,39.7495813 C40.4,39.5388395 40.5713265,39.3674556 40.7820312,39.3674556 L41.3679687,39.3674556 L41.3679687,38.7812884 C41.3679687,38.5705466 41.5392953,38.3991627 41.75,38.3991627 C41.9607047,38.3991627 42.1320312,38.5705466 42.1320312,38.7812884 L42.1320312,39.3674556 L42.7179687,39.3674556 C42.9289008,39.3674556 43.1,39.5382849 43.1,39.7495813 C43.1,39.9603231 42.9286735,40.131707 42.7179687,40.131707 L42.1320312,40.131707 Z M41.85,35.7544937 C41.85,36.7786765 41.0217549,37.6089874 40,37.6089874 C38.9782451,37.6089874 38.15,36.7786765 38.15,35.7544937 C38.15,34.7303109 38.9782451,33.9 40,33.9 C41.0217549,33.9 41.85,34.7303109 41.85,35.7544937 Z M40,36.844736 C40.6002847,36.844736 41.0875,36.3564718 41.0875,35.7544937 C41.0875,35.1525156 40.6002847,34.6642514 40,34.6642514 C39.3997153,34.6642514 38.9125,35.1525156 38.9125,35.7544937 C38.9125,36.3564718 39.3997153,36.844736 40,36.844736 Z M37.6621412,40.5173846 C37.6621967,40.518407 37.6622564,40.5195811 37.6623285,40.5209989 C37.6625064,40.5280337 37.6625064,40.5280337 37.6625,40.532656 C37.6625,40.7434615 37.4918921,40.9147817 37.28125,40.9147817 C37.0706079,40.9147817 36.9,40.7434615 36.9,40.532656 C36.900253,40.522732 36.9002613,40.522407 36.9006447,40.5176705 L36.9,40.5170258 C36.9,38.800371 38.2876726,37.4089874 40,37.4089874 C40.6106674,37.4089874 41.1949802,37.5863498 41.6954672,37.9145935 L41.6467437,38.0980263 C41.3878926,38.1138944 41.1407354,38.1901407 40.8327691,38.3267513 C40.5705062,38.2256132 40.2894426,38.1732388 40,38.1732388 C38.7091557,38.1732388 37.6625,39.2225629 37.6625,40.5170258 L37.6621412,40.5173846 Z"></path>
            </g>
        </g>
    </g>
</svg>