<svg xmlns="http://www.w3.org/2000/svg" width="24" height="28" viewBox="0 0 24 28">
  <metadata><?xpacket begin="﻿" id="W5M0MpCehiHzreSzNTczkc9d"?>
<x:xmpmeta xmlns:x="adobe:ns:meta/" x:xmptk="Adobe XMP Core 5.6-c138 79.159824, 2016/09/14-01:09:01        ">
   <rdf:RDF xmlns:rdf="http://www.w3.org/1999/02/22-rdf-syntax-ns#">
      <rdf:Description rdf:about=""/>
   </rdf:RDF>
</x:xmpmeta>
                                                                                                    
                                                                                                    
                                                                                                    
                                                                                                    
                                                                                                    
                                                                                                    
                                                                                                    
                                                                                                    
                                                                                                    
                                                                                                    
                                                                                                    
                                                                                                    
                                                                                                    
                                                                                                    
                                                                                                    
                                                                                                    
                                                                                                    
                                                                                                    
                                                                                                    
                                                                                                    
                           
<?xpacket end="w"?></metadata>
<defs>
    <style>
      .cls-1 {
        fill: #fff;
        fill-rule: evenodd;
      }
    </style>
  </defs>
  <path id="形状_39" data-name="形状 39" class="cls-1" d="M1613,1252.4v-26.8a0.624,0.624,0,0,1,.64-0.6h15.29a2.179,2.179,0,0,1,1.47.57l1.4,1.29,3.2,2.97,1.36,1.27a1.955,1.955,0,0,1,.64,1.41v19.6a0.928,0.928,0,0,1-.96.89h-22.4a0.624,0.624,0,0,1-.64-0.6h0Zm16.01-20.57-0.02-4.39a0.618,0.618,0,0,0-.64-0.6h-12.71a0.624,0.624,0,0,0-.64.6v23.11a0.623,0.623,0,0,0,.64.59h18.69a0.654,0.654,0,0,0,.68-0.64v-17.48a0.618,0.618,0,0,0-.64-0.6h-4.72a0.623,0.623,0,0,1-.64-0.59h0Zm0,0M1617,1248h15v1h-15v-1Zm0-3h10v1h-10v-1Zm14.46-1.85-3.49-3.35a6.46,6.46,0,0,0,1.55-4.21,6.946,6.946,0,1,0-6.94,6.66,7.174,7.174,0,0,0,3.93-1.16l3.55,3.41a1.022,1.022,0,0,0,1.4,0,0.942,0.942,0,0,0,0-1.35h0Zm-8.88-2.58a5.093,5.093,0,0,1-5.19-4.98,4.907,4.907,0,0,1,1.52-3.53,5.293,5.293,0,0,1,3.67-1.47,5.1,5.1,0,0,1,5.2,4.99,4.894,4.894,0,0,1-1.53,3.53,5.265,5.265,0,0,1-3.67,1.46h0Zm0,0M1634,1231h-4v-3Z" transform="translate(-1613 -1225)"/>
</svg>
