<?xml version="1.0" encoding="UTF-8"?>
<svg width="30px" height="29px" viewBox="0 0 30 29" version="1.1" xmlns="http://www.w3.org/2000/svg" xmlns:xlink="http://www.w3.org/1999/xlink">
    <!-- Generator: Sketch 48.2 (47327) - http://www.bohemiancoding.com/sketch -->
    <title>Combined shape 2701</title>
    <desc>Created with Sketch.</desc>
    <defs></defs>
    <g id="Artboard" stroke="none" stroke-width="1" fill="none" fill-rule="evenodd" transform="translate(-960.000000, -876.000000)">
        <g id="其他台账" transform="translate(14.000000, 839.000000)" fill="#FFFFFF">
            <g id="01-拷贝-8" transform="translate(904.000000, 2.000000)">
                <g id="组-3" transform="translate(42.000000, 35.000000)">
                    <path d="M11.9874289,8.84099827 C11.995702,8.89277983 12,8.945888 12,9 L14,9 C14.5522847,9 15,9.44771525 15,10 C15,10.5522847 14.5522847,11 14,11 L12,11 L12,12 L14,12 C14.5522847,12 15,12.4477153 15,13 C15,13.5522847 14.5522847,14 14,14 L12,14 L12,16 C12,16.5522847 11.5522847,17 11,17 C10.4477153,17 10,16.5522847 10,16 L10,14 L8,14 C7.44771525,14 7,13.5522847 7,13 C7,12.4477153 7.44771525,12 8,12 L10,12 L10,11 L8,11 C7.44771525,11 7,10.5522847 7,10 C7,9.44771525 7.44771525,9 8,9 L10,9 L7.29289322,6.29289322 C6.90236893,5.90236893 6.90236893,5.26920395 7.29289322,4.87867966 C7.68341751,4.48815536 8.31658249,4.48815536 8.70710678,4.87867966 L10.9142136,7.08578644 L13.1213203,4.87867966 C13.5118446,4.48815536 14.1450096,4.48815536 14.5355339,4.87867966 C14.9260582,5.26920395 14.9260582,5.90236893 14.5355339,6.29289322 L11.9874289,8.84099827 Z M22.221312,13.573984 C26.510464,13.573984 29.999968,17.034176 29.999968,21.286848 C29.999968,25.539936 26.510464,28.999968 22.221312,28.999968 C17.931808,28.999968 14.442272,25.539936 14.442272,21.286848 C14.442272,17.033888 17.931808,13.573984 22.221312,13.573984 Z M22.221312,27.446976 C25.646816,27.446976 28.433856,24.683552 28.433856,21.286848 C28.433856,17.890272 25.646816,15.126976 22.221312,15.126976 C18.795584,15.126976 16.008544,17.890272 16.008544,21.286848 C16.008544,24.683552 18.795584,27.446976 22.221312,27.446976 Z M12.937888,23.760288 C13.370368,23.760288 13.72096,24.107776 13.72096,24.536768 C13.72096,24.965632 13.370368,25.31328 12.937888,25.31328 L2.267744,25.31328 C1.017312,25.31328 3.2e-05,24.304608 3.2e-05,23.064704 L3.2e-05,2.248512 C3.2e-05,1.008576 1.017312,6.4e-05 2.267744,6.4e-05 L21.885216,6.4e-05 C23.135552,6.4e-05 24.152928,1.008576 24.1528,2.248512 L24.1528,10.870784 C24.1528,11.299616 23.802208,11.647264 23.3696,11.647264 C22.937024,11.647264 22.58656,11.299616 22.58656,10.870784 L22.58656,2.248512 C22.58656,1.86512 22.271744,1.553088 21.885088,1.553088 L2.267744,1.553088 C1.88096,1.553088 1.566304,1.86512 1.566304,2.248512 L1.566304,23.064704 C1.566304,23.448096 1.880832,23.760288 2.267744,23.760288 L12.937888,23.760288 Z M19,19.999968 L25.000032,19.999968 L25.000032,22 L19,22 L19,19.999968 Z" id="Combined-shape-2701"></path>
                </g>
            </g>
        </g>
    </g>
</svg>