<svg width="60" height="60" xmlns="http://www.w3.org/2000/svg" xmlns:xlink="http://www.w3.org/1999/xlink"><defs><path d="M1.833 7.196c-.46 0-.833.358-.833.8 0 .443.373.801.833.801h3.334V11.2c0 .443.373.801.833.801.46 0 .833-.358.833-.8V8.796h3.334c.46 0 .833-.358.833-.8 0-.443-.373-.801-.833-.801H6.833V5.594h3.334c.46 0 .833-.358.833-.8 0-.443-.373-.801-.833-.801H7.26l-.028-.027 2.666-2.561a.814.814 0 0 0-.025-1.16.897.897 0 0 0-1.206-.024L6 2.784 3.333.22a.897.897 0 0 0-1.206.024.814.814 0 0 0-.025 1.16l2.666 2.562-.028.026H1.833c-.46 0-.833.358-.833.8 0 .443.373.801.833.801h3.334v1.602H1.833zm27.11 19.66H27.87V8.633c0-1.184-.96-2.144-2.144-2.144h-2.144c-1.184 0-2.144.96-2.144 2.144v18.223h-2.144v-10.72c0-1.183-.96-2.143-2.144-2.143h-2.144c-1.184 0-2.144.96-2.144 2.144v10.72H10.72v-6.433c0-1.184-.96-2.143-2.143-2.143H6.432c-1.184 0-2.144.96-2.144 2.143v6.432H1.072a1.072 1.072 0 0 0 0 2.144h27.87a1.072 1.072 0 0 0 0-2.144zm-20.367 0H6.432v-6.432h2.144v6.432zm8.575 0h-2.144v-10.72h2.144v10.72zm8.576 0h-2.144V8.633h2.144v18.223z" id="a"/><path d="M10.758 10.517H5.241a.24.24 0 1 0 0 .482h5.517a.24.24 0 1 0 0-.482zm-4.205-.79L8.13 9.06a.222.222 0 0 0 .069-.046l2.66-2.66a.484.484 0 0 0 0-.683l-.53-.53a.484.484 0 0 0-.683 0l-2.66 2.66a.214.214 0 0 0-.046.069l-.668 1.576a.212.212 0 0 0 .046.235.212.212 0 0 0 .235.046zm3.433-4.244l.002-.002.53.53-.001.002-.415.415-.53-.53.414-.415zM7.364 8.105L9.23 6.24l.53.53-1.866 1.867-.92.39.39-.92z" id="b"/></defs><g fill="none" fill-rule="evenodd"><circle fill="#00D6EB" cx="30" cy="30" r="30"/><g fill-rule="nonzero" transform="translate(14 15)"><use fill="#FFF" fill-rule="evenodd" xlink:href="#a"/><path stroke="#00D6EB" stroke-width=".3" d="M1.833 7.346c-.378 0-.683.292-.683.65 0 .358.305.651.683.651h3.334l.15.15V11.2c0 .358.304.651.683.651.379 0 .683-.293.683-.65V8.796l.15-.15h3.334c.378 0 .683-.293.683-.65 0-.359-.305-.651-.683-.651H6.833l-.15-.15V5.594l.15-.15h3.334c.378 0 .683-.293.683-.65 0-.359-.305-.651-.683-.651H7.26L7.156 4.1l-.028-.027v-.217L9.79 1.301a.664.664 0 0 0-.02-.948.746.746 0 0 0-1-.024L6.105 2.892h-.208L3.234.334a.747.747 0 0 0-1.003.02.663.663 0 0 0-.025.943l2.666 2.562-.003.22-.028.025-.101.039H1.833c-.378 0-.683.292-.683.65 0 .358.305.651.683.651h3.334l.15.15v1.602l-.15.15H1.833zm27.11 19.66H27.87l-.15-.15V8.633a1.994 1.994 0 0 0-1.994-1.994h-2.144a1.994 1.994 0 0 0-1.994 1.994v18.223l-.15.15h-2.144l-.15-.15v-10.72a1.994 1.994 0 0 0-1.994-1.993h-2.144a1.994 1.994 0 0 0-1.994 1.994v10.72l-.15.15H10.72l-.15-.15v-6.433a1.994 1.994 0 0 0-1.993-1.993H6.432a1.994 1.994 0 0 0-1.994 1.993v6.432l-.15.15H1.072a.922.922 0 0 0 0 1.844h27.87a.922.922 0 0 0 0-1.844zm-20.367 0H6.432l-.15-.15v-6.432l.15-.15h2.144l.15.15v6.432l-.15.15zm8.575 0h-2.144l-.15-.15v-10.72l.15-.15h2.144l.15.15v10.72l-.15.15zm8.576 0h-2.144l-.15-.15V8.633l.15-.15h2.144l.15.15v18.223l-.15.15z"/></g><g transform="translate(31 31)"><circle fill="#00D6EB" cx="7.5" cy="7.5" r="7.5"/><circle stroke="#FFF" stroke-width="1.5" fill="#00D6EB" cx="8" cy="8" r="6"/><g fill-rule="nonzero"><use fill="#FFF" fill-rule="evenodd" xlink:href="#b"/><path stroke="#FFF" stroke-width=".2" d="M10.758 10.417a.34.34 0 1 1 0 .682H5.241a.34.34 0 1 1 0-.682h5.517zM6.592 9.82h0a.311.311 0 0 1-.345-.068.312.312 0 0 1-.067-.344l.668-1.576a.314.314 0 0 1 .067-.1l2.66-2.66a.584.584 0 0 1 .824-.001l.531.53a.584.584 0 0 1-.001.825l-2.66 2.66a.321.321 0 0 1-.1.067l-1.577.667zm3.396-4.196l-.275.275.389.389.275-.275-.39-.39zm-2.54 2.54l-.287.676.662-.274L9.62 6.769 9.23 6.38 7.448 8.162z"/></g></g></g></svg>