<svg width="60" height="60" xmlns="http://www.w3.org/2000/svg"><g fill="none" fill-rule="evenodd"><circle fill="#49A7FF" cx="30" cy="30" r="30"/><path d="M15.833 22.196c-.46 0-.833.358-.833.8 0 .443.373.801.833.801h3.332V26.2c0 .443.373.801.833.801.46 0 .832-.358.832-.8v-2.403h3.332c.46 0 .833-.358.833-.8 0-.443-.373-.801-.833-.801H20.83v-1.602h3.332c.46 0 .833-.358.833-.8 0-.443-.373-.801-.833-.801h-2.905l-.028-.027 2.665-2.561a.814.814 0 0 0-.025-1.16.897.897 0 0 0-1.206-.024l-2.665 2.563-2.666-2.563a.897.897 0 0 0-1.206.024.814.814 0 0 0-.025 1.16l2.666 2.562-.029.026h-2.905c-.46 0-.833.358-.833.8 0 .443.373.801.833.801h3.332v1.602h-3.332zm28.096 20.66h-1.072V24.633c0-1.184-.96-2.144-2.143-2.144h-2.143c-1.183 0-2.142.96-2.142 2.144v18.223h-2.143v-10.72c0-1.183-.96-2.143-2.143-2.143H30c-1.183 0-2.143.96-2.143 2.144v10.72h-2.143v-6.433c0-1.184-.96-2.143-2.143-2.143H21.43c-1.184 0-2.143.96-2.143 2.143v6.432H16.07a1.072 1.072 0 0 0 0 2.144H43.93a1.072 1.072 0 0 0 0-2.144zm-20.358 0H21.43v-6.432h2.142v6.432zm8.572 0H30v-10.72h2.143v10.72zm8.571 0h-2.143V24.633h2.143v18.223z" fill="#FFF" fill-rule="nonzero"/></g></svg>