<?xml version="1.0" encoding="UTF-8"?>
<svg width="60px" height="60px" viewBox="0 0 60 60" version="1.1" xmlns="http://www.w3.org/2000/svg" xmlns:xlink="http://www.w3.org/1999/xlink">
    <!-- Generator: Sketch 49.3 (51167) - http://www.bohemiancoding.com/sketch -->
    <title>销项管理-财务凭证采集</title>
    <desc>Created with Sketch.</desc>
    <defs>
        <path d="M16.8333333,23.1956411 C16.373096,23.1956411 16,23.5541386 16,23.9963676 C16,24.4385966 16.373096,24.7970941 16.8333333,24.7970941 L20.1666667,24.7970941 L20.1666667,27.1992735 C20.1666667,27.6415025 20.5397627,28 21,28 C21.4602373,28 21.8333333,27.6415025 21.8333333,27.1992735 L21.8333333,24.7970941 L25.1666667,24.7970941 C25.626904,24.7970941 26,24.4385966 26,23.9963676 C26,23.5541386 25.626904,23.1956411 25.1666667,23.1956411 L21.8333333,23.1956411 L21.8333333,21.5941881 L25.1666667,21.5941881 C25.626904,21.5941881 26,21.2356907 26,20.7934617 C26,20.3512326 25.626904,19.9927352 25.1666667,19.9927352 L22.26,19.9927352 L22.2316667,19.9655105 L24.8983333,17.4047872 C25.2148573,17.0743637 25.2038373,16.5628699 24.8733527,16.2453166 C24.5428681,15.9277633 24.0105455,15.9171745 23.6666667,16.2213134 L21,18.7836382 L18.3333333,16.2213134 C17.9894545,15.9171745 17.4571319,15.9277633 17.1266473,16.2453166 C16.7961627,16.5628699 16.7851427,17.0743637 17.1016667,17.4047872 L19.7683333,19.9671119 L19.74,19.9927352 L16.8333333,19.9927352 C16.3730961,19.9927352 16,20.3512326 16,20.7934617 C16,21.2356907 16.3730961,21.5941881 16.8333333,21.5941881 L20.1666667,21.5941881 L20.1666667,23.1956411 L16.8333333,23.1956411 Z M43.9426388,42.8561008 L42.8706892,42.8561008 L42.8706892,24.6329579 C42.8706892,23.4489151 41.9108329,22.4890587 40.72679,22.4890587 L38.5828909,22.4890587 C37.398848,22.4890587 36.4389917,23.4489151 36.4389917,24.6329579 L36.4389917,42.8561008 L34.2950925,42.8561008 L34.2950925,32.136605 C34.2950925,30.9525622 33.3352362,29.9927058 32.1511934,29.9927058 L30.0072942,29.9927058 C28.8232514,29.9927058 27.863395,30.9525622 27.863395,32.136605 L27.863395,42.8561008 L25.7194958,42.8561008 L25.7194958,36.4244033 C25.7194958,35.2403605 24.7596395,34.2805042 23.5755967,34.2805042 L21.4316975,34.2805042 C20.2476547,34.2805042 19.2877983,35.2403605 19.2877983,36.4244033 L19.2877983,42.8561008 L16.0719496,42.8561008 C15.4799282,42.8561008 15,43.336029 15,43.9280504 C15,44.5200718 15.4799282,45 16.0719496,45 L43.9426388,45 C44.5346602,45 45.0145884,44.5200718 45.0145884,43.9280504 C45.0145884,43.336029 44.5346602,42.8561008 43.9426388,42.8561008 Z M23.5755967,42.8561008 L21.4316975,42.8561008 L21.4316975,36.4244033 L23.5755967,36.4244033 L23.5755967,42.8561008 Z M32.1511934,42.8561008 L30.0072942,42.8561008 L30.0072942,32.136605 L32.1511934,32.136605 L32.1511934,42.8561008 Z M40.72679,42.8561008 L38.5828909,42.8561008 L38.5828909,24.6329579 L40.72679,24.6329579 L40.72679,42.8561008 Z" id="path-1"></path>
        <path d="M10.7584448,10.5172281 L5.24105118,10.5172281 C5.10780344,10.5172281 5,10.6250315 5,10.7582792 C5,10.891527 5.10780344,10.9993304 5.24105118,10.9993304 L10.7584448,10.9993304 C10.8916926,10.9993304 10.999496,10.891527 10.999496,10.7582792 C10.999496,10.6250315 10.8916926,10.5172281 10.7584448,10.5172281 Z M6.55344093,9.72711585 L8.1303174,9.05953801 C8.15576169,9.04882462 8.17852764,9.03342413 8.19861523,9.01400612 L10.8582132,6.3544081 C11.0463671,6.16625426 11.0477063,5.8595836 10.8595524,5.67142976 L10.3285702,5.14044758 C10.1404164,4.95229374 9.83374574,4.95363291 9.6455919,5.14178675 L6.98599388,7.80138477 C6.96657587,7.82080278 6.95117538,7.84423831 6.94046199,7.8696826 L6.27221456,9.44588948 C6.23471771,9.53427491 6.26083159,9.62332993 6.31774645,9.68091438 C6.37466131,9.73849883 6.46438592,9.76461271 6.55344093,9.72711585 Z M9.98641148,5.48260634 L9.98775066,5.48126716 L10.5180633,6.01157976 L10.5167241,6.01291893 L10.1015804,6.42806263 L9.57126778,5.89775003 L9.98641148,5.48260634 Z M7.36364073,8.10537709 L9.2304482,6.23856962 L9.76076079,6.76888221 L7.89395333,8.63568968 L6.97394133,9.02538909 L7.36364073,8.10537709 Z" id="path-2"></path>
    </defs>
    <g id="icon" stroke="none" stroke-width="1" fill="none" fill-rule="evenodd">
        <g id="销项管理-财务凭证采集">
            <circle id="Oval-Copy" fill="#00D6EB" cx="30" cy="30" r="30"></circle>
            <g id="Shape" fill-rule="nonzero">
                <use fill="#FFFFFF" fill-rule="evenodd" xlink:href="#path-1"></use>
                <path stroke="#00D6EB" stroke-width="0.3" d="M16.8333333,23.3456411 C16.4546288,23.3456411 16.15,23.6383503 16.15,23.9963676 C16.15,24.3543848 16.4546288,24.6470941 16.8333333,24.6470941 L20.1666667,24.6470941 L20.3166667,24.7970941 L20.3166667,27.1992735 C20.3166667,27.5572908 20.6212955,27.85 21,27.85 C21.3787045,27.85 21.6833333,27.5572908 21.6833333,27.1992735 L21.6833333,24.7970941 L21.8333333,24.6470941 L25.1666667,24.6470941 C25.5453712,24.6470941 25.85,24.3543848 25.85,23.9963676 C25.85,23.6383503 25.5453712,23.3456411 25.1666667,23.3456411 L21.8333333,23.3456411 L21.6833333,23.1956411 L21.6833333,21.5941881 L21.8333333,21.4441881 L25.1666667,21.4441881 C25.5453712,21.4441881 25.85,21.1514789 25.85,20.7934617 C25.85,20.4354444 25.5453712,20.1427352 25.1666667,20.1427352 L22.26,20.1427352 L22.1560712,20.1008962 L22.1277378,20.0736715 L22.1277716,19.857317 L24.7900135,17.3010239 C25.0492543,17.0303991 25.0402773,16.613733 24.7694239,16.3534776 C24.495309,16.0900883 24.0514367,16.0812589 23.7705955,16.3294744 L21.1039288,18.8917992 L20.8960712,18.8917992 L18.2339585,16.3336729 C17.9485633,16.0812589 17.504691,16.0900883 17.2305761,16.3534776 C16.9597227,16.613733 16.9507457,17.0303991 17.2055955,17.2966262 L19.8722622,19.8589509 L19.8689451,20.0783651 L19.8406118,20.1039883 L19.74,20.1427352 L16.8333333,20.1427352 C16.4546288,20.1427352 16.15,20.4354444 16.15,20.7934617 C16.15,21.1514789 16.4546288,21.4441881 16.8333333,21.4441881 L20.1666667,21.4441881 L20.3166667,21.5941881 L20.3166667,23.1956411 L20.1666667,23.3456411 L16.8333333,23.3456411 Z M43.9426388,43.0061008 L42.8706892,43.0061008 L42.7206892,42.8561008 L42.7206892,24.6329579 C42.7206892,23.5317578 41.8279901,22.6390587 40.72679,22.6390587 L38.5828909,22.6390587 C37.4816908,22.6390587 36.5889917,23.5317578 36.5889917,24.6329579 L36.5889917,42.8561008 L36.4389917,43.0061008 L34.2950925,43.0061008 L34.1450925,42.8561008 L34.1450925,32.136605 C34.1450925,31.0354049 33.2523935,30.1427058 32.1511934,30.1427058 L30.0072942,30.1427058 C28.9060941,30.1427058 28.013395,31.0354049 28.013395,32.136605 L28.013395,42.8561008 L27.863395,43.0061008 L25.7194958,43.0061008 L25.5694958,42.8561008 L25.5694958,36.4244033 C25.5694958,35.3232032 24.6767968,34.4305042 23.5755967,34.4305042 L21.4316975,34.4305042 C20.3304974,34.4305042 19.4377983,35.3232032 19.4377983,36.4244033 L19.4377983,42.8561008 L19.2877983,43.0061008 L16.0719496,43.0061008 C15.5627709,43.0061008 15.15,43.4188717 15.15,43.9280504 C15.15,44.4372291 15.5627709,44.85 16.0719496,44.85 L43.9426388,44.85 C44.4518175,44.85 44.8645884,44.4372291 44.8645884,43.9280504 C44.8645884,43.4188717 44.4518175,43.0061008 43.9426388,43.0061008 Z M23.5755967,43.0061008 L21.4316975,43.0061008 L21.2816975,42.8561008 L21.2816975,36.4244033 L21.4316975,36.2744033 L23.5755967,36.2744033 L23.7255967,36.4244033 L23.7255967,42.8561008 L23.5755967,43.0061008 Z M32.1511934,43.0061008 L30.0072942,43.0061008 L29.8572942,42.8561008 L29.8572942,32.136605 L30.0072942,31.986605 L32.1511934,31.986605 L32.3011934,32.136605 L32.3011934,42.8561008 L32.1511934,43.0061008 Z M40.72679,43.0061008 L38.5828909,43.0061008 L38.4328909,42.8561008 L38.4328909,24.6329579 L38.5828909,24.4829579 L40.72679,24.4829579 L40.87679,24.6329579 L40.87679,42.8561008 L40.72679,43.0061008 Z"></path>
            </g>
            <g id="Group-15" transform="translate(32.000000, 32.000000)">
                <circle id="Oval-14" fill="#00D6EB" cx="7.5" cy="7.5" r="7.5"></circle>
                <circle id="Oval-14" stroke="#FFFFFF" stroke-width="1.5" fill="#00D6EB" cx="8" cy="8" r="6"></circle>
                <g id="Shape" fill-rule="nonzero">
                    <use fill="#FFFFFF" fill-rule="evenodd" xlink:href="#path-2"></use>
                    <path stroke="#FFFFFF" stroke-width="0.2" d="M10.7584448,10.4172281 C10.9469211,10.4172281 11.099496,10.569803 11.099496,10.7582792 C11.099496,10.9467554 10.9469211,11.0993304 10.7584448,11.0993304 L5.24105118,11.0993304 C5.05257497,11.0993304 4.9,10.9467554 4.9,10.7582792 C4.9,10.569803 5.05257497,10.4172281 5.24105118,10.4172281 L10.7584448,10.4172281 Z M6.59242662,9.8192034 L6.59224663,9.81927939 C6.46948171,9.87096989 6.33558068,9.84121411 6.24662347,9.75121034 C6.15782221,9.66136435 6.12848062,9.52864165 6.18014701,9.40685659 L6.84829846,7.8308769 C6.86410352,7.79333988 6.88682603,7.75913127 6.91528321,7.73067409 L9.57488122,5.07107607 C9.80225736,4.84369993 10.1722426,4.84269862 10.3992809,5.0697369 L10.9302631,5.60071908 C11.1573014,5.82775736 11.1563001,6.19774264 10.9289239,6.42511878 L8.26811744,9.08590495 C8.2390036,9.11404833 8.20582746,9.13624708 8.16930308,9.15162555 L6.59242662,9.8192034 Z M9.98775066,5.62268852 L9.71268914,5.89775003 L10.1015804,6.28664127 L10.3766419,6.01157976 L9.98775066,5.62268852 Z M7.44812398,8.16231519 L7.16130356,8.83944794 L7.82324265,8.564979 L9.61933944,6.76888221 L9.2304482,6.37999097 L7.44812398,8.16231519 Z"></path>
                </g>
            </g>
        </g>
    </g>
</svg>