<svg width="60" height="60" xmlns="http://www.w3.org/2000/svg" xmlns:xlink="http://www.w3.org/1999/xlink"><defs><path d="M24.23 9.509l-8.668-3.446c-.029-.01-.058-.02-.087-.028V2.266c0-1.005-.755-1.82-1.68-1.82-.101 0-.205.017-.302.052L.732 4.998C.33 5.138.062 5.543.062 6v21.734c0 1.005.754 1.82 1.68 1.82h21.433c.936 0 1.693-.847 1.693-1.89V10.5c0-.443-.255-.837-.637-.991zM13.536 7.89v19.554H2.008V6.766l11.527-4.064v5.19zm9.39 19.554h-7.447V8.278l7.448 2.96v16.207z" id="a"/><path d="M4.015 12.75h2.59c.143 0 .26-.127.26-.281V10.78c0-.154-.117-.281-.26-.281h-2.59c-.142 0-.259.127-.259.281v1.688c0 .154.117.281.26.281zm4.922 0h2.59c.143 0 .26-.127.26-.281V10.78c0-.154-.117-.281-.26-.281h-2.59c-.142 0-.259.127-.259.281v1.688c0 .154.117.281.26.281zm-4.922 4.5h2.59c.143 0 .26-.127.26-.281V15.28c0-.154-.117-.281-.26-.281h-2.59c-.142 0-.259.127-.259.281v1.688c0 .154.117.281.26.281zm4.922 0h2.59c.143 0 .26-.127.26-.281V15.28c0-.154-.117-.281-.26-.281h-2.59c-.142 0-.259.127-.259.281v1.688c0 .154.117.281.26.281zm-4.922 4.5h2.59c.143 0 .26-.127.26-.281V19.78c0-.154-.117-.281-.26-.281h-2.59c-.142 0-.259.127-.259.281v1.688c0 .154.117.281.26.281zm4.922 0h2.59c.143 0 .26-.127.26-.281V19.78c0-.154-.117-.281-.26-.281h-2.59c-.142 0-.259.127-.259.281v1.688c0 .154.117.281.26.281zm9.488-4.5h1.554c.142 0 .259-.127.259-.281V15.28c0-.154-.117-.281-.26-.281h-1.553c-.143 0-.26.127-.26.281v1.688c0 .154.117.281.26.281zm0 4.5h1.554c.142 0 .259-.127.259-.281V19.78c0-.154-.117-.281-.26-.281h-1.553c-.143 0-.26.127-.26.281v1.688c0 .154.117.281.26.281z" id="b"/></defs><g fill="none" fill-rule="evenodd"><circle fill="#F79E45" cx="30" cy="30" r="30"/><g transform="translate(15 15)"><g fill-rule="nonzero"><g transform="translate(1.875)"><use fill="#FFF" fill-rule="evenodd" xlink:href="#a"/><path stroke="#F79E45" stroke-width=".2" d="M24.193 9.601l-8.665-3.444a.692.692 0 0 0-.077-.025l-.076-.097V2.266c0-.95-.711-1.72-1.58-1.72a.793.793 0 0 0-.269.046L.765 5.092c-.36.126-.603.491-.603.908v21.734c0 .95.71 1.72 1.58 1.72h21.433c.878 0 1.593-.8 1.593-1.79V10.5c0-.402-.23-.759-.575-.899zM13.635 2.702v24.743l-.1.1H2.008l-.1-.1V6.766l.066-.094 11.528-4.064.133.094zm9.29 24.843h-7.447l-.1-.1V8.278l.137-.093 7.448 2.96.063.093v16.207l-.1.1z"/></g><g transform="translate(1.875)"><use fill="#FFF" fill-rule="evenodd" xlink:href="#b"/><path stroke="#F79E45" stroke-width=".2" d="M4.015 12.65h2.59c.086 0 .16-.08.16-.181V10.78c0-.101-.074-.181-.16-.181h-2.59c-.085 0-.159.08-.159.181v1.688c0 .101.074.181.16.181zm4.922 0h2.59c.086 0 .16-.08.16-.181V10.78c0-.101-.074-.181-.16-.181h-2.59c-.085 0-.159.08-.159.181v1.688c0 .101.074.181.16.181zm-4.922 4.5h2.59c.086 0 .16-.08.16-.181V15.28c0-.101-.074-.181-.16-.181h-2.59c-.085 0-.159.08-.159.181v1.688c0 .101.074.181.16.181zm4.922 0h2.59c.086 0 .16-.08.16-.181V15.28c0-.101-.074-.181-.16-.181h-2.59c-.085 0-.159.08-.159.181v1.688c0 .101.074.181.16.181zm-4.922 4.5h2.59c.086 0 .16-.08.16-.181V19.78c0-.101-.074-.181-.16-.181h-2.59c-.085 0-.159.08-.159.181v1.688c0 .101.074.181.16.181zm4.922 0h2.59c.086 0 .16-.08.16-.181V19.78c0-.101-.074-.181-.16-.181h-2.59c-.085 0-.159.08-.159.181v1.688c0 .101.074.181.16.181zm9.488-4.5h1.554c.085 0 .159-.08.159-.181V15.28c0-.101-.074-.181-.16-.181h-1.553c-.086 0-.16.08-.16.181v1.688c0 .101.074.181.16.181zm0 4.5h1.554c.085 0 .159-.08.159-.181V19.78c0-.101-.074-.181-.16-.181h-1.553c-.086 0-.16.08-.16.181v1.688c0 .101.074.181.16.181z"/></g></g><rect fill="#FFF" y="27.931" width="30" height="1.552" rx=".776"/></g></g></svg>