<svg width="60" height="60" xmlns="http://www.w3.org/2000/svg" xmlns:xlink="http://www.w3.org/1999/xlink"><defs><rect id="a" x="0" y="4" width="24" height="24" rx="2"/></defs><g fill="none" fill-rule="evenodd"><circle fill="#F69330" cx="30" cy="30" r="30"/><g transform="translate(15 14)"><rect stroke="#FFF" stroke-width="1.5" x="4.75" y=".75" width="22.5" height="22.5" rx="2"/><use fill="#F69330" xlink:href="#a"/><rect stroke="#FFF" stroke-width="1.5" x=".75" y="4.75" width="22.5" height="22.5" rx="2"/><g transform="translate(4 8)" fill="#FFF"><rect width="15" height="1.5" rx=".75"/><rect y="5" width="15" height="1.5" rx=".75"/><rect y="10" width="10" height="1.5" rx=".75"/></g><circle fill="#F69330" cx="23.5" cy="24.5" r="6.5"/><g><path d="M19 23.085V22a1 1 0 0 1 1-1h7a1 1 0 0 1 1 1v1.085c-.477.206-.818.762-.818 1.415s.341 1.209.818 1.415V27a1 1 0 0 1-1 1h-7a1 1 0 0 1-1-1v-1.085c.477-.206.818-.762.818-1.415s-.341-1.209-.818-1.415z" stroke="#FFF" fill="#F69330"/><path d="M21.468 22.055c.363.286.672.573.925.86l-.413.407c-.21-.276-.512-.573-.908-.892l.396-.375zm3.133 4.962c-.297 0-.622-.006-.969-.011a4.073 4.073 0 0 1-.87-.094 1.181 1.181 0 0 1-.567-.38c-.072-.094-.138-.138-.204-.138-.104 0-.292.243-.567.738l-.424-.39c.275-.441.518-.722.738-.843v-1.51h-.727v-.528h1.261v2.098l.055.055c.121.143.248.254.375.325.16.083.396.127.715.138.314.005.683.01 1.102.01.275 0 .55-.005.837-.005.28-.01.495-.022.644-.033l-.138.568h-1.26zm-1.905-4.197h.584V22h.556v.82h.694v-.809h.561v.81h.634v.534h-.634v.93h.81v.54h-.81v1.465h-.561v-1.465h-.826c-.154.622-.43 1.085-.832 1.388l-.347-.457c.287-.21.49-.518.612-.931h-.634v-.54h.744c.022-.176.033-.358.033-.556v-.374h-.584v-.535zm1.14.535v.242c0 .242-.017.473-.039.688h.733v-.93h-.694z" fill="#FFF"/></g></g></g></svg>