<?xml version="1.0" encoding="UTF-8"?>
<svg width="60px" height="60px" viewBox="0 0 60 60" version="1.1" xmlns="http://www.w3.org/2000/svg" xmlns:xlink="http://www.w3.org/1999/xlink">
    <!-- Generator: Sketch 49.3 (51167) - http://www.bohemiancoding.com/sketch -->
    <title>fixedAssetsInvoice</title>
    <desc>Created with Sketch.</desc>
    <defs>
        <rect id="path-1" x="0" y="4" width="24" height="24" rx="2"></rect>
    </defs>
    <g id="icon" stroke="none" stroke-width="1" fill="none" fill-rule="evenodd">
        <g id="fixedAssetsInvoice">
            <circle id="Oval-Copy" fill="#F69330" cx="30" cy="30" r="30"></circle>
            <g id="Group-75" transform="translate(15.000000, 14.000000)">
                <g id="Group-4">
                    <rect id="Rectangle-5" stroke="#FFFFFF" stroke-width="1.5" x="4.75" y="0.75" width="22.5" height="22.5" rx="2"></rect>
                    <g id="Rectangle-5-Copy">
                        <use fill="#F69330" fill-rule="evenodd" xlink:href="#path-1"></use>
                        <rect stroke="#FFFFFF" stroke-width="1.5" x="0.75" y="4.75" width="22.5" height="22.5" rx="2"></rect>
                    </g>
                    <g id="Group" transform="translate(4.000000, 8.000000)" fill="#FFFFFF">
                        <rect id="Rectangle-3-Copy-3" x="0" y="0" width="15" height="1.5" rx="0.75"></rect>
                        <rect id="Rectangle-3-Copy-4" x="0" y="5" width="15" height="1.5" rx="0.75"></rect>
                        <rect id="Rectangle-3-Copy-5" x="0" y="10" width="10" height="1.5" rx="0.75"></rect>
                    </g>
                </g>
                <circle id="Oval-6-Copy-2" fill="#F69330" cx="23.5" cy="24.5" r="6.5"></circle>
                <g id="Group-5-Copy-2" transform="translate(19.000000, 21.000000)">
                    <path d="M0,2.08535285 L0,1 C-6.76353751e-17,0.44771525 0.44771525,1.01453063e-16 1,0 L8,0 C8.55228475,-1.01453063e-16 9,0.44771525 9,1 L9,2.08535285 C8.52333039,2.29127106 8.18181818,2.84689059 8.18181818,3.5 C8.18181818,4.15310941 8.52333039,4.70872894 9,4.91464715 L9,6 C9,6.55228475 8.55228475,7 8,7 L1,7 C0.44771525,7 6.76353751e-17,6.55228475 0,6 L0,4.91464715 C0.476669607,4.70872894 0.818181818,4.15310941 0.818181818,3.5 C0.818181818,2.84689059 0.476669607,2.29127106 9.71445147e-17,2.08535285 Z" id="Combined-Shape" stroke="#FFFFFF" fill="#F69330"></path>
                    <path d="M2.46806167,1.05506608 C2.8314978,1.34140969 3.13986784,1.6277533 3.39317181,1.91409692 L2.98017621,2.3215859 C2.77092511,2.04625551 2.46806167,1.74889868 2.0715859,1.42951542 L2.46806167,1.05506608 Z M5.60132159,6.01651982 C5.30396476,6.01651982 4.97907489,6.01101322 4.63215859,6.00550661 C4.27973568,6 3.99339207,5.96696035 3.76211454,5.91189427 C3.54185022,5.84581498 3.35462555,5.719163 3.19493392,5.53193833 C3.12334802,5.43832599 3.05726872,5.39427313 2.99118943,5.39427313 C2.88656388,5.39427313 2.69933921,5.63656388 2.42400881,6.13215859 L2,5.74118943 C2.2753304,5.30066079 2.51762115,5.01982379 2.73788546,4.89867841 L2.73788546,3.38986784 L2.01101322,3.38986784 L2.01101322,2.86123348 L3.27202643,2.86123348 L3.27202643,4.9592511 L3.32709251,5.01431718 C3.44823789,5.15748899 3.57488987,5.26762115 3.70154185,5.33920705 C3.86123348,5.42180617 4.09801762,5.46585903 4.41740088,5.47687225 C4.73127753,5.48237885 5.10022026,5.48788546 5.51872247,5.48788546 C5.79405286,5.48788546 6.06938326,5.48237885 6.35572687,5.48237885 C6.63656388,5.47136564 6.85132159,5.46035242 7,5.44933921 L6.8623348,6.01651982 L5.60132159,6.01651982 Z M3.69603524,1.82048458 L4.27973568,1.82048458 L4.27973568,1 L4.83590308,1 L4.83590308,1.82048458 L5.52973568,1.82048458 L5.52973568,1.01101322 L6.09140969,1.01101322 L6.09140969,1.82048458 L6.7246696,1.82048458 L6.7246696,2.35462555 L6.09140969,2.35462555 L6.09140969,3.28524229 L6.90088106,3.28524229 L6.90088106,3.82488987 L6.09140969,3.82488987 L6.09140969,5.28964758 L5.52973568,5.28964758 L5.52973568,3.82488987 L4.70374449,3.82488987 C4.54955947,4.44713656 4.27422907,4.90969163 3.8722467,5.21255507 L3.5253304,4.75550661 C3.81167401,4.54625551 4.0154185,4.23788546 4.13656388,3.82488987 L3.50330396,3.82488987 L3.50330396,3.28524229 L4.24669604,3.28524229 C4.26872247,3.10903084 4.27973568,2.92731278 4.27973568,2.72907489 L4.27973568,2.35462555 L3.69603524,2.35462555 L3.69603524,1.82048458 Z M4.83590308,2.35462555 L4.83590308,2.5969163 C4.83590308,2.83920705 4.81938326,3.07048458 4.79735683,3.28524229 L5.52973568,3.28524229 L5.52973568,2.35462555 L4.83590308,2.35462555 Z" id="进" fill="#FFFFFF"></path>
                </g>
            </g>
        </g>
    </g>
</svg>