<?xml version="1.0" encoding="UTF-8"?>
<svg width="60px" height="60px" viewBox="0 0 60 60" version="1.1" xmlns="http://www.w3.org/2000/svg" xmlns:xlink="http://www.w3.org/1999/xlink">
    <!-- Generator: Sketch 49.3 (51167) - http://www.bohemiancoding.com/sketch -->
    <title>进项管理-固定资产信息采集</title>
    <desc>Created with Sketch.</desc>
    <defs>
        <path d="M24.4105149,8.89513609 L15.6919975,5.67210181 C15.6626861,5.66223538 15.6333747,5.65236895 15.6040633,5.64579133 L15.6040633,2.12018649 C15.6040633,1.17958669 14.8452233,0.416582661 13.9137717,0.416582661 C13.8128102,0.416582661 13.7085918,0.433026714 13.6108871,0.465914819 L0.775744417,4.67559224 C0.371898263,4.80714466 0.101581886,5.18535786 0.101581886,5.61290323 L0.101581886,25.9443296 C0.101581886,26.8849294 0.860421836,27.6479335 1.79187345,27.6479335 L23.3487903,27.6479335 C24.2900124,27.6479335 25.0521092,26.8553301 25.0521092,25.8785534 L25.0521092,9.82258065 C25.0521092,9.40819052 24.7948201,9.03984375 24.4105149,8.89513609 Z M13.6532258,7.38228327 L13.6532258,25.6746472 L2.058933,25.6746472 L2.058933,6.32986391 L13.6532258,2.52799899 L13.6532258,7.38228327 Z M23.0980149,25.6746472 L15.6073201,25.6746472 L15.6073201,7.74405242 L23.0980149,10.5132308 L23.0980149,25.6746472 Z" id="path-1"></path>
        <path d="M8.75844484,8.51784383 L3.24105118,8.51784383 C3.10780344,8.51784383 3,8.62565931 3,8.75892192 C3,8.89218452 3.10780344,9 3.24105118,9 L8.75844484,9 C8.89169258,9 8.99949602,8.89218452 8.99949602,8.75892192 C8.99949602,8.62565931 8.89169258,8.51784383 8.75844484,8.51784383 Z M4.55344093,7.72764345 L6.1303174,7.05999109 C6.15576169,7.04927651 6.17852764,7.0338743 6.19861523,7.01445412 L8.85821325,4.35455927 C9.04636709,4.16638443 9.04770626,3.85967954 8.85955242,3.6715047 L8.32857024,3.14046325 C8.1404164,2.95228842 7.83374574,2.95362774 7.6455919,3.14180258 L4.98599388,5.80169743 C4.96657587,5.82111761 4.95117538,5.84455575 4.94046199,5.87000289 L4.27221456,7.44638569 C4.23471771,7.53478098 4.26083159,7.62384594 4.31774645,7.68143682 C4.37466131,7.73902769 4.46438592,7.76514448 4.55344093,7.72764345 Z M7.98641148,3.4826602 L7.98775066,3.48132088 L8.51806325,4.01169266 L8.51672408,4.01303198 L8.10158038,4.42822202 L7.57126778,3.89785023 L7.98641148,3.4826602 Z M5.36364073,6.10572368 L7.2304482,4.23870786 L7.76076079,4.76907964 L5.89395333,6.63609546 L4.97394133,7.02583836 L5.36364073,6.10572368 Z" id="path-2"></path>
    </defs>
    <g id="icon" stroke="none" stroke-width="1" fill="none" fill-rule="evenodd">
        <g id="进项管理-固定资产信息采集">
            <circle id="Oval-Copy-3" fill="#2A98FF" cx="30" cy="30" r="30"></circle>
            <g id="Group-51" transform="translate(13.000000, 16.000000)">
                <g id="Group-3" transform="translate(4.000000, 0.000000)" fill-rule="nonzero">
                    <g id="Shape">
                        <use fill="#FFFFFF" fill-rule="evenodd" xlink:href="#path-1"></use>
                        <path stroke="#2A98FF" stroke-width="0.2" d="M24.3755528,8.98882572 L15.6587877,5.76643807 C15.6173608,5.75255058 15.6018482,5.74778121 15.5821673,5.74336473 L15.5040633,5.64579133 L15.5040633,2.12018649 C15.5040633,1.23528202 14.790456,0.516582661 13.9137717,0.516582661 C13.8223639,0.516582661 13.7290161,0.531664992 13.6420517,0.56093463 L0.806717417,4.77067469 C0.445038154,4.8884913 0.201581886,5.2275911 0.201581886,5.61290323 L0.201581886,25.9443296 C0.201581886,26.8292341 0.915189138,27.5479335 1.79187345,27.5479335 L23.3487903,27.5479335 C24.2335904,27.5479335 24.9521092,26.801271 24.9521092,25.8785534 L24.9521092,9.82258065 C24.9521092,9.45124429 24.7219783,9.11939952 24.3755505,8.98882487 Z M13.7532258,2.52799899 L13.7532258,25.6746472 L13.6532258,25.7746472 L2.058933,25.7746472 L1.958933,25.6746472 L1.958933,6.32986391 L2.02777455,6.23484207 L13.6220674,2.43297715 L13.7532258,2.52799899 Z M23.0980149,25.7746472 L15.6073201,25.7746472 L15.5073201,25.6746472 L15.5073201,7.74405242 L15.6419948,7.65025655 L23.1326896,10.419435 L23.1980149,10.5132308 L23.1980149,25.6746472 L23.0980149,25.7746472 Z"></path>
                    </g>
                    <path d="M4.07816377,11.9274194 L6.68362283,11.9274194 C6.82692308,11.9274194 6.94416873,11.8090222 6.94416873,11.6643145 L6.94416873,10.0856855 C6.94416873,9.94097782 6.82692308,9.82258065 6.68362283,9.82258065 L4.07816377,9.82258065 C3.93486352,9.82258065 3.81761787,9.94097782 3.81761787,10.0856855 L3.81761787,11.6643145 C3.81761787,11.8090222 3.93486352,11.9274194 4.07816377,11.9274194 Z M9.02853598,11.9274194 L11.633995,11.9274194 C11.7772953,11.9274194 11.8945409,11.8090222 11.8945409,11.6643145 L11.8945409,10.0856855 C11.8945409,9.94097782 11.7772953,9.82258065 11.633995,9.82258065 L9.02853598,9.82258065 C8.88523573,9.82258065 8.76799007,9.94097782 8.76799007,10.0856855 L8.76799007,11.6643145 C8.76799007,11.8090222 8.88523573,11.9274194 9.02853598,11.9274194 Z M4.07816377,16.1370968 L6.68362283,16.1370968 C6.82692308,16.1370968 6.94416873,16.0186996 6.94416873,15.8739919 L6.94416873,14.2953629 C6.94416873,14.1506552 6.82692308,14.0322581 6.68362283,14.0322581 L4.07816377,14.0322581 C3.93486352,14.0322581 3.81761787,14.1506552 3.81761787,14.2953629 L3.81761787,15.8739919 C3.81761787,16.0186996 3.93486352,16.1370968 4.07816377,16.1370968 Z M9.02853598,16.1370968 L11.633995,16.1370968 C11.7772953,16.1370968 11.8945409,16.0186996 11.8945409,15.8739919 L11.8945409,14.2953629 C11.8945409,14.1506552 11.7772953,14.0322581 11.633995,14.0322581 L9.02853598,14.0322581 C8.88523573,14.0322581 8.76799007,14.1506552 8.76799007,14.2953629 L8.76799007,15.8739919 C8.76799007,16.0186996 8.88523573,16.1370968 9.02853598,16.1370968 Z M4.07816377,20.3467742 L6.68362283,20.3467742 C6.82692308,20.3467742 6.94416873,20.228377 6.94416873,20.0836694 L6.94416873,18.5050403 C6.94416873,18.3603327 6.82692308,18.2419355 6.68362283,18.2419355 L4.07816377,18.2419355 C3.93486352,18.2419355 3.81761787,18.3603327 3.81761787,18.5050403 L3.81761787,20.0836694 C3.81761787,20.228377 3.93486352,20.3467742 4.07816377,20.3467742 Z M9.02853598,20.3467742 L11.633995,20.3467742 C11.7772953,20.3467742 11.8945409,20.228377 11.8945409,20.0836694 L11.8945409,18.5050403 C11.8945409,18.3603327 11.7772953,18.2419355 11.633995,18.2419355 L9.02853598,18.2419355 C8.88523573,18.2419355 8.76799007,18.3603327 8.76799007,18.5050403 L8.76799007,20.0836694 C8.76799007,20.228377 8.88523573,20.3467742 9.02853598,20.3467742 Z M18.5710298,16.1370968 L20.1343052,16.1370968 C20.2776055,16.1370968 20.3948511,16.0186996 20.3948511,15.8739919 L20.3948511,14.2953629 C20.3948511,14.1506552 20.2776055,14.0322581 20.1343052,14.0322581 L18.5710298,14.0322581 C18.4277295,14.0322581 18.3104839,14.1506552 18.3104839,14.2953629 L18.3104839,15.8739919 C18.3104839,16.0186996 18.4277295,16.1370968 18.5710298,16.1370968 Z M18.5710298,20.3467742 L20.1343052,20.3467742 C20.2776055,20.3467742 20.3948511,20.228377 20.3948511,20.0836694 L20.3948511,18.5050403 C20.3948511,18.3603327 20.2776055,18.2419355 20.1343052,18.2419355 L18.5710298,18.2419355 C18.4277295,18.2419355 18.3104839,18.3603327 18.3104839,18.5050403 L18.3104839,20.0836694 C18.3104839,20.228377 18.4277295,20.3467742 18.5710298,20.3467742 Z" id="Shape" fill="#FFFFFF"></path>
                </g>
                <rect id="Rectangle-9" fill="#FFFFFF" x="0" y="26" width="26" height="1.5" rx="0.75"></rect>
                <circle id="Oval-15" fill="#2A98FF" cx="27.1666667" cy="20.5" r="7.5"></circle>
                <g id="Group-15" transform="translate(22.071960, 14.838710)">
                    <ellipse id="Oval-14" stroke="#FFFFFF" stroke-width="1.5" fill="#2A98FF" cx="6" cy="6.05892857" rx="6" ry="6.05892857"></ellipse>
                    <g id="Shape" fill-rule="nonzero">
                        <use fill="#FFFFFF" fill-rule="evenodd" xlink:href="#path-2"></use>
                        <path stroke="#FFFFFF" stroke-width="0.2" d="M8.75844484,8.41784383 C8.94692355,8.41784383 9.09949602,8.57043333 9.09949602,8.75892192 C9.09949602,8.9474105 8.94692355,9.1 8.75844484,9.1 L3.24105118,9.1 C3.05257247,9.1 2.9,8.9474105 2.9,8.75892192 C2.9,8.57043333 3.05257247,8.41784383 3.24105118,8.41784383 L8.75844484,8.41784383 Z M4.59243031,7.81972944 L4.59225031,7.81980544 C4.46948218,7.87150305 4.3355772,7.84174307 4.24661955,7.75172881 C4.15782189,7.66187644 4.12848223,7.52914766 4.18014544,7.40735649 L4.84829691,5.83120086 C4.86410125,5.79366136 4.88682289,5.75945025 4.91527926,5.7309907 L7.57487727,3.07109584 C7.80225431,2.84369343 8.17224567,2.84269199 8.39928486,3.06975652 L8.93026705,3.60079797 C9.15730005,3.82785631 9.15629877,4.19786972 8.92892787,4.425266 L6.26812145,7.08634908 C6.23900779,7.11449543 6.20583156,7.13669671 6.16930677,7.15207708 L4.59243031,7.81972944 Z M7.98775066,3.62275013 L7.71268125,3.89785023 L8.10158038,4.28679277 L8.37664979,4.01169266 L7.98775066,3.62275013 Z M5.44812658,6.16265765 L5.16129604,6.83988986 L5.8232387,6.56538873 L7.61934733,4.76907964 L7.2304482,4.3801371 L5.44812658,6.16265765 Z"></path>
                    </g>
                </g>
            </g>
        </g>
    </g>
</svg>