<svg width="60" height="60" xmlns="http://www.w3.org/2000/svg" xmlns:xlink="http://www.w3.org/1999/xlink"><defs><path d="M24.41 8.895l-8.718-3.223c-.03-.01-.059-.02-.088-.026V2.12c0-.94-.759-1.703-1.69-1.703a.958.958 0 0 0-.303.049L.776 4.676a.981.981 0 0 0-.674.937v20.331c0 .94.758 1.704 1.69 1.704h21.557c.941 0 1.703-.793 1.703-1.77V9.824a.991.991 0 0 0-.641-.928zM13.654 7.382v18.293H2.06V6.33l11.594-3.802v4.854zm9.445 18.293h-7.49V7.745l7.49 2.768v15.162z" id="a"/><path d="M8.758 8.518H3.241a.24.24 0 1 0 0 .482h5.517a.24.24 0 1 0 0-.482zm-4.205-.79L6.13 7.06a.222.222 0 0 0 .069-.046l2.66-2.66a.484.484 0 0 0 0-.682l-.53-.532a.484.484 0 0 0-.683.002l-2.66 2.66a.214.214 0 0 0-.046.068l-.668 1.576a.212.212 0 0 0 .046.235.212.212 0 0 0 .235.047zm3.433-4.245l.002-.002.53.53-.001.002-.415.415-.53-.53.414-.415zM5.364 6.106L7.23 4.239l.53.53-1.866 1.867-.92.39.39-.92z" id="b"/></defs><g fill="none" fill-rule="evenodd"><circle fill="#2A98FF" cx="30" cy="30" r="30"/><g transform="translate(13 16)"><g fill-rule="nonzero"><g transform="translate(4)"><use fill="#FFF" fill-rule="evenodd" xlink:href="#a"/><path stroke="#2A98FF" stroke-width=".2" d="M24.376 8.989l-8.717-3.223a.726.726 0 0 0-.077-.023l-.078-.097V2.12c0-.885-.714-1.603-1.59-1.603a.859.859 0 0 0-.272.044L.807 4.77a.881.881 0 0 0-.605.842v20.331c0 .885.713 1.604 1.59 1.604h21.557c.885 0 1.603-.747 1.603-1.67V9.824a.891.891 0 0 0-.576-.834zM13.753 2.528v23.147l-.1.1H2.06l-.1-.1V6.33l.069-.095 11.594-3.802.131.095zm9.345 23.247h-7.49l-.1-.1V7.745l.134-.095 7.49 2.77.066.093v15.162l-.1.1z"/></g><path d="M8.078 11.927h2.606c.143 0 .26-.118.26-.263v-1.578a.263.263 0 0 0-.26-.263H8.078a.263.263 0 0 0-.26.263v1.578c0 .145.117.263.26.263zm4.95 0h2.606c.143 0 .26-.118.26-.263v-1.578a.263.263 0 0 0-.26-.263h-2.605a.263.263 0 0 0-.261.263v1.578c0 .145.117.263.26.263zm-4.95 4.21h2.606c.143 0 .26-.118.26-.263v-1.579a.263.263 0 0 0-.26-.263H8.078a.263.263 0 0 0-.26.263v1.579c0 .145.117.263.26.263zm4.95 0h2.606c.143 0 .26-.118.26-.263v-1.579a.263.263 0 0 0-.26-.263h-2.605a.263.263 0 0 0-.261.263v1.579c0 .145.117.263.26.263zm-4.95 4.21h2.606c.143 0 .26-.119.26-.263v-1.579a.263.263 0 0 0-.26-.263H8.078a.263.263 0 0 0-.26.263v1.579c0 .144.117.263.26.263zm4.95 0h2.606c.143 0 .26-.119.26-.263v-1.579a.263.263 0 0 0-.26-.263h-2.605a.263.263 0 0 0-.261.263v1.579c0 .144.117.263.26.263zm9.543-4.21h1.563c.144 0 .26-.118.26-.263v-1.579a.263.263 0 0 0-.26-.263h-1.563a.263.263 0 0 0-.26.263v1.579c0 .145.117.263.26.263zm0 4.21h1.563c.144 0 .26-.119.26-.263v-1.579a.263.263 0 0 0-.26-.263h-1.563a.263.263 0 0 0-.26.263v1.579c0 .144.117.263.26.263z" fill="#FFF"/></g><rect fill="#FFF" y="26" width="26" height="1.5" rx=".75"/><circle fill="#2A98FF" cx="27.167" cy="20.5" r="7.5"/><g transform="translate(22.072 14.839)"><ellipse stroke="#FFF" stroke-width="1.5" fill="#2A98FF" cx="6" cy="6.059" rx="6" ry="6.059"/><g fill-rule="nonzero"><use fill="#FFF" fill-rule="evenodd" xlink:href="#b"/><path stroke="#FFF" stroke-width=".2" d="M8.758 8.418a.34.34 0 1 1 0 .682H3.241a.34.34 0 1 1 0-.682h5.517zM4.592 7.82h0a.311.311 0 0 1-.345-.068.312.312 0 0 1-.067-.345l.668-1.576a.314.314 0 0 1 .067-.1l2.66-2.66a.584.584 0 0 1 .824-.001l.531.53a.584.584 0 0 1-.001.825l-2.66 2.661a.321.321 0 0 1-.1.066l-1.577.668zm3.396-4.197l-.275.275.389.389.275-.275-.39-.39zm-2.54 2.54l-.287.677.662-.275L7.62 4.77 7.23 4.38 5.448 6.163z"/></g></g></g></g></svg>