<svg xmlns="http://www.w3.org/2000/svg" width="33" height="28" viewBox="0 0 33 28">
  <metadata><?xpacket begin="﻿" id="W5M0MpCehiHzreSzNTczkc9d"?>
<x:xmpmeta xmlns:x="adobe:ns:meta/" x:xmptk="Adobe XMP Core 5.6-c138 79.159824, 2016/09/14-01:09:01        ">
   <rdf:RDF xmlns:rdf="http://www.w3.org/1999/02/22-rdf-syntax-ns#">
      <rdf:Description rdf:about=""/>
   </rdf:RDF>
</x:xmpmeta>
                                                                                                    
                                                                                                    
                                                                                                    
                                                                                                    
                                                                                                    
                                                                                                    
                                                                                                    
                                                                                                    
                                                                                                    
                                                                                                    
                                                                                                    
                                                                                                    
                                                                                                    
                                                                                                    
                                                                                                    
                                                                                                    
                                                                                                    
                                                                                                    
                                                                                                    
                                                                                                    
                           
<?xpacket end="w"?></metadata>
<defs>
    <style>
      .cls-1 {
        fill: #fff;
        fill-rule: evenodd;
      }
    </style>
  </defs>
  <path id="形状_12" data-name="形状 12" class="cls-1" d="M81.555,1118.1c-0.112-.07-0.224-0.15-0.335-0.23a1.175,1.175,0,0,0-1.58.32q-4.172,5.565-8.346,11.12a0.824,0.824,0,0,0-.106.17,0.954,0.954,0,0,1,.588.16l1.824,1.26a0.884,0.884,0,0,1,.347.49,0.946,0.946,0,0,0,.134-0.16l7.711-11.55a1.155,1.155,0,0,0-.235-1.58h0Zm-8.187,13.12-1.823-1.26a0.485,0.485,0,0,0-.53-0.01l-3.2,1.95a0.469,0.469,0,0,0-.208.54c0.375,1.22-.221,3.95-0.483,4.9a0.484,0.484,0,0,0,.188.52,0.509,0.509,0,0,0,.555,0c0.811-.57,3.2-2.06,4.488-2.13a0.47,0.47,0,0,0,.446-0.38l0.762-3.64a0.468,0.468,0,0,0-.2-0.48v-0.01Zm-1.438,3.6a9.75,9.75,0,0,0-2.846,1.16c-0.04.02-.081,0.05-0.121,0.07l1.487-2.1a0.619,0.619,0,0,0,.519-0.25,0.585,0.585,0,0,0-.146-0.82,0.579,0.579,0,0,0-.443-0.09,0.554,0.554,0,0,0-.382.24,0.579,0.579,0,0,0-.049.59l-1.479,2.08c0.007-.04.014-0.08,0.022-0.13a9.385,9.385,0,0,0,.125-3.04l2.635-1.6,1.3,0.9-0.626,2.99h0Zm0,0-0.48,2.85a0.956,0.956,0,0,0-.955.95l0.172,1.14h-19.4v-23.52h19.4v10.08c0,0.52.255,0.66,0.783,0.66s1.484-.14,1.484-0.66v-11.2A1.706,1.706,0,0,0,71.45,1114h-21.5a0.947,0.947,0,0,0-.955.94v26.12a0.947,0.947,0,0,0,.955.94H71.45c0.575,0,1.7-.37,1.446-0.91l0.038-2.45c0-.52-0.955-0.96-1.484-0.97h0Zm0,0M55,1120H67v-2H55v2Zm0,5H67v-2H55v2Zm0,5H67v-2H55v2Zm0,7H65v-2H55v2Zm0,0" transform="translate(-49 -1114)"/>
</svg>
