<svg width="60" height="60" xmlns="http://www.w3.org/2000/svg" xmlns:xlink="http://www.w3.org/1999/xlink"><defs><rect id="a" x="0" y="0" width="25" height="27" rx="2"/><path d="M5.93 5.588L4.552 4.211a2.571 2.571 0 1 0-.34.34l1.377 1.379a.241.241 0 0 0 .342 0 .243.243 0 0 0-.001-.342zM3.384 4.497c-.257.109-.53.164-.813.164a2.067 2.067 0 0 1-1.477-.612 2.084 2.084 0 0 1 0-2.955 2.084 2.084 0 0 1 2.955 0 2.084 2.084 0 0 1 0 2.955 2.077 2.077 0 0 1-.665.448z" id="b"/></defs><g fill="none" fill-rule="evenodd"><circle fill="#FFB934" cx="30" cy="30" r="30"/><g transform="translate(16 16)"><use fill="#FFB934" xlink:href="#a"/><rect stroke="#FFF" stroke-width="1.5" x=".75" y=".75" width="23.5" height="25.5" rx="2"/><rect fill="#FFF" x="4" y="15.75" width="8" height="1.5" rx=".75"/><rect fill="#FFF" x="4" y="10.5" width="6" height="1.5" rx=".75"/><rect fill="#FFF" x="4" y="21" width="10" height="1.5" rx=".75"/><path fill="#FFF" d="M13 4h1.939L17 7.373 19.061 4H21l-2.621 3.9h1.747v.739h-2.252l-.014.01v.93h2.266v.74H17.86V12h-1.72v-1.68h-2.253v-.74h2.253v-.93l-.014-.011h-2.239v-.74h1.734z"/><circle fill="#FFB934" cx="21.5" cy="20.5" r="7.5"/><circle stroke="#FFF" stroke-width="1.5" fill="#FFB934" cx="22" cy="21" r="6"/><g fill-rule="nonzero"><g transform="translate(19 18)"><use fill="#FFF" fill-rule="evenodd" xlink:href="#b"/><path stroke="#FFF" stroke-width=".2" d="M4.204 4.686a2.671 2.671 0 1 1 .482-.482L6 5.517h0A.341.341 0 1 1 5.518 6L4.205 4.686zm-.859-.281h0a1.985 1.985 0 0 0 .632-3.24 1.985 1.985 0 0 0-2.812 0 1.985 1.985 0 0 0 0 2.813 1.985 1.985 0 0 0 2.18.427z"/></g></g></g></g></svg>