<svg width="60" height="60" xmlns="http://www.w3.org/2000/svg"><g fill="none" fill-rule="evenodd"><circle fill="#06BC59" cx="30" cy="30" r="30"/><path d="M41.26 27.397v1.697H32.07v-1.697h9.192zm-9.191-3.4h9.192v1.697h-9.192v-1.697zM42.518 42H17.38C16.067 42 15 40.703 15 39.108V20.892C15 19.297 16.067 18 17.38 18h25.138C43.83 18 45 19.297 45 20.892v18.216C45 40.703 43.83 42 42.518 42zM16.4 20.892v18.216c0 .657.44 1.19.98 1.19h25.138c.54 0 1.082-.533 1.082-1.19V20.892c0-.657-.542-1.19-1.082-1.19H17.38c-.54 0-.98.533-.98 1.19zm2.265 10.851h10.484v1.372h-4.367v1.372c0 .427-.087.754-.26.98-.175.227-.445.353-.81.378-.366.026-.87.039-1.514.039a22.091 22.091 0 0 0-.274-1.436c.394.026.749.039 1.065.039.246 0 .37-.184.37-.552v-.82h-1.762l.675 1.102-2.9 1.616c-.254-.53-.503-1-.75-1.41.616-.218 1.525-.654 2.727-1.308h-2.684v-1.372zm.643-5.87h2.605v-.796H18.94v-1.333h9.925v1.333h-2.953v.795h2.616v3.346h-9.219v-3.346zm.106 3.96H28.4v1.27h-8.986v-1.27zm1.255-1.846h1.244v-.884H20.67v.884zm2.615-2.115h1.256v-.795h-1.256v.795zm0 2.115h1.256v-.884h-1.256v.884zm2.774 5.166c.886.368 1.881.795 2.985 1.282l-.622 1.346a67.606 67.606 0 0 0-2.953-1.423l.59-1.205zm1.108-5.166v-.884H25.91v.884h1.255zM38.685 38.98c-2.034 0-3.626-1.17-3.626-2.663 0-1.494 1.592-2.663 3.626-2.663 2.033 0 3.626 1.17 3.626 2.663 0 1.493-1.593 2.663-3.626 2.663zm0-4.496c-.82 0-1.585.215-2.155.605-.508.348-.788.784-.788 1.228 0 .443.28.88.788 1.227.57.39 1.335.605 2.155.605.82 0 1.585-.215 2.155-.605.508-.348.788-.784.788-1.227 0-.444-.28-.88-.788-1.228-.57-.39-1.336-.605-2.155-.605z" fill="#FFF" fill-rule="nonzero"/><g transform="translate(33 32)"><circle fill="#06BC59" cx="6.5" cy="6.5" r="6.5"/><path d="M2 5.085V4a1 1 0 0 1 1-1h7a1 1 0 0 1 1 1v1.085c-.477.206-.818.762-.818 1.415s.341 1.209.818 1.415V9a1 1 0 0 1-1 1H3a1 1 0 0 1-1-1V7.915c.477-.206.818-.762.818-1.415S2.477 5.291 2 5.085z" stroke="#FFF" fill="#06BC59"/><path d="M7.306 4.005h.558v1.44h.995v2.862c0 .433-.19.655-.562.655h-.515l-.146-.536.482.027c.119 0 .179-.092.179-.27V7.83H6.868v1.142h-.563V5.445h1.001v-1.44zm-.438 2.9v.45h1.429v-.45H6.868zm1.429-.475v-.45H6.868v.45h1.429zM6.635 4.21c.163.265.32.557.471.882l-.454.227a6.724 6.724 0 0 0-.487-.882l.47-.227zm1.9-.06L9 4.38c-.13.324-.292.638-.498.941l-.454-.238c.205-.314.368-.622.487-.93zM4.703 4l.542.114a6.858 6.858 0 0 1-.12.427h.899v.536H4.942c-.082.2-.168.39-.255.563h1.245v.503h-.498v.509h.682v.519h-.682v1.055c.222-.086.444-.19.66-.32l.098.493c-.374.195-.801.357-1.283.487L4.676 8.4c.136-.048.206-.124.206-.222V7.171H4.2v-.52h.682v-.508h-.26v-.379c-.054.097-.108.19-.162.276L4 5.748A5.621 5.621 0 0 0 4.703 4z" fill="#FFF"/></g></g></svg>