<?xml version="1.0" encoding="UTF-8"?>
<svg width="60px" height="60px" viewBox="0 0 60 60" version="1.1" xmlns="http://www.w3.org/2000/svg" xmlns:xlink="http://www.w3.org/1999/xlink">
    <!-- Generator: Sketch 49.3 (51167) - http://www.bohemiancoding.com/sketch -->
    <title>销项管理-收入检查</title>
    <desc>Created with Sketch.</desc>
    <defs>
        <rect id="path-1" x="0" y="0" width="25" height="27" rx="2"></rect>
        <path d="M5.9296875,5.58816964 L4.55223214,4.21138393 C4.92120536,3.76607143 5.14285714,3.19486607 5.14285714,2.57142857 C5.14285714,1.15111607 3.99174107,0 2.57142857,0 C1.15111607,0 0,1.15111607 0,2.57142857 C0,3.99174107 1.15111607,5.14285714 2.57142857,5.14285714 C3.19486607,5.14285714 3.76607143,4.92120536 4.21138393,4.55223214 L5.58883929,5.9296875 C5.63571429,5.9765625 5.69732143,6 5.75959821,6 C5.821875,6 5.8828125,5.9765625 5.93035714,5.9296875 C6.0234375,5.83526786 6.0234375,5.68258929 5.9296875,5.58816964 Z M3.384375,4.49665179 C3.12723214,4.60580357 2.85401786,4.66071429 2.57142857,4.66071429 C2.28883929,4.66071429 2.015625,4.60580357 1.75848214,4.49665179 C1.51004464,4.39151786 1.28638393,4.24084821 1.09419643,4.04866071 C0.902008929,3.85647321 0.751339286,3.6328125 0.646205357,3.384375 C0.537053571,3.12723214 0.482142857,2.85401786 0.482142857,2.57142857 C0.482142857,2.28883929 0.537053571,2.015625 0.646205357,1.75848214 C0.751339286,1.51004464 0.902008929,1.28638393 1.09419643,1.09419643 C1.28638393,0.902008929 1.51004464,0.751339286 1.75848214,0.646205357 C2.015625,0.537053571 2.28883929,0.482142857 2.57142857,0.482142857 C2.85401786,0.482142857 3.12723214,0.537053571 3.384375,0.646205357 C3.6328125,0.751339286 3.85647321,0.902008929 4.04866071,1.09419643 C4.24084821,1.28638393 4.39151786,1.51004464 4.49665179,1.75848214 C4.60580357,2.015625 4.66071429,2.28883929 4.66071429,2.57142857 C4.66071429,2.85401786 4.60580357,3.12723214 4.49665179,3.384375 C4.39151786,3.6328125 4.24084821,3.85647321 4.04866071,4.04866071 C3.85647321,4.24084821 3.63348214,4.39151786 3.384375,4.49665179 Z" id="path-2"></path>
    </defs>
    <g id="icon" stroke="none" stroke-width="1" fill="none" fill-rule="evenodd">
        <g id="销项管理-收入检查">
            <circle id="Oval-12" fill="#FFB934" cx="30" cy="30" r="30"></circle>
            <g id="Group-13" transform="translate(17.000000, 17.000000)">
                <g id="Rectangle-11">
                    <use fill="#FFB934" fill-rule="evenodd" xlink:href="#path-1"></use>
                    <rect stroke="#FFFFFF" stroke-width="1.5" x="0.75" y="0.75" width="23.5" height="25.5" rx="2"></rect>
                </g>
                <rect id="Rectangle-12" fill="#FFFFFF" x="4" y="15.75" width="8" height="1.5" rx="0.75"></rect>
                <rect id="Rectangle-12-Copy" fill="#FFFFFF" x="4" y="10.5" width="6" height="1.5" rx="0.75"></rect>
                <rect id="Rectangle-12-Copy-2" fill="#FFFFFF" x="4" y="21" width="10" height="1.5" rx="0.75"></rect>
                <polygon id="￥" fill="#FFFFFF" points="13 4 14.9385666 4 17 7.37254902 19.0614334 4 21 4 18.3788396 7.89915966 20.1262799 7.89915966 20.1262799 8.63865546 17.8737201 8.63865546 17.8600683 8.64985994 17.8600683 9.57983193 20.1262799 9.57983193 20.1262799 10.3193277 17.8600683 10.3193277 17.8600683 12 16.1399317 12 16.1399317 10.3193277 13.887372 10.3193277 13.887372 9.57983193 16.1399317 9.57983193 16.1399317 8.64985994 16.1262799 8.63865546 13.887372 8.63865546 13.887372 7.89915966 15.6211604 7.89915966"></polygon>
                <circle id="Oval-13" fill="#FFB934" cx="21.5" cy="20.5" r="7.5"></circle>
                <circle id="Oval-13" stroke="#FFFFFF" stroke-width="1.5" fill="#FFB934" cx="22" cy="21" r="6"></circle>
                <g id="search" transform="translate(19.000000, 18.000000)" fill-rule="nonzero">
                    <g id="Shape">
                        <use fill="#FFFFFF" fill-rule="evenodd" xlink:href="#path-2"></use>
                        <path stroke="#FFFFFF" stroke-width="0.2" d="M4.20397005,4.68623962 C3.74037496,5.0446299 3.17121343,5.24285714 2.57142857,5.24285714 C1.0958876,5.24285714 -0.1,4.04696955 -0.1,2.57142857 C-0.1,1.0958876 1.0958876,-0.1 2.57142857,-0.1 C4.04696955,-0.1 5.24285714,1.0958876 5.24285714,2.57142857 C5.24285714,3.17120594 5.04463485,3.74036075 4.68625304,4.20395269 L6.00038098,5.51744177 L6.00064937,5.51771105 C6.1329286,5.65093513 6.13322048,5.86634767 6.00056456,6.00089788 C5.93523675,6.06530559 5.84949198,6.1 5.75959821,6.1 C5.66936586,6.1 5.58280791,6.06507748 5.51812861,6.00039818 L4.20396989,4.68623946 Z M3.34530155,4.40460144 L3.34549181,4.40452091 C3.58224677,4.30460014 3.79453318,4.16136689 3.97795004,3.97795004 C4.16085075,3.79504932 4.30434221,3.58221971 4.40460144,3.34530155 C4.50832138,3.10095519 4.56071429,2.84107357 4.56071429,2.57142857 C4.56071429,2.30178357 4.50832138,2.04190195 4.40455849,1.79745424 C4.30434221,1.56063744 4.16085075,1.34780782 3.97795004,1.16490711 C3.79504932,0.982006389 3.58221971,0.838514931 3.34530155,0.738255698 C3.10095519,0.63453576 2.84107357,0.582142857 2.57142857,0.582142857 C2.30178357,0.582142857 2.04190195,0.63453576 1.79745424,0.738298656 C1.56063744,0.838514931 1.34780782,0.982006389 1.16490711,1.16490711 C0.982006389,1.34780782 0.838514931,1.56063744 0.738255698,1.7975556 C0.63453576,2.04190195 0.582142857,2.30178357 0.582142857,2.57142857 C0.582142857,2.84107357 0.63453576,3.10095519 0.738298656,3.3454029 C0.838514931,3.58221971 0.982006389,3.79504932 1.16490711,3.97795004 C1.34780782,4.16085075 1.56063744,4.30434221 1.7975556,4.40460144 C2.04190195,4.50832138 2.30178357,4.56071429 2.57142857,4.56071429 C2.84107357,4.56071429 3.10095519,4.50832138 3.34530155,4.40460144 Z"></path>
                    </g>
                </g>
            </g>
        </g>
    </g>
</svg>