<?xml version="1.0" encoding="UTF-8"?>
<svg width="30px" height="29px" viewBox="0 0 30 29" version="1.1" xmlns="http://www.w3.org/2000/svg" xmlns:xlink="http://www.w3.org/1999/xlink">
    <!-- Generator: Sketch 48.2 (47327) - http://www.bohemiancoding.com/sketch -->
    <title>Combined shape 2623</title>
    <desc>Created with Sketch.</desc>
    <defs></defs>
    <g id="Artboard" stroke="none" stroke-width="1" fill="none" fill-rule="evenodd" transform="translate(-50.000000, -756.000000)">
        <g id="进项税台账" transform="translate(14.000000, 719.000000)" fill="#FFFFFF">
            <g id="01">
                <g id="组-1" transform="translate(36.000000, 37.000000)">
                    <path d="M18.576358,4.81424 C19.008823,4.81424 19.359415,5.16176 19.359415,5.590752 C19.359415,6.019616 19.008823,6.367264 18.576358,6.367264 L5.733319,6.367264 C5.30059,6.367264 4.95013,6.019616 4.95013,5.590752 C4.95013,5.16176 5.30059,4.81424 5.733319,4.81424 L18.576358,4.81424 Z M18.576358,8.696608 C19.008823,8.696608 19.359415,9.044256 19.359415,9.47296 C19.359415,9.901952 19.008823,10.2496 18.576358,10.2496 L5.733319,10.2496 C5.30059,10.2496 4.95013,9.901952 4.95013,9.47296 C4.95013,9.044256 5.30059,8.696608 5.733319,8.696608 L18.576358,8.696608 Z M14.347408,12.578944 C14.780005,12.578944 15.130597,12.926432 15.130597,13.355456 C15.130597,13.784448 14.780005,14.131936 14.347408,14.131936 L5.733319,14.131936 C5.30059,14.131936 4.95013,13.784448 4.95013,13.355456 C4.95013,12.926432 5.30059,12.578944 5.733319,12.578944 L14.347408,12.578944 Z M22.221274,13.574048 C26.510515,13.574048 29.999902,17.03408 29.999902,21.28688 C29.999902,25.540128 26.510515,29.000032 22.221274,29.000032 C17.931736,29.000032 14.442217,25.540128 14.442217,21.28688 C14.442217,17.033952 17.931736,13.574048 22.221274,13.574048 Z M22.221274,27.44704 C25.646872,27.44704 28.43392,24.683616 28.43392,21.28688 C28.43392,17.890176 25.646872,15.126912 22.221274,15.126912 C18.795544,15.126912 16.008496,17.890176 16.008496,21.28688 C16.008496,24.683616 18.795544,27.44704 22.221274,27.44704 Z M12.937846,23.76032 C13.370443,23.76032 13.721035,24.107968 13.721035,24.536832 C13.721035,24.965696 13.370443,25.313344 12.937846,25.313344 L2.267692,25.313344 C1.017355,25.313344 -3.5e-05,24.304512 -3.5e-05,23.064736 L-3.5e-05,2.248416 C-3.5e-05,1.0088 1.017355,-3.2e-05 2.267692,-3.2e-05 L21.885169,-3.2e-05 C23.135605,-3.2e-05 24.152863,1.0088 24.152731,2.248416 L24.152731,10.870688 C24.152731,11.29952 23.802139,11.647168 23.369542,11.647168 C22.937077,11.647168 22.586485,11.29952 22.586485,10.870688 L22.586485,2.248416 C22.586485,1.865024 22.271698,1.552992 21.885037,1.552992 L2.267692,1.552992 C1.881031,1.552992 1.566244,1.865024 1.566244,2.248416 L1.566244,23.064896 C1.566244,23.448 1.880899,23.76032 2.267692,23.76032 L12.937846,23.76032 Z M22.999967,17.999987 L22.999967,22.00006 L24.999974,22.00006 L22.000031,24.999958 L18.999962,22.00006 L20.99996,22.00006 L20.99996,17.999987 L22.999967,17.999987 Z" id="Combined-shape-2623"></path>
                </g>
            </g>
        </g>
    </g>
</svg>