<svg id="组_2" data-name="组 2" xmlns="http://www.w3.org/2000/svg" width="30" height="29" viewBox="0 0 30 29">
  <metadata><?xpacket begin="﻿" id="W5M0MpCehiHzreSzNTczkc9d"?>
<x:xmpmeta xmlns:x="adobe:ns:meta/" x:xmptk="Adobe XMP Core 5.6-c138 79.159824, 2016/09/14-01:09:01        ">
   <rdf:RDF xmlns:rdf="http://www.w3.org/1999/02/22-rdf-syntax-ns#">
      <rdf:Description rdf:about=""/>
   </rdf:RDF>
</x:xmpmeta>
                                                                                                    
                                                                                                    
                                                                                                    
                                                                                                    
                                                                                                    
                                                                                                    
                                                                                                    
                                                                                                    
                                                                                                    
                                                                                                    
                                                                                                    
                                                                                                    
                                                                                                    
                                                                                                    
                                                                                                    
                                                                                                    
                                                                                                    
                                                                                                    
                                                                                                    
                                                                                                    
                           
<?xpacket end="w"?></metadata>
<defs>
    <style>
      .cls-1 {
        fill: #fff;
        fill-rule: evenodd;
      }
    </style>
  </defs>
  <path id="形状_20" data-name="形状 20" class="cls-1" d="M682.518,775.948a0.427,0.427,0,0,1-.334-0.127l-1.909-1.98a0.475,0.475,0,0,1,0-.681,0.467,0.467,0,0,1,.682,0l1.895,1.965a0.475,0.475,0,0,1,0,.681,0.428,0.428,0,0,1-.334.142h0Zm0,0,0.222-.127a0.536,0.536,0,0,1-.347-0.142,0.518,0.518,0,0,1,0-.7l1.783-1.837a0.467,0.467,0,0,1,.682,0,0.489,0.489,0,0,1,0,.681l-1.784,1.837a0.539,0.539,0,0,1-.334.157h0Zm0,0M682.546,782a0.471,0.471,0,0,1-.335-0.141,0.489,0.489,0,0,1-.139-0.341V775.3a0.485,0.485,0,0,1,.139-0.341,0.468,0.468,0,0,1,.335-0.142,0.493,0.493,0,0,1,.487.483v6.222a0.492,0.492,0,0,1-.487.482h0Zm0,0,1.978-4.349h-4.055a0.493,0.493,0,0,1-.473-0.5,0.487,0.487,0,0,1,.139-0.341,0.47,0.47,0,0,1,.334-0.141h4.055a0.471,0.471,0,0,1,.335.141,0.486,0.486,0,0,1,.138.341,0.492,0.492,0,0,1-.473.5h0Zm0,2.547h-4.055a0.47,0.47,0,0,1-.334-0.141,0.487,0.487,0,0,1-.139-0.341,0.493,0.493,0,0,1,.473-0.5h4.055a0.492,0.492,0,0,1,.473.5,0.486,0.486,0,0,1-.138.341,0.471,0.471,0,0,1-.335.141h0Zm0,0" transform="translate(-660 -756)"/>
  <path id="形状_17_拷贝_5" data-name="形状 17 拷贝 5" class="cls-1" d="M678.576,760.814H665.733a0.777,0.777,0,1,0,0,1.553h12.843a0.777,0.777,0,1,0,0-1.553h0Zm0,0,0,3.883H665.733a0.777,0.777,0,1,0,0,1.553h12.843a0.777,0.777,0,1,0,0-1.553h0Zm0,0-4.229,3.882h-8.614a0.777,0.777,0,1,0,0,1.553h8.614a0.777,0.777,0,1,0,0-1.553h0Zm0,0,7.874,1A7.713,7.713,0,1,0,690,777.287a7.755,7.755,0,0,0-7.779-7.713h0Zm0,13.873a6.16,6.16,0,1,1,6.213-6.16,6.193,6.193,0,0,1-6.213,6.16h0Zm0,0-9.283-3.687h-10.67a0.7,0.7,0,0,1-.7-0.695V758.248a0.7,0.7,0,0,1,.7-0.7h19.617a0.7,0.7,0,0,1,.7.7v8.623a0.783,0.783,0,0,0,1.566,0v-8.623A2.261,2.261,0,0,0,681.885,756H662.268A2.261,2.261,0,0,0,660,758.248v20.817a2.26,2.26,0,0,0,2.268,2.248h10.67a0.777,0.777,0,1,0,0-1.553h0Zm0,0" transform="translate(-660 -756)"/>
</svg>
