<svg width="60" height="60" xmlns="http://www.w3.org/2000/svg" xmlns:xlink="http://www.w3.org/1999/xlink"><defs><rect id="a" x="0" y="0" width="25" height="27" rx="2"/><path d="M26.078 23.338l-2.314 2.076a.7.7 0 0 1-.465.176.693.693 0 0 1-.695-.691c0-.207.09-.389.232-.516l.97-.87h-3.112a.693.693 0 1 1 0-1.384h3.111l-.97-.87a.69.69 0 0 1 .464-1.207.69.69 0 0 1 .465.179l2.314 2.076a.691.691 0 0 1 0 1.03z" id="b"/></defs><g fill="none" fill-rule="evenodd"><circle fill="#05DCAC" cx="30" cy="30" r="30"/><g transform="translate(15 15)"><use fill="#05DCAC" xlink:href="#a"/><rect stroke="#FFF" stroke-width="1.5" x=".75" y=".75" width="23.5" height="25.5" rx="2"/><rect fill="#FFF" x="5" y="5" width="15" height="1.5" rx=".75"/><rect fill="#FFF" x="5" y="10" width="15" height="1.5" rx=".75"/><rect fill="#FFF" x="5" y="15" width="10" height="1.5" rx=".75"/><circle fill="#05DCAC" cx="22.5" cy="22.5" r="7.5"/><path d="M22.692 29.385a6.692 6.692 0 1 1 0-13.385 6.692 6.692 0 0 1 0 13.385zm0-1.385a5.308 5.308 0 1 0 0-10.615 5.308 5.308 0 0 0 0 10.615z" fill="#FFF" fill-rule="nonzero"/><g fill-rule="nonzero"><use fill="#FFF" fill-rule="evenodd" xlink:href="#b"/><path stroke="#05DCAC" stroke-width=".2" d="M26.011 23.263h0a.59.59 0 0 0 0-.882l-2.314-2.076a.593.593 0 0 0-.993.44c0 .169.073.327.198.44l.97.87-.067.174h-3.111a.592.592 0 1 0 0 1.185h3.111l.067.174-.97.87a.587.587 0 0 0-.198.44c0 .327.266.592.595.592.15 0 .29-.054.399-.15l2.313-2.077z"/></g></g></g></svg>