<svg id="组_1" data-name="组 1" xmlns="http://www.w3.org/2000/svg" width="30" height="29" viewBox="0 0 30 29">
  <metadata><?xpacket begin="﻿" id="W5M0MpCehiHzreSzNTczkc9d"?>
<x:xmpmeta xmlns:x="adobe:ns:meta/" x:xmptk="Adobe XMP Core 5.6-c138 79.159824, 2016/09/14-01:09:01        ">
   <rdf:RDF xmlns:rdf="http://www.w3.org/1999/02/22-rdf-syntax-ns#">
      <rdf:Description rdf:about=""/>
   </rdf:RDF>
</x:xmpmeta>
                                                                                                    
                                                                                                    
                                                                                                    
                                                                                                    
                                                                                                    
                                                                                                    
                                                                                                    
                                                                                                    
                                                                                                    
                                                                                                    
                                                                                                    
                                                                                                    
                                                                                                    
                                                                                                    
                                                                                                    
                                                                                                    
                                                                                                    
                                                                                                    
                                                                                                    
                                                                                                    
                           
<?xpacket end="w"?></metadata>
<defs>
    <style>
      .cls-1 {
        fill: #fff;
        fill-rule: evenodd;
      }
    </style>
  </defs>
  <path id="形状_17_拷贝_4" data-name="形状 17 拷贝 4" class="cls-1" d="M68.576,760.814H55.733a0.777,0.777,0,1,0,0,1.553H68.576a0.777,0.777,0,1,0,0-1.553h0Zm0,0,0,3.883H55.733a0.777,0.777,0,1,0,0,1.553H68.576a0.777,0.777,0,1,0,0-1.553h0Zm0,0-4.229,3.882H55.733a0.777,0.777,0,1,0,0,1.553h8.614a0.777,0.777,0,1,0,0-1.553h0Zm0,0,7.874,1A7.713,7.713,0,1,0,80,777.287a7.755,7.755,0,0,0-7.779-7.713h0Zm0,13.873a6.16,6.16,0,1,1,6.213-6.16,6.193,6.193,0,0,1-6.213,6.16h0Zm0,0-9.283-3.687H52.268a0.7,0.7,0,0,1-.7-0.695V758.248a0.7,0.7,0,0,1,.7-0.7H71.885a0.7,0.7,0,0,1,.7.7v8.623a0.783,0.783,0,0,0,1.566,0v-8.623A2.261,2.261,0,0,0,71.885,756H52.268A2.261,2.261,0,0,0,50,758.248v20.817a2.26,2.26,0,0,0,2.268,2.248h10.67a0.777,0.777,0,1,0,0-1.553h0Zm0,0" transform="translate(-50 -756)"/>
  <path id="形状_18" data-name="形状 18" class="cls-1" d="M73,774v4h2l-3,3-3-3h2v-4h2Z" transform="translate(-50 -756)"/>
</svg>
