<svg id="组_1_拷贝" data-name="组 1 拷贝" xmlns="http://www.w3.org/2000/svg" width="30" height="29" viewBox="0 0 30 29">
  <metadata><?xpacket begin="﻿" id="W5M0MpCehiHzreSzNTczkc9d"?>
<x:xmpmeta xmlns:x="adobe:ns:meta/" x:xmptk="Adobe XMP Core 5.6-c138 79.159824, 2016/09/14-01:09:01        ">
   <rdf:RDF xmlns:rdf="http://www.w3.org/1999/02/22-rdf-syntax-ns#">
      <rdf:Description rdf:about=""/>
   </rdf:RDF>
</x:xmpmeta>
                                                                                                    
                                                                                                    
                                                                                                    
                                                                                                    
                                                                                                    
                                                                                                    
                                                                                                    
                                                                                                    
                                                                                                    
                                                                                                    
                                                                                                    
                                                                                                    
                                                                                                    
                                                                                                    
                                                                                                    
                                                                                                    
                                                                                                    
                                                                                                    
                                                                                                    
                                                                                                    
                           
<?xpacket end="w"?></metadata>
<defs>
    <style>
      .cls-1 {
        fill: #fff;
        fill-rule: evenodd;
      }
    </style>
  </defs>
  <path id="形状_17_拷贝_4" data-name="形状 17 拷贝 4" class="cls-1" d="M402.221,769.574A7.713,7.713,0,1,0,410,777.287a7.755,7.755,0,0,0-7.779-7.713h0Zm0,13.873a6.16,6.16,0,1,1,6.213-6.16,6.193,6.193,0,0,1-6.213,6.16h0Zm0,0-9.283-3.687h-10.67a0.7,0.7,0,0,1-.7-0.695V758.248a0.7,0.7,0,0,1,.7-0.7h19.617a0.7,0.7,0,0,1,.7.7v8.623a0.784,0.784,0,0,0,1.567,0v-8.623A2.261,2.261,0,0,0,401.885,756H382.268A2.261,2.261,0,0,0,380,758.248v20.817a2.26,2.26,0,0,0,2.268,2.248h10.67a0.777,0.777,0,1,0,0-1.553h0Zm0,0" transform="translate(-380 -756)"/>
  <path id="形状_19" data-name="形状 19" class="cls-1" d="M396,766v-2h-4v-1h1l0.042-3H390v3h1v1h-4v2h-1v4h3.093L389,766h-1v-1h3v1a1.808,1.808,0,0,0-1,0v4h3v-4c0-.256-1,0-1,0v-1h3v1a3.364,3.364,0,0,1-1,0l-0.108,3.918L397,770v-4C397.13,765.726,396,766,396,766Zm-5-5h1v1h-1v-1Zm-3,8h-1v-2h1v2Zm4,0h-1v-2h1v2Zm4,0h-1v-2h1v2Zm0,0" transform="translate(-380 -756)"/>
  <path id="形状_18" data-name="形状 18" class="cls-1" d="M403,774v4h2l-3,4-3-4h2v-4h2Z" transform="translate(-380 -756)"/>
</svg>
