<svg xmlns="http://www.w3.org/2000/svg" width="28" height="30" viewBox="0 0 28 30">
  <metadata><?xpacket begin="﻿" id="W5M0MpCehiHzreSzNTczkc9d"?>
<x:xmpmeta xmlns:x="adobe:ns:meta/" x:xmptk="Adobe XMP Core 5.6-c138 79.159824, 2016/09/14-01:09:01        ">
   <rdf:RDF xmlns:rdf="http://www.w3.org/1999/02/22-rdf-syntax-ns#">
      <rdf:Description rdf:about=""/>
   </rdf:RDF>
</x:xmpmeta>
                                                                                                    
                                                                                                    
                                                                                                    
                                                                                                    
                                                                                                    
                                                                                                    
                                                                                                    
                                                                                                    
                                                                                                    
                                                                                                    
                                                                                                    
                                                                                                    
                                                                                                    
                                                                                                    
                                                                                                    
                                                                                                    
                                                                                                    
                                                                                                    
                                                                                                    
                                                                                                    
                           
<?xpacket end="w"?></metadata>
<defs>
    <style>
      .cls-1 {
        fill: #fff;
        fill-rule: evenodd;
      }
    </style>
  </defs>
  <path id="形状_11" data-name="形状 11" class="cls-1" d="M388.016,177.39a1.032,1.032,0,0,0,0,2.064h8.706a9.578,9.578,0,0,1-1.1-2.059h-7.608V177.39Zm0,8.242h8.02a1.032,1.032,0,0,0,0-2.064h-8.02a1.032,1.032,0,0,0,0,2.064h0Zm0,6.186h10.027a1.032,1.032,0,0,0,0-2.064H388.016a1.032,1.032,0,0,0,0,2.064h0Zm0,0,17.039,2.059a2.038,2.038,0,0,1-2,2.06H385.01a2.038,2.038,0,0,1-2-2.06v-18.55a2.038,2.038,0,0,1,2-2.059h9.7c-0.061-.692-0.089-1.384-0.081-2.059H385.01a4.073,4.073,0,0,0-4.01,4.118v18.55A4.078,4.078,0,0,0,385.01,198h18.042a4.078,4.078,0,0,0,4.01-4.123V182.025a6.2,6.2,0,0,1-2,.608Zm0,0M402.5,168a6.679,6.679,0,1,0,6.5,6.677A6.59,6.59,0,0,0,402.5,168h0Zm0.045,11.823c-4.5-2.084-4.194-8.417-4.194-8.417,3.671-.562,4.194-1.2,4.194-1.2s0.522,0.637,4.189,1.2c0,0,.3,6.333-4.189,8.417h0Zm0,0,1.9-6.329-1.231-.172-0.551-1.078a0.14,0.14,0,0,0-.118-0.1,0.137,0.137,0,0,0-.119.1l-0.551,1.078-1.231.172a0.129,0.129,0,0,0-.139.109,0.17,0.17,0,0,0,.061.113l0.893,0.839-0.212,1.187a0.2,0.2,0,0,0,0,.046,0.131,0.131,0,0,0,.025.084,0.086,0.086,0,0,0,.077.034,0.2,0.2,0,0,0,.1-0.03l1.1-.562,1.1,0.562a0.218,0.218,0,0,0,.1.03,0.088,0.088,0,0,0,.073-0.034,0.131,0.131,0,0,0,.025-0.084,0.137,0.137,0,0,0,0-.046l-0.212-1.187,0.889-.839a0.162,0.162,0,0,0,.065-0.113c0-.058-0.041-0.092-0.135-0.109h0Zm0,0" transform="translate(-381 -168)"/>
</svg>
