<svg id="图层_1" data-name="图层 1" xmlns="http://www.w3.org/2000/svg" viewBox="0 0 28 30"><defs><style>.cls-1{fill:#fff;}</style></defs><title>稽查报告</title><path id="形状_11" data-name="形状 11" class="cls-1" d="M7,9.39a1,1,0,0,0,0,2.06h8.71a9.58,9.58,0,0,1-1.1-2.06H7Zm0,8.24h8a1,1,0,0,0,0-2.06H7a1,1,0,0,0,0,2.06Zm0,6.19H17a1,1,0,0,0,0-2.06H7a1,1,0,0,0,0,2.06Zm17-1.88.05,3.94a2,2,0,0,1-2,2.06H4a2,2,0,0,1-2-2.06V7.33A2,2,0,0,1,4,5.27h9.7c-.06-.69-.09-1.38-.08-2.06H4A4.07,4.07,0,0,0,0,7.33V25.88A4.08,4.08,0,0,0,4,30h18a4.08,4.08,0,0,0,4-4.12V14a6.2,6.2,0,0,1-2,.61ZM21.5,0A6.68,6.68,0,1,0,28,6.86q0-.09,0-.18A6.59,6.59,0,0,0,21.5,0Zm0,11.82C17,9.74,17.35,3.41,17.35,3.41c3.67-.56,4.19-1.2,4.19-1.2s.52.64,4.19,1.2c0,0,.3,6.33-4.19,8.42Zm1.91-6.33h0l-1.23-.17-.55-1.08a.14.14,0,0,0-.12-.1.14.14,0,0,0-.12.1l-.55,1.08-1.23.17a.13.13,0,0,0-.14.11.17.17,0,0,0,.06.11l.89.84-.21,1.19a.2.2,0,0,0,0,0,.13.13,0,0,0,0,.08.09.09,0,0,0,.08,0l.1,0,1.1-.56,1.1.56.1,0a.09.09,0,0,0,.07,0,.13.13,0,0,0,0-.08.14.14,0,0,0,0,0l-.21-1.19.89-.84a.16.16,0,0,0,.07-.11c0-.06,0-.09-.14-.11Z" transform="translate(0 0)"/></svg>