<svg xmlns="http://www.w3.org/2000/svg" width="28" height="30" viewBox="0 0 28 30">
  <metadata><?xpacket begin="﻿" id="W5M0MpCehiHzreSzNTczkc9d"?>
<x:xmpmeta xmlns:x="adobe:ns:meta/" x:xmptk="Adobe XMP Core 5.6-c138 79.159824, 2016/09/14-01:09:01        ">
   <rdf:RDF xmlns:rdf="http://www.w3.org/1999/02/22-rdf-syntax-ns#">
      <rdf:Description rdf:about=""/>
   </rdf:RDF>
</x:xmpmeta>
                                                                                                    
                                                                                                    
                                                                                                    
                                                                                                    
                                                                                                    
                                                                                                    
                                                                                                    
                                                                                                    
                                                                                                    
                                                                                                    
                                                                                                    
                                                                                                    
                                                                                                    
                                                                                                    
                                                                                                    
                                                                                                    
                                                                                                    
                                                                                                    
                                                                                                    
                                                                                                    
                           
<?xpacket end="w"?></metadata>
<defs>
    <style>
      .cls-1 {
        fill: #fff;
        fill-rule: evenodd;
      }
    </style>
  </defs>
  <path id="形状_32" data-name="形状 32" class="cls-1" d="M1278,1120h15v2h-15v-2Zm0,3h15v2h-15v-2Zm-4.11-7.12h22.7v14.99h1.89v-14.99a1.88,1.88,0,0,0-1.89-1.88h-22.7a1.886,1.886,0,0,0-1.89,1.88v26.25a1.884,1.884,0,0,0,1.89,1.87h13.24v-1.87h-13.24v-26.25ZM1278,1131v2h4a8.276,8.276,0,0,1,.54-2.08Zm7-4h-7v2l5.37,0.05A9.807,9.807,0,0,1,1286,1127h-1Zm14.72,15.26-4.34-4.24a6.505,6.505,0,0,0,1.6-4.28,6.6,6.6,0,1,0-3.03,5.51l4.43,4.34a0.948,0.948,0,0,0,1.34,0,0.936,0.936,0,0,0,0-1.33h0Zm-14.09-8.52a4.73,4.73,0,1,1,4.73,4.69,4.712,4.712,0,0,1-4.73-4.69h0Zm0,0" transform="translate(-1272 -1114)"/>
</svg>
