<svg id="组_10" data-name="组 10" xmlns="http://www.w3.org/2000/svg" width="30" height="29" viewBox="0 0 30 29">
  <metadata><?xpacket begin="﻿" id="W5M0MpCehiHzreSzNTczkc9d"?>
<x:xmpmeta xmlns:x="adobe:ns:meta/" x:xmptk="Adobe XMP Core 5.6-c138 79.159824, 2016/09/14-01:09:01        ">
   <rdf:RDF xmlns:rdf="http://www.w3.org/1999/02/22-rdf-syntax-ns#">
      <rdf:Description rdf:about=""/>
   </rdf:RDF>
</x:xmpmeta>
                                                                                                    
                                                                                                    
                                                                                                    
                                                                                                    
                                                                                                    
                                                                                                    
                                                                                                    
                                                                                                    
                                                                                                    
                                                                                                    
                                                                                                    
                                                                                                    
                                                                                                    
                                                                                                    
                                                                                                    
                                                                                                    
                                                                                                    
                                                                                                    
                                                                                                    
                                                                                                    
                           
<?xpacket end="w"?></metadata>
<defs>
    <style>
      .cls-1 {
        fill: #fff;
        fill-rule: evenodd;
      }
    </style>
  </defs>
  <path id="形状_21" data-name="形状 21" class="cls-1" d="M987,775.943a0.844,0.844,0,0,0-.665-0.517l-2.1-.311-0.99-1.749a0.858,0.858,0,0,0-1.436,0l-1,1.753-2.105.307a0.692,0.692,0,0,0-.664.517,0.609,0.609,0,0,0,.223.723l1.548,1.341-0.224,2.06a0.916,0.916,0,0,0,.33.723,0.888,0.888,0,0,0,.883.105l1.878-.929,1.878,0.929a0.422,0.422,0,0,0,.33.105,2.56,2.56,0,0,0,.441-0.105,0.9,0.9,0,0,0,.331-0.723l-0.331-1.959,1.548-1.341a2.471,2.471,0,0,0,.121-0.929h0Zm-2.014,1.47a1.381,1.381,0,0,0-.428,1.185l0.214,1.78-1.493-.991a0.812,0.812,0,0,0-.634-0.2,0.8,0.8,0,0,0-.635.2l-1.7.79,0.214-1.579a1.21,1.21,0,0,0-.429-1.185l-1.278-1.185,1.913-.2a1.4,1.4,0,0,0,1.063-.79l0.85-1.579,0.849,1.579a2.069,2.069,0,0,0,1.064.79l1.912,0.2Zm0,0" transform="translate(-960 -756)"/>
  <path id="形状_17_拷贝_6" data-name="形状 17 拷贝 6" class="cls-1" d="M978.576,760.814H965.733a0.777,0.777,0,1,0,0,1.553h12.843a0.777,0.777,0,1,0,0-1.553h0Zm0,0,0,3.883H965.733a0.777,0.777,0,1,0,0,1.553h12.843a0.777,0.777,0,1,0,0-1.553h0Zm0,0-4.229,3.882h-8.614a0.777,0.777,0,1,0,0,1.553h8.614a0.777,0.777,0,1,0,0-1.553h0Zm0,0,7.874,1A7.713,7.713,0,1,0,990,777.287a7.755,7.755,0,0,0-7.779-7.713h0Zm0,13.873a6.16,6.16,0,1,1,6.213-6.16,6.193,6.193,0,0,1-6.213,6.16h0Zm0,0-9.283-3.687h-10.67a0.7,0.7,0,0,1-.7-0.695V758.248a0.7,0.7,0,0,1,.7-0.7h19.617a0.7,0.7,0,0,1,.7.7v8.623a0.783,0.783,0,0,0,1.566,0v-8.623A2.261,2.261,0,0,0,981.885,756H962.268A2.261,2.261,0,0,0,960,758.248v20.817a2.26,2.26,0,0,0,2.268,2.248h10.67a0.777,0.777,0,1,0,0-1.553h0Zm0,0" transform="translate(-960 -756)"/>
</svg>
