<svg xmlns="http://www.w3.org/2000/svg" width="30" height="31" viewBox="0 0 30 31">
  <metadata><?xpacket begin="﻿" id="W5M0MpCehiHzreSzNTczkc9d"?>
<x:xmpmeta xmlns:x="adobe:ns:meta/" x:xmptk="Adobe XMP Core 5.6-c138 79.159824, 2016/09/14-01:09:01        ">
   <rdf:RDF xmlns:rdf="http://www.w3.org/1999/02/22-rdf-syntax-ns#">
      <rdf:Description rdf:about=""/>
   </rdf:RDF>
</x:xmpmeta>
                                                                                                    
                                                                                                    
                                                                                                    
                                                                                                    
                                                                                                    
                                                                                                    
                                                                                                    
                                                                                                    
                                                                                                    
                                                                                                    
                                                                                                    
                                                                                                    
                                                                                                    
                                                                                                    
                                                                                                    
                                                                                                    
                                                                                                    
                                                                                                    
                                                                                                    
                                                                                                    
                           
<?xpacket end="w"?></metadata>
<defs>
    <style>
      .cls-1 {
        fill: #fff;
        fill-rule: evenodd;
      }
    </style>
  </defs>
  <path id="形状_553" data-name="形状 553" class="cls-1" d="M75,1838.67H72.5v-2.59H75a2.581,2.581,0,0,0,0-5.16H65v-2.59H75a5.173,5.173,0,0,1,0,10.34h0Zm-7.5-15.5a2.5,2.5,0,1,0-5,0v10.33H60v-10.33a5,5,0,1,1,10,0v2.58H67.5v-2.58Zm-15,10.33a2.538,2.538,0,0,0,2.5,2.58H65v2.59H55a5.173,5.173,0,0,1,0-10.34h2.5v2.59H55a2.538,2.538,0,0,0-2.5,2.58h0Zm10,10.33a2.5,2.5,0,1,0,5,0V1833.5H70v10.33a5,5,0,1,1-10,0v-2.58h2.5v2.58h0Zm2.5-42.17" transform="translate(-50 -1818)"/>
</svg>
