<?xml version="1.0" encoding="UTF-8"?>
<svg width="30px" height="29px" viewBox="0 0 30 29" version="1.1" xmlns="http://www.w3.org/2000/svg" xmlns:xlink="http://www.w3.org/1999/xlink">
    <!-- Generator: Sketch 48.2 (47327) - http://www.bohemiancoding.com/sketch -->
    <title>Combined shape 2642</title>
    <desc>Created with Sketch.</desc>
    <defs></defs>
    <g id="Artboard" stroke="none" stroke-width="1" fill="none" fill-rule="evenodd" transform="translate(-960.000000, -756.000000)">
        <g id="进项税台账" transform="translate(14.000000, 719.000000)" fill="#FFFFFF">
            <g id="01-拷贝-8" transform="translate(910.000000, 0.000000)">
                <g id="组-10" transform="translate(36.000000, 37.000000)">
                    <path d="M18.576256,4.81424 C19.008864,4.81424 19.359456,5.16176 19.359456,5.590752 C19.359456,6.019616 19.008864,6.367264 18.576256,6.367264 L5.733248,6.367264 C5.300544,6.367264 4.950176,6.019616 4.950176,5.590752 C4.950176,5.16176 5.300544,4.81424 5.733248,4.81424 L18.576256,4.81424 Z M18.576256,8.696608 C19.008864,8.696608 19.359456,9.044256 19.359456,9.47296 C19.359456,9.901952 19.008864,10.2496 18.576256,10.2496 L5.733248,10.2496 C5.300544,10.2496 4.950176,9.901952 4.950176,9.47296 C4.950176,9.044256 5.300544,8.696608 5.733248,8.696608 L18.576256,8.696608 Z M14.347456,12.578944 C14.779904,12.578944 15.130528,12.926432 15.130528,13.355456 C15.130528,13.784448 14.779904,14.131936 14.347456,14.131936 L5.733248,14.131936 C5.300544,14.131936 4.950176,13.784448 4.950176,13.355456 C4.950176,12.926432 5.300544,12.578944 5.733248,12.578944 L14.347456,12.578944 Z M22.221312,13.574048 C26.510464,13.574048 29.999968,17.03408 29.999968,21.28688 C29.999968,25.540128 26.510464,29.000032 22.221312,29.000032 C17.931808,29.000032 14.442272,25.540128 14.442272,21.28688 C14.442272,17.033952 17.931808,13.574048 22.221312,13.574048 Z M22.221312,27.44704 C25.646816,27.44704 28.433856,24.683616 28.433856,21.28688 C28.433856,17.890176 25.646816,15.126912 22.221312,15.126912 C18.795584,15.126912 16.008544,17.890176 16.008544,21.28688 C16.008544,24.683616 18.795584,27.44704 22.221312,27.44704 Z M12.937888,23.76032 C13.370368,23.76032 13.72096,24.107968 13.72096,24.536832 C13.72096,24.965696 13.370368,25.313344 12.937888,25.313344 L2.267744,25.313344 C1.017312,25.313344 3.2e-05,24.304512 3.2e-05,23.064736 L3.2e-05,2.248416 C3.2e-05,1.0088 1.017312,-3.2e-05 2.267744,-3.2e-05 L21.885216,-3.2e-05 C23.135552,-3.2e-05 24.152928,1.0088 24.1528,2.248416 L24.1528,10.870688 C24.1528,11.29952 23.802208,11.647168 23.3696,11.647168 C22.937024,11.647168 22.58656,11.29952 22.58656,10.870688 L22.58656,2.248416 C22.58656,1.865024 22.271744,1.552992 21.885088,1.552992 L2.267744,1.552992 C1.88096,1.552992 1.566304,1.865024 1.566304,2.248416 L1.566304,23.064896 C1.566304,23.448 1.880832,23.76032 2.267744,23.76032 L12.937888,23.76032 Z M26.999776,19.942956 C26.999776,20.249772 26.999776,20.560908 26.879272,20.871888 L25.3315,22.212996 L25.661692,24.171756 C25.661692,24.482892 25.554532,24.688824 25.3315,24.8949 C25.220104,24.8949 25.113088,24.99996 24.890044,24.99996 C24.782896,24.99996 24.6715,24.99996 24.559984,24.8949 L22.682152,23.965968 L20.80444,24.8949 C20.474512,24.99564 20.144452,24.99564 19.921408,24.789852 C19.702996,24.583764 19.59148,24.377988 19.59148,24.066696 L19.814512,22.007064 L18.26674,20.6661 C18.043708,20.459868 17.932192,20.254236 18.043708,19.942956 C18.155224,19.631964 18.378136,19.425876 18.708316,19.425876 L20.813428,19.119072 L21.807976,17.366244 C22.138168,16.849176 23.02132,16.849176 23.244364,17.366244 L24.234292,19.114896 L26.335156,19.425876 C26.669584,19.53108 26.88826,19.631964 26.999776,19.942956 Z M24.986296,21.4131 L26.470156,20.22846 L24.557548,20.026992 C24.128668,19.83402 23.70814,19.632408 23.4937,19.237536 L22.644808,17.658456 L21.7954,19.237536 C21.58096,19.632408 21.160936,20.026992 20.732068,20.026992 L18.819328,20.22846 L20.0971,21.4131 C20.525968,21.606516 20.525968,22.202712 20.525968,22.597596 L20.311528,24.176664 L22.00984,23.387052 C22.215928,23.18574 22.430368,23.18574 22.644808,23.18574 C22.850392,23.18574 23.064832,23.18574 23.27926,23.387052 L24.771988,24.377988 L24.557548,22.597596 C24.557548,22.202712 24.557548,21.808128 24.986296,21.4131 Z" id="Combined-shape-2642"></path>
                </g>
            </g>
        </g>
    </g>
</svg>