<?xml version="1.0" encoding="UTF-8"?>
<svg width="60px" height="60px" viewBox="0 0 60 60" version="1.1" xmlns="http://www.w3.org/2000/svg" xmlns:xlink="http://www.w3.org/1999/xlink">
    <!-- Generator: Sketch 49.3 (51167) - http://www.bohemiancoding.com/sketch -->
    <title>进项管理-进项发票采集</title>
    <desc>Created with Sketch.</desc>
    <defs>
        <path d="M36.1908033,30.1866117 L20.807287,30.1866117 C20.2758868,30.1866117 19.8458084,30.5639487 19.8458084,31.030321 C19.8458084,31.4966933 20.2758514,31.8740302 20.807287,31.8740302 L36.1907679,31.8740302 C36.7222035,31.8740302 37.1522466,31.4966933 37.1522466,31.030321 C37.1522466,30.5639487 36.7222389,30.1866117 36.1908033,30.1866117 Z M28.4990451,35.2488052 L20.807287,35.2488052 C20.2758868,35.2488052 19.8458084,35.6261422 19.8458084,36.0925145 C19.8458084,36.5588868 20.2758514,36.9378686 20.807287,36.9378686 L28.4990451,36.9378686 C29.0323551,36.9378686 29.4623628,36.5588557 29.4623628,36.0925145 C29.4623628,35.6261733 29.0323905,35.2488052 28.4990451,35.2488052 Z M38.9390909,16 L20.0590347,16 C18.3727073,16 17,17.0892468 17,18.4256447 L17,40.5727105 C17,41.9107843 18.3727073,43 20.0590347,43 L32.38532,43 L34.3082772,43 L35.0105629,43 L42,37.3923917 L42,18.4256758 C42,17.0892468 40.6272927,16 38.9390909,16 Z M34.3082772,41.2763964 L34.3082772,38.7815468 C34.3082772,38.3168193 34.7382849,37.9378375 35.2678814,37.9378375 L38.4696155,37.9378375 L34.3082772,41.2763964 Z M40.0770781,36.2488052 L35.2678814,36.2488052 C33.677288,36.2488052 32.38532,37.3841678 32.38532,38.7815468 L32.38532,41.3126436 L20.0590347,41.3126435 C19.4430759,41.3126435 18.9229219,40.9731985 18.9229219,40.5727415 L18.9229219,18.4256758 C18.9229219,18.0252498 19.4430759,17.6874496 20.0590348,17.6874496 L38.9390909,17.6874496 C39.5550144,17.6874496 40.0770782,18.0252498 40.0770782,18.4256758 L40.0770781,36.2488052 Z" id="path-1"></path>
        <path d="M42.7584448,39.5172281 L37.2410512,39.5172281 C37.1078034,39.5172281 37,39.6250315 37,39.7582792 C37,39.891527 37.1078034,39.9993304 37.2410512,39.9993304 L42.7584448,39.9993304 C42.8916926,39.9993304 42.999496,39.891527 42.999496,39.7582792 C42.999496,39.6250315 42.8916926,39.5172281 42.7584448,39.5172281 Z M38.5534409,38.7271159 L40.1303174,38.059538 C40.1557617,38.0488246 40.1785276,38.0334241 40.1986152,38.0140061 L42.8582132,35.3544081 C43.0463671,35.1662543 43.0477063,34.8595836 42.8595524,34.6714298 L42.3285702,34.1404476 C42.1404164,33.9522937 41.8337457,33.9536329 41.6455919,34.1417868 L38.9859939,36.8013848 C38.9665759,36.8208028 38.9511754,36.8442383 38.940462,36.8696826 L38.2722146,38.4458895 C38.2347177,38.5342749 38.2608316,38.6233299 38.3177464,38.6809144 C38.3746613,38.7384988 38.4643859,38.7646127 38.5534409,38.7271159 Z M41.9864115,34.4826063 L41.9877507,34.4812672 L42.5180633,35.0115798 L42.5167241,35.0129189 L42.1015804,35.4280626 L41.5712678,34.89775 L41.9864115,34.4826063 Z M39.3636407,37.1053771 L41.2304482,35.2385696 L41.7607608,35.7688822 L39.8939533,37.6356897 L38.9739413,38.0253891 L39.3636407,37.1053771 Z" id="path-2"></path>
    </defs>
    <g id="icon" stroke="none" stroke-width="1" fill="none" fill-rule="evenodd">
        <g id="进项管理-进项发票采集">
            <circle id="Oval-Copy" fill="#05DCAC" transform="translate(30.000000, 30.000000) scale(-1, 1) translate(-30.000000, -30.000000) " cx="30" cy="30" r="30"></circle>
            <g id="Shape" fill-rule="nonzero" transform="translate(29.500000, 29.500000) scale(-1, 1) rotate(-180.000000) translate(-29.500000, -29.500000) ">
                <use fill="#FFFFFF" fill-rule="evenodd" xlink:href="#path-1"></use>
                <path stroke="#05DCAC" stroke-width="0.2" d="M36.1908033,30.2866117 L20.807287,30.2866117 C20.328394,30.2866117 19.9458084,30.6223182 19.9458084,31.030321 C19.9458084,31.4383351 20.3283713,31.7740302 20.807287,31.7740302 L36.1907679,31.7740302 C36.6696836,31.7740302 37.0522466,31.4383351 37.0522466,31.030321 C37.0522466,30.6222996 36.6697113,30.2866117 36.1908033,30.2866117 Z M28.4990451,35.3488052 L20.807287,35.3488052 C20.328394,35.3488052 19.9458084,35.6845117 19.9458084,36.0925145 C19.9458084,36.5009105 20.3287788,36.8378686 20.807287,36.8378686 L28.4990451,36.8378686 C28.9791425,36.8378686 29.3623628,36.5011186 29.3623628,36.0925145 C29.3623628,35.6842816 28.9795731,35.3488052 28.4990451,35.3488052 Z M38.9390909,16.1 L20.0590347,16.1 C18.4238439,16.1 17.1,17.1499636 17.1,18.4256447 L17.1,40.5727105 C17.1,41.8498144 18.4235162,42.9 20.0590347,42.9 L34.3082772,42.9 L34.9479842,42.9220006 L41.9,37.3923917 L41.9,18.4256758 C41.9,17.1497493 40.5758781,16.1 38.9390909,16.1 Z M34.2082772,41.2763964 L34.2082772,38.7815468 C34.2082772,38.258227 34.6860579,37.8378375 35.2678814,37.8378375 L38.4696155,37.8378375 L38.5321934,38.0158376 L34.3708551,41.3543964 L34.2082772,41.2763964 Z M40.0770781,36.3488052 L35.2678814,36.3488052 C33.7299181,36.3488052 32.48532,37.4424173 32.48532,38.7815468 L32.48532,41.3126436 L32.38532,41.4126436 L20.0590347,41.4126435 C19.3949203,41.4126435 18.8229219,41.0398867 18.8229219,40.5727415 L18.8229219,18.4256758 C18.8229219,17.9587745 19.3944815,17.5874496 20.0590348,17.5874496 L38.9390909,17.5874496 C39.6039528,17.5874496 40.1770782,17.958943 40.1770782,18.4256758 L40.1770781,36.2488052 L40.0770781,36.3488052 Z"></path>
            </g>
            <circle id="Oval-10" fill="#05DCAC" cx="39.5" cy="36.5" r="7.5"></circle>
            <circle id="Oval-11" stroke="#FFFFFF" stroke-width="1.5" fill="#05DCAC" cx="40" cy="37" r="6"></circle>
            <g id="Shape" fill-rule="nonzero">
                <use fill="#FFFFFF" fill-rule="evenodd" xlink:href="#path-2"></use>
                <path stroke="#FFFFFF" stroke-width="0.2" d="M42.7584448,39.4172281 C42.9469211,39.4172281 43.099496,39.569803 43.099496,39.7582792 C43.099496,39.9467554 42.9469211,40.0993304 42.7584448,40.0993304 L37.2410512,40.0993304 C37.052575,40.0993304 36.9,39.9467554 36.9,39.7582792 C36.9,39.569803 37.052575,39.4172281 37.2410512,39.4172281 L42.7584448,39.4172281 Z M38.5924266,38.8192034 L38.5922466,38.8192794 C38.4694817,38.8709699 38.3355807,38.8412141 38.2466235,38.7512103 C38.1578222,38.6613644 38.1284806,38.5286417 38.180147,38.4068566 L38.8482985,36.8308769 C38.8641035,36.7933399 38.886826,36.7591313 38.9152832,36.7306741 L41.5748812,34.0710761 C41.8022574,33.8436999 42.1722426,33.8426986 42.3992809,34.0697369 L42.9302631,34.6007191 C43.1573014,34.8277574 43.1563001,35.1977426 42.9289239,35.4251188 L40.2681174,38.085905 C40.2390036,38.1140483 40.2058275,38.1362471 40.1693031,38.1516256 L38.5924266,38.8192034 Z M41.9877507,34.6226885 L41.7126891,34.89775 L42.1015804,35.2866413 L42.3766419,35.0115798 L41.9877507,34.6226885 Z M39.448124,37.1623152 L39.1613036,37.8394479 L39.8232426,37.564979 L41.6193394,35.7688822 L41.2304482,35.379991 L39.448124,37.1623152 Z"></path>
            </g>
            <path d="M20.5320814,33.0643087 C20.9452269,33.3987138 21.2957746,33.733119 21.5837246,34.0675241 L21.114241,34.5434084 C20.8763693,34.221865 20.5320814,33.8745981 20.0813772,33.5016077 L20.5320814,33.0643087 Z M24.0938967,38.8585209 C23.7558685,38.8585209 23.3865415,38.85209 22.9921753,38.8456592 C22.5915493,38.8392283 22.2660407,38.8006431 22.0031299,38.7363344 C21.7527387,38.659164 21.5399061,38.511254 21.3583725,38.2926045 C21.2769953,38.1832797 21.2018779,38.1318328 21.1267606,38.1318328 C21.0078247,38.1318328 20.7949922,38.414791 20.4820031,38.9935691 L20,38.5369775 C20.312989,38.022508 20.5884194,37.6945338 20.8388106,37.5530547 L20.8388106,35.7909968 L20.0125196,35.7909968 L20.0125196,35.1736334 L21.4460094,35.1736334 L21.4460094,37.6237942 L21.5086072,37.6881029 C21.6463224,37.8553055 21.7902973,37.9839228 21.9342723,38.0675241 C22.1158059,38.1639871 22.3849765,38.2154341 22.7480438,38.2282958 C23.1048513,38.2347267 23.5242567,38.2411576 24,38.2411576 C24.312989,38.2411576 24.6259781,38.2347267 24.9514867,38.2347267 C25.2707355,38.221865 25.514867,38.2090032 25.6838811,38.1961415 L25.5273865,38.8585209 L24.0938967,38.8585209 Z M21.9280125,33.9581994 L22.5915493,33.9581994 L22.5915493,33 L23.2237872,33 L23.2237872,33.9581994 L24.0125196,33.9581994 L24.0125196,33.0128617 L24.6510172,33.0128617 L24.6510172,33.9581994 L25.370892,33.9581994 L25.370892,34.5819936 L24.6510172,34.5819936 L24.6510172,35.6688103 L25.571205,35.6688103 L25.571205,36.2990354 L24.6510172,36.2990354 L24.6510172,38.0096463 L24.0125196,38.0096463 L24.0125196,36.2990354 L23.0735524,36.2990354 C22.8982786,37.0257235 22.5852895,37.5659164 22.1283255,37.9196141 L21.7339593,37.3858521 C22.0594679,37.1414791 22.2910798,36.7813505 22.428795,36.2990354 L21.7089202,36.2990354 L21.7089202,35.6688103 L22.5539906,35.6688103 C22.5790297,35.4630225 22.5915493,35.2508039 22.5915493,35.0192926 L22.5915493,34.5819936 L21.9280125,34.5819936 L21.9280125,33.9581994 Z M23.2237872,34.5819936 L23.2237872,34.8649518 C23.2237872,35.14791 23.2050078,35.4180064 23.1799687,35.6688103 L24.0125196,35.6688103 L24.0125196,34.5819936 L23.2237872,34.5819936 Z M26.9045383,34.221865 L26.2347418,34.221865 L26.2347418,33.5659164 L28.2253521,33.5659164 L28.2253521,34.221865 L27.5680751,34.221865 L27.5680751,36.85209 C27.8059468,36.7684887 28.0250391,36.6848875 28.2378717,36.6012862 L28.2378717,37.2700965 C27.687011,37.5016077 27.0610329,37.7202572 26.3474178,37.9196141 L26.1533646,37.2572347 C26.4162754,37.192926 26.6666667,37.1221865 26.9045383,37.0578778 L26.9045383,34.221865 Z M28.400626,33.2122186 L31.9311424,33.2122186 L31.9311424,33.8681672 L30.485133,33.8681672 C30.4600939,34.0353698 30.428795,34.2025723 30.3912363,34.3569132 L31.6995305,34.3569132 L31.6995305,37.5016077 L31.0610329,37.5016077 L31.0610329,34.9742765 L29.2519562,34.9742765 L29.2519562,37.5016077 L28.6197183,37.5016077 L28.6197183,34.3569132 L29.7464789,34.3569132 C29.7840376,34.1961415 29.8153365,34.0353698 29.8403756,33.8681672 L28.400626,33.8681672 L28.400626,33.2122186 Z M30.7668232,37.4437299 C31.2550861,37.8038585 31.6619718,38.1639871 32,38.5176849 L31.5305164,39 C31.2488263,38.6527331 30.8482003,38.2733119 30.3286385,37.8745981 L30.7668232,37.4437299 Z M29.8153365,35.2636656 L30.4663537,35.2636656 L30.4663537,36.3954984 C30.428795,37.096463 30.2410016,37.6623794 29.9029734,38.0868167 C29.571205,38.4726688 29.0328638,38.7749196 28.2816901,38.9871383 L27.9248826,38.414791 C28.6510172,38.2090032 29.1455399,37.9581994 29.4021909,37.6623794 C29.6463224,37.340836 29.7840376,36.9163987 29.8153365,36.3954984 L29.8153365,35.2636656 Z" id="进项" fill="#FFFFFF"></path>
        </g>
    </g>
</svg>