<svg id="组_11" data-name="组 11" xmlns="http://www.w3.org/2000/svg" width="30" height="22" viewBox="0 0 30 22">
  <metadata><?xpacket begin="﻿" id="W5M0MpCehiHzreSzNTczkc9d"?>
<x:xmpmeta xmlns:x="adobe:ns:meta/" x:xmptk="Adobe XMP Core 5.6-c138 79.159824, 2016/09/14-01:09:01        ">
   <rdf:RDF xmlns:rdf="http://www.w3.org/1999/02/22-rdf-syntax-ns#">
      <rdf:Description rdf:about=""/>
   </rdf:RDF>
</x:xmpmeta>
                                                                                                    
                                                                                                    
                                                                                                    
                                                                                                    
                                                                                                    
                                                                                                    
                                                                                                    
                                                                                                    
                                                                                                    
                                                                                                    
                                                                                                    
                                                                                                    
                                                                                                    
                                                                                                    
                                                                                                    
                                                                                                    
                                                                                                    
                                                                                                    
                                                                                                    
                                                                                                    
                           
<?xpacket end="w"?></metadata>
<defs>
    <style>
      .cls-1, .cls-2 {
        fill: #fff;
      }

      .cls-1 {
        fill-rule: evenodd;
      }
    </style>
  </defs>
  <path id="形状_38" data-name="形状 38" class="cls-1" d="M1286.17,1248.19h-13.41a2.736,2.736,0,0,1-2.76-2.71v-14.77a2.742,2.742,0,0,1,2.76-2.71h23.15c1.54,0,3.21,1.3,3.13,2.78L1299,1237a1,1,0,0,1-2,0v-6a1.37,1.37,0,0,0-1.09-1.05h-23.15a0.782,0.782,0,0,0-.8.76L1272,1245a1.21,1.21,0,0,0,1,1s12.24,0,13.16.03c0.52-.21.99,0.61,0.99,1.19a0.973,0.973,0,0,1-.98.97h0Zm0,0,6.91-8.69a3.86,3.86,0,1,1-3.88,3.86,3.873,3.873,0,0,1,3.88-3.86m0-1.46a5.32,5.32,0,1,0,5.35,5.32,5.328,5.328,0,0,0-5.35-5.32h0Zm0,0,6.19,11.96a0.76,0.76,0,0,1-.52-0.21l-2.6-2.58a0.789,0.789,0,0,1-.22-0.52,0.744,0.744,0,0,1,.22-0.52,0.76,0.76,0,0,1,.52-0.21,0.779,0.779,0,0,1,.52.21l2.59,2.58a0.731,0.731,0,0,1-.51,1.25h0ZM1274,1233h14v1h-14v-1Z" transform="translate(-1270 -1228)"/>
  <rect id="矩形_605" data-name="矩形 605" class="cls-2" x="4" y="9" width="14" height="1"/>
  <rect id="矩形_606" data-name="矩形 606" class="cls-2" x="4" y="13" width="9" height="1"/>
</svg>
