<svg xmlns="http://www.w3.org/2000/svg" width="30" height="30" viewBox="0 0 30 30">
  <metadata><?xpacket begin="﻿" id="W5M0MpCehiHzreSzNTczkc9d"?>
<x:xmpmeta xmlns:x="adobe:ns:meta/" x:xmptk="Adobe XMP Core 5.6-c138 79.159824, 2016/09/14-01:09:01        ">
   <rdf:RDF xmlns:rdf="http://www.w3.org/1999/02/22-rdf-syntax-ns#">
      <rdf:Description rdf:about=""/>
   </rdf:RDF>
</x:xmpmeta>
                                                                                                    
                                                                                                    
                                                                                                    
                                                                                                    
                                                                                                    
                                                                                                    
                                                                                                    
                                                                                                    
                                                                                                    
                                                                                                    
                                                                                                    
                                                                                                    
                                                                                                    
                                                                                                    
                                                                                                    
                                                                                                    
                                                                                                    
                                                                                                    
                                                                                                    
                                                                                                    
                           
<?xpacket end="w"?></metadata>
<defs>
    <style>
      .cls-1 {
        fill: #fff;
        fill-rule: evenodd;
      }
    </style>
  </defs>
  <path id="形状_14_拷贝" data-name="形状 14 拷贝" class="cls-1" d="M396,407a14.982,14.982,0,0,0-11.878,24.136l1.127-1.173a13.319,13.319,0,0,1-2.6-6.892h6.474a6.944,6.944,0,0,0,6.338,5.844v6.458a13.315,13.315,0,0,1-6.7-2.116l-1.017,1.261A15,15,0,1,0,396,407h0Zm-0.536,20.31a5.348,5.348,0,0,1-4.714-4.239h4.714v4.239Zm0-5.846H390.7a5.328,5.328,0,0,1,4.768-4.77v4.77Zm0-6.4a6.959,6.959,0,0,0-6.4,6.4h-6.428a13.372,13.372,0,0,1,12.83-12.83v6.427Zm1.607-6.4a13.378,13.378,0,0,1,12.295,12.8h-6.429a6.96,6.96,0,0,0-5.866-6.339V408.66Zm0,8.1a5.348,5.348,0,0,1,4.232,4.708h-4.232v-4.708Zm0,6.315h4.178a5.357,5.357,0,0,1-4.178,4.169v-4.169Zm0,12.27v-6.475a6.952,6.952,0,0,0,5.8-5.795h6.466a13.384,13.384,0,0,1-12.268,12.27h0Zm0,0" transform="translate(-381 -407)"/>
</svg>
