<svg width="60" height="60" xmlns="http://www.w3.org/2000/svg" xmlns:xlink="http://www.w3.org/1999/xlink"><defs><path d="M19.19 14.187H3.808c-.531 0-.961.377-.961.843 0 .467.43.844.961.844h15.384c.531 0 .961-.377.961-.844 0-.466-.43-.843-.961-.843zM11.5 19.249H3.807c-.531 0-.961.377-.961.844 0 .466.43.845.961.845H11.5c.533 0 .963-.38.963-.845 0-.467-.43-.844-.963-.844zM21.939 0H3.06C1.373 0 0 1.09 0 2.426v22.147C0 25.91 1.373 27 3.059 27h14.952L25 21.392V2.426C25 1.089 23.627 0 21.94 0zm-4.63 25.276v-2.494c0-.465.43-.844.959-.844h3.202l-4.162 3.338zm5.768-5.027h-4.81c-1.59 0-2.882 1.135-2.882 2.533v2.53H3.06c-.616 0-1.136-.339-1.136-.74V2.427c0-.4.52-.739 1.136-.739h18.88c.616 0 1.138.338 1.138.739v17.823z" id="a"/><path d="M25.758 23.517h-5.517a.24.24 0 1 0 0 .482h5.517a.24.24 0 1 0 0-.482zm-4.205-.79l1.577-.667a.222.222 0 0 0 .069-.046l2.66-2.66a.484.484 0 0 0 0-.683l-.53-.53a.484.484 0 0 0-.683 0l-2.66 2.66a.214.214 0 0 0-.046.069l-.668 1.576a.212.212 0 0 0 .046.235.212.212 0 0 0 .235.046zm3.433-4.244l.002-.002.53.53-.001.002-.415.415-.53-.53.414-.415zm-2.622 2.622l1.866-1.866.53.53-1.866 1.867-.92.39.39-.92z" id="b"/></defs><g fill="none" fill-rule="evenodd"><circle fill="#05DCAC" transform="matrix(-1 0 0 1 60 0)" cx="30" cy="30" r="30"/><g transform="translate(15 16)"><g fill-rule="nonzero" transform="matrix(1 0 0 -1 0 27)"><use fill="#FFF" fill-rule="evenodd" xlink:href="#a"/><path stroke="#05DCAC" stroke-width=".2" d="M19.19 14.287H3.808c-.479 0-.861.335-.861.743s.382.744.861.744h15.384c.479 0 .861-.336.861-.744s-.382-.743-.861-.743zM11.5 19.349H3.807c-.479 0-.861.336-.861.744s.383.745.861.745H11.5c.48 0 .863-.337.863-.745 0-.409-.382-.744-.863-.744zM21.939.1H3.06C1.424.1.1 1.15.1 2.426v22.147C.1 25.85 1.424 26.9 3.059 26.9h14.25l.639.022 6.952-5.53V2.426C24.9 1.15 23.576.1 21.94.1zm-4.73 25.176v-2.494c0-.524.477-.944 1.059-.944h3.202l.062.178-4.161 3.338-.163-.078zm5.868-4.927h-4.81c-1.537 0-2.782 1.093-2.782 2.433v2.53l-.1.1H3.06c-.664 0-1.236-.372-1.236-.84V2.427c0-.467.571-.839 1.236-.839h18.88c.665 0 1.238.372 1.238.839v17.823l-.1.1z"/></g><circle fill="#05DCAC" cx="22.5" cy="20.5" r="7.5"/><circle stroke="#FFF" stroke-width="1.5" fill="#05DCAC" cx="23" cy="21" r="6"/><g fill-rule="nonzero"><use fill="#FFF" fill-rule="evenodd" xlink:href="#b"/><path stroke="#FFF" stroke-width=".2" d="M25.758 23.417a.34.34 0 1 1 0 .682h-5.517a.34.34 0 1 1 0-.682h5.517zm-4.166-.598h0a.311.311 0 0 1-.345-.068.312.312 0 0 1-.067-.344l.668-1.576a.314.314 0 0 1 .067-.1l2.66-2.66a.584.584 0 0 1 .824-.001l.531.53a.584.584 0 0 1-.001.825l-2.66 2.66a.321.321 0 0 1-.1.067l-1.577.667zm3.396-4.196l-.275.275.389.389.275-.275-.39-.39zm-2.54 2.54l-.287.676.662-.274 1.796-1.796-.389-.389-1.782 1.782z"/></g><path d="M3.532 17.064c.413.335.764.67 1.052 1.004l-.47.475c-.238-.321-.582-.668-1.033-1.041l.451-.438zm3.562 5.795c-.338 0-.707-.007-1.102-.013a4.513 4.513 0 0 1-.989-.11 1.341 1.341 0 0 1-.645-.443c-.081-.11-.156-.161-.231-.161-.12 0-.332.283-.645.862L3 22.537c.313-.514.588-.842.839-.984v-1.762h-.826v-.617h1.433v2.45l.063.064c.137.167.281.296.425.38.182.096.451.147.814.16.357.007.776.013 1.252.013.313 0 .626-.006.951-.006.32-.013.564-.026.733-.039l-.157.663H7.094zm-2.166-4.9h.664V17h.632v.958h.789v-.945h.638v.945h.72v.624h-.72v1.087h.92v.63h-.92v1.71h-.638V20.3h-.94c-.175.727-.488 1.267-.945 1.62l-.394-.533c.325-.245.557-.605.695-1.087h-.72v-.63h.845c.025-.206.038-.418.038-.65v-.437h-.664v-.624zm1.296.623v.283c0 .283-.019.553-.044.804h.833v-1.087h-.79zm3.68-.36h-.67v-.656h1.991v.656h-.657v2.63c.238-.084.457-.167.67-.25v.668c-.551.232-1.177.45-1.89.65l-.195-.663c.263-.064.514-.135.752-.2v-2.835zm1.497-1.01h3.53v.656h-1.446a5.61 5.61 0 0 1-.094.489H14.7v3.145h-.639v-2.528h-1.809v2.528h-.632v-3.145h1.126c.038-.16.07-.322.094-.489H11.4v-.656zm2.366 4.232c.488.36.895.72 1.233 1.074l-.47.482c-.281-.347-.682-.727-1.201-1.125l.438-.431zm-.952-2.18h.651v1.131c-.037.701-.225 1.267-.563 1.692-.332.386-.87.688-1.621.9l-.357-.572c.726-.206 1.22-.457 1.477-.753.244-.321.382-.746.413-1.267v-1.131z" fill="#FFF"/></g></g></svg>