<svg xmlns="http://www.w3.org/2000/svg" width="26" height="28" viewBox="0 0 26 28">
  <metadata><?xpacket begin="﻿" id="W5M0MpCehiHzreSzNTczkc9d"?>
<x:xmpmeta xmlns:x="adobe:ns:meta/" x:xmptk="Adobe XMP Core 5.6-c138 79.159824, 2016/09/14-01:09:01        ">
   <rdf:RDF xmlns:rdf="http://www.w3.org/1999/02/22-rdf-syntax-ns#">
      <rdf:Description rdf:about=""/>
   </rdf:RDF>
</x:xmpmeta>
                                                                                                    
                                                                                                    
                                                                                                    
                                                                                                    
                                                                                                    
                                                                                                    
                                                                                                    
                                                                                                    
                                                                                                    
                                                                                                    
                                                                                                    
                                                                                                    
                                                                                                    
                                                                                                    
                                                                                                    
                                                                                                    
                                                                                                    
                                                                                                    
                                                                                                    
                                                                                                    
                           
<?xpacket end="w"?></metadata>
<defs>
    <style>
      .cls-1 {
        fill: #fff;
        fill-rule: evenodd;
      }
    </style>
  </defs>
  <path id="形状_16" data-name="形状 16" class="cls-1" d="M62.947,530.05A1.027,1.027,0,1,0,63.974,529a1.038,1.038,0,0,0-1.026,1.05h0Zm0,0M60.895,540.2a0.7,0.7,0,0,0,0-1.4H55.421a0.7,0.7,0,0,0,0,1.4h5.474Zm0,2.8a0.7,0.7,0,0,0,0-1.4H55.421a0.7,0.7,0,0,0,0,1.4h5.474Zm0,2.8a0.7,0.7,0,0,0,0-1.4H55.421a0.7,0.7,0,0,0,0,1.4h5.474Zm8.21-5.6a0.7,0.7,0,0,0,0-1.4H63.632a0.7,0.7,0,0,0,0,1.4h5.474Zm0,2.8a0.7,0.7,0,0,0,0-1.4H63.632a0.7,0.7,0,0,0,0,1.4h5.474Zm0,2.8a0.7,0.7,0,0,0,0-1.4H63.632a0.7,0.7,0,0,0,0,1.4h5.474Zm0,0,5.542,4.2H56.1a4.151,4.151,0,0,1-4.1-4.192V523.389A1.382,1.382,0,0,1,53.378,522h17.77a1.393,1.393,0,0,1,1.378,1.4v7h4.105A1.389,1.389,0,0,1,78,531.81V546.5a3.456,3.456,0,0,1-3.353,3.5h0Zm-3.489-8.333S71.152,523.4,71.148,523.4s-17.78,0-17.78-.011v22.419A2.767,2.767,0,0,0,56.1,548.6h15.74a3.551,3.551,0,0,1-.686-2.1v-4.83Zm1.368-9.865V546.5a2.053,2.053,0,1,0,4.105,0V531.81c0-.006-2.483-0.009-4.105-0.009h0Zm-6.158-5.6a0.7,0.7,0,0,1,0,1.4h-8.21a0.7,0.7,0,0,1,0-1.4h8.21Zm0,0-5.482,6.359-3.394,3.5a0.675,0.675,0,0,1-.969,0,0.711,0.711,0,0,1,0-.99l3.893-4.013a0.674,0.674,0,0,1,.984.013l2.466,2.681,0.025-.025,1.214-1.2a0.671,0.671,0,0,1,.948,0l2.679,2.633a0.711,0.711,0,0,1,.019.99,0.674,0.674,0,0,1-.968.02l-2.2-2.166-0.74.729-0.036.034,0.289,0.315a0.709,0.709,0,0,1-.029.988,0.673,0.673,0,0,1-.967-0.029Zm0,0" transform="translate(-52 -522)"/>
</svg>
