<?xml version="1.0" encoding="UTF-8"?>
<svg width="30px" height="29px" viewBox="0 0 30 29" version="1.1" xmlns="http://www.w3.org/2000/svg" xmlns:xlink="http://www.w3.org/1999/xlink">
    <!-- Generator: Sketch 48.2 (47327) - http://www.bohemiancoding.com/sketch -->
    <title>Combined shape 2691</title>
    <desc>Created with Sketch.</desc>
    <defs></defs>
    <g id="Artboard" stroke="none" stroke-width="1" fill="none" fill-rule="evenodd" transform="translate(-660.000000, -876.000000)">
        <g id="其他台账" transform="translate(14.000000, 839.000000)" fill="#FFFFFF">
            <g id="01-拷贝-7" transform="translate(610.000000, 0.000000)">
                <g id="组-2" transform="translate(36.000000, 37.000000)">
                    <path d="M23.441625,20.0063255 L24.261855,20.0063255 C24.7035055,20.0063255 25.061534,20.364354 25.061534,20.8060046 C25.061534,21.2476551 24.7035055,21.6056836 24.261855,21.6056836 L22.8330804,21.6056836 L22.8330804,22.4053627 L24.261855,22.4053627 C24.7035055,22.4053627 25.061534,22.7633912 25.061534,23.2050417 C25.061534,23.6466922 24.7035055,24.0047207 24.261855,24.0047207 L22.8330804,24.0047207 L22.8330804,25.66094 C22.8330804,26.071187 22.5005095,26.4037579 22.0902626,26.4037579 C21.6800156,26.4037579 21.3474447,26.071187 21.3474447,25.66094 L21.3474447,24.0047207 L19.9186702,24.0047207 C19.4770196,24.0047207 19.1189911,23.6466922 19.1189911,23.2050417 C19.1189911,22.7633912 19.4770196,22.4053627 19.9186702,22.4053627 L21.3474447,22.4053627 L21.3474447,21.6056836 L19.9186702,21.6056836 C19.4770196,21.6056836 19.1189911,21.2476551 19.1189911,20.8060046 C19.1189911,20.364354 19.4770196,20.0063255 19.9186702,20.0063255 L20.5448988,20.0063255 L19.3032805,18.7647072 C18.9164564,18.3778832 18.9164564,17.7507175 19.3032805,17.3638934 C19.6901045,16.9770693 20.3172703,16.9770693 20.7040943,17.3638934 L21.9932619,18.653061 L23.2824295,17.3638934 C23.6692535,16.9770693 24.2964193,16.9770693 24.6832433,17.3638934 C25.0700674,17.7507175 25.0700674,18.3778832 24.6832433,18.7647072 L23.441625,20.0063255 Z M22.221312,13.573984 C26.510432,13.573984 29.999968,17.034176 29.999968,21.286848 C29.999968,25.539936 26.510432,28.999968 22.221312,28.999968 C17.931808,28.999968 14.442272,25.539936 14.442272,21.286848 C14.442272,17.033888 17.931808,13.573984 22.221312,13.573984 Z M22.221312,27.446976 C25.646912,27.446976 28.433824,24.683552 28.433824,21.286848 C28.433824,17.890272 25.646912,15.126976 22.221312,15.126976 C18.795584,15.126976 16.008544,17.890272 16.008544,21.286848 C16.008544,24.683552 18.795584,27.446976 22.221312,27.446976 Z M12.937888,23.760288 C13.370336,23.760288 13.720928,24.107776 13.720928,24.536768 C13.720928,24.965632 13.370336,25.31328 12.937888,25.31328 L2.267712,25.31328 C1.01728,25.31328 3.2e-05,24.304608 3.2e-05,23.064704 L3.2e-05,2.248512 C3.2e-05,1.008576 1.01728,6.4e-05 2.267712,6.4e-05 L21.885216,6.4e-05 C23.13552,6.4e-05 24.152928,1.008576 24.1528,2.248512 L24.1528,10.870784 C24.1528,11.299616 23.802208,11.647264 23.3696,11.647264 C22.936992,11.647264 22.586528,11.299616 22.586528,10.870784 L22.586528,2.248512 C22.586528,1.86512 22.271744,1.553088 21.885088,1.553088 L2.267712,1.553088 C1.880928,1.553088 1.566272,1.86512 1.566272,2.248512 L1.566272,23.064704 C1.566272,23.448096 1.8808,23.760288 2.267712,23.760288 L12.937888,23.760288 Z M4.999968,11.999968 L8.999968,11.999968 L8.999968,13 L4.999968,13 L4.999968,11.999968 Z M11,11.999968 L15,11.999968 L15,13 L11,13 L11,11.999968 Z M4.999968,15.000032 L8.999968,15.000032 L8.999968,16.000064 L4.999968,16.000064 L4.999968,15.000032 Z M11,15.000032 L15,15.000032 L15,16.000064 L11,16.000064 L11,15.000032 Z M8.886416,5.558807 L5.49288,9.058637 C5.225952,9.333272 4.792208,9.334613 4.524,9.061625 C4.255792,8.790122 4.254384,8.346215 4.521312,8.071742 L8.414416,4.059299 C8.686736,3.777968 9.1328,3.783629 9.398176,4.071971 L11.864272,6.752981 L11.888784,6.727799 L13.102656,5.532284 C13.368032,5.270465 13.786896,5.270465 14.05088,5.530646 L16.730128,8.164271 C17.002432,8.431598 17.012064,8.875361 16.749504,9.154154 C16.488096,9.432515 16.054336,9.442343 15.781904,9.173531 L13.577472,7.007798 L12.837008,7.737356 C12.826224,7.748381 12.813904,7.759559 12.801456,7.770737 L13.090336,8.085746 C13.350192,8.36723 13.336592,8.80949 13.061456,9.074135 C12.786448,9.340274 12.354112,9.326117 12.094112,9.044786 L8.886416,5.558807 Z" id="Combined-shape-2691"></path>
                </g>
            </g>
        </g>
    </g>
</svg>