<?xml version="1.0" encoding="UTF-8"?>
<svg width="60px" height="60px" viewBox="0 0 60 60" version="1.1" xmlns="http://www.w3.org/2000/svg" xmlns:xlink="http://www.w3.org/1999/xlink">
    <!-- Generator: Sketch 49.3 (51167) - http://www.bohemiancoding.com/sketch -->
    <title>土地价款-土地价款扣除明细</title>
    <desc>Created with Sketch.</desc>
    <defs>
        <rect id="path-1" x="17" y="16" width="25" height="27" rx="2"></rect>
    </defs>
    <g id="icon" stroke="none" stroke-width="1" fill="none" fill-rule="evenodd">
        <g id="土地价款-土地价款扣除明细">
            <circle id="Oval-Copy" fill="#FC7615" cx="30" cy="30" r="30"></circle>
            <g id="Rectangle-4">
                <use fill="#FC7615" fill-rule="evenodd" xlink:href="#path-1"></use>
                <rect stroke="#FFFFFF" stroke-width="1.5" x="17.75" y="16.75" width="23.5" height="25.5" rx="2"></rect>
            </g>
            <rect id="Rectangle-7-Copy-3" fill="#FFFFFF" x="29" y="33" width="5" height="1" rx="0.5"></rect>
            <circle id="Oval-2" fill="#FC7615" cx="38.5" cy="37.5" r="7.5"></circle>
            <path d="M39,44 C35.6862915,44 33,41.3137085 33,38 C33,34.6862915 35.6862915,32 39,32 C42.3137085,32 45,34.6862915 45,38 C45,41.3137085 42.3137085,44 39,44 Z M39,42.7586207 C41.6281136,42.7586207 43.7586207,40.6281136 43.7586207,38 C43.7586207,35.3718864 41.6281136,33.2413793 39,33.2413793 C36.3718864,33.2413793 34.2413793,35.3718864 34.2413793,38 C34.2413793,40.6281136 36.3718864,42.7586207 39,42.7586207 Z" id="Oval-3" fill="#FFFFFF" fill-rule="nonzero"></path>
            <path d="M34.0010511,27.0010511 L34.0010511,23.5527753 C34.0010511,23.2671108 34.232628,23.0355339 34.5182925,23.0355339 C34.8039571,23.0355339 35.0355339,23.2671108 35.0355339,23.5527753 L35.0355339,27.3458787 C35.0355339,27.5328941 34.9362824,27.6967281 34.7875799,27.7875799 C34.6967281,27.9362824 34.5328941,28.0355339 34.3458787,28.0355339 L30.5527753,28.0355339 C30.2671108,28.0355339 30.0355339,27.8039571 30.0355339,27.5182925 C30.0355339,27.232628 30.2671108,27.0010511 30.5527753,27.0010511 L34.0010511,27.0010511 Z" id="Combined-Shape" fill="#FFFFFF" transform="translate(32.535534, 25.535534) rotate(-135.000000) translate(-32.535534, -25.535534) "></path>
            <path d="M28.0012614,27.0012614 L28.0012614,22.8633303 C28.0012614,22.5205329 28.2791536,22.2426407 28.621951,22.2426407 C28.9647485,22.2426407 29.2426407,22.5205329 29.2426407,22.8633303 L29.2426407,27.4150545 C29.2426407,27.639473 29.1235388,27.8360737 28.9450959,27.9450959 C28.8360737,28.1235388 28.639473,28.2426407 28.4150545,28.2426407 L23.8633303,28.2426407 C23.5205329,28.2426407 23.2426407,27.9647485 23.2426407,27.621951 C23.2426407,27.2791536 23.5205329,27.0012614 23.8633303,27.0012614 L28.0012614,27.0012614 Z" id="Combined-Shape-Copy" fill="#FFFFFF" transform="translate(26.242641, 25.242641) rotate(-135.000000) translate(-26.242641, -25.242641) "></path>
            <rect id="Rectangle-7" fill="#FFFFFF" x="22" y="29" width="5" height="1" rx="0.5"></rect>
            <rect id="Rectangle-7-Copy-2" fill="#FFFFFF" x="22" y="33" width="5" height="1" rx="0.5"></rect>
            <rect id="Rectangle-7-Copy-4" fill="#FFFFFF" x="22" y="37" width="8" height="1" rx="0.5"></rect>
            <rect id="Rectangle-7-Copy" fill="#FFFFFF" x="29" y="29" width="5" height="1" rx="0.5"></rect>
            <path d="M38.5605,35.44025 C38.85375,35.7335 39,36.08675 39,36.50075 C39,36.91475 38.85375,37.268 38.5605,37.56125 C38.26725,37.8545 37.914,38.00075 37.5,38.00075 C37.086,38.00075 36.73275,37.8545 36.4395,37.56125 C36.14625,37.268 36,36.91475 36,36.50075 C36,36.08675 36.14625,35.7335 36.4395,35.44025 C36.73275,35.147 37.086,35.00075 37.5,35.00075 C37.914,35.00075 38.26725,35.147 38.5605,35.44025 Z M41.62425,35.2505 C41.62425,35.30225 41.607,35.3525 41.57325,35.399 L37.449,40.898 C37.3995,40.9655 37.3335,41 37.25025,41 L36.62475,41 C36.55725,41 36.498,40.97525 36.44925,40.92575 C36.39975,40.87625 36.375,40.817 36.375,40.75025 C36.375,40.6985 36.39225,40.64825 36.426,40.60175 L40.55025,35.102 C40.59975,35.0345 40.66575,35 40.749,35 L41.3745,35 C41.442,35 41.50125,35.02475 41.55,35.07425 C41.60025,35.12375 41.62425,35.183 41.62425,35.2505 Z M37.85175,36.8525 C37.95,36.75425 38.00025,36.6365 38.00025,36.50075 C38.00025,36.365 37.95075,36.24875 37.85175,36.149 C37.752,36.05075 37.63575,36.0005 37.5,36.0005 C37.36425,36.0005 37.248,36.05 37.14825,36.149 C37.0485,36.24875 36.99975,36.365 36.99975,36.50075 C36.99975,36.6365 37.04925,36.75275 37.14825,36.8525 C37.2465,36.95225 37.36425,37.001 37.5,37.001 C37.63575,37.00025 37.75275,36.95075 37.85175,36.8525 Z M41.5605,38.4395 C41.85375,38.73275 42,39.086 42,39.5 C42,39.914 41.85375,40.26725 41.5605,40.5605 C41.26725,40.85375 40.914,41 40.5,41 C40.086,41 39.73275,40.85375 39.4395,40.5605 C39.14625,40.26725 39,39.914 39,39.5 C39,39.086 39.14625,38.73275 39.4395,38.4395 C39.73275,38.14625 40.086,38 40.5,38 C40.914,38 41.26725,38.147 41.5605,38.4395 Z M40.85175,39.85175 C40.95,39.7535 41.00025,39.63575 41.00025,39.5 C41.00025,39.36425 40.95075,39.248 40.85175,39.14825 C40.7535,39.05 40.63575,38.99975 40.5,38.99975 C40.36425,38.99975 40.248,39.04925 40.14825,39.14825 C40.0485,39.24725 39.99975,39.36425 39.99975,39.5 C39.99975,39.63575 40.04925,39.75275 40.14825,39.85175 C40.2465,39.95 40.36425,40.00025 40.5,40.00025 C40.63575,40.00025 40.752,39.95075 40.85175,39.85175 Z" id="Shape" fill="#FFFFFF" fill-rule="nonzero"></path>
        </g>
    </g>
</svg>