<svg width="60" height="60" xmlns="http://www.w3.org/2000/svg" xmlns:xlink="http://www.w3.org/1999/xlink"><defs><rect id="a" x="0" y="0" width="25" height="27" rx="2"/></defs><g fill="none" fill-rule="evenodd"><circle fill="#05DCAC" cx="30" cy="30" r="30"/><g transform="translate(15 16)"><use fill="#05DCAC" xlink:href="#a"/><rect stroke="#FFF" stroke-width="1.5" x=".75" y=".75" width="23.5" height="25.5" rx="2"/><rect fill="#FFF" x="4" y="5" width="15" height="1.5" rx=".75"/><rect fill="#FFF" x="4" y="10" width="15" height="1.5" rx=".75"/><rect fill="#FFF" x="4" y="14" width="10" height="1.5" rx=".75"/><circle fill="#05DCAC" cx="23.5" cy="21.5" r="7.5"/><path d="M23 28a6 6 0 1 1 0-12 6 6 0 0 1 0 12zm0-1.241a4.759 4.759 0 1 0 0-9.518 4.759 4.759 0 0 0 0 9.518z" fill="#FFF" fill-rule="nonzero"/><path fill="#FFF" d="M20 19h1.37L23 21.58 24.63 19H26l-2.024 2.95h1.38v.52h-1.744l-.01.009v.723h1.754v.52h-1.754V25h-1.204v-1.277h-1.744v-.521h1.744v-.723l-.01-.008h-1.734v-.521h1.37zM4.113 18.57H5.14v-.519H5.8v.519h2.07v-.519h.658v.519h1.028v.627H8.527v2.715h1.147v.622H4v-.622h1.141v-2.715H4.113v-.627zm1.686 3.342h2.07v-.55h-2.07v.55zm0-1.114h2.07v-.518h-2.07v.518zm0-1.082h2.07v-.519h-2.07v.52zm.076 2.85l.464.422c-.502.372-1.116.705-1.844.993l-.413-.55c.708-.244 1.304-.532 1.793-.865zm1.83.032c.69.224 1.317.493 1.881.8l-.363.583a8.864 8.864 0 0 0-1.85-.877l.332-.506zM11.48 18l.589.288c-.138.461-.32.91-.545 1.338V24h-.646v-3.349a9.898 9.898 0 0 1-.52.634l-.214-.685c.602-.737 1.047-1.601 1.336-2.6zm3.623 5.866h-2.119c-.526 0-.79-.282-.79-.84v-2.33l-.482.147v-.679l.482-.153v-1.358h.652V19.8l.721-.23V18.05h.652v1.307l1.367-.436c0 1.434-.037 2.305-.1 2.613-.07.3-.351.454-.847.454h-.062l-.195-.646c.15 0 .283.006.395.006.07 0 .113-.07.126-.205.012-.122.025-.557.025-1.306l-.709.224v2.516h-.652v-2.311l-.72.224v2.446c0 .192.1.295.3.295h1.844c.131 0 .225-.045.288-.122.05-.09.088-.384.107-.89l.614.218c-.044.672-.125 1.082-.238 1.223-.12.134-.339.205-.659.205z"/></g></g></svg>