<?xml version="1.0" encoding="UTF-8"?>
<svg width="26px" height="28px" viewBox="0 0 26 28" version="1.1" xmlns="http://www.w3.org/2000/svg" xmlns:xlink="http://www.w3.org/1999/xlink">
    <!-- Generator: Sketch 48.2 (47327) - http://www.bohemiancoding.com/sketch -->
    <title>Combined shape 2613</title>
    <desc>Created with Sketch.</desc>
    <defs></defs>
    <g id="Artboard" stroke="none" stroke-width="1" fill="none" fill-rule="evenodd" transform="translate(-52.000000, -522.000000)">
        <g id="土地价款" transform="translate(13.000000, 484.000000)" fill="#FFFFFF">
            <path d="M61.647187,65.99857 L61.647187,65.99998 L43.103949,65.99998 C40.837773,65.99998 38.999985,64.11973 38.999985,61.80838 L38.999985,39.38878 C38.999985,38.62162 39.614292,38.00005 40.377978,38.00005 L58.148308,38.00005 C58.909036,38.00005 59.526185,38.6329 59.526185,39.39853 L59.526185,46.40002 L63.631425,46.40002 C64.386875,46.40002 64.999906,47.02993 64.999906,47.80975 L64.999906,62.4958 C64.999906,64.40806 63.517832,65.96221 61.647187,65.99857 Z M49.94734,46.04998 C49.94734,45.47014 50.406758,45.00001 50.973708,45.00001 C51.540397,45.00001 51.99996,45.47014 51.99996,46.04998 C51.99996,46.62997 51.540397,47.1001 50.973708,47.1001 C50.406758,47.1001 49.94734,46.62997 49.94734,46.04998 Z M47.89472,56.2 L42.42097,56.2 C42.043419,56.2 41.73686,55.88632 41.73686,55.50007 C41.73686,55.11352 42.043419,54.79999 42.42097,54.79999 L47.89472,54.79999 C48.272503,54.79999 48.578946,55.11352 48.578946,55.50007 C48.578946,55.88632 48.272503,56.2 47.89472,56.2 Z M47.89472,58.9999 L42.42097,58.9999 C42.043419,58.9999 41.73686,58.68637 41.73686,58.29997 C41.73686,57.91357 42.043419,57.60001 42.42097,57.60001 L47.89472,57.60001 C48.272503,57.60001 48.578946,57.91357 48.578946,58.29997 C48.578946,58.68637 48.272503,58.9999 47.89472,58.9999 Z M47.89472,61.79995 L42.42097,61.79995 C42.043419,61.79995 41.73686,61.48639 41.73686,61.09999 C41.73686,60.71347 42.043419,60.39991 42.42097,60.39991 L47.89472,60.39991 C48.272503,60.39991 48.578946,60.71347 48.578946,61.09999 C48.578946,61.48639 48.272503,61.79995 47.89472,61.79995 Z M56.1052,56.2 L50.631566,56.2 C50.253783,56.2 49.94734,55.88632 49.94734,55.50007 C49.94734,55.11352 50.253783,54.79999 50.631566,54.79999 L56.1052,54.79999 C56.482867,54.79999 56.789426,55.11352 56.789426,55.50007 C56.789426,55.88632 56.482867,56.2 56.1052,56.2 Z M56.1052,58.9999 L50.631566,58.9999 C50.253783,58.9999 49.94734,58.68637 49.94734,58.29997 C49.94734,57.91357 50.253783,57.60001 50.631566,57.60001 L56.1052,57.60001 C56.482867,57.60001 56.789426,57.91357 56.789426,58.29997 C56.789426,58.68637 56.482867,58.9999 56.1052,58.9999 Z M56.1052,61.79995 L50.631566,61.79995 C50.253783,61.79995 49.94734,61.48639 49.94734,61.09999 C49.94734,60.71347 50.253783,60.39991 50.631566,60.39991 L56.1052,60.39991 C56.482867,60.39991 56.789426,60.71347 56.789426,61.09999 C56.789426,61.48639 56.482867,61.79995 56.1052,61.79995 Z M58.15782,57.66583 C58.15782,57.66583 58.152281,39.40006 58.148308,39.40006 C58.148308,39.40006 40.36835,39.39853 40.36835,39.38878 L40.36835,61.80838 C40.36835,63.34693 41.594673,64.59997 43.103949,64.59997 L58.843467,64.59997 C58.413687,64.01335 58.15782,63.28522 58.15782,62.4958 L58.15782,57.66583 Z M59.526185,47.80144 L59.526185,62.4958 C59.526185,63.65779 60.445775,64.59997 61.578805,64.59997 C62.720158,64.59997 63.631425,63.66343 63.631425,62.4958 L63.631425,47.80975 C63.631425,47.80414 61.147865,47.80144 59.526185,47.80144 Z M53.368325,42.19996 C53.745992,42.19996 54.052435,42.51364 54.052435,42.89992 C54.052435,43.28644 53.745992,43.60012 53.368325,43.60012 L45.157961,43.60012 C44.780178,43.60012 44.473735,43.28644 44.473735,42.89992 C44.473735,42.51364 44.780178,42.19996 45.157961,42.19996 L53.368325,42.19996 Z M47.886368,48.55873 L44.492846,52.05871 C44.22593,52.33321 43.792177,52.33462 43.523956,52.06165 C43.25588,51.78997 43.254459,51.34624 43.521259,51.07174 L47.414364,47.05936 C47.686819,46.77796 48.132752,46.7836 48.398276,47.07205 L50.864233,49.753 L50.888883,49.7278 L52.10262,48.53224 C52.368115,48.27043 52.786875,48.27043 53.050833,48.53071 L55.730201,51.16417 C56.002511,51.43162 56.012023,51.87538 55.749457,52.15411 C55.488051,52.43245 55.054298,52.44244 54.781988,52.17355 L52.577437,50.00779 L51.83698,50.7373 C51.826192,50.74831 51.813867,50.75947 51.801426,50.77072 L52.090295,51.08569 C52.35028,51.36721 52.336563,51.80956 52.061411,52.07407 C51.786404,52.34026 51.354072,52.32604 51.094087,52.04476 L47.886368,48.55873 Z" id="Combined-shape-2613"></path>
        </g>
    </g>
</svg>