<?xml version="1.0" encoding="UTF-8"?>
<svg width="60px" height="60px" viewBox="0 0 60 60" version="1.1" xmlns="http://www.w3.org/2000/svg" xmlns:xlink="http://www.w3.org/1999/xlink">
    <!-- Generator: Sketch 49.3 (51167) - http://www.bohemiancoding.com/sketch -->
    <title>土地价款-土地价款管理</title>
    <desc>Created with Sketch.</desc>
    <defs>
        <rect id="path-1" x="17" y="16" width="25" height="27" rx="2"></rect>
        <path d="M36,35.5939661 C36,35.9220045 36.2203312,36.1879321 36.4921234,36.1879321 C36.7639157,36.1879321 36.9842468,35.9220045 36.9842468,35.5939661 C36.9842468,35.2659277 36.7639157,35 36.4921234,35 C36.2203312,35 36,35.2659277 36,35.5939661 Z M41.7172243,35.867379 L37.8286681,35.867379 C37.6732196,35.867379 37.5466736,35.7146449 37.5466736,35.527027 C37.5466736,35.3394092 37.6732196,35.186675 37.8286681,35.186675 L41.7180055,35.186675 C41.873454,35.186675 42,35.3394092 42,35.527027 C41.9992189,35.7155877 41.873454,35.867379 41.7172243,35.867379 Z M36,38 C36,38.3280384 36.2203312,38.5939661 36.4921234,38.5939661 C36.7639157,38.5939661 36.9842468,38.3280384 36.9842468,38 C36.9842468,37.6719616 36.7639157,37.4060339 36.4921234,37.4060339 C36.2203312,37.4060339 36,37.6719616 36,38 Z M41.7172243,38.2743558 L37.8286681,38.2743558 C37.6732196,38.2743558 37.5466736,38.1216216 37.5466736,37.9340038 C37.5466736,37.7463859 37.6732196,37.5936518 37.8286681,37.5936518 L41.7180055,37.5936518 C41.873454,37.5936518 42,37.7463859 42,37.9340038 C41.9992189,38.1216216 41.873454,38.2743558 41.7172243,38.2743558 Z M36,40.4060339 C36,40.7340723 36.2203312,41 36.4921234,41 C36.7639157,41 36.9842468,40.7340723 36.9842468,40.4060339 C36.9842468,40.0779955 36.7639157,39.8120679 36.4921234,39.8120679 C36.2203312,39.8120679 36,40.0779955 36,40.4060339 Z M41.7172243,40.6803897 L37.8286681,40.6803897 C37.6732196,40.6803897 37.5466736,40.5276556 37.5466736,40.3400377 C37.5466736,40.1524199 37.6732196,39.9996857 37.8286681,39.9996857 L41.7180055,39.9996857 C41.873454,39.9996857 42,40.1524199 42,40.3400377 C41.9992189,40.5285984 41.873454,40.6803897 41.7172243,40.6803897 Z" id="path-2"></path>
    </defs>
    <g id="icon" stroke="none" stroke-width="1" fill="none" fill-rule="evenodd">
        <g id="土地价款-土地价款管理">
            <circle id="Oval-Copy" fill="#FC7615" cx="30" cy="30" r="30"></circle>
            <g id="Rectangle-4">
                <use fill="#FC7615" fill-rule="evenodd" xlink:href="#path-1"></use>
                <rect stroke="#FFFFFF" stroke-width="1.5" x="17.75" y="16.75" width="23.5" height="25.5" rx="2"></rect>
            </g>
            <rect id="Rectangle-7-Copy-3" fill="#FFFFFF" x="29" y="33" width="5" height="1" rx="0.5"></rect>
            <circle id="Oval-2" fill="#FC7615" cx="38.5" cy="37.5" r="7.5"></circle>
            <g id="Shape" fill-rule="nonzero">
                <use fill="#FFFFFF" fill-rule="evenodd" xlink:href="#path-2"></use>
                <path stroke="#FFFFFF" stroke-width="0.2" d="M35.9,35.5939661 C35.9,35.214419 36.1605081,34.9 36.4921234,34.9 C36.8237387,34.9 37.0842468,35.214419 37.0842468,35.5939661 C37.0842468,35.9735131 36.8237387,36.2879321 36.4921234,36.2879321 C36.1605081,36.2879321 35.9,35.9735131 35.9,35.5939661 Z M41.7172243,35.967379 L37.8286681,35.967379 C37.6133966,35.967379 37.4466736,35.7661535 37.4466736,35.527027 C37.4466736,35.2879006 37.6133966,35.086675 37.8286681,35.086675 L41.7180055,35.086675 C41.933277,35.086675 42.1,35.2879006 42.0999991,35.5274413 C42.0990048,35.7674628 41.9330493,35.967379 41.7172243,35.967379 Z M35.9,38 C35.9,37.620453 36.1605081,37.3060339 36.4921234,37.3060339 C36.8237387,37.3060339 37.0842468,37.620453 37.0842468,38 C37.0842468,38.379547 36.8237387,38.6939661 36.4921234,38.6939661 C36.1605081,38.6939661 35.9,38.379547 35.9,38 Z M41.7172243,38.3743558 L37.8286681,38.3743558 C37.6133966,38.3743558 37.4466736,38.1731302 37.4466736,37.9340038 C37.4466736,37.6948773 37.6133966,37.4936518 37.8286681,37.4936518 L41.7180055,37.4936518 C41.933277,37.4936518 42.1,37.6948773 42.0999991,37.9344201 C42.0990025,38.1737935 41.9328291,38.3743558 41.7172243,38.3743558 Z M35.9,40.4060339 C35.9,40.0264869 36.1605081,39.7120679 36.4921234,39.7120679 C36.8237387,39.7120679 37.0842468,40.0264869 37.0842468,40.4060339 C37.0842468,40.785581 36.8237387,41.1 36.4921234,41.1 C36.1605081,41.1 35.9,40.785581 35.9,40.4060339 Z M41.7172243,40.7803897 L37.8286681,40.7803897 C37.6133966,40.7803897 37.4466736,40.5791642 37.4466736,40.3400377 C37.4466736,40.1009112 37.6133966,39.8996857 37.8286681,39.8996857 L41.7180055,39.8996857 C41.933277,39.8996857 42.1,40.1009112 42.0999991,40.340452 C42.0990048,40.5804735 41.9330493,40.7803897 41.7172243,40.7803897 Z"></path>
            </g>
            <path d="M39,44 C35.6862915,44 33,41.3137085 33,38 C33,34.6862915 35.6862915,32 39,32 C42.3137085,32 45,34.6862915 45,38 C45,41.3137085 42.3137085,44 39,44 Z M39,42.7586207 C41.6281136,42.7586207 43.7586207,40.6281136 43.7586207,38 C43.7586207,35.3718864 41.6281136,33.2413793 39,33.2413793 C36.3718864,33.2413793 34.2413793,35.3718864 34.2413793,38 C34.2413793,40.6281136 36.3718864,42.7586207 39,42.7586207 Z" id="Oval-3" fill="#FFFFFF" fill-rule="nonzero"></path>
            <path d="M34.0010511,27.0010511 L34.0010511,23.5527753 C34.0010511,23.2671108 34.232628,23.0355339 34.5182925,23.0355339 C34.8039571,23.0355339 35.0355339,23.2671108 35.0355339,23.5527753 L35.0355339,27.3458787 C35.0355339,27.5328941 34.9362824,27.6967281 34.7875799,27.7875799 C34.6967281,27.9362824 34.5328941,28.0355339 34.3458787,28.0355339 L30.5527753,28.0355339 C30.2671108,28.0355339 30.0355339,27.8039571 30.0355339,27.5182925 C30.0355339,27.232628 30.2671108,27.0010511 30.5527753,27.0010511 L34.0010511,27.0010511 Z" id="Combined-Shape" fill="#FFFFFF" transform="translate(32.535534, 25.535534) rotate(-135.000000) translate(-32.535534, -25.535534) "></path>
            <path d="M28.0012614,27.0012614 L28.0012614,22.8633303 C28.0012614,22.5205329 28.2791536,22.2426407 28.621951,22.2426407 C28.9647485,22.2426407 29.2426407,22.5205329 29.2426407,22.8633303 L29.2426407,27.4150545 C29.2426407,27.639473 29.1235388,27.8360737 28.9450959,27.9450959 C28.8360737,28.1235388 28.639473,28.2426407 28.4150545,28.2426407 L23.8633303,28.2426407 C23.5205329,28.2426407 23.2426407,27.9647485 23.2426407,27.621951 C23.2426407,27.2791536 23.5205329,27.0012614 23.8633303,27.0012614 L28.0012614,27.0012614 Z" id="Combined-Shape-Copy" fill="#FFFFFF" transform="translate(26.242641, 25.242641) rotate(-135.000000) translate(-26.242641, -25.242641) "></path>
            <rect id="Rectangle-7" fill="#FFFFFF" x="22" y="29" width="5" height="1" rx="0.5"></rect>
            <rect id="Rectangle-7-Copy-2" fill="#FFFFFF" x="22" y="33" width="5" height="1" rx="0.5"></rect>
            <rect id="Rectangle-7-Copy-4" fill="#FFFFFF" x="22" y="37" width="8" height="1" rx="0.5"></rect>
            <rect id="Rectangle-7-Copy" fill="#FFFFFF" x="29" y="29" width="5" height="1" rx="0.5"></rect>
        </g>
    </g>
</svg>