<svg width="60" height="60" xmlns="http://www.w3.org/2000/svg" xmlns:xlink="http://www.w3.org/1999/xlink"><defs><rect id="a" x="0" y="0" width="25" height="27" rx="2"/><path d="M19 19.594c0 .328.22.594.492.594s.492-.266.492-.594c0-.328-.22-.594-.492-.594s-.492.266-.492.594zm5.717.273H20.83c-.156 0-.282-.152-.282-.34 0-.188.126-.34.282-.34h3.889c.155 0 .282.152.282.34 0 .189-.127.34-.283.34zM19 22c0 .328.22.594.492.594s.492-.266.492-.594c0-.328-.22-.594-.492-.594S19 21.672 19 22zm5.717.274H20.83c-.156 0-.282-.152-.282-.34 0-.188.126-.34.282-.34h3.889c.155 0 .282.152.282.34 0 .188-.127.34-.283.34zM19 24.406c0 .328.22.594.492.594s.492-.266.492-.594c0-.328-.22-.594-.492-.594s-.492.266-.492.594zm5.717.274H20.83c-.156 0-.282-.152-.282-.34 0-.188.126-.34.282-.34h3.889c.155 0 .282.152.282.34 0 .189-.127.34-.283.34z" id="b"/></defs><g fill="none" fill-rule="evenodd"><circle fill="#FC7615" cx="30" cy="30" r="30"/><g transform="translate(16 16)"><use fill="#FC7615" xlink:href="#a"/><rect stroke="#FFF" stroke-width="1.5" x=".75" y=".75" width="23.5" height="25.5" rx="2"/><rect fill="#FFF" x="12" y="17" width="5" height="1" rx=".5"/><circle fill="#FC7615" cx="21.5" cy="21.5" r="7.5"/><g fill-rule="nonzero"><use fill="#FFF" fill-rule="evenodd" xlink:href="#b"/><path stroke="#FFF" stroke-width=".2" d="M18.9 19.594c0-.38.26-.694.592-.694.332 0 .592.314.592.694 0 .38-.26.694-.592.694-.331 0-.592-.314-.592-.694zm5.817.373H20.83c-.216 0-.382-.2-.382-.44s.166-.44.382-.44h3.889c.215 0 .382.2.382.44-.001.24-.167.44-.383.44zM18.9 22c0-.38.26-.694.592-.694.332 0 .592.314.592.694 0 .38-.26.694-.592.694-.331 0-.592-.314-.592-.694zm5.817.374H20.83c-.216 0-.382-.2-.382-.44s.166-.44.382-.44h3.889c.215 0 .382.2.382.44-.001.24-.167.44-.383.44zM18.9 24.406c0-.38.26-.694.592-.694.332 0 .592.314.592.694 0 .38-.26.694-.592.694-.331 0-.592-.314-.592-.694zm5.817.374H20.83c-.216 0-.382-.2-.382-.44s.166-.44.382-.44h3.889c.215 0 .382.2.382.44-.001.24-.167.44-.383.44z"/></g><path d="M22 28a6 6 0 1 1 0-12 6 6 0 0 1 0 12zm0-1.241a4.759 4.759 0 1 0 0-9.518 4.759 4.759 0 0 0 0 9.518z" fill="#FFF" fill-rule="nonzero"/><path d="M15.536 7.463l-2.439 2.438a.517.517 0 0 1-.731-.731l2.682-2.682a.517.517 0 0 1 .488-.137c.169-.041.355.004.487.137l2.682 2.682a.517.517 0 1 1-.731.731l-2.438-2.438z" fill="#FFF"/><path d="M9.243 6.756L6.317 9.682a.62.62 0 1 1-.878-.878l3.218-3.219a.62.62 0 0 1 .586-.164.62.62 0 0 1 .585.164l3.218 3.219a.62.62 0 1 1-.877.878L9.243 6.756z" fill="#FFF"/><rect fill="#FFF" x="5" y="13" width="5" height="1" rx=".5"/><rect fill="#FFF" x="5" y="17" width="5" height="1" rx=".5"/><rect fill="#FFF" x="5" y="21" width="8" height="1" rx=".5"/><rect fill="#FFF" x="12" y="13" width="5" height="1" rx=".5"/></g></g></svg>