<svg xmlns="http://www.w3.org/2000/svg" width="27" height="29" viewBox="0 0 27 29">
  <metadata><?xpacket begin="﻿" id="W5M0MpCehiHzreSzNTczkc9d"?>
<x:xmpmeta xmlns:x="adobe:ns:meta/" x:xmptk="Adobe XMP Core 5.6-c138 79.159824, 2016/09/14-01:09:01        ">
   <rdf:RDF xmlns:rdf="http://www.w3.org/1999/02/22-rdf-syntax-ns#">
      <rdf:Description rdf:about=""/>
   </rdf:RDF>
</x:xmpmeta>
                                                                                                    
                                                                                                    
                                                                                                    
                                                                                                    
                                                                                                    
                                                                                                    
                                                                                                    
                                                                                                    
                                                                                                    
                                                                                                    
                                                                                                    
                                                                                                    
                                                                                                    
                                                                                                    
                                                                                                    
                                                                                                    
                                                                                                    
                                                                                                    
                                                                                                    
                                                                                                    
                           
<?xpacket end="w"?></metadata>
<defs>
    <style>
      .cls-1 {
        fill: #fff;
        fill-rule: evenodd;
      }
    </style>
  </defs>
  <path id="形状_27" data-name="形状 27" class="cls-1" d="M985.938,171.1H965.062a1.289,1.289,0,0,0-1.16,1.213v22.4a1.262,1.262,0,0,0,1.16,1.186h20.876a1.262,1.262,0,0,0,1.16-1.186V172.289a1.262,1.262,0,0,0-1.16-1.186h0Zm3.062-.9V198H962V169h27v1.205Zm0,0-4.214,16.27H966.314a0.767,0.767,0,0,0,0,1.534h18.472a0.767,0.767,0,0,0,0-1.534h0Zm0,0M970.81,180.1a4.75,4.75,0,1,1,4.6-4.748,4.681,4.681,0,0,1-4.6,4.748h0Zm0-7.933a3.187,3.187,0,1,0,3.066,3.185,3.131,3.131,0,0,0-3.066-3.185h0Zm0,0,6.138,10.177a0.763,0.763,0,0,1-.658-0.377l-2.514-4.237a0.79,0.79,0,0,1,.261-1.073,0.761,0.761,0,0,1,1.055.264l2.513,4.238a0.789,0.789,0,0,1-.261,1.073,0.758,0.758,0,0,1-.4.112h0Zm0,0,0,0a0.793,0.793,0,0,1-.192-0.023l-2.514-.654a0.785,0.785,0,0,1-.553-0.952,0.768,0.768,0,0,1,.934-0.563l2.514,0.654a0.784,0.784,0,0,1,.554.951,0.771,0.771,0,0,1-.743.587h0Zm0,0-3.183,1.526a0.763,0.763,0,0,1-.229-0.035,0.785,0.785,0,0,1-.5-0.979l0.668-2.179a0.768,0.768,0,0,1,.962-0.513,0.785,0.785,0,0,1,.505.978l-0.668,2.181a0.768,0.768,0,0,1-.733.547h0Zm0,0,0,0a0.766,0.766,0,0,1-.668-0.393l-2.047-3.646a0.788,0.788,0,0,1,.287-1.066,0.758,0.758,0,0,1,1.047.29l2.046,3.647a0.788,0.788,0,0,1-.286,1.065,0.736,0.736,0,0,1-.379.1h0Zm0,0-9.1-1.526a0.758,0.758,0,0,1-.4-0.112,0.79,0.79,0,0,1-.262-1.073l2.514-4.238a0.761,0.761,0,0,1,1.055-.265,0.788,0.788,0,0,1,.261,1.072l-2.513,4.238a0.763,0.763,0,0,1-.659.378h0Zm0,0,0,0a0.769,0.769,0,0,1-.743-0.587,0.784,0.784,0,0,1,.554-0.951l2.513-.654a0.766,0.766,0,0,1,.934.564,0.782,0.782,0,0,1-.554.951l-2.513.654a0.739,0.739,0,0,1-.191.023h0Zm0,0,3.181,1.526a0.767,0.767,0,0,1-.732-0.548l-0.668-2.18a0.785,0.785,0,0,1,.5-0.979,0.769,0.769,0,0,1,.962.513l0.667,2.18a0.785,0.785,0,0,1-.5.979,0.765,0.765,0,0,1-.23.035h0Zm0,0,0,0a0.748,0.748,0,0,1-.381-0.1,0.788,0.788,0,0,1-.286-1.065l2.047-3.646a0.761,0.761,0,0,1,1.047-.291,0.789,0.789,0,0,1,.286,1.066l-2.046,3.646a0.761,0.761,0,0,1-.667.393h0Zm0,0,17.074,7.047H966.453a0.767,0.767,0,0,0,0,1.534h18.473a0.767,0.767,0,0,0,0-1.534h0Zm0,0" transform="translate(-962 -169)"/>
</svg>
