<svg width="60" height="60" xmlns="http://www.w3.org/2000/svg"><g fill="none" fill-rule="evenodd"><circle fill="#49A7FF" cx="30" cy="30" r="30"/><g transform="translate(16 16)"><path d="M24.935 8.82L18.64.75H2C1.31.75.75 1.31.75 2v24.895c0 .69.56 1.25 1.25 1.25h21.685c.69 0 1.25-.56 1.25-1.25V8.82z" stroke="#FFF" stroke-width="1.5" fill="#49A7FF"/><circle fill="#49A7FF" cx="22.474" cy="23.544" r="6.421"/><rect fill="#FFF" x="5.351" y="5.351" width="15.327" height="1.605" rx=".803"/><rect fill="#FFF" x="5.351" y="10.702" width="15.327" height="1.605" rx=".803"/><rect fill="#FFF" x="5.351" y="16.053" width="12.842" height="1.605" rx=".803"/><rect fill="#FFF" x="5.351" y="21.404" width="8.562" height="1.605" rx=".803"/><path d="M26.46 26.345l1.279 1.28a.75.75 0 0 1-1.06 1.06l-1.28-1.278a4.75 4.75 0 1 1 1.06-1.061zm-1.53-.508a3.25 3.25 0 1 0-1.922.948 3.236 3.236 0 0 0 1.88-.905l.043-.043z" fill="#FFF" fill-rule="nonzero"/></g></g></svg>