<?xml version="1.0" encoding="UTF-8"?>
<svg width="28px" height="28px" viewBox="0 0 28 28" version="1.1" xmlns="http://www.w3.org/2000/svg" xmlns:xlink="http://www.w3.org/1999/xlink">
    <!-- Generator: Sketch 48.2 (47327) - http://www.bohemiancoding.com/sketch -->
    <title>Combined shape 3231</title>
    <desc>Created with Sketch.</desc>
    <defs></defs>
    <g id="Artboard" stroke="none" stroke-width="1" fill="none" fill-rule="evenodd" transform="translate(-51.000000, -2181.000000)">
        <g id="系统监控" transform="translate(14.000000, 2144.000000)" fill="#FFFFFF">
            <g id="01">
                <path d="M48.000007,63.000096 L48.999943,63.000096 C49.202187,63.376672 49.185757,63.627904 49.185757,64.113824 C49.185757,64.599744 48.780494,65 48.288493,65 L40.444377,65 C38.548603,65 37.00006,63.356256 37.00006,61.340864 L37.00006,40.659104 C37.00006,38.643712 38.534095,36.999968 40.4299,36.999968 L56.928472,36.999968 C58.824277,36.999968 60.37282,38.643712 60.37282,40.659104 L60.37282,43.074432 C60.37282,43.560512 59.967681,43.960736 59.475556,43.960736 C58.983555,43.960736 58.578416,43.560512 58.578416,43.074432 L58.578416,40.673088 C58.578416,39.630016 57.897222,39 56.999958,39 L41.000052,39 C40.102788,39 39.000056,39.95664 39.000056,41.000032 L39.000056,60.999936 C39.000056,62.028992 40.08828,63.000096 41.000052,63.000096 L48.000007,63.000096 Z M64.743572,63.142112 C65.090958,63.484832 65.090958,64.056608 64.743572,64.399616 C64.569941,64.571296 64.338309,64.65696 64.106677,64.65696 C63.875293,64.65696 63.643661,64.571296 63.47003,64.399616 L60.922853,61.88416 C59.417679,63.09904 57.478505,63.828 55.379805,63.828 C50.531684,63.828 46.59518,59.940288 46.59518,55.152128 C46.59518,50.363936 50.531684,46.476224 55.379805,46.476224 C60.228081,46.476224 64.164678,50.363936 64.164678,55.152128 C64.164678,57.224704 63.426537,59.139808 62.196395,60.626336 L64.743572,63.142112 Z M50.444915,60.040288 C51.761826,61.340864 53.513016,62.05552 55.379805,62.041504 C57.246873,62.041504 58.998032,61.32672 60.315067,60.026144 C61.631978,58.725408 62.355642,56.995968 62.355642,55.152128 C62.355642,53.308384 61.631978,51.578976 60.315067,50.27824 C58.998032,48.977664 57.246873,48.263008 55.379805,48.263008 C53.513016,48.263008 51.761826,48.977664 50.444915,50.292544 C49.12788,51.59312 48.404247,53.32256 48.404247,55.166432 C48.404247,57.010272 49.12788,58.739552 50.444915,60.040288 Z M51.284209,59.18288 C50.792177,59.18288 50.386914,58.782624 50.386914,58.296544 L50.386914,55.766624 C50.386914,55.280864 50.792177,54.880608 51.284209,54.880608 C51.776334,54.880608 52.181597,55.280864 52.181597,55.766624 L52.181597,58.296544 C52.181597,58.782624 51.776334,59.18288 51.284209,59.18288 Z M54.09191,60.797856 C53.599878,60.797856 53.194615,60.39776 53.194615,59.91168 L53.194615,53.63696 C53.194615,53.15104 53.599878,52.750944 54.09191,52.750944 C54.583911,52.750944 54.989174,53.15104 54.989174,53.63696 L54.989174,59.91168 C54.989174,60.39776 54.583911,60.797856 54.09191,60.797856 Z M56.884979,60.797856 C56.392978,60.797856 55.987715,60.39776 55.987715,59.91168 L55.987715,51.621728 C55.987715,51.135648 56.392978,50.735552 56.884979,50.735552 C57.377135,50.735552 57.782398,51.135648 57.782398,51.621728 L57.782398,59.91168 C57.796751,60.39776 57.391488,60.797856 56.884979,60.797856 Z M59.69268,59.097056 C59.200679,59.097056 58.795416,58.6968 58.795416,58.21088 L58.795416,54.380224 C58.795416,53.894304 59.200679,53.494208 59.69268,53.494208 C60.184836,53.494208 60.589975,53.894304 60.589975,54.380224 L60.589975,58.196576 C60.589975,58.6968 60.184836,59.097056 59.69268,59.097056 Z M39.999992,43.000064 L52.00003,43.000064 L52.00003,43.999936 L39.999992,43.999936 L39.999992,43.000064 Z M39.999992,45.999968 L48.000007,45.999968 L48.000007,47 L39.999992,47 L39.999992,45.999968 Z M39.999992,49.000032 L44.999951,49.000032 L44.999951,50.000032 L39.999992,50.000032 L39.999992,49.000032 Z" id="Combined-shape-3231"></path>
            </g>
        </g>
    </g>
</svg>