<svg xmlns="http://www.w3.org/2000/svg" width="28.031" height="28" viewBox="0 0 28.031 28">
  <metadata><?xpacket begin="﻿" id="W5M0MpCehiHzreSzNTczkc9d"?>
<x:xmpmeta xmlns:x="adobe:ns:meta/" x:xmptk="Adobe XMP Core 5.6-c138 79.159824, 2016/09/14-01:09:01        ">
   <rdf:RDF xmlns:rdf="http://www.w3.org/1999/02/22-rdf-syntax-ns#">
      <rdf:Description rdf:about=""/>
   </rdf:RDF>
</x:xmpmeta>
                                                                                                    
                                                                                                    
                                                                                                    
                                                                                                    
                                                                                                    
                                                                                                    
                                                                                                    
                                                                                                    
                                                                                                    
                                                                                                    
                                                                                                    
                                                                                                    
                                                                                                    
                                                                                                    
                                                                                                    
                                                                                                    
                                                                                                    
                                                                                                    
                                                                                                    
                                                                                                    
                           
<?xpacket end="w"?></metadata>
<defs>
    <style>
      .cls-1 {
        fill: #fff;
        fill-rule: evenodd;
      }
    </style>
  </defs>
  <path id="形状_597" data-name="形状 597" class="cls-1" d="M62,2083H55a2.2,2.2,0,0,1-2-2v-20a2.2,2.2,0,0,1,2-2H71a1.543,1.543,0,0,1,1.578,1.67v2.4a0.9,0.9,0,0,0,1.794,0v-2.41a3.562,3.562,0,0,0-3.444-3.66H54.43a3.55,3.55,0,0,0-3.43,3.66v20.68a3.562,3.562,0,0,0,3.444,3.66h7.844a0.9,0.9,0,0,0,.9-0.89A1.991,1.991,0,0,0,63,2083H62Zm0,0,16.744,0.14-2.547-2.51a8.6,8.6,0,0,0,1.968-5.48,8.748,8.748,0,1,0-3.242,6.73l2.547,2.52a0.91,0.91,0,0,0,1.274,0,0.892,0.892,0,0,0,0-1.26h0Zm-14.3-3.1a6.843,6.843,0,0,1,0-9.75,7.026,7.026,0,0,1,9.87-.01,6.844,6.844,0,0,1,0,9.75,6.971,6.971,0,0,1-4.935,2.01,6.878,6.878,0,0,1-4.935-2h0Zm0,0,0.839-.86a0.9,0.9,0,0,1-.9-0.88v-2.53a0.9,0.9,0,0,1,1.795,0v2.53a0.9,0.9,0,0,1-.9.88h0Zm2.808,1.62a0.9,0.9,0,0,1-.9-0.89v-6.27a0.9,0.9,0,0,1,1.795,0v6.27a0.9,0.9,0,0,1-.9.89h0Zm2.793,0a0.9,0.9,0,0,1-.9-0.89v-8.29a0.9,0.9,0,0,1,1.795,0v8.29a0.879,0.879,0,0,1-.9.89h0Zm2.808-1.7a0.9,0.9,0,0,1-.9-0.89v-3.83a0.9,0.9,0,0,1,1.795,0v3.82a0.9,0.9,0,0,1-.9.9h0Zm0,0M54,2063H66v1H54v-1Zm0,3h8v1H54v-1Zm0,3h5v1H54v-1Z" transform="translate(-51 -2057)"/>
</svg>
