<svg width="60" height="60" xmlns="http://www.w3.org/2000/svg" xmlns:xlink="http://www.w3.org/1999/xlink"><defs><path d="M1.205 16.239h4.018a1.205 1.205 0 1 0 0-2.41H1.205a1.205 1.205 0 1 0 0 2.41z" id="a"/><path d="M6.429 21.027c0-.667-.54-1.206-1.206-1.206H1.205a1.205 1.205 0 1 0 0 2.411h4.018c.667 0 1.206-.539 1.206-1.205zM1.205 10.246h4.018a1.205 1.205 0 1 0 0-2.411H1.205a1.205 1.205 0 1 0 0 2.41z" id="b"/><path d="M27.72 0H4.566a2.415 2.415 0 0 0-2.423 2.41v1.876c0 .666.542 1.205 1.211 1.205.67 0 1.212-.539 1.212-1.205V2.41H27.72v25.178H4.566v-1.808h-.003c0-.023.003-.043.003-.067 0-.666-.542-1.205-1.212-1.205a1.208 1.208 0 0 0-1.208 1.272h-.003v1.808A2.415 2.415 0 0 0 4.566 30H27.72a2.415 2.415 0 0 0 2.423-2.41V2.41A2.415 2.415 0 0 0 27.72 0z" id="c"/></defs><g fill="none" fill-rule="evenodd"><circle fill="#2A98FF" cx="30" cy="30" r="30"/><g fill-rule="nonzero"><g transform="translate(15 15)"><use fill="#FFF" fill-rule="evenodd" xlink:href="#a"/><path stroke="#56A6F2" stroke-width=".2" d="M1.205 16.139h4.018a1.105 1.105 0 1 0 0-2.21H1.205a1.105 1.105 0 1 0 0 2.21z"/></g><g transform="translate(15 15)"><use fill="#FFF" fill-rule="evenodd" xlink:href="#b"/><path stroke="#56A6F2" stroke-width=".2" d="M6.329 21.027c0-.611-.495-1.106-1.106-1.106H1.205a1.105 1.105 0 1 0 0 2.211h4.018c.611 0 1.106-.494 1.106-1.105zM1.205 10.146h4.018a1.105 1.105 0 1 0 0-2.211H1.205a1.105 1.105 0 1 0 0 2.21z"/></g><g transform="translate(15 15)"><use fill="#FFF" fill-rule="evenodd" xlink:href="#c"/><path stroke="#56A6F2" stroke-width=".2" d="M2.233 25.781h-.09v.1h.003l.087-.1zm2.233.004l.097.096h.003v-.1h-.1v.004z"/></g><path d="M38.994 37.207a.747.747 0 0 0-.02-.165c-.321-2.59-1.958-4.752-4.196-5.748a5.135 5.135 0 0 0 2.145-4.203c0-2.812-2.204-5.091-4.922-5.091-2.719 0-4.922 2.28-4.922 5.09 0 1.748.85 3.288 2.147 4.205-2.219.988-3.846 3.122-4.187 5.682a.74.74 0 0 0-.039.23l.006.058c0 .41.315.735.702.735a.714.714 0 0 0 .702-.726c.341-2.784 2.558-4.955 5.294-5.102a4.839 4.839 0 0 0 .595 0c2.736.147 4.953 2.318 5.28 5.093.017.41.331.735.72.735a.714.714 0 0 0 .695-.793zm-10.51-10.115c0-2.008 1.574-3.636 3.516-3.636s3.516 1.628 3.516 3.636c0 1.896-1.404 3.452-3.195 3.62a6.84 6.84 0 0 0-.64 0c-1.793-.167-3.197-1.723-3.197-3.62z" fill="#FFF"/></g></g></svg>