<?xml version="1.0" encoding="UTF-8"?>
<svg width="60px" height="60px" viewBox="0 0 60 60" version="1.1" xmlns="http://www.w3.org/2000/svg" xmlns:xlink="http://www.w3.org/1999/xlink">
    <!-- Generator: Sketch 49.3 (51167) - http://www.bohemiancoding.com/sketch -->
    <title>基础信息-纳税主体</title>
    <desc>Created with Sketch.</desc>
    <defs>
        <path d="M21.4285714,36.0267857 C21.4285714,35.3604911 20.8895089,34.8214286 20.2232143,34.8214286 L16.2053571,34.8214286 C15.5390625,34.8214286 15,35.3604911 15,36.0267857 C15,36.6930804 15.5390625,37.2321429 16.2053571,37.2321429 L20.2232143,37.2321429 C20.8895089,37.2321429 21.4285714,36.6930804 21.4285714,36.0267857 Z M16.2053571,25.2455357 L20.2232143,25.2455357 C20.8895089,25.2455357 21.4285714,24.7064732 21.4285714,24.0401786 C21.4285714,23.3738839 20.8895089,22.8348214 20.2232143,22.8348214 L16.2053571,22.8348214 C15.5390625,22.8348214 15,23.3738839 15,24.0401786 C15,24.7064732 15.5390625,25.2455357 16.2053571,25.2455357 Z" id="path-1"></path>
        <path d="M42.7197802,15 L19.5659341,15 C18.226511,15 17.1428571,16.078125 17.1428571,17.4107143 L17.1428571,19.2857143 C17.1428571,19.9520089 17.6846841,20.4910714 18.3543956,20.4910714 C19.0241071,20.4910714 19.5659341,19.9520089 19.5659341,19.2857143 L19.5659341,17.4107143 L42.7197802,17.4107143 L42.7197802,42.5892857 L19.5659341,42.5892857 L19.5659341,40.78125 L19.5625687,40.78125 C19.5625687,40.7578125 19.5659341,40.7377232 19.5659341,40.7142857 C19.5659341,40.0479911 19.0241071,39.5089286 18.3543956,39.5089286 C17.6846841,39.5089286 17.1428571,40.0479911 17.1428571,40.7142857 C17.1428571,40.7377232 17.1428571,40.7578125 17.1462225,40.78125 L17.1428571,40.78125 L17.1428571,42.5892857 C17.1428571,43.921875 18.226511,45 19.5659341,45 L42.7197802,45 C44.0592033,45 45.1428571,43.921875 45.1428571,42.5892857 L45.1428571,17.4107143 C45.1428571,16.078125 44.0592033,15 42.7197802,15 Z" id="path-2"></path>
        <path d="M16.2053571,31.2388393 L20.2232143,31.2388393 C20.8895089,31.2388393 21.4285714,30.6997768 21.4285714,30.0334821 C21.4285714,29.3671875 20.8895089,28.828125 20.2232143,28.828125 L16.2053571,28.828125 C15.5390625,28.828125 15,29.3671875 15,30.0334821 C15,30.6997768 15.5390625,31.2388393 16.2053571,31.2388393 Z" id="path-3"></path>
    </defs>
    <g id="icon" stroke="none" stroke-width="1" fill="none" fill-rule="evenodd">
        <g id="基础信息-纳税主体">
            <circle id="Oval-Copy" fill="#2A98FF" cx="30" cy="30" r="30"></circle>
            <g id="Shape" fill-rule="nonzero">
                <use fill="#FFFFFF" fill-rule="evenodd" xlink:href="#path-1"></use>
                <path stroke="#56A6F2" stroke-width="0.2" d="M21.3285714,36.0267857 C21.3285714,35.4157195 20.8342805,34.9214286 20.2232143,34.9214286 L16.2053571,34.9214286 C15.594291,34.9214286 15.1,35.4157195 15.1,36.0267857 C15.1,36.6378519 15.594291,37.1321429 16.2053571,37.1321429 L20.2232143,37.1321429 C20.8342805,37.1321429 21.3285714,36.6378519 21.3285714,36.0267857 Z M16.2053571,25.1455357 L20.2232143,25.1455357 C20.8342805,25.1455357 21.3285714,24.6512447 21.3285714,24.0401786 C21.3285714,23.4291124 20.8342805,22.9348214 20.2232143,22.9348214 L16.2053571,22.9348214 C15.594291,22.9348214 15.1,23.4291124 15.1,24.0401786 C15.1,24.6512447 15.594291,25.1455357 16.2053571,25.1455357 Z"></path>
            </g>
            <g id="Shape" fill-rule="nonzero">
                <use fill="#FFFFFF" fill-rule="evenodd" xlink:href="#path-2"></use>
                <path stroke="#56A6F2" stroke-width="0.2" d="M17.2328892,40.78125 L17.1428571,40.78125 L17.1428571,40.88125 L17.1462225,40.88125 L17.2328892,40.78125 Z M19.4659341,40.7846154 L19.5625687,40.88125 L19.5659341,40.88125 L19.5659341,40.78125 L19.4659341,40.78125 L19.4659341,40.7846154 Z"></path>
            </g>
            <g id="Shape" fill-rule="nonzero">
                <use fill="#FFFFFF" fill-rule="evenodd" xlink:href="#path-3"></use>
                <path stroke="#56A6F2" stroke-width="0.2" d="M16.2053571,31.1388393 L20.2232143,31.1388393 C20.8342805,31.1388393 21.3285714,30.6445483 21.3285714,30.0334821 C21.3285714,29.422416 20.8342805,28.928125 20.2232143,28.928125 L16.2053571,28.928125 C15.594291,28.928125 15.1,29.422416 15.1,30.0334821 C15.1,30.6445483 15.594291,31.1388393 16.2053571,31.1388393 Z"></path>
            </g>
            <path d="M38.9935126,37.2066886 C38.9935126,37.1498442 38.985737,37.0952064 38.9737866,37.0420716 C38.6526302,34.4525727 37.0157151,32.2900864 34.7775068,31.2943417 C36.0729187,30.3773638 36.9233243,28.837112 36.9233243,27.0908611 C36.9233243,24.2792292 34.7194928,22 32.000939,22 C29.282354,22 27.0785226,24.2792452 27.0785226,27.0908611 C27.0785226,28.8376876 27.9295179,30.3784511 29.2256748,31.2952852 C27.0073631,32.2831467 25.3795428,34.4170109 25.0393433,36.9768485 C25.0157373,37.049491 25,37.1258272 25,37.2066726 L25.0056183,37.265132 C25.0064563,37.6750194 25.3207063,38 25.7082885,38 C26.0958707,38 26.4100896,37.6750194 26.4100896,37.2740225 C26.7511582,34.4903251 28.9677471,32.319476 31.7037455,32.1716485 C31.8021116,32.1776928 31.9010364,32.1817062 32.000939,32.1817062 C32.1010123,32.1817062 32.2001233,32.1776928 32.2986911,32.1715366 C35.0348913,32.3190762 37.2517906,34.4901172 37.5794809,37.2652599 C37.5961495,37.6750194 37.9103994,38 38.2981679,38 C38.6857501,38 39,37.6750194 39,37.2740225 C38.9991619,37.2603777 38.9969994,37.237933 38.9935126,37.2066886 Z M28.4836923,27.0923322 C28.4836923,25.0840214 30.0577201,23.4559046 31.9996197,23.4559046 C33.9415038,23.4559046 35.5157024,25.0840374 35.5157024,27.0923322 C35.5157024,28.9884572 34.111976,30.5439315 32.3208382,30.7119703 C32.2153795,30.7070614 32.1093465,30.7041512 32.0026306,30.7041512 C31.8946111,30.7041512 31.7871347,30.7070774 31.6802482,30.7120503 C29.8882722,30.5448909 28.4836923,28.9891288 28.4836923,27.0923322 Z" id="Shape" fill="#FFFFFF" fill-rule="nonzero"></path>
        </g>
    </g>
</svg>