<svg xmlns="http://www.w3.org/2000/svg" width="30" height="32" viewBox="0 0 30 32">
  <metadata><?xpacket begin="﻿" id="W5M0MpCehiHzreSzNTczkc9d"?>
<x:xmpmeta xmlns:x="adobe:ns:meta/" x:xmptk="Adobe XMP Core 5.6-c138 79.159824, 2016/09/14-01:09:01        ">
   <rdf:RDF xmlns:rdf="http://www.w3.org/1999/02/22-rdf-syntax-ns#">
      <rdf:Description rdf:about=""/>
   </rdf:RDF>
</x:xmpmeta>
                                                                                                    
                                                                                                    
                                                                                                    
                                                                                                    
                                                                                                    
                                                                                                    
                                                                                                    
                                                                                                    
                                                                                                    
                                                                                                    
                                                                                                    
                                                                                                    
                                                                                                    
                                                                                                    
                                                                                                    
                                                                                                    
                                                                                                    
                                                                                                    
                                                                                                    
                                                                                                    
                           
<?xpacket end="w"?></metadata>
<defs>
    <style>
      .cls-1 {
        fill: #fff;
        fill-rule: evenodd;
      }
    </style>
  </defs>
  <path id="形状_6" data-name="形状 6" class="cls-1" d="M61.178,48a10.949,10.949,0,0,0-4.583,20.883,12.517,12.517,0,0,0-7.587,10,1,1,0,0,0,.239.781,0.983,0.983,0,0,0,1.714-.532,10.517,10.517,0,0,1,9.826-9.218,0.144,0.144,0,0,0,.135-0.144V68.017a0.143,0.143,0,0,0-.143-0.144,8.937,8.937,0,1,1,9.34-8.927,8.657,8.657,0,0,1-.1,1.3,0.99,0.99,0,0,0,.228.788,1,1,0,0,0,1.749-.5A10.947,10.947,0,0,0,61.178,48h0Zm0,0M74.962,79.437a1.431,1.431,0,0,1-.675-0.171L70.78,77.414l-3.506,1.852a1.433,1.433,0,0,1-.676.171,1.459,1.459,0,0,1-1.428-1.713L65.838,73.8,63,71.018a1.464,1.464,0,0,1,.807-2.493l3.919-.575,1.753-3.572a1.446,1.446,0,0,1,2.6,0l1.753,3.572,3.919,0.575a1.464,1.464,0,0,1,.807,2.493L75.727,73.8l0.668,3.926a1.453,1.453,0,0,1-.321,1.188,1.469,1.469,0,0,1-1.112.524h0ZM70.78,75.682a1.621,1.621,0,0,1,.749.186L74.622,77.5,74.032,74.04a1.628,1.628,0,0,1,.463-1.433L77,70.153l-3.459-.5a1.614,1.614,0,0,1-1.212-.885L70.777,65.61l-1.548,3.153a1.6,1.6,0,0,1-1.213.885l-3.46.5,2.5,2.454a1.635,1.635,0,0,1,.463,1.437l-0.591,3.464,3.093-1.635a1.633,1.633,0,0,1,.757-0.19h0Zm0,0" transform="translate(-49 -48)"/>
</svg>
