<svg xmlns="http://www.w3.org/2000/svg" width="30" height="28" viewBox="0 0 30 28">
  <metadata><?xpacket begin="﻿" id="W5M0MpCehiHzreSzNTczkc9d"?>
<x:xmpmeta xmlns:x="adobe:ns:meta/" x:xmptk="Adobe XMP Core 5.6-c138 79.159824, 2016/09/14-01:09:01        ">
   <rdf:RDF xmlns:rdf="http://www.w3.org/1999/02/22-rdf-syntax-ns#">
      <rdf:Description rdf:about=""/>
   </rdf:RDF>
</x:xmpmeta>
                                                                                                    
                                                                                                    
                                                                                                    
                                                                                                    
                                                                                                    
                                                                                                    
                                                                                                    
                                                                                                    
                                                                                                    
                                                                                                    
                                                                                                    
                                                                                                    
                                                                                                    
                                                                                                    
                                                                                                    
                                                                                                    
                                                                                                    
                                                                                                    
                                                                                                    
                                                                                                    
                           
<?xpacket end="w"?></metadata>
<defs>
    <style>
      .cls-1 {
        fill: #fff;
        fill-rule: evenodd;
      }
    </style>
  </defs>
  <path id="形状_43" data-name="形状 43" class="cls-1" d="M77.855,1484.4H76.793v-5.21a1,1,0,0,0-.03-0.25,1.077,1.077,0,0,0-1.069-1.02H66.083v-4.32h1.056a2.157,2.157,0,0,0,2.145-2.16v-4.28a2.157,2.157,0,0,0-2.145-2.16H62.882a2.157,2.157,0,0,0-2.145,2.16v4.28a2.157,2.157,0,0,0,2.145,2.16h1.056v4.32h-9.7a1.073,1.073,0,0,0-1.072,1.08,0.846,0.846,0,0,0,0,.09c0,0.03,0,.07,0,0.1v5.21H52.145A2.157,2.157,0,0,0,50,1486.56v4.28a2.157,2.157,0,0,0,2.145,2.16H56.4a2.157,2.157,0,0,0,2.145-2.16v-4.28a2.157,2.157,0,0,0-2.145-2.16H55.312v-4.32h8.626v4.31H62.872a2.158,2.158,0,0,0-2.145,2.16v4.28a2.158,2.158,0,0,0,2.145,2.16h4.256a2.157,2.157,0,0,0,2.145-2.16v-4.28a2.157,2.157,0,0,0-2.145-2.16H66.083v-4.31h8.566v4.32H73.6a2.157,2.157,0,0,0-2.145,2.16v4.28A2.157,2.157,0,0,0,73.6,1493h4.256A2.157,2.157,0,0,0,80,1490.84v-4.28a2.157,2.157,0,0,0-2.145-2.16h0Zm-14.97-12.96h0v-4.28h4.256v4.28H62.886ZM57,1486h0v5h0l-4.852-.16h0L52,1486h5Zm10,0h0v5l0.125-.17H62.872L63,1486h4Zm10.855,4.84h0L74,1491h0v-5h4Zm0,0" transform="translate(-50 -1465)"/>
</svg>
