<svg width="60" height="60" xmlns="http://www.w3.org/2000/svg"><g fill="none" fill-rule="evenodd"><circle fill="#49A7FF" cx="30" cy="30" r="30"/><path d="M42.765 35.515h-2.06V30c0-.702-.553-1.273-1.234-1.273h-8.647v-4.242h2.058c.682 0 1.236-.57 1.236-1.273v-5.94c0-.701-.554-1.272-1.236-1.272h-5.764c-.682 0-1.236.57-1.236 1.273v5.94c0 .701.554 1.272 1.236 1.272h2.058v4.242H20.53c-.681 0-1.235.57-1.235 1.273v5.515h-2.059c-.681 0-1.235.57-1.235 1.273v5.94c0 .701.554 1.272 1.235 1.272H23c.682 0 1.235-.57 1.235-1.273v-5.94c0-.701-.553-1.272-1.235-1.272h-2.059v-5.09h8.235v5.09h-2.058c-.682 0-1.236.57-1.236 1.273v5.94c0 .701.554 1.272 1.236 1.272h5.764c.682 0 1.236-.57 1.236-1.273v-5.94c0-.701-.554-1.272-1.236-1.272h-2.058v-5.09h8.235v5.09H37c-.682 0-1.235.57-1.235 1.273v5.94c0 .701.553 1.272 1.235 1.272h5.765c.681 0 1.235-.57 1.235-1.273v-5.94c0-.701-.554-1.272-1.235-1.272zM27.529 17.697h4.942v5.09h-4.942v-5.09zm-4.94 19.515v5.091h-4.942v-5.09h4.941zm9.882 5.091h-4.942v-5.09h4.942v5.09zm9.882 0h-4.941v-5.09h4.94v5.09z" fill="#FFF" fill-rule="nonzero"/></g></svg>