<?xml version="1.0" encoding="UTF-8"?>
<svg width="60px" height="60px" viewBox="0 0 60 60" version="1.1" xmlns="http://www.w3.org/2000/svg" xmlns:xlink="http://www.w3.org/1999/xlink">
    <!-- Generator: Sketch 49.3 (51167) - http://www.bohemiancoding.com/sketch -->
    <title>其他台账-其他事项调整台账</title>
    <desc>Created with Sketch.</desc>
    <defs>
        <rect id="path-1" x="16" y="16" width="25" height="27" rx="2"></rect>
    </defs>
    <g id="icon" stroke="none" stroke-width="1" fill="none" fill-rule="evenodd">
        <g id="其他台账-其他事项调整台账">
            <circle id="Oval-Copy" fill="#49A7FF" cx="30" cy="30" r="30"></circle>
            <g id="Rectangle-4">
                <use fill="#49A7FF" fill-rule="evenodd" xlink:href="#path-1"></use>
                <rect stroke="#FFFFFF" stroke-width="1.5" x="16.75" y="16.75" width="23.5" height="25.5" rx="2"></rect>
            </g>
            <circle id="Oval-2" fill="#49A7FF" cx="36.5" cy="36.5" r="7.5"></circle>
            <polygon id="￥" fill="#FFFFFF" points="20 34 21.4539249 34 23 36.5294118 24.5460751 34 26 34 24.0341297 36.9243697 25.3447099 36.9243697 25.3447099 37.4789916 23.6552901 37.4789916 23.6450512 37.487395 23.6450512 38.1848739 25.3447099 38.1848739 25.3447099 38.7394958 23.6450512 38.7394958 23.6450512 40 22.3549488 40 22.3549488 38.7394958 20.665529 38.7394958 20.665529 38.1848739 22.3549488 38.1848739 22.3549488 37.487395 22.3447099 37.4789916 20.665529 37.4789916 20.665529 36.9243697 21.9658703 36.9243697"></polygon>
            <rect id="Rectangle-14" fill="#FFFFFF" x="20" y="21" width="16" height="1.5" rx="0.75"></rect>
            <rect id="Rectangle-14-Copy" fill="#FFFFFF" x="20" y="25" width="16" height="1.5" rx="0.75"></rect>
            <rect id="Rectangle-14-Copy-2" fill="#FFFFFF" x="20" y="29" width="8" height="1.5" rx="0.75"></rect>
            <g id="Group-23" transform="translate(31.000000, 31.000000)" fill="#FFFFFF">
                <path d="M5.73626374,11.4725275 C2.56821275,11.4725275 0,8.90431472 0,5.73626374 C0,2.56821275 2.56821275,0 5.73626374,0 C8.90431472,0 11.4725275,2.56821275 11.4725275,5.73626374 C11.4725275,8.90431472 8.90431472,11.4725275 5.73626374,11.4725275 Z M5.73626374,10.2857143 C8.24885589,10.2857143 10.2857143,8.24885589 10.2857143,5.73626374 C10.2857143,3.22367158 8.24885589,1.18681319 5.73626374,1.18681319 C3.22367158,1.18681319 1.18681319,3.22367158 1.18681319,5.73626374 C1.18681319,8.24885589 3.22367158,10.2857143 5.73626374,10.2857143 Z" id="Oval-3" fill-rule="nonzero"></path>
                <path d="M3.21428571,6.42857143 C2.85924552,6.42857143 2.57142857,6.14075448 2.57142857,5.78571429 C2.57142857,5.43067409 2.85924552,5.14285714 3.21428571,5.14285714 C3.56932591,5.14285714 3.85714286,5.43067409 3.85714286,5.78571429 C3.85714286,6.14075448 3.56932591,6.42857143 3.21428571,6.42857143 Z M5.78571429,6.42857143 C5.43067409,6.42857143 5.14285714,6.14075448 5.14285714,5.78571429 C5.14285714,5.43067409 5.43067409,5.14285714 5.78571429,5.14285714 C6.14075448,5.14285714 6.42857143,5.43067409 6.42857143,5.78571429 C6.42857143,6.14075448 6.14075448,6.42857143 5.78571429,6.42857143 Z M8.35714286,6.42857143 C8.00210266,6.42857143 7.71428571,6.14075448 7.71428571,5.78571429 C7.71428571,5.43067409 8.00210266,5.14285714 8.35714286,5.14285714 C8.71218305,5.14285714 9,5.43067409 9,5.78571429 C9,6.14075448 8.71218305,6.42857143 8.35714286,6.42857143 Z" id="Combined-Shape"></path>
            </g>
        </g>
    </g>
</svg>