<?xml version="1.0" encoding="UTF-8"?>
<svg width="60px" height="60px" viewBox="0 0 60 60" version="1.1" xmlns="http://www.w3.org/2000/svg" xmlns:xlink="http://www.w3.org/1999/xlink">
    <!-- Generator: Sketch 49.3 (51167) - http://www.bohemiancoding.com/sketch -->
    <title>土地价款-其他应税项目扣除台账</title>
    <desc>Created with Sketch.</desc>
    <defs>
        <rect id="path-1" x="17" y="16" width="25" height="27" rx="2"></rect>
    </defs>
    <g id="icon" stroke="none" stroke-width="1" fill="none" fill-rule="evenodd">
        <g id="土地价款-其他应税项目扣除台账">
            <circle id="Oval-Copy" fill="#05DCAC" cx="30" cy="30" r="30"></circle>
            <g id="Rectangle-4">
                <use fill="#05DCAC" fill-rule="evenodd" xlink:href="#path-1"></use>
                <rect stroke="#FFFFFF" stroke-width="1.5" x="17.75" y="16.75" width="23.5" height="25.5" rx="2"></rect>
            </g>
            <rect id="Rectangle-3" fill="#FFFFFF" x="21" y="21" width="15" height="1.5" rx="0.75"></rect>
            <rect id="Rectangle-3-Copy" fill="#FFFFFF" x="21" y="26" width="15" height="1.5" rx="0.75"></rect>
            <rect id="Rectangle-3-Copy-2" fill="#FFFFFF" x="21" y="30" width="10" height="1.5" rx="0.75"></rect>
            <circle id="Oval-2" fill="#05DCAC" cx="40.5" cy="37.5" r="7.5"></circle>
            <path d="M40,44 C36.6862915,44 34,41.3137085 34,38 C34,34.6862915 36.6862915,32 40,32 C43.3137085,32 46,34.6862915 46,38 C46,41.3137085 43.3137085,44 40,44 Z M40,42.7586207 C42.6281136,42.7586207 44.7586207,40.6281136 44.7586207,38 C44.7586207,35.3718864 42.6281136,33.2413793 40,33.2413793 C37.3718864,33.2413793 35.2413793,35.3718864 35.2413793,38 C35.2413793,40.6281136 37.3718864,42.7586207 40,42.7586207 Z" id="Oval-3" fill="#FFFFFF" fill-rule="nonzero"></path>
            <polygon id="￥-copy" fill="#FFFFFF" points="37 35 38.3702422 35 40 37.5798319 41.6297578 35 43 35 40.9757785 37.9495798 42.3564014 37.9495798 42.3564014 38.4705882 40.6124567 38.4705882 40.6020761 38.4789916 40.6020761 39.2016807 42.3564014 39.2016807 42.3564014 39.7226891 40.6020761 39.7226891 40.6020761 41 39.3979239 41 39.3979239 39.7226891 37.6539792 39.7226891 37.6539792 39.2016807 39.3979239 39.2016807 39.3979239 38.4789916 39.3875433 38.4705882 37.6539792 38.4705882 37.6539792 37.9495798 39.0242215 37.9495798"></polygon>
            <path d="M21.1128527,34.5699039 L22.1410658,34.5699039 L22.1410658,34.0512273 L22.799373,34.0512273 L22.799373,34.5699039 L24.8683386,34.5699039 L24.8683386,34.0512273 L25.5266458,34.0512273 L25.5266458,34.5699039 L26.5548589,34.5699039 L26.5548589,35.1974386 L25.5266458,35.1974386 L25.5266458,37.9124867 L26.6739812,37.9124867 L26.6739812,38.5336179 L21,38.5336179 L21,37.9124867 L22.1410658,37.9124867 L22.1410658,35.1974386 L21.1128527,35.1974386 L21.1128527,34.5699039 Z M22.799373,37.9124867 L24.8683386,37.9124867 L24.8683386,37.361793 L22.799373,37.361793 L22.799373,37.9124867 Z M22.799373,36.7982924 L24.8683386,36.7982924 L24.8683386,36.2796158 L22.799373,36.2796158 L22.799373,36.7982924 Z M22.799373,35.7161153 L24.8683386,35.7161153 L24.8683386,35.1974386 L22.799373,35.1974386 L22.799373,35.7161153 Z M22.8746082,38.565635 L23.338558,38.9882604 C22.8369906,39.3596585 22.2225705,39.6926361 21.4952978,39.9807898 L21.0815047,39.4300961 C21.7899687,39.1867663 22.3855799,38.8986126 22.8746082,38.565635 Z M24.7053292,38.5976521 C25.3949843,38.8217716 26.0219436,39.090715 26.5862069,39.398079 L26.2225705,39.9807898 C25.6206897,39.6093917 25.0062696,39.3148346 24.3730408,39.1035219 L24.7053292,38.5976521 Z M28.4796238,34 L29.0689655,34.2881537 C28.9310345,34.7491996 28.7492163,35.1974386 28.523511,35.6264674 L28.523511,40 L27.8777429,40 L27.8777429,36.6510139 C27.7147335,36.86873 27.539185,37.0800427 27.3573668,37.284952 L27.1442006,36.5997866 C27.7460815,35.8633938 28.1912226,34.9989328 28.4796238,34 Z M32.1034483,39.8655283 L29.984326,39.8655283 C29.4576803,39.8655283 29.1943574,39.583778 29.1943574,39.0266809 L29.1943574,36.6958378 L28.7115987,36.8431163 L28.7115987,36.1643543 L29.1943574,36.0106724 L29.1943574,34.6531483 L29.846395,34.6531483 L29.846395,35.7993597 L30.5673981,35.5688367 L30.5673981,34.0512273 L31.2194357,34.0512273 L31.2194357,35.357524 L32.5862069,34.9220918 C32.5862069,36.3564568 32.5485893,37.2273212 32.4858934,37.5346852 C32.4169279,37.8356457 32.1347962,37.9893276 31.6394984,37.9893276 L31.5768025,37.9893276 L31.3824451,37.3425827 C31.5329154,37.3425827 31.6645768,37.3489861 31.7774295,37.3489861 C31.846395,37.3489861 31.8902821,37.2785486 31.9028213,37.1440768 C31.9153605,37.022412 31.9278997,36.5869797 31.9278997,35.8377801 L31.2194357,36.0618997 L31.2194357,38.5784418 L30.5673981,38.5784418 L30.5673981,36.266809 L29.846395,36.4909285 L29.846395,38.9370331 C29.846395,39.1291355 29.9467085,39.2315902 30.1473354,39.2315902 L31.9905956,39.2315902 C32.1222571,39.2315902 32.2163009,39.1867663 32.2789969,39.1099253 C32.3291536,39.0202775 32.3667712,38.7257204 32.3855799,38.2198506 L33,38.4375667 C32.9561129,39.1099253 32.8746082,39.5197439 32.7617555,39.660619 C32.6426332,39.7950907 32.4231975,39.8655283 32.1034483,39.8655283 Z" id="其他" fill="#FFFFFF"></path>
        </g>
    </g>
</svg>