<svg width="60" height="60" xmlns="http://www.w3.org/2000/svg" xmlns:xlink="http://www.w3.org/1999/xlink"><defs><rect id="a" x="0" y="0" width="25" height="27" rx="2"/></defs><g fill="none" fill-rule="evenodd"><circle fill="#2A98FF" cx="30" cy="30" r="30"/><g transform="translate(16 16)"><use fill="#2A98FF" xlink:href="#a"/><rect stroke="#FFF" stroke-width="1.5" x=".75" y=".75" width="23.5" height="25.5" rx="2"/><circle fill="#2A98FF" cx="21.5" cy="21.5" r="7.5"/><g fill="#FFF"><path d="M21.692 28.385a6.692 6.692 0 1 1 0-13.385 6.692 6.692 0 0 1 0 13.385zm0-1.385a5.308 5.308 0 1 0 0-10.615 5.308 5.308 0 0 0 0 10.615z" fill-rule="nonzero"/><path d="M18.75 22.5a.75.75 0 1 1 0-1.5.75.75 0 0 1 0 1.5zm3 0a.75.75 0 1 1 0-1.5.75.75 0 0 1 0 1.5zm3 0a.75.75 0 1 1 0-1.5.75.75 0 0 1 0 1.5z"/></g><rect fill="#FFF" x="5" y="5" width="15" height="1.5" rx=".75"/><rect fill="#FFF" x="5" y="10" width="15" height="1.5" rx=".75"/><rect fill="#FFF" x="5" y="15" width="10" height="1.5" rx=".75"/></g></g></svg>