<?xml version="1.0" encoding="UTF-8"?>
<svg width="26px" height="28px" viewBox="0 0 26 28" version="1.1" xmlns="http://www.w3.org/2000/svg" xmlns:xlink="http://www.w3.org/1999/xlink">
    <!-- Generator: Sketch 48.2 (47327) - http://www.bohemiancoding.com/sketch -->
    <title>Combined shape 2619</title>
    <desc>Created with Sketch.</desc>
    <defs></defs>
    <g id="Artboard" stroke="none" stroke-width="1" fill="none" fill-rule="evenodd" transform="translate(-661.000000, -638.000000)">
        <g id="销项税台账" transform="translate(14.000000, 602.000000)" fill="#F1F2F7">
            <g id="01-拷贝-10" transform="translate(610.000000, 0.000000)">
                <g id="台账" transform="translate(37.000000, 36.000000)">
                    <path d="M3.18402672,4.18464947 L3.18402672,2.57148539 C3.18402672,1.42956424 4.12795795,0.500326 5.28829888,0.500326 L23.4920341,0.500326 C24.6522779,0.500326 25.5963063,1.42956424 25.5961848,2.57148539 L25.5961848,22.4872604 C25.5961848,22.882325 25.2709628,23.2024586 24.8695138,23.2024586 C24.4681863,23.2024586 24.1428427,22.882325 24.1428427,22.4872604 L24.1428427,2.57148539 C24.1428427,2.21823183 23.8507406,1.93085282 23.4919126,1.93085282 L5.28829888,1.93085282 C4.92934938,1.93085282 4.6373931,2.21823183 4.6373931,2.57148539 L4.6373931,4.18464947 L20.7083018,4.18464947 C21.8685456,4.18464947 22.8124768,5.1138616 22.8123553,6.25591325 L22.8123553,26.1715578 C22.8123553,26.5666485 22.4871332,26.886756 22.0856842,26.886756 C21.6843324,26.886756 21.3589889,26.5666485 21.3589889,26.1715578 L21.3589889,6.25591325 C21.3589889,5.9025553 21.0669111,5.61515019 20.7080831,5.61515019 L2.50446936,5.61515019 C2.14564136,5.61515019 1.85356358,5.9025553 1.85356358,6.25591325 L1.85356358,25.4292947 C1.85356358,25.7823917 2.14551986,26.0699273 2.50446936,26.0699273 L21.6850371,26.0699273 C22.0864861,26.0699273 22.4117082,26.3900348 22.4117082,26.7850993 C22.4117082,27.18019 22.0864861,27.500428 21.6850371,27.500428 L2.50446936,27.500428 C1.34422562,27.500428 0.400197202,26.5713464 0.400197202,25.4291642 L0.400197202,6.25591325 C0.400197202,5.1138616 1.34422562,4.18464947 2.50446936,4.18464947 L3.18402672,4.18464947 Z M17.637816,8.61901901 C18.0391678,8.61901901 18.3996238,9.10514393 18.3996238,9.50010411 C18.3996238,9.89516868 17.9010262,10.4000851 17.4996987,10.4000851 L5.80006407,10.4000851 C5.39849357,10.4000851 4.90001741,9.89516868 4.90001741,9.50010411 C4.90001741,9.10514393 5.31879182,8.61901901 5.72036231,8.61901901 L17.637816,8.61901901 Z M17.637816,12.1949837 C18.0391678,12.1949837 18.3996238,12.7049895 18.3996238,13.100054 C18.3996238,13.4951447 17.9010262,14.000035 17.4996987,14.000035 L5.80006407,14.000035 C5.39849357,14.000035 4.90001741,13.4951447 4.90001741,13.100054 C4.90001741,12.7049895 5.31879182,12.1949837 5.72036231,12.1949837 L17.637816,12.1949837 Z M13.7137195,15.7710528 C14.6049941,15.9303889 14.799826,16.3046784 14.799826,16.6998735 C14.799826,17.0949642 14.3011311,17.5998806 13.8997793,17.5998806 L5.80006407,17.5998806 C5.39849357,17.5998806 4.90001741,17.0949642 4.90001741,16.6998735 C4.90001741,16.3046784 5.31879182,15.7710528 5.72036231,15.7710528 L13.7137195,15.7710528 Z" id="Combined-shape-2619"></path>
                </g>
            </g>
        </g>
    </g>
</svg>