<?xml version="1.0" encoding="UTF-8"?>
<svg width="60px" height="60px" viewBox="0 0 60 60" version="1.1" xmlns="http://www.w3.org/2000/svg" xmlns:xlink="http://www.w3.org/1999/xlink">
    <!-- Generator: Sketch 49.3 (51167) - http://www.bohemiancoding.com/sketch -->
    <title>销项管理-其他涉税调整台账</title>
    <desc>Created with Sketch.</desc>
    <defs>
        <rect id="path-1" x="0" y="0" width="25" height="27" rx="2"></rect>
    </defs>
    <g id="icon" stroke="none" stroke-width="1" fill="none" fill-rule="evenodd">
        <g id="销项管理-其他涉税调整台账">
            <circle id="Oval-Copy" fill="#2A98FF" cx="30" cy="30" r="30"></circle>
            <g id="Group-44" transform="translate(16.000000, 16.000000)">
                <g id="Group-43">
                    <g id="Group-42">
                        <g id="Rectangle-4">
                            <use fill="#2A98FF" fill-rule="evenodd" xlink:href="#path-1"></use>
                            <rect stroke="#FFFFFF" stroke-width="1.5" x="0.75" y="0.75" width="23.5" height="25.5" rx="2"></rect>
                        </g>
                        <circle id="Oval-2" fill="#2A98FF" cx="21.5" cy="21.5" r="7.5"></circle>
                    </g>
                    <g id="Group-23" transform="translate(15.000000, 15.000000)" fill="#FFFFFF">
                        <path d="M6.69230769,13.3846154 C2.99624821,13.3846154 0,10.3883672 0,6.69230769 C0,2.99624821 2.99624821,0 6.69230769,0 C10.3883672,0 13.3846154,2.99624821 13.3846154,6.69230769 C13.3846154,10.3883672 10.3883672,13.3846154 6.69230769,13.3846154 Z M6.69230769,12 C9.62366521,12 12,9.62366521 12,6.69230769 C12,3.76095017 9.62366521,1.38461538 6.69230769,1.38461538 C3.76095017,1.38461538 1.38461538,3.76095017 1.38461538,6.69230769 C1.38461538,9.62366521 3.76095017,12 6.69230769,12 Z" id="Oval-3" fill-rule="nonzero"></path>
                        <path d="M3.75,7.5 C3.33578644,7.5 3,7.16421356 3,6.75 C3,6.33578644 3.33578644,6 3.75,6 C4.16421356,6 4.5,6.33578644 4.5,6.75 C4.5,7.16421356 4.16421356,7.5 3.75,7.5 Z M6.75,7.5 C6.33578644,7.5 6,7.16421356 6,6.75 C6,6.33578644 6.33578644,6 6.75,6 C7.16421356,6 7.5,6.33578644 7.5,6.75 C7.5,7.16421356 7.16421356,7.5 6.75,7.5 Z M9.75,7.5 C9.33578644,7.5 9,7.16421356 9,6.75 C9,6.33578644 9.33578644,6 9.75,6 C10.1642136,6 10.5,6.33578644 10.5,6.75 C10.5,7.16421356 10.1642136,7.5 9.75,7.5 Z" id="Combined-Shape"></path>
                    </g>
                </g>
                <rect id="Rectangle-3" fill="#FFFFFF" x="5" y="5" width="15" height="1.5" rx="0.75"></rect>
                <rect id="Rectangle-3-Copy" fill="#FFFFFF" x="5" y="10" width="15" height="1.5" rx="0.75"></rect>
                <rect id="Rectangle-3-Copy-2" fill="#FFFFFF" x="5" y="15" width="10" height="1.5" rx="0.75"></rect>
            </g>
        </g>
    </g>
</svg>