<svg width="60" height="60" xmlns="http://www.w3.org/2000/svg" xmlns:xlink="http://www.w3.org/1999/xlink"><defs><path d="M27.69.52H3.183C1.944.52.936 1.592.936 2.91v19.218c0 1.319 1.008 2.392 2.247 2.392H27.69c1.239 0 2.246-1.073 2.246-2.392V2.911c0-1.319-1.007-2.391-2.246-2.391zm.43 21.608c0 .253-.193.458-.43.458H3.183c-.238 0-.431-.205-.431-.458V2.911c0-.253.193-.458.43-.458H27.69c.237 0 .43.205.43.458v19.217z" id="a"/><path d="M18.934 12.563h3.569a.878.878 0 1 0 0-1.756h-3.569a.878.878 0 1 0 0 1.756zm5.588-5.48h-5.588a.878.878 0 1 0 0 1.757h5.588a.878.878 0 1 0 0-1.756zm0 7.705h-5.588a.878.878 0 1 0 0 1.756h5.588a.878.878 0 1 0 0-1.756zm-9.62-3.14h.001a.878.878 0 0 0 .001-1.757l-2.028-.002 2.27-2.704a.878.878 0 1 0-1.344-1.13L11.11 9.262 8.418 6.055a.879.879 0 0 0-1.345 1.13l2.268 2.702-2.14-.002h-.002a.878.878 0 0 0 0 1.756l2.976.003-.001 1.239-2.974-.002a.878.878 0 0 0-.002 1.756l2.974.002-.002 2.286c0 .485.392.878.877.879h.001a.879.879 0 0 0 .878-.877l.003-2.286 2.973.002h.001a.878.878 0 0 0 .001-1.756l-2.974-.003.001-1.239 2.971.002z" id="b"/></defs><g fill="none" fill-rule="evenodd"><circle fill="#05DCAC" cx="30" cy="30" r="30"/><g fill-rule="nonzero"><g transform="translate(13 17)"><use fill="#FFF" fill-rule="evenodd" xlink:href="#a"/><path stroke="#05DCAC" stroke-width=".1" d="M27.69.57H3.183C1.973.57.986 1.62.986 2.91v19.218c0 1.292.986 2.342 2.197 2.342H27.69c1.21 0 2.196-1.05 2.196-2.342V2.911C29.886 1.619 28.9.57 27.69.57h0zm.48 21.558h0c0 .28-.215.508-.48.508H3.183a.495.495 0 0 1-.481-.508V2.911c0-.28.215-.508.48-.508H27.69c.265 0 .48.229.48.508v19.217z"/></g><g transform="translate(13 17)"><use fill="#FFF" fill-rule="evenodd" xlink:href="#b"/><path stroke="#05DCAC" stroke-width=".2" d="M18.934 12.463h3.569a.778.778 0 1 0 0-1.556h-3.569a.778.778 0 1 0 0 1.556zm5.588-5.28h-5.588a.778.778 0 1 0 0 1.557h5.588a.778.778 0 1 0 0-1.556zm0 7.705h-5.588a.778.778 0 1 0 0 1.556h5.588a.778.778 0 1 0 0-1.556zm-9.62-3.34h0zm0 0h.001a.778.778 0 0 0 .001-1.557l-2.028-.002-.076-.164 2.27-2.705a.778.778 0 1 0-1.191-1l-2.692 3.206h-.154L8.341 6.12A.779.779 0 0 0 7.15 7.12l2.268 2.702-.077.165-2.14-.002h-.002a.778.778 0 0 0 0 1.556l2.976.003.1.1-.001 1.24-.1.099-2.974-.002h0a.778.778 0 0 0-.002 1.556l2.974.002.1.1-.002 2.286c0 .43.347.779.777.779h.001c.43 0 .778-.348.778-.778l.003-2.285.1-.1 2.973.002h.001a.778.778 0 0 0 .001-1.556l-2.974-.003-.1-.1.001-1.239.1-.1 2.971.002h0z"/></g></g><g transform="translate(32 29)"><circle fill="#05DCAC" cx="7.5" cy="7.5" r="7.5"/><path d="M8 14A6 6 0 1 1 8 2a6 6 0 0 1 0 12zm0-1.241A4.759 4.759 0 1 0 8 3.24a4.759 4.759 0 0 0 0 9.518z" fill="#FFF" fill-rule="nonzero"/><path d="M8.938 5.888H7.19v-.691h3.674v.691H9.62v1.675h1.153v.657H9.621v2.088H11V11H6.998v-.692h.586V6.871h.658v3.437h.696v-4.42zM5.922 5c.4.332.734.658 1.018.983l-.458.495a5.986 5.986 0 0 0-1.03-1.01L5.921 5zM5 6.953h1.515v2.732c.167-.163.341-.332.522-.522l.174.745c-.394.394-.813.753-1.25 1.072l-.259-.644a.452.452 0 0 0 .174-.367V7.631H5v-.678z" fill="#FFF"/></g></g></svg>