<svg xmlns="http://www.w3.org/2000/svg" width="29" height="29" viewBox="0 0 29 29">
  <metadata><?xpacket begin="﻿" id="W5M0MpCehiHzreSzNTczkc9d"?>
<x:xmpmeta xmlns:x="adobe:ns:meta/" x:xmptk="Adobe XMP Core 5.6-c138 79.159824, 2016/09/14-01:09:01        ">
   <rdf:RDF xmlns:rdf="http://www.w3.org/1999/02/22-rdf-syntax-ns#">
      <rdf:Description rdf:about=""/>
   </rdf:RDF>
</x:xmpmeta>
                                                                                                    
                                                                                                    
                                                                                                    
                                                                                                    
                                                                                                    
                                                                                                    
                                                                                                    
                                                                                                    
                                                                                                    
                                                                                                    
                                                                                                    
                                                                                                    
                                                                                                    
                                                                                                    
                                                                                                    
                                                                                                    
                                                                                                    
                                                                                                    
                                                                                                    
                                                                                                    
                           
<?xpacket end="w"?></metadata>
<defs>
    <style>
      .cls-1 {
        fill: #fff;
        fill-rule: evenodd;
      }
    </style>
  </defs>
  <path id="形状_9" data-name="形状 9" class="cls-1" d="M1266.99,199h-3.15a2.843,2.843,0,0,1-2.84-2.847V172.847a2.844,2.844,0,0,1,2.84-2.847h3.15a2.85,2.85,0,0,1,2.84,2.847v23.306a2.851,2.851,0,0,1-2.84,2.847h0Zm-3.15-27.313a1.16,1.16,0,0,0-1.16,1.16v23.306a1.161,1.161,0,0,0,1.16,1.16h3.15a1.153,1.153,0,0,0,1.15-1.16V172.847a1.153,1.153,0,0,0-1.15-1.16h-3.15Zm0,0M1264,174h3v1h-3v-1Zm0,3h3v1h-3v-1Zm0,3h3v1h-3v-1Zm13.08,19h-3.16a2.843,2.843,0,0,1-2.83-2.847V172.847a2.842,2.842,0,0,1,2.83-2.847h3.16a2.843,2.843,0,0,1,2.83,2.847v23.306a2.843,2.843,0,0,1-2.83,2.847h0Zm-3.16-27.313a1.159,1.159,0,0,0-1.15,1.16v23.306a1.159,1.159,0,0,0,1.15,1.16h3.16a1.159,1.159,0,0,0,1.15-1.16V172.847a1.159,1.159,0,0,0-1.15-1.16h-3.16Zm0,0M1274,174h3v1h-3v-1Zm0,3h3v1h-3v-1Zm0,3h3v1h-3v-1Zm13.16,19h-3.15a2.843,2.843,0,0,1-2.83-2.847V172.847a2.842,2.842,0,0,1,2.83-2.847h3.16a2.844,2.844,0,0,1,2.83,2.847v23.306a2.845,2.845,0,0,1-2.84,2.847h0Zm-3.15-27.313a1.159,1.159,0,0,0-1.15,1.16v23.306a1.159,1.159,0,0,0,1.15,1.16h3.16a1.159,1.159,0,0,0,1.15-1.16V172.847a1.159,1.159,0,0,0-1.15-1.16h-3.16Zm0,0M1284,174h3v1h-3v-1Zm0,3h3v1h-3v-1Zm0,3h3v1h-3v-1Z" transform="translate(-1261 -170)"/>
</svg>
