<?xml version="1.0" encoding="UTF-8"?>
<svg width="60px" height="60px" viewBox="0 0 60 60" version="1.1" xmlns="http://www.w3.org/2000/svg" xmlns:xlink="http://www.w3.org/1999/xlink">
    <!-- Generator: Sketch 49.3 (51167) - http://www.bohemiancoding.com/sketch -->
    <title>土地价款-土地价款扣除明细</title>
    <desc>Created with Sketch.</desc>
    <defs>
        <rect id="path-1" x="0" y="0" width="25" height="27" rx="2"></rect>
    </defs>
    <g id="icon" stroke="none" stroke-width="1" fill="none" fill-rule="evenodd">
        <g id="土地价款-土地价款扣除明细">
            <circle id="Oval-Copy" fill="#FC7615" cx="30" cy="30" r="30"></circle>
            <g id="Group-53" transform="translate(16.000000, 16.000000)">
                <g id="Rectangle-4">
                    <use fill="#FC7615" fill-rule="evenodd" xlink:href="#path-1"></use>
                    <rect stroke="#FFFFFF" stroke-width="1.5" x="0.75" y="0.75" width="23.5" height="25.5" rx="2"></rect>
                </g>
                <rect id="Rectangle-7-Copy-3" fill="#FFFFFF" x="12" y="17" width="5" height="1" rx="0.5"></rect>
                <circle id="Oval-2" fill="#FC7615" cx="21.5" cy="21.5" r="7.5"></circle>
                <path d="M22,28 C18.6862915,28 16,25.3137085 16,22 C16,18.6862915 18.6862915,16 22,16 C25.3137085,16 28,18.6862915 28,22 C28,25.3137085 25.3137085,28 22,28 Z M22,26.7586207 C24.6281136,26.7586207 26.7586207,24.6281136 26.7586207,22 C26.7586207,19.3718864 24.6281136,17.2413793 22,17.2413793 C19.3718864,17.2413793 17.2413793,19.3718864 17.2413793,22 C17.2413793,24.6281136 19.3718864,26.7586207 22,26.7586207 Z" id="Oval-3" fill="#FFFFFF" fill-rule="nonzero"></path>
                <path d="M17.0010511,11.0010511 L17.0010511,7.55277529 C17.0010511,7.26711076 17.232628,7.03553391 17.5182925,7.03553391 C17.8039571,7.03553391 18.0355339,7.26711076 18.0355339,7.55277529 L18.0355339,11.3458787 C18.0355339,11.5328941 17.9362824,11.6967281 17.7875799,11.7875799 C17.6967281,11.9362824 17.5328941,12.0355339 17.3458787,12.0355339 L13.5527753,12.0355339 C13.2671108,12.0355339 13.0355339,11.8039571 13.0355339,11.5182925 C13.0355339,11.232628 13.2671108,11.0010511 13.5527753,11.0010511 L17.0010511,11.0010511 Z" id="Combined-Shape" fill="#FFFFFF" transform="translate(15.535534, 9.535534) rotate(-135.000000) translate(-15.535534, -9.535534) "></path>
                <path d="M11.0012614,11.0012614 L11.0012614,6.86333034 C11.0012614,6.52053291 11.2791536,6.24264069 11.621951,6.24264069 C11.9647485,6.24264069 12.2426407,6.52053291 12.2426407,6.86333034 L12.2426407,11.4150545 C12.2426407,11.639473 12.1235388,11.8360737 11.9450959,11.9450959 C11.8360737,12.1235388 11.639473,12.2426407 11.4150545,12.2426407 L6.86333034,12.2426407 C6.52053291,12.2426407 6.24264069,11.9647485 6.24264069,11.621951 C6.24264069,11.2791536 6.52053291,11.0012614 6.86333034,11.0012614 L11.0012614,11.0012614 Z" id="Combined-Shape-Copy" fill="#FFFFFF" transform="translate(9.242641, 9.242641) rotate(-135.000000) translate(-9.242641, -9.242641) "></path>
                <rect id="Rectangle-7" fill="#FFFFFF" x="5" y="13" width="5" height="1" rx="0.5"></rect>
                <rect id="Rectangle-7-Copy-2" fill="#FFFFFF" x="5" y="17" width="5" height="1" rx="0.5"></rect>
                <rect id="Rectangle-7-Copy-4" fill="#FFFFFF" x="5" y="21" width="8" height="1" rx="0.5"></rect>
                <rect id="Rectangle-7-Copy" fill="#FFFFFF" x="12" y="13" width="5" height="1" rx="0.5"></rect>
                <path d="M21.5605,19.44025 C21.85375,19.7335 22,20.08675 22,20.50075 C22,20.91475 21.85375,21.268 21.5605,21.56125 C21.26725,21.8545 20.914,22.00075 20.5,22.00075 C20.086,22.00075 19.73275,21.8545 19.4395,21.56125 C19.14625,21.268 19,20.91475 19,20.50075 C19,20.08675 19.14625,19.7335 19.4395,19.44025 C19.73275,19.147 20.086,19.00075 20.5,19.00075 C20.914,19.00075 21.26725,19.147 21.5605,19.44025 Z M24.62425,19.2505 C24.62425,19.30225 24.607,19.3525 24.57325,19.399 L20.449,24.898 C20.3995,24.9655 20.3335,25 20.25025,25 L19.62475,25 C19.55725,25 19.498,24.97525 19.44925,24.92575 C19.39975,24.87625 19.375,24.817 19.375,24.75025 C19.375,24.6985 19.39225,24.64825 19.426,24.60175 L23.55025,19.102 C23.59975,19.0345 23.66575,19 23.749,19 L24.3745,19 C24.442,19 24.50125,19.02475 24.55,19.07425 C24.60025,19.12375 24.62425,19.183 24.62425,19.2505 Z M20.85175,20.8525 C20.95,20.75425 21.00025,20.6365 21.00025,20.50075 C21.00025,20.365 20.95075,20.24875 20.85175,20.149 C20.752,20.05075 20.63575,20.0005 20.5,20.0005 C20.36425,20.0005 20.248,20.05 20.14825,20.149 C20.0485,20.24875 19.99975,20.365 19.99975,20.50075 C19.99975,20.6365 20.04925,20.75275 20.14825,20.8525 C20.2465,20.95225 20.36425,21.001 20.5,21.001 C20.63575,21.00025 20.75275,20.95075 20.85175,20.8525 Z M24.5605,22.4395 C24.85375,22.73275 25,23.086 25,23.5 C25,23.914 24.85375,24.26725 24.5605,24.5605 C24.26725,24.85375 23.914,25 23.5,25 C23.086,25 22.73275,24.85375 22.4395,24.5605 C22.14625,24.26725 22,23.914 22,23.5 C22,23.086 22.14625,22.73275 22.4395,22.4395 C22.73275,22.14625 23.086,22 23.5,22 C23.914,22 24.26725,22.147 24.5605,22.4395 Z M23.85175,23.85175 C23.95,23.7535 24.00025,23.63575 24.00025,23.5 C24.00025,23.36425 23.95075,23.248 23.85175,23.14825 C23.7535,23.05 23.63575,22.99975 23.5,22.99975 C23.36425,22.99975 23.248,23.04925 23.14825,23.14825 C23.0485,23.24725 22.99975,23.36425 22.99975,23.5 C22.99975,23.63575 23.04925,23.75275 23.14825,23.85175 C23.2465,23.95 23.36425,24.00025 23.5,24.00025 C23.63575,24.00025 23.752,23.95075 23.85175,23.85175 Z" id="Shape" fill="#FFFFFF" fill-rule="nonzero"></path>
            </g>
        </g>
    </g>
</svg>