<?xml version="1.0" encoding="UTF-8"?>
<svg width="30px" height="31px" viewBox="0 0 30 31" version="1.1" xmlns="http://www.w3.org/2000/svg" xmlns:xlink="http://www.w3.org/1999/xlink">
    <!-- Generator: Sketch 48.2 (47327) - http://www.bohemiancoding.com/sketch -->
    <title>Combined shape 3357</title>
    <desc>Created with Sketch.</desc>
    <defs></defs>
    <g id="Artboard" stroke="none" stroke-width="1" fill="none" fill-rule="evenodd" transform="translate(-660.000000, -1702.000000)">
        <g id="用户权限管理-拷贝" fill="#FFFFFF">
            <g id="01-拷贝-7">
                <path d="M661.154021,1719.32697 C660.335977,1719.32697 660.0003,1718.25182 660.0003,1717.43229 L660.0003,1711.00522 C660.0003,1710.18569 660.335977,1708.93027 661.154021,1708.93027 L664.615554,1708.93027 C665.433632,1708.93027 665.63028,1710.18569 665.63028,1711.00522 L665.63028,1717.43229 C665.63028,1718.25182 665.433632,1719.32697 664.615554,1719.32697 L661.154021,1719.32697 Z M662.30791,1711.24069 L662.30791,1717.01655 L663.461665,1717.01655 L663.461665,1711.24069 L662.30791,1711.24069 Z M669.230807,1719.32697 C668.483097,1719.32697 666.923197,1718.91764 666.923197,1718.17176 L666.923197,1703.15425 C666.923197,1702.4053 668.110847,1701.99904 668.858591,1701.99904 L671.784988,1701.99904 C672.532732,1701.99904 673.846094,1702.4053 673.846094,1703.15425 L673.846094,1718.17176 C673.846094,1718.92075 672.286194,1719.32697 671.538451,1719.32697 L669.230807,1719.32697 Z M669.230807,1704.30947 L669.230807,1717.01655 L671.538451,1717.01655 L671.538451,1704.30947 L669.230807,1704.30947 Z M673.846094,1721.63723 C673.846094,1722.15725 673.031128,1722.74302 672.511987,1722.74302 L660.938602,1722.74302 C660.419628,1722.74302 660.0003,1722.15725 660.0003,1721.63723 C660.0003,1721.11738 660.635048,1720.48218 661.154021,1720.48218 L672.692205,1720.48218 C673.211313,1720.48218 673.846094,1721.11738 673.846094,1721.63723 Z M689.516226,1717.92853 C689.829819,1718.24286 690.002777,1718.66011 689.999966,1719.10353 C689.999966,1719.55006 689.827008,1719.96715 689.513115,1720.28148 L679.681421,1730.13061 C679.479152,1730.33629 679.220936,1730.48314 678.942578,1730.55938 L673.714293,1731.97519 C673.573658,1732.01342 673.4269,1732.0339 673.280309,1732.0339 C672.84057,1732.0339 672.409396,1731.85487 672.098581,1731.54038 C671.67942,1731.11471 671.520984,1730.4919 671.682231,1729.91613 L673.148407,1724.7317 C673.227608,1724.45835 673.374199,1724.20878 673.573658,1724.00908 L678.655185,1718.91849 L676.37093,1718.91849 C675.620242,1718.91849 675.010355,1718.30758 675.010355,1717.55552 L675.010355,1707.11907 C675.010355,1706.36701 675.403016,1705.46468 676.153704,1705.46468 L679.615102,1705.46468 C680.365791,1705.46468 680.643112,1706.36701 680.643112,1707.11907 L680.643112,1716.92689 L683.405318,1714.15995 C683.722056,1713.84565 684.138406,1713.67247 684.58129,1713.67247 C685.02384,1713.67247 685.440224,1713.84565 685.754118,1714.15995 L689.516226,1717.92853 Z M677.307459,1706.61989 L677.307459,1717.01655 L678.461347,1717.01655 L678.461347,1706.61989 L677.307459,1706.61989 Z M673.846094,1729.72367 L677.307459,1728.56846 L674.999815,1726.25804 L673.846094,1729.72367 Z M679.335405,1727.82174 L688.03526,1719.10664 L684.578179,1715.64343 L675.878323,1724.3587 L679.335405,1727.82174 Z" id="Combined-shape-3357"></path>
            </g>
        </g>
    </g>
</svg>