<svg id="台账" xmlns="http://www.w3.org/2000/svg" width="28" height="30" viewBox="0 0 28 30">
  <metadata><?xpacket begin="﻿" id="W5M0MpCehiHzreSzNTczkc9d"?>
<x:xmpmeta xmlns:x="adobe:ns:meta/" x:xmptk="Adobe XMP Core 5.6-c138 79.159824, 2016/09/14-01:09:01        ">
   <rdf:RDF xmlns:rdf="http://www.w3.org/1999/02/22-rdf-syntax-ns#">
      <rdf:Description rdf:about=""/>
   </rdf:RDF>
</x:xmpmeta>
                                                                                                    
                                                                                                    
                                                                                                    
                                                                                                    
                                                                                                    
                                                                                                    
                                                                                                    
                                                                                                    
                                                                                                    
                                                                                                    
                                                                                                    
                                                                                                    
                                                                                                    
                                                                                                    
                                                                                                    
                                                                                                    
                                                                                                    
                                                                                                    
                                                                                                    
                                                                                                    
                           
<?xpacket end="w"?></metadata>
<defs>
    <style>
      .cls-1 {
        fill: #f1f2f7;
        fill-rule: evenodd;
      }
    </style>
  </defs>
  <path id="形状_17_拷贝_3" data-name="形状 17 拷贝 3" class="cls-1" d="M664.708,642.184V639.3a0.719,0.719,0,0,1,.723-0.712h20.227a0.719,0.719,0,0,1,.723.712v22.13a0.808,0.808,0,0,0,1.615,0V639.3a2.322,2.322,0,0,0-2.338-2.3H665.431a2.322,2.322,0,0,0-2.338,2.3v2.882" transform="translate(-660 -637)"/>
  <path id="形状_17_拷贝_2" data-name="形状 17 拷贝 2" class="cls-1" d="M679.153,646.021H665.911A1.07,1.07,0,0,0,665,647a1.183,1.183,0,0,0,1,1h13a1.183,1.183,0,0,0,1-1,1.011,1.011,0,0,0-.847-0.979h0Zm0,0,0,3.973H665.911A1.1,1.1,0,0,0,665,651a1.183,1.183,0,0,0,1,1h13a1.183,1.183,0,0,0,1-1,1.04,1.04,0,0,0-.847-1.006h0Zm0,0-4.36,3.974h-8.882A1.128,1.128,0,0,0,665,655a1.183,1.183,0,0,0,1,1h9a1.183,1.183,0,0,0,1-1c0-.439-0.216-0.855-1.207-1.032h0Zm0,0,8.858,11.443H662.338a0.718,0.718,0,0,1-.723-0.711V643.4a0.719,0.719,0,0,1,.723-0.712h20.227a0.719,0.719,0,0,1,.723.712v22.129a0.808,0.808,0,0,0,1.615,0V643.4a2.322,2.322,0,0,0-2.338-2.3H662.338A2.322,2.322,0,0,0,660,643.4v21.3a2.323,2.323,0,0,0,2.338,2.3h21.313a0.8,0.8,0,1,0,0-1.59h0Zm0,0" transform="translate(-660 -637)"/>
</svg>
