<svg width="60" height="60" xmlns="http://www.w3.org/2000/svg" xmlns:xlink="http://www.w3.org/1999/xlink"><defs><rect id="a" x="3.875" y="0" width="24.219" height="26.182" rx="1.92"/><rect id="b" x="0" y="3.879" width="24.219" height="26.182" rx="1.92"/></defs><g fill="none" fill-rule="evenodd"><circle fill="#597EF7" cx="30" cy="30" r="30"/><g transform="translate(15 14)"><use fill="#597EF7" xlink:href="#a"/><rect stroke="#FFF" stroke-width="1.5" x="4.625" y=".75" width="22.719" height="24.682" rx="1.92"/><use fill="#597EF7" xlink:href="#b"/><rect stroke="#FFF" stroke-width="1.5" x=".75" y="4.629" width="22.719" height="24.682" rx="1.92"/><rect fill="#FFF" x="4" y="9" width="14" height="1.5" rx=".75"/><rect fill="#FFF" x="4" y="16.136" width="14" height="1.5" rx=".75"/><rect fill="#FFF" x="3.875" y="23.273" width="10" height="1.5" rx=".75"/><ellipse fill="#597EF7" cx="23.734" cy="24.727" rx="7.266" ry="7.273"/><circle stroke="#FFF" stroke-width="1.44" fill="#597EF7" cx="23.8" cy="24.8" r="5.8"/><path d="M26.487 24.845a1.754 1.754 0 0 0-.514-.313c.22-.102.41-.25.55-.434.174-.223.265-.483.265-.755 0-.74-.686-1.343-1.53-1.343-.32 0-.625.086-.885.247-.225.141-.402.33-.513.55a1.629 1.629 0 0 0-1.12-.428c-.844 0-1.53.602-1.53 1.343 0 .27.091.531.264.754.141.183.33.332.55.434-.19.076-.362.18-.513.314-.33.289-.511.672-.511 1.08v1.1c0 .333.31.606.69.606h2.1c.277 0 .527-.147.635-.369h1.884c.38 0 .691-.272.691-.606v-1.101a1.436 1.436 0 0 0-.513-1.079zm-1.928-2.116c.186-.164.434-.254.7-.254.264 0 .512.09.698.254a.81.81 0 0 1 .29.614c0 .233-.103.45-.29.614a1.052 1.052 0 0 1-.699.255c-.265 0-.513-.09-.699-.255a.81.81 0 0 1-.29-.614.81.81 0 0 1 .29-.614zm-2.809.983a.81.81 0 0 1 .29-.614c.186-.164.434-.254.699-.254.265 0 .513.09.699.254.187.165.29.382.29.614a.81.81 0 0 1-.29.614 1.052 1.052 0 0 1-.7.254c-.263 0-.512-.09-.699-.254a.813.813 0 0 1-.289-.614zm2.188 3.68a.12.12 0 0 1-.044.093.159.159 0 0 1-.105.039h-2.1c-.082 0-.149-.06-.149-.131v-1.1c0-.28.125-.544.352-.744.228-.2.528-.31.847-.31a1.278 1.278 0 0 1 .856.32l.003.002c.219.198.34.458.34.732v1.1zm-.134-2.306a1.778 1.778 0 0 0-.35-.186c.302-.141.544-.368.683-.642.117.11.254.203.405.273a1.759 1.759 0 0 0-.738.555zm2.653 1.939c0 .072-.067.13-.15.13H24.48v-.862c0-.303-.1-.594-.29-.843.057-.1.132-.19.223-.269.226-.2.527-.31.846-.31.319 0 .62.11.847.31.227.2.352.463.352.743v1.1z" fill="#FFF" fill-rule="nonzero"/></g></g></svg>