<svg xmlns="http://www.w3.org/2000/svg" width="30" height="29" viewBox="0 0 30 29">
  <metadata><?xpacket begin="﻿" id="W5M0MpCehiHzreSzNTczkc9d"?>
<x:xmpmeta xmlns:x="adobe:ns:meta/" x:xmptk="Adobe XMP Core 5.6-c138 79.159824, 2016/09/14-01:09:01        ">
   <rdf:RDF xmlns:rdf="http://www.w3.org/1999/02/22-rdf-syntax-ns#">
      <rdf:Description rdf:about=""/>
   </rdf:RDF>
</x:xmpmeta>
                                                                                                    
                                                                                                    
                                                                                                    
                                                                                                    
                                                                                                    
                                                                                                    
                                                                                                    
                                                                                                    
                                                                                                    
                                                                                                    
                                                                                                    
                                                                                                    
                                                                                                    
                                                                                                    
                                                                                                    
                                                                                                    
                                                                                                    
                                                                                                    
                                                                                                    
                                                                                                    
                           
<?xpacket end="w"?></metadata>
<defs>
    <style>
      .cls-1 {
        fill: #fff;
        fill-rule: evenodd;
      }
    </style>
  </defs>
  <path id="形状_22" data-name="形状 22" class="cls-1" d="M80,894.939a8.991,8.991,0,0,0-2.926-6.625V886l1.723,1.437a0.735,0.735,0,0,0,1.03-.088,0.72,0.72,0,0,0-.089-1.021L66.786,875.516a2.2,2.2,0,0,0-2.835.006l-5.17,4.354v-2.7a2.2,2.2,0,0,0-4.39,0v6.391l-4.132,3.481a0.72,0.72,0,0,0-.084,1.022,0.736,0.736,0,0,0,1.032.083l1.72-1.45v13.87a2.188,2.188,0,0,0,2.2,2.174H66.238a9.163,9.163,0,0,0,9.681-.273,2.252,2.252,0,0,0,.525-0.381A9.011,9.011,0,0,0,80,894.939h0Zm-25.608,5.638v-15.1l1.2-1.017a0.136,0.136,0,0,0,.018-0.022,0.76,0.76,0,0,0,.1-0.121,0.8,0.8,0,0,0,.072-0.105,0.738,0.738,0,0,0,.035-0.124,0.588,0.588,0,0,0,.03-0.149c0-.012.006-0.019,0.006-0.03v-6.727a0.732,0.732,0,0,1,1.464,0v4.262a0.512,0.512,0,0,0,.021.1,0.621,0.621,0,0,0,.03.149,0.651,0.651,0,0,0,.075.134,0.708,0.708,0,0,0,.048.089c0.008,0.006.015,0.009,0.023,0.016a2.114,2.114,0,0,0,.23.168,0.827,0.827,0,0,0,.123.034,0.653,0.653,0,0,0,.155.03c0.011,0,.018.006,0.029,0.006a109.81,109.81,0,0,0,.251-0.049,30.1,30.1,0,0,0,.223-0.123l6.374-5.368a0.735,0.735,0,0,1,.945,0l9.777,8.159c0,0.018-.011.034-0.011,0.052v2.379a9.142,9.142,0,0,0-13.9,7.725A8.991,8.991,0,0,0,64.35,901.3H55.124a0.729,0.729,0,0,1-.732-0.724h0Zm8.779-5.636a7.683,7.683,0,1,1,7.683,7.612,7.656,7.656,0,0,1-7.683-7.612h0Zm11.143-3.881M69,892h1v4H69v-4Zm0,4h5v1H69v-1Z" transform="translate(-50 -875)"/>
</svg>
