<?xml version="1.0" encoding="UTF-8"?>
<svg width="60px" height="60px" viewBox="0 0 60 60" version="1.1" xmlns="http://www.w3.org/2000/svg" xmlns:xlink="http://www.w3.org/1999/xlink">
    <!-- Generator: Sketch 49.3 (51167) - http://www.bohemiancoding.com/sketch -->
    <title>其他台账-预缴税款台账</title>
    <desc>Created with Sketch.</desc>
    <defs>
        <rect id="path-1" x="0" y="0" width="25" height="27" rx="2"></rect>
    </defs>
    <g id="icon" stroke="none" stroke-width="1" fill="none" fill-rule="evenodd">
        <g id="其他台账-预缴税款台账">
            <circle id="Oval-Copy" fill="#49A7FF" cx="30" cy="30" r="30"></circle>
            <g id="Group-57" transform="translate(16.000000, 16.000000)">
                <g id="Rectangle-4">
                    <use fill="#49A7FF" fill-rule="evenodd" xlink:href="#path-1"></use>
                    <rect stroke="#FFFFFF" stroke-width="1.5" x="0.75" y="0.75" width="23.5" height="25.5" rx="2"></rect>
                </g>
                <circle id="Oval-2" fill="#49A7FF" cx="20.5" cy="20.5" r="7.5"></circle>
                <polygon id="￥" fill="#FFFFFF" points="4 18 5.45392491 18 7 20.5294118 8.54607509 18 10 18 8.03412969 20.9243697 9.3447099 20.9243697 9.3447099 21.4789916 7.6552901 21.4789916 7.64505119 21.487395 7.64505119 22.1848739 9.3447099 22.1848739 9.3447099 22.7394958 7.64505119 22.7394958 7.64505119 24 6.35494881 24 6.35494881 22.7394958 4.66552901 22.7394958 4.66552901 22.1848739 6.35494881 22.1848739 6.35494881 21.487395 6.3447099 21.4789916 4.66552901 21.4789916 4.66552901 20.9243697 5.96587031 20.9243697"></polygon>
                <rect id="Rectangle-14-Copy" fill="#FFFFFF" x="4" y="9" width="16" height="1.5" rx="0.75"></rect>
                <rect id="Rectangle-14-Copy-2" fill="#FFFFFF" x="4" y="13" width="8" height="1.5" rx="0.75"></rect>
                <g id="Group-14" transform="translate(15.000000, 15.000000)" fill="#FFFFFF">
                    <g id="Group-10">
                        <path d="M6.30769231,12.3076923 C2.99398381,12.3076923 0.307692308,9.62140081 0.307692308,6.30769231 C0.307692308,2.99398381 2.99398381,0.307692308 6.30769231,0.307692308 C9.62140081,0.307692308 12.3076923,2.99398381 12.3076923,6.30769231 C12.3076923,9.62140081 9.62140081,12.3076923 6.30769231,12.3076923 Z M6.30769231,11.066313 C8.93580594,11.066313 11.066313,8.93580594 11.066313,6.30769231 C11.066313,3.67957867 8.93580594,1.54907162 6.30769231,1.54907162 C3.67957867,1.54907162 1.54907162,3.67957867 1.54907162,6.30769231 C1.54907162,8.93580594 3.67957867,11.066313 6.30769231,11.066313 Z" id="Oval-3" fill-rule="nonzero"></path>
                        <path d="M6,7 L9.5,7 C9.77614237,7 10,7.22385763 10,7.5 C10,7.77614237 9.77614237,8 9.5,8 L5.5,8 C5.22385763,8 5,7.77614237 5,7.5 L5,3.5 C5,3.22385763 5.22385763,3 5.5,3 C5.77614237,3 6,3.22385763 6,3.5 L6,7 Z" id="Combined-Shape"></path>
                    </g>
                </g>
                <rect id="Rectangle-14" fill="#FFFFFF" x="4" y="5" width="16" height="1.5" rx="0.75"></rect>
            </g>
        </g>
    </g>
</svg>