<svg id="组_2_拷贝" data-name="组 2 拷贝" xmlns="http://www.w3.org/2000/svg" width="30" height="29" viewBox="0 0 30 29">
  <metadata><?xpacket begin="﻿" id="W5M0MpCehiHzreSzNTczkc9d"?>
<x:xmpmeta xmlns:x="adobe:ns:meta/" x:xmptk="Adobe XMP Core 5.6-c138 79.159824, 2016/09/14-01:09:01        ">
   <rdf:RDF xmlns:rdf="http://www.w3.org/1999/02/22-rdf-syntax-ns#">
      <rdf:Description rdf:about=""/>
   </rdf:RDF>
</x:xmpmeta>
                                                                                                    
                                                                                                    
                                                                                                    
                                                                                                    
                                                                                                    
                                                                                                    
                                                                                                    
                                                                                                    
                                                                                                    
                                                                                                    
                                                                                                    
                                                                                                    
                                                                                                    
                                                                                                    
                                                                                                    
                                                                                                    
                                                                                                    
                                                                                                    
                                                                                                    
                                                                                                    
                           
<?xpacket end="w"?></metadata>
<defs>
    <style>
      .cls-1 {
        fill: #fff;
        fill-rule: evenodd;
      }
    </style>
  </defs>
  <path id="形状_20" data-name="形状 20" class="cls-1" d="M392.525,884.931a0.618,0.618,0,0,1-.468-0.17l-2.673-2.64a0.613,0.613,0,0,1,0-.908,0.678,0.678,0,0,1,.956,0l2.652,2.621a0.643,0.643,0,0,1-.467,1.1h0Zm0,0,0.312-.17a0.777,0.777,0,0,1-.488-0.189,0.667,0.667,0,0,1,0-.927l2.5-2.451a0.676,0.676,0,0,1,.954,0,0.629,0.629,0,0,1,0,.908l-2.5,2.451a0.771,0.771,0,0,1-.467.208h0Zm0,0M392.564,893a0.674,0.674,0,0,1-.469-0.189,0.633,0.633,0,0,1-.194-0.454v-8.3a0.635,0.635,0,0,1,.194-0.455,0.682,0.682,0,0,1,1.151.455v8.3a0.674,0.674,0,0,1-.682.643h0Zm0,0,2.77-5.8h-5.677a0.671,0.671,0,0,1-.662-0.662,0.635,0.635,0,0,1,.194-0.455,0.675,0.675,0,0,1,.468-0.188h5.677a0.675,0.675,0,0,1,.468.188,0.635,0.635,0,0,1,.194.455,0.671,0.671,0,0,1-.662.662h0Zm0,3.4h-5.677a0.675,0.675,0,0,1-.468-0.188,0.635,0.635,0,0,1-.194-0.455,0.671,0.671,0,0,1,.662-0.662h5.677a0.671,0.671,0,0,1,.662.662,0.635,0.635,0,0,1-.194.455,0.675,0.675,0,0,1-.468.188h0Zm0,0" transform="translate(-381 -876)"/>
  <path id="形状_17_拷贝_5" data-name="形状 17 拷贝 5" class="cls-1" d="M403.221,889.574A7.713,7.713,0,1,0,411,897.287a7.755,7.755,0,0,0-7.779-7.713h0Zm0,13.873a6.16,6.16,0,1,1,6.213-6.16,6.194,6.194,0,0,1-6.213,6.16h0Zm0,0-9.283-3.687h-10.67a0.7,0.7,0,0,1-.7-0.695V878.248a0.7,0.7,0,0,1,.7-0.7h19.617a0.7,0.7,0,0,1,.7.7v8.623a0.783,0.783,0,0,0,1.566,0v-8.623A2.261,2.261,0,0,0,402.885,876H383.268A2.261,2.261,0,0,0,381,878.248v20.817a2.26,2.26,0,0,0,2.268,2.248h10.67a0.777,0.777,0,1,0,0-1.553h0Zm0,0M402,894h1v5h-1v-5Zm0,4h4v1h-4v-1Z" transform="translate(-381 -876)"/>
</svg>
