<svg xmlns="http://www.w3.org/2000/svg" width="29.97" height="30.03" viewBox="0 0 29.97 30.03">
  <metadata><?xpacket begin="﻿" id="W5M0MpCehiHzreSzNTczkc9d"?>
<x:xmpmeta xmlns:x="adobe:ns:meta/" x:xmptk="Adobe XMP Core 5.6-c138 79.159824, 2016/09/14-01:09:01        ">
   <rdf:RDF xmlns:rdf="http://www.w3.org/1999/02/22-rdf-syntax-ns#">
      <rdf:Description rdf:about=""/>
   </rdf:RDF>
</x:xmpmeta>
                                                                                                    
                                                                                                    
                                                                                                    
                                                                                                    
                                                                                                    
                                                                                                    
                                                                                                    
                                                                                                    
                                                                                                    
                                                                                                    
                                                                                                    
                                                                                                    
                                                                                                    
                                                                                                    
                                                                                                    
                                                                                                    
                                                                                                    
                                                                                                    
                                                                                                    
                                                                                                    
                           
<?xpacket end="w"?></metadata>
<defs>
    <style>
      .cls-1 {
        fill: #fff;
        fill-rule: evenodd;
      }
    </style>
  </defs>
  <path id="形状_31" data-name="形状 31" class="cls-1" d="M1969.7,1127.46a0.929,0.929,0,0,1-1.31,0l-13.41-11.12-13.41,11.12a0.931,0.931,0,0,1-1.28-.03,0.921,0.921,0,0,1-.02-1.28l13.49-11.19a0.227,0.227,0,0,0,.01-0.04l1.11-.92c0.03,0.01.07,0.01,0.1,0.02,0.03-.01.07-0.01,0.1-0.02l1.12,0.92a0.053,0.053,0,0,0,0,.04l13.5,11.19a0.929,0.929,0,0,1,0,1.31h0Zm-25.64-1.59a0.935,0.935,0,0,1,.93.93v10.97h8.41a10.257,10.257,0,0,0,.44,1.25H1942.5a0.625,0.625,0,1,1,0-1.25h0.62V1126.8a0.937,0.937,0,0,1,.94-0.93h0Zm-3.12,15.03h14.05a8.586,8.586,0,0,0,2.15,1.88h-16.2a0.94,0.94,0,0,1,0-1.88h0Zm24.03-14.1a0.935,0.935,0,0,1,1.87,0v2.21a8.184,8.184,0,0,0-1.87-1.15v-1.06Zm-9.99,8.77a6.555,6.555,0,1,1,11.77,3.97l2.93,2.94a0.9,0.9,0,0,1-1.27,1.27l-2.93-2.93a6.545,6.545,0,0,1-10.5-5.25h0Zm6.56,4.7a4.7,4.7,0,1,0-4.69-4.7,4.69,4.69,0,0,0,4.69,4.7h0Zm0,0" transform="translate(-1940 -1114)"/>
</svg>
