<?xml version="1.0" encoding="UTF-8"?>
<svg width="60px" height="60px" viewBox="0 0 60 60" version="1.1" xmlns="http://www.w3.org/2000/svg" xmlns:xlink="http://www.w3.org/1999/xlink">
    <!-- Generator: Sketch 49.3 (51167) - http://www.bohemiancoding.com/sketch -->
    <title>其他台账-预缴税款台账</title>
    <desc>Created with Sketch.</desc>
    <defs>
        <rect id="path-1" x="16" y="16" width="25" height="27" rx="2"></rect>
    </defs>
    <g id="icon" stroke="none" stroke-width="1" fill="none" fill-rule="evenodd">
        <g id="其他台账-预缴税款台账">
            <circle id="Oval-Copy" fill="#49A7FF" cx="30" cy="30" r="30"></circle>
            <g id="Rectangle-4">
                <use fill="#49A7FF" fill-rule="evenodd" xlink:href="#path-1"></use>
                <rect stroke="#FFFFFF" stroke-width="1.5" x="16.75" y="16.75" width="23.5" height="25.5" rx="2"></rect>
            </g>
            <circle id="Oval-2" fill="#49A7FF" cx="36.5" cy="36.5" r="7.5"></circle>
            <polygon id="￥" fill="#FFFFFF" points="20 34 21.4539249 34 23 36.5294118 24.5460751 34 26 34 24.0341297 36.9243697 25.3447099 36.9243697 25.3447099 37.4789916 23.6552901 37.4789916 23.6450512 37.487395 23.6450512 38.1848739 25.3447099 38.1848739 25.3447099 38.7394958 23.6450512 38.7394958 23.6450512 40 22.3549488 40 22.3549488 38.7394958 20.665529 38.7394958 20.665529 38.1848739 22.3549488 38.1848739 22.3549488 37.487395 22.3447099 37.4789916 20.665529 37.4789916 20.665529 36.9243697 21.9658703 36.9243697"></polygon>
            <rect id="Rectangle-14" fill="#FFFFFF" x="20" y="21" width="16" height="1.5" rx="0.75"></rect>
            <rect id="Rectangle-14-Copy" fill="#FFFFFF" x="20" y="25" width="16" height="1.5" rx="0.75"></rect>
            <rect id="Rectangle-14-Copy-2" fill="#FFFFFF" x="20" y="29" width="8" height="1.5" rx="0.75"></rect>
            <g id="Group-14" transform="translate(31.000000, 31.000000)" fill="#FFFFFF">
                <g id="Group-10">
                    <path d="M6.30769231,12.3076923 C2.99398381,12.3076923 0.307692308,9.62140081 0.307692308,6.30769231 C0.307692308,2.99398381 2.99398381,0.307692308 6.30769231,0.307692308 C9.62140081,0.307692308 12.3076923,2.99398381 12.3076923,6.30769231 C12.3076923,9.62140081 9.62140081,12.3076923 6.30769231,12.3076923 Z M6.30769231,11.066313 C8.93580594,11.066313 11.066313,8.93580594 11.066313,6.30769231 C11.066313,3.67957867 8.93580594,1.54907162 6.30769231,1.54907162 C3.67957867,1.54907162 1.54907162,3.67957867 1.54907162,6.30769231 C1.54907162,8.93580594 3.67957867,11.066313 6.30769231,11.066313 Z" id="Oval-3" fill-rule="nonzero"></path>
                    <path d="M6,7 L9.5,7 C9.77614237,7 10,7.22385763 10,7.5 C10,7.77614237 9.77614237,8 9.5,8 L5.5,8 C5.22385763,8 5,7.77614237 5,7.5 L5,3.5 C5,3.22385763 5.22385763,3 5.5,3 C5.77614237,3 6,3.22385763 6,3.5 L6,7 Z" id="Combined-Shape"></path>
                </g>
            </g>
        </g>
    </g>
</svg>