<?xml version="1.0" encoding="UTF-8"?>
<svg width="30px" height="29px" viewBox="0 0 30 29" version="1.1" xmlns="http://www.w3.org/2000/svg" xmlns:xlink="http://www.w3.org/1999/xlink">
    <!-- Generator: Sketch 48.2 (47327) - http://www.bohemiancoding.com/sketch -->
    <title>Combined shape 2736</title>
    <desc>Created with Sketch.</desc>
    <defs></defs>
    <g id="Artboard" stroke="none" stroke-width="1" fill="none" fill-rule="evenodd" transform="translate(-381.000000, -876.000000)">
        <g id="其他台账" transform="translate(14.000000, 839.000000)" fill="#FFFFFF">
            <g id="01-拷贝-5" transform="translate(330.000000, 0.000000)">
                <g id="组-2-拷贝" transform="translate(37.000000, 37.000000)">
                    <path d="M10.9874289,8.84099827 C10.995702,8.89277983 11,8.945888 11,9 L13,9 C13.5522847,9 14,9.44771525 14,10 C14,10.5522847 13.5522847,11 13,11 L11,11 L11,12 L13,12 C13.5522847,12 14,12.4477153 14,13 C14,13.5522847 13.5522847,14 13,14 L11,14 L11,16 C11,16.5522847 10.5522847,17 10,17 C9.44771525,17 9,16.5522847 9,16 L9,14 L7,14 C6.44771525,14 6,13.5522847 6,13 C6,12.4477153 6.44771525,12 7,12 L9,12 L9,11 L7,11 C6.44771525,11 6,10.5522847 6,10 C6,9.44771525 6.44771525,9 7,9 L9,9 L6.29289322,6.29289322 C5.90236893,5.90236893 5.90236893,5.26920395 6.29289322,4.87867966 C6.68341751,4.48815536 7.31658249,4.48815536 7.70710678,4.87867966 L9.91421356,7.08578644 L12.1213203,4.87867966 C12.5118446,4.48815536 13.1450096,4.48815536 13.5355339,4.87867966 C13.9260582,5.26920395 13.9260582,5.90236893 13.5355339,6.29289322 L10.9874289,8.84099827 Z M22.000042,22 L24.999973,22 L24.999973,23.000032 L22.000042,23.000032 L20.999977,23.000032 L20.999977,17.999936 L22.000042,17.999936 L22.000042,22 Z M22.221274,13.573984 C26.510548,13.573984 29.999935,17.034176 29.999935,21.286848 C29.999935,25.539936 26.510548,28.999968 22.221274,28.999968 C17.931769,28.999968 14.44225,25.539936 14.44225,21.286848 C14.44225,17.033888 17.931769,13.573984 22.221274,13.573984 Z M22.221274,27.446976 C25.646905,27.446976 28.433821,24.683552 28.433821,21.286848 C28.433821,17.890272 25.646905,15.126976 22.221274,15.126976 C18.795544,15.126976 16.008496,17.890272 16.008496,21.286848 C16.008496,24.683552 18.795544,27.446976 22.221274,27.446976 Z M12.937846,23.760288 C13.370443,23.760288 13.720903,24.107776 13.720903,24.536768 C13.720903,24.965632 13.370443,25.31328 12.937846,25.31328 L2.267692,25.31328 C1.017388,25.31328 -2e-06,24.304608 -2e-06,23.064704 L-2e-06,2.248512 C-2e-06,1.008576 1.017388,6.4e-05 2.267692,6.4e-05 L21.885202,6.4e-05 C23.135506,6.4e-05 24.152896,1.008576 24.152764,2.248512 L24.152764,10.870784 C24.152764,11.299616 23.802172,11.647264 23.369575,11.647264 C22.93711,11.647264 22.586518,11.299616 22.586518,10.870784 L22.586518,2.248512 C22.586518,1.86512 22.271731,1.553088 21.88507,1.553088 L2.267692,1.553088 C1.880899,1.553088 1.566244,1.86512 1.566244,2.248512 L1.566244,23.064704 C1.566244,23.448096 1.880899,23.760288 2.267692,23.760288 L12.937846,23.760288 Z" id="Combined-shape-2736"></path>
                </g>
            </g>
        </g>
    </g>
</svg>