<svg width="60" height="60" xmlns="http://www.w3.org/2000/svg" xmlns:xlink="http://www.w3.org/1999/xlink"><defs><rect id="a" x="0" y="0" width="25" height="27" rx="2"/></defs><g fill="none" fill-rule="evenodd"><circle fill="#49A7FF" cx="30" cy="30" r="30"/><g transform="translate(16 16)"><use fill="#49A7FF" xlink:href="#a"/><rect stroke="#FFF" stroke-width="1.5" x=".75" y=".75" width="23.5" height="25.5" rx="2"/><circle fill="#49A7FF" cx="20.5" cy="20.5" r="7.5"/><path fill="#FFF" d="M4 18h1.454L7 20.53 8.546 18H10l-1.966 2.924h1.31v.555H7.656l-.01.008v.698h1.7v.554h-1.7V24h-1.29v-1.26h-1.69v-.555h1.69v-.698l-.01-.008h-1.68v-.555h1.3z"/><rect fill="#FFF" x="4" y="9" width="16" height="1.5" rx=".75"/><rect fill="#FFF" x="4" y="13" width="8" height="1.5" rx=".75"/><g fill="#FFF"><path d="M21.308 27.308a6 6 0 1 1 0-12 6 6 0 0 1 0 12zm0-1.242a4.759 4.759 0 1 0 0-9.517 4.759 4.759 0 0 0 0 9.517z" fill-rule="nonzero"/><path d="M21 22h3.5a.5.5 0 0 1 0 1h-4a.5.5 0 0 1-.5-.5v-4a.5.5 0 0 1 1 0V22z"/></g><rect fill="#FFF" x="4" y="5" width="16" height="1.5" rx=".75"/></g></g></svg>