<svg xmlns="http://www.w3.org/2000/svg" width="30" height="29" viewBox="0 0 30 29">
  <metadata><?xpacket begin="﻿" id="W5M0MpCehiHzreSzNTczkc9d"?>
<x:xmpmeta xmlns:x="adobe:ns:meta/" x:xmptk="Adobe XMP Core 5.6-c138 79.159824, 2016/09/14-01:09:01        ">
   <rdf:RDF xmlns:rdf="http://www.w3.org/1999/02/22-rdf-syntax-ns#">
      <rdf:Description rdf:about=""/>
   </rdf:RDF>
</x:xmpmeta>
                                                                                                    
                                                                                                    
                                                                                                    
                                                                                                    
                                                                                                    
                                                                                                    
                                                                                                    
                                                                                                    
                                                                                                    
                                                                                                    
                                                                                                    
                                                                                                    
                                                                                                    
                                                                                                    
                                                                                                    
                                                                                                    
                                                                                                    
                                                                                                    
                                                                                                    
                                                                                                    
                           
<?xpacket end="w"?></metadata>
<defs>
    <style>
      .cls-1 {
        fill: #fff;
        fill-rule: evenodd;
      }
    </style>
  </defs>
  <path id="形状_597" data-name="形状 597" class="cls-1" d="M65,1944.42a3.71,3.71,0,1,0-3.742-3.71A3.722,3.722,0,0,0,65,1944.42h0Zm0-5.56a1.845,1.845,0,1,1-1.869,1.85A1.86,1.86,0,0,1,65,1938.86h0Zm-11.255,15.4a3.71,3.71,0,1,0,3.744,3.71,3.733,3.733,0,0,0-3.744-3.71h0Zm0,5.56a1.85,1.85,0,1,1,1.864-1.85,1.863,1.863,0,0,1-1.864,1.85h0Zm22.517-5.56A3.71,3.71,0,1,0,80,1957.97a3.733,3.733,0,0,0-3.741-3.71h0Zm0,5.56a1.85,1.85,0,1,1,1.866-1.85,1.858,1.858,0,0,1-1.866,1.85h0Zm-11.29,4.32a11.628,11.628,0,0,1-7.336-2.61l-1.193,1.43a13.5,13.5,0,0,0,17.118-.04l-1.2-1.43a11.623,11.623,0,0,1-7.39,2.65h0Zm11.54-11.44h1.875a13.35,13.35,0,0,0-7.75-12.05l-0.793,1.68a11.5,11.5,0,0,1,6.668,10.37h0ZM60.1,1942.33l-0.794-1.68a13.35,13.35,0,0,0-7.746,12.05h1.871a11.488,11.488,0,0,1,6.669-10.37h0Zm0,0" transform="translate(-50 -1937)"/>
</svg>
