<svg width="60" height="60" xmlns="http://www.w3.org/2000/svg" xmlns:xlink="http://www.w3.org/1999/xlink"><defs><rect id="a" x="3.875" y="0" width="24.219" height="26.182" rx="1.92"/><rect id="b" x="0" y="3.879" width="24.219" height="26.182" rx="1.92"/><rect id="c" x="14" y="22" width="14" height="8" rx="1"/></defs><g fill="none" fill-rule="evenodd"><circle fill="#07D3CF" cx="30" cy="30" r="30"/><g transform="translate(16 15)"><use fill="#07D3CF" xlink:href="#a"/><rect stroke="#FFF" stroke-width="1.5" x="4.625" y=".75" width="22.719" height="24.682" rx="1.92"/><use fill="#07D3CF" xlink:href="#b"/><rect stroke="#FFF" stroke-width="1.5" x=".75" y="4.629" width="22.719" height="24.682" rx="1.92"/><rect fill="#FFF" x="3.875" y="8.727" width="14" height="1.5" rx=".75"/><rect fill="#FFF" x="3.875" y="13.576" width="14" height="1.5" rx=".75"/><rect fill="#FFF" x="3.875" y="18.424" width="14" height="1.5" rx=".75"/><rect fill="#FFF" x="3.875" y="23.273" width="10" height="1.5" rx=".75"/><path fill="#07D3CF" d="M13 21h16v10H13z"/><g><use fill="#07D3CF" xlink:href="#c"/><rect stroke="#FFF" x="14.5" y="22.5" width="13" height="7" rx="1"/></g><path d="M17.119 25.154h.892v-.478c-.238.039-.48.065-.726.082l-.143-.38c.788-.06 1.424-.176 1.908-.352l.218.34a7.05 7.05 0 0 1-.802.228v.56h.85v.392h-.85v.138c.294.215.588.465.892.74l-.266.366a12.303 12.303 0 0 0-.626-.68V28h-.455v-1.765a4.664 4.664 0 0 1-.807 1.012L17 26.769c.455-.353.792-.758 1.01-1.21v-.013h-.891v-.392zm2.524-.723h.446v2.635h-.446V24.43zm1.077 3.53h-.707l-.095-.396c.223.013.436.022.645.022.119 0 .18-.065.18-.19V24.04h.456V27.5c0 .305-.162.46-.48.46zm3.04-2.902h1.547v.362h-.545v.512h.474v.353h-.474v.599h.598v.362h-1.628v-.362h.603v-.599h-.489v-.353h.489v-.512h-.574v-.362zm-.664-.301h.446v3.216h-.446v-3.216zm2.387 3.22h-.427l-.104-.37.44.013c.105 0 .162-.069.162-.198v-2.85h-1.139v-.4H26v3.366c0 .293-.176.44-.517.44zM23.528 24c.275.19.513.379.702.568l-.294.263a3.869 3.869 0 0 0-.702-.573l.294-.258zm-1.262.065c.285.18.532.366.73.55l-.322.294a4.27 4.27 0 0 0-.735-.56l.327-.284zm-.114 1.029c.294.206.546.417.745.624l-.322.293a4.58 4.58 0 0 0-.745-.633l.322-.284zm.385 1.162l.398.138c-.18.547-.384 1.063-.607 1.546l-.418-.168c.242-.491.451-1 .627-1.516z" fill="#FFF"/></g></g></svg>