<?xml version="1.0" encoding="UTF-8"?>
<svg width="60px" height="60px" viewBox="0 0 60 60" version="1.1" xmlns="http://www.w3.org/2000/svg" xmlns:xlink="http://www.w3.org/1999/xlink">
    <!-- Generator: Sketch 52.3 (67297) - http://www.bohemiancoding.com/sketch -->
    <title>queryLog</title>
    <desc>Created with Sketch.</desc>
    <g id="icon" stroke="none" stroke-width="1" fill="none" fill-rule="evenodd">
        <g id="queryLog">
            <circle id="Oval-Copy" fill="#49A7FF" cx="30" cy="30" r="30"></circle>
            <g id="分组-2" transform="translate(16.000000, 16.000000)">
                <path d="M24.9347289,8.81948697 L18.640529,0.75 L2,0.75 C1.30964406,0.75 0.75,1.30964406 0.75,2 L0.75,26.89532 C0.75,27.5856759 1.30964406,28.14532 2,28.14532 L23.6847289,28.14532 C24.3750848,28.14532 24.9347289,27.5856759 24.9347289,26.89532 L24.9347289,8.81948697 Z" id="Rectangle-4" stroke="#FFFFFF" stroke-width="1.5" fill="#49A7FF"></path>
                <circle id="Oval-2" fill="#49A7FF" cx="22.4741377" cy="23.5443348" r="6.42118221"></circle>
                <rect id="Rectangle-3" fill="#FFFFFF" x="5.35098518" y="5.35098518" width="15.3265974" height="1.60529555" rx="0.802647777"></rect>
                <rect id="Rectangle-3-Copy" fill="#FFFFFF" x="5.35098518" y="10.7019704" width="15.3265974" height="1.60529555" rx="0.802647777"></rect>
                <rect id="Rectangle-3-Copy-6" fill="#FFFFFF" x="5.35098518" y="16.0529555" width="12.8423644" height="1.60529555" rx="0.802647777"></rect>
                <rect id="Rectangle-3-Copy-2" fill="#FFFFFF" x="5.35098518" y="21.4039407" width="8.56157629" height="1.60529555" rx="0.802647777"></rect>
                <path d="M26.9366882,23.6929234 L28.7462208,23.6929234 C29.160427,23.6929234 29.4962076,24.0287039 29.4962076,24.4429102 C29.4962076,24.8571164 29.160427,25.192897 28.7462208,25.192897 L26.9375532,25.192897 C26.8154031,25.9614083 26.5023263,26.710633 25.9893204,27.3672507 C24.3742517,29.4344444 21.3891883,29.8009641 19.3219946,28.1858954 C17.254801,26.5708267 16.8882812,23.5857633 18.5033499,21.5185696 C20.1184186,19.451376 23.103482,19.0848563 25.1706757,20.6999249 C26.1552922,21.4691916 26.7540813,22.5492653 26.9366882,23.6929234 Z M25.496278,24.4144349 C25.4872873,23.4587942 25.0588221,22.5160292 24.2471997,21.8819203 C22.8328041,20.7768733 20.7903923,21.0276499 19.6853453,22.4420456 C18.5802983,23.8564412 18.8310749,25.898853 20.2454706,27.0039 C21.6598662,28.108947 23.702278,27.8581704 24.807325,26.4437747 C25.2646806,25.8583864 25.4897894,25.1654216 25.496278,24.475859 L25.496278,24.4144349 Z" id="合并形状" fill="#FFFFFF" fill-rule="nonzero" transform="translate(23.496208, 24.442910) rotate(45.000000) translate(-23.496208, -24.442910) "></path>
            </g>
        </g>
    </g>
</svg>