<svg width="60" height="60" xmlns="http://www.w3.org/2000/svg" xmlns:xlink="http://www.w3.org/1999/xlink"><defs><rect id="a" x="3.875" y="0" width="24.219" height="26.182" rx="1.92"/><rect id="b" x="0" y="4" width="24.219" height="26.182" rx="1.92"/></defs><g fill="none" fill-rule="evenodd"><circle fill="#49A7FF" cx="30" cy="30" r="30"/><g transform="translate(15 14)"><use fill="#49A7FF" xlink:href="#a"/><rect stroke="#FFF" stroke-width="1.5" x="4.625" y=".75" width="22.719" height="24.682" rx="1.92"/><use fill="#49A7FF" xlink:href="#b"/><rect stroke="#FFF" stroke-width="1.5" x=".75" y="4.75" width="22.719" height="24.682" rx="1.92"/><path d="M6.786 8.727h11.339a.75.75 0 1 1 0 1.5H6.812a1.5 1.5 0 1 1-.026-1.5zM6.786 14.227h11.339a.75.75 0 0 1 0 1.5H6.812a1.5 1.5 0 1 1-.026-1.5zM6.786 19.727h7.464a.75.75 0 0 1 0 1.5H6.812a1.5 1.5 0 1 1-.026-1.5z" fill="#FFF"/><ellipse fill="#49A7FF" cx="23.734" cy="24.727" rx="7.266" ry="7.273"/><ellipse stroke="#FFF" stroke-width="1.2" fill="#49A7FF" cx="23.813" cy="24.818" rx="5.813" ry="5.818"/><path d="M5.078 23.741h.471V23h.462v.741h.453v.427H6.01v.737c.148-.06.296-.13.439-.202v.43c-.148.07-.291.139-.439.199v1.155c0 .293-.152.444-.452.444H5.17l-.102-.414c.116.017.226.03.333.03.097 0 .147-.06.147-.172v-.87a16.52 16.52 0 0 1-.429.137l-.12-.43a8.53 8.53 0 0 0 .55-.139v-.905h-.472v-.427zm1.496 3.13l-.124-.38c.11-.038.166-.116.166-.228v-2.81c.928-.112 1.662-.242 2.202-.38l.282.375c-.227.056-.49.112-.79.168.005.354.014.66.033.927h.835v.431h-.803c.014.155.032.289.05.401.065.375.14.642.218.806.073.164.129.246.166.246.028 0 .055-.216.088-.643l.397.203c-.093.642-.231.966-.407.966-.147 0-.304-.117-.466-.34-.162-.225-.295-.583-.406-1.066a5.144 5.144 0 0 1-.102-.573h-.83v1.323c.091-.034.18-.073.267-.112l.078.388c-.244.095-.53.194-.854.298zm1.298-2.328a11.866 11.866 0 0 1-.033-.849c-.235.034-.49.069-.757.103v.746h.79zm-.097 1.444c.226.293.401.556.521.78l-.36.233c-.12-.237-.286-.5-.494-.793l.333-.22zM14 23.345v3.5h-.466v-.263h-1.27v.263h-.466v-3.5H14zm-1.736 2.81h1.27v-2.388h-1.27v2.388zm-.67-1.487v.431a9.353 9.353 0 0 1-.48.207v1.19c0 .297-.156.448-.466.448h-.475l-.106-.422c.143.017.281.025.415.025.11 0 .166-.056.166-.16v-.909c-.18.06-.364.117-.55.173l-.115-.431c.227-.043.448-.1.665-.168v-.88h-.6v-.435h.6v-.724h.467v.724h.498v.435h-.498v.712a7.93 7.93 0 0 0 .48-.216z" fill="#FFF"/><g fill="#FFF" fill-rule="nonzero"><path d="M27.235 23.993L25 23.235l-.022-.006V22.4c0-.22-.195-.4-.434-.4a.266.266 0 0 0-.078.012L21.173 23a.233.233 0 0 0-.173.22V28c0 .22.195.4.434.4h5.53a.427.427 0 0 0 .436-.416v-3.773a.235.235 0 0 0-.165-.218zm-2.759-.356v4.3h-2.974V23.39l2.974-.894v1.141zm2.423 4.3h-1.922v-4.215l1.922.65v3.564z"/><path d="M21.972 25.291h.575c.031 0 .057-.03.057-.068v-.412c0-.037-.026-.068-.057-.068h-.575c-.032 0-.058.03-.058.068v.412c0 .038.026.068.058.068zm1.092 0h.575c.031 0 .057-.03.057-.068v-.412c0-.037-.026-.068-.057-.068h-.575c-.032 0-.058.03-.058.068v.412c0 .038.026.068.058.068zm-1.092 1.098h.575c.031 0 .057-.031.057-.069v-.411c0-.038-.026-.069-.057-.069h-.575c-.032 0-.058.03-.058.069v.411c0 .038.026.069.058.069zm1.092 0h.575c.031 0 .057-.031.057-.069v-.411c0-.038-.026-.069-.057-.069h-.575c-.032 0-.058.03-.058.069v.411c0 .038.026.069.058.069zm-1.092 1.097h.575c.031 0 .057-.031.057-.069v-.411c0-.038-.026-.069-.057-.069h-.575c-.032 0-.058.031-.058.069v.411c0 .038.026.069.058.069zm1.092 0h.575c.031 0 .057-.031.057-.069v-.411c0-.038-.026-.069-.057-.069h-.575c-.032 0-.058.031-.058.069v.411c0 .038.026.069.058.069zm2.105-1.097h.345c.032 0 .057-.031.057-.069v-.411c0-.038-.025-.069-.057-.069h-.345c-.032 0-.057.03-.057.069v.411c0 .038.025.069.057.069zm0 1.097h.345c.032 0 .057-.031.057-.069v-.411c0-.038-.025-.069-.057-.069h-.345c-.032 0-.057.031-.057.069v.411c0 .038.025.069.057.069z"/></g></g></g></svg>