<svg width="60" height="60" xmlns="http://www.w3.org/2000/svg" xmlns:xlink="http://www.w3.org/1999/xlink"><defs><rect id="a" x="0" y="4" width="24" height="24" rx="2"/></defs><g fill="none" fill-rule="evenodd"><circle fill="#F69330" cx="30" cy="30" r="30"/><g transform="translate(15 16)"><rect stroke="#FFF" stroke-width="1.5" x="4.75" y=".75" width="22.5" height="22.5" rx="2"/><use fill="#F79E45" xlink:href="#a"/><rect stroke="#FFF" stroke-width="1.5" x=".75" y="4.75" width="22.5" height="22.5" rx="2"/><g transform="translate(4 8)" fill="#FFF"><rect width="15" height="1.5" rx=".75"/><rect y="5" width="15" height="1.5" rx=".75"/><rect y="10" width="10" height="1.5" rx=".75"/></g><circle fill="#F79E45" cx="23.5" cy="21.5" r="7.5"/><circle stroke="#FFF" stroke-width="1.5" fill="#FFAA54" cx="24" cy="22" r="6"/><path d="M23.56 19.44c.294.293.44.647.44 1.06 0 .415-.146.768-.44 1.061-.293.294-.646.44-1.06.44-.414 0-.767-.146-1.06-.44a1.445 1.445 0 0 1-.44-1.06c0-.414.146-.768.44-1.06.293-.294.646-.44 1.06-.44.414 0 .767.146 1.06.44zm3.064-.19a.25.25 0 0 1-.05.149l-4.125 5.499a.235.235 0 0 1-.199.102h-.625a.239.239 0 0 1-.176-.074.241.241 0 0 1-.023-.324l4.124-5.5A.235.235 0 0 1 25.75 19h.626c.067 0 .126.025.175.074.05.05.074.109.074.176zm-3.772 1.602a.482.482 0 0 0 .148-.351.482.482 0 0 0-.148-.352A.484.484 0 0 0 22.5 20a.482.482 0 0 0-.352.149c-.1.1-.148.216-.148.352 0 .136.05.252.148.351.099.1.216.149.352.149.136 0 .253-.05.352-.149zm3.709 1.587c.293.294.439.647.439 1.061 0 .414-.146.767-.44 1.06-.293.294-.646.44-1.06.44-.414 0-.767-.146-1.06-.44A1.445 1.445 0 0 1 24 23.5c0-.414.146-.767.44-1.06.293-.294.646-.44 1.06-.44.414 0 .767.147 1.06.44zm-.71 1.413a.482.482 0 0 0 .15-.352.482.482 0 0 0-.15-.352A.482.482 0 0 0 25.5 23a.482.482 0 0 0-.352.148.477.477 0 0 0-.148.352c0 .136.05.253.148.352A.482.482 0 0 0 25.5 24c.136 0 .252-.05.352-.148z" fill="#FFF" fill-rule="nonzero"/></g></g></svg>