<svg width="60" height="60" xmlns="http://www.w3.org/2000/svg"><g fill="none" fill-rule="evenodd"><circle fill="#49A7FF" cx="30" cy="30" r="30"/><g transform="translate(16 15)"><rect stroke="#FFF" stroke-width="1.5" fill="#49A7FF" x="4.625" y=".75" width="22.719" height="24.682" rx="1.92"/><rect stroke="#FFF" stroke-width="1.5" fill="#49A7FF" x=".75" y="4.629" width="22.719" height="24.682" rx="1.92"/><rect fill="#FFF" x="3.875" y="7.727" width="15" height="1.5" rx=".75"/><rect fill="#FFF" x="3.875" y="12.576" width="13" height="1.5" rx=".75"/><rect fill="#FFF" x="3.875" y="17.424" width="10" height="1.5" rx=".75"/><path fill="#49A7FF" d="M13 21h16v10H13z"/><path d="M15 22.5a.5.5 0 0 0-.5.5v6a.5.5 0 0 0 .5.5h12a.5.5 0 0 0 .5-.5v-6a.5.5 0 0 0-.5-.5H15z" stroke="#FFF" fill="#49A7FF"/><path d="M17.748 26.355a7.154 7.154 0 0 1-.597.478L17 26.377c.635-.457 1.069-.904 1.294-1.335h-1.167v-.41h.673a6.627 6.627 0 0 0-.245-.516l.476-.116c.108.233.193.443.259.633h.494v.366c-.122.297-.306.59-.555.874v.017l.197.12c.137-.09.269-.215.4-.378l.278.254a1.789 1.789 0 0 1-.367.344c.122.09.24.186.353.285l-.268.387a5.094 5.094 0 0 0-.593-.59V28h-.48v-1.645zm1.87-2.338h.484v1.408c.419.241.847.513 1.28.823l-.292.396c-.39-.319-.72-.573-.988-.754v2.106h-.485v-3.979zm2.419.211h3.728v.435h-.74v.99H26v.435h-.974v1.847h-.495v-1.847h-1.219c-.047.422-.141.78-.277 1.068-.184.362-.485.642-.904.835l-.269-.383c.382-.202.636-.456.768-.758.084-.215.146-.469.183-.762h-1.016v-.435h1.05c0-.025.004-.047.004-.073v-.917h-.814v-.435zm1.313.435v.917c0 .026-.005.048-.005.073h1.186v-.99H23.35zM5 21h1.337l1.421 2.65L9.179 21h1.337l-1.807 3.063h1.205v.58H8.36l-.009.01v.73h1.563v.58H8.35v1.321H7.165v-1.32H5.612v-.581h1.553v-.73l-.01-.01H5.613v-.58h1.195z" fill="#FFF"/></g></g></svg>