<svg id="组_6" data-name="组 6" xmlns="http://www.w3.org/2000/svg" width="28" height="30" viewBox="0 0 28 30">
  <metadata><?xpacket begin="﻿" id="W5M0MpCehiHzreSzNTczkc9d"?>
<x:xmpmeta xmlns:x="adobe:ns:meta/" x:xmptk="Adobe XMP Core 5.6-c138 79.159824, 2016/09/14-01:09:01        ">
   <rdf:RDF xmlns:rdf="http://www.w3.org/1999/02/22-rdf-syntax-ns#">
      <rdf:Description rdf:about=""/>
   </rdf:RDF>
</x:xmpmeta>
                                                                                                    
                                                                                                    
                                                                                                    
                                                                                                    
                                                                                                    
                                                                                                    
                                                                                                    
                                                                                                    
                                                                                                    
                                                                                                    
                                                                                                    
                                                                                                    
                                                                                                    
                                                                                                    
                                                                                                    
                                                                                                    
                                                                                                    
                                                                                                    
                                                                                                    
                                                                                                    
                           
<?xpacket end="w"?></metadata>
<defs>
    <style>
      .cls-1 {
        fill: #fff;
        fill-rule: evenodd;
      }
    </style>
  </defs>
  <path id="形状_32_拷贝" data-name="形状 32 拷贝" class="cls-1" d="M1612.89,1114.87h22.7v15h1.89v-15a1.878,1.878,0,0,0-1.89-1.87h-22.7a1.884,1.884,0,0,0-1.89,1.87v26.25a1.886,1.886,0,0,0,1.89,1.88h13.24v-1.88h-13.24v-26.25Zm25.83,26.39-4.34-4.24a6.505,6.505,0,0,0,1.6-4.28,6.6,6.6,0,1,0-3.03,5.51l4.43,4.34a0.948,0.948,0,0,0,1.34,0,0.936,0.936,0,0,0,0-1.33h0Zm-14.09-8.52a4.73,4.73,0,1,1,4.73,4.69,4.712,4.712,0,0,1-4.73-4.69h0Zm0,0" transform="translate(-1611 -1113)"/>
  <path id="形状_16_拷贝_2" data-name="形状 16 拷贝 2" class="cls-1" d="M1621.89,1119.56l-3.4,3.5a0.682,0.682,0,0,1-.97,0,0.716,0.716,0,0,1,0-.99l3.89-4.01a0.68,0.68,0,0,1,.99.01l2.46,2.68,0.03-.02,1.21-1.2a0.676,0.676,0,0,1,.95,0l2.68,2.63a0.716,0.716,0,0,1,.02.99,0.674,0.674,0,0,1-.97.02l-2.2-2.16-0.74.73c-0.01.01-.03,0.02-0.04,0.03l0.29,0.32a0.694,0.694,0,0,1-.03.98,0.666,0.666,0,0,1-.97-0.03Zm0,0" transform="translate(-1611 -1113)"/>
</svg>
