<?xml version="1.0" encoding="UTF-8"?>
<svg width="30px" height="26px" viewBox="0 0 30 26" version="1.1" xmlns="http://www.w3.org/2000/svg" xmlns:xlink="http://www.w3.org/1999/xlink">
    <!-- Generator: Sketch 48.2 (47327) - http://www.bohemiancoding.com/sketch -->
    <title>Combined shape 3238</title>
    <desc>Created with Sketch.</desc>
    <defs></defs>
    <g id="Artboard" stroke="none" stroke-width="1" fill="none" fill-rule="evenodd" transform="translate(-380.000000, -1225.000000)">
        <g id="业务报表" fill="#FFFFFF">
            <g id="业务报表2">
                <g id="01-拷贝-5">
                    <g id="组-7" transform="translate(380.000000, 1225.000000)">
                        <path d="M9.99995194,2.00005 L7.00001401,2.00005 L9.99996,1.999905 L2.000066,1.999905 L2.000066,5.999962 C3.724274,7.039931 4.844982,8.341103 4.498352,11.142503 C4.224652,13.354449 3.724274,13.960027 2.000066,14.999967 L2.000066,19.999915 L5.999928,19.999915 L8.24321228,20.00006 L8.247124,20.056697 L15.744192,20.056697 L15.999974,22.000103 L2.000066,22.000103 C0.650572,22.000103 -8.6e-05,20.502369 -8.6e-05,19.16515 L-8.6e-05,14.262526 C0.899656,14.039603 1.799364,13.593902 2.324086,12.77703 C2.624,12.182472 2.998986,11.439637 2.998986,10.771187 C2.998986,10.028207 2.698936,9.359728 2.324086,8.839845 C1.8743,8.022654 0.899656,7.502771 -8.6e-05,7.279848 L-8.6e-05,2.37705 C-8.6e-05,1.039976 1.049664,3.59999999e-05 2.399022,3.59999999e-05 L26.090596,3.59999999e-05 C27.44009,3.59999999e-05 28.489704,1.039976 28.489704,2.37705 L28.489704,7.279848 C27.515162,7.502771 26.765326,8.096865 26.240604,8.914201 C25.94069,9.434084 25.490768,10.102563 25.490768,10.771187 C25.490768,11.142503 25.640674,11.513993 25.865618,11.885483 L24.141274,11.885483 C24.066202,11.513993 23.991266,11.068321 23.991266,10.696831 C23.991266,8.542566 25.26596,6.982714 26.990304,5.942745 L27.000062,1.999905 L9.99996,1.999905 Z M29.764262,24.662332 C30.06404,24.959466 30.06404,25.479378 29.839334,25.776657 C29.539284,26.073617 29.089498,26.073617 28.78972,25.776657 L25.640674,22.730845 C24.741068,23.399469 23.691488,23.770814 22.491866,23.770814 C19.5679,23.770814 17.243728,21.467982 17.243728,18.571056 C17.243728,15.673956 19.5679,13.371124 22.491866,13.371124 C25.415832,13.371124 27.74014,15.673956 27.74014,18.571056 C27.74014,19.759708 27.365154,20.799503 26.69039,21.690905 L29.764262,24.662332 Z M22.491866,22.284999 C24.59106,22.284999 26.240604,20.650936 26.240604,18.571056 C26.240604,16.491002 24.59106,14.856794 22.491866,14.856794 C20.392672,14.856794 18.743264,16.491002 18.743264,18.571056 C18.743264,20.650936 20.392672,22.284999 22.491866,22.284999 Z M18.133814,4.694182 C18.525086,5.085048 18.525086,5.718646 18.133814,6.109498 L9.351376,14.884796 C8.96023,15.275648 8.32603,15.275648 7.934758,14.884796 C7.543612,14.49393 7.543612,13.860192 7.934758,13.469326 L16.717322,4.694182 C17.108468,4.303176 17.742668,4.303176 18.133814,4.694182 Z M10.192706,9.49922 C8.783648,9.49922 7.641528,8.35794 7.641528,6.950226 C7.641528,5.542218 8.783648,4.400938 10.192706,4.400938 C11.60175,4.400938 12.74387,5.542218 12.74387,6.950226 C12.74387,8.35794 11.60175,9.49922 10.192706,9.49922 Z M10.192706,5.808792 C9.563504,5.808792 9.053274,6.31842 9.053274,6.947398 C9.053274,7.576068 9.563504,8.08599 10.192706,8.08599 C10.822146,8.08599 11.332264,7.576068 11.332264,6.947398 C11.332264,6.31842 10.822146,5.808792 10.192706,5.808792 Z M15.876132,10.079618 C17.284924,10.079618 18.427296,11.221052 18.427296,12.628906 C18.427296,14.036466 17.284924,15.177746 15.876132,15.177746 C14.467074,15.177746 13.324954,14.036466 13.324954,12.628906 C13.324954,11.221052 14.467074,10.079618 15.876132,10.079618 Z M15.876132,13.767498 C16.50532,13.767498 17.015564,13.25759 17.015564,12.628906 C17.015564,11.999928 16.50532,11.490314 15.876132,11.490314 C15.246678,11.490314 14.73656,11.999928 14.73656,12.628906 C14.73656,13.25759 15.246678,13.767498 15.876132,13.767498 Z" id="Combined-shape-3238"></path>
                    </g>
                </g>
            </g>
        </g>
    </g>
</svg>