<svg id="组_7" data-name="组 7" xmlns="http://www.w3.org/2000/svg" width="30" height="26" viewBox="0 0 30 26">
  <metadata><?xpacket begin="﻿" id="W5M0MpCehiHzreSzNTczkc9d"?>
<x:xmpmeta xmlns:x="adobe:ns:meta/" x:xmptk="Adobe XMP Core 5.6-c138 79.159824, 2016/09/14-01:09:01        ">
   <rdf:RDF xmlns:rdf="http://www.w3.org/1999/02/22-rdf-syntax-ns#">
      <rdf:Description rdf:about=""/>
   </rdf:RDF>
</x:xmpmeta>
                                                                                                    
                                                                                                    
                                                                                                    
                                                                                                    
                                                                                                    
                                                                                                    
                                                                                                    
                                                                                                    
                                                                                                    
                                                                                                    
                                                                                                    
                                                                                                    
                                                                                                    
                                                                                                    
                                                                                                    
                                                                                                    
                                                                                                    
                                                                                                    
                                                                                                    
                                                                                                    
                           
<?xpacket end="w"?></metadata>
<defs>
    <style>
      .cls-1 {
        fill: #fff;
        fill-rule: evenodd;
      }
    </style>
  </defs>
  <path id="形状_600" data-name="形状 600" class="cls-1" d="M389,1245h-7v-5c1.724-1.04,2.225-1.65,2.5-3.86A4.6,4.6,0,0,0,382,1231v-4h8m-3,0h20l-0.01,3.94a5.518,5.518,0,0,0-3,4.76,6.567,6.567,0,0,0,.15,1.19h1.725a2.246,2.246,0,0,1-.375-1.12,4.072,4.072,0,0,1,.75-1.86,3.6,3.6,0,0,1,2.249-1.63v-4.9a2.358,2.358,0,0,0-2.4-2.38H382.4a2.358,2.358,0,0,0-2.4,2.38v4.9a3.627,3.627,0,0,1,2.324,1.56,3.344,3.344,0,0,1,.675,1.93,4.943,4.943,0,0,1-.675,2.01,3.751,3.751,0,0,1-2.324,1.48v4.91c0,1.33.651,2.83,2,2.83h14l-0.256-1.94h-7.5m21.517,4.6-3.074-2.97a5.049,5.049,0,0,0,1.05-3.12,5.229,5.229,0,1,0-2.1,4.16l3.149,3.05a0.741,0.741,0,0,0,1.049,0,0.9,0.9,0,0,0-.075-1.12h0Zm-7.272-2.37a3.715,3.715,0,1,1,3.749-3.72,3.7,3.7,0,0,1-3.749,3.72h0Zm0,0M386,1227h4v18h-4v-18Z" transform="translate(-380 -1225)"/>
  <path id="形状_7_拷贝" data-name="形状 7 拷贝" class="cls-1" d="M398.134,1229.69a1,1,0,0,0-1.417,0l-8.782,8.78a1,1,0,1,0,1.416,1.41l8.783-8.77a1.006,1.006,0,0,0,0-1.42h0Zm-7.941,4.81a2.55,2.55,0,1,0-2.551-2.55,2.549,2.549,0,0,0,2.551,2.55h0Zm0-3.69a1.14,1.14,0,1,1-1.14,1.14,1.139,1.139,0,0,1,1.14-1.14h0Zm5.683,4.27a2.55,2.55,0,1,0,2.551,2.55,2.549,2.549,0,0,0-2.551-2.55h0Zm0,3.69a1.14,1.14,0,1,1,1.14-1.14,1.139,1.139,0,0,1-1.14,1.14h0Zm0,0" transform="translate(-380 -1225)"/>
</svg>
