<svg width="60" height="60" xmlns="http://www.w3.org/2000/svg" xmlns:xlink="http://www.w3.org/1999/xlink"><defs><path d="M20.917 7.724c0-4.266-3.45-7.724-7.706-7.724S5.505 3.458 5.505 7.724s3.45 7.723 7.706 7.723 7.706-3.457 7.706-7.723zm-7.706 5.24a5.236 5.236 0 0 1-5.23-5.24 5.236 5.236 0 0 1 5.23-5.24 5.236 5.236 0 0 1 5.23 5.24 5.236 5.236 0 0 1-5.23 5.24zm7.225 4.637a13.128 13.128 0 0 0-7.225-2.154C5.914 15.447 0 21.375 0 28.69h.003c0 .024-.003.045-.003.069A1.24 1.24 0 0 0 1.239 30a1.24 1.24 0 0 0 1.238-1.242c0-.024 0-.045-.003-.069h.003c0-5.941 4.806-10.758 10.734-10.758 1.349 0 2.639.248 3.826.705a7.635 7.635 0 0 1 3.399-1.035z" id="a"/><path d="M25.628 24.083l-.04-.255-.78-.26a4.126 4.126 0 0 0-.254-.615l.368-.735-.15-.21a4.97 4.97 0 0 0-1.088-1.087l-.21-.152-.734.369a4.162 4.162 0 0 0-.613-.255l-.26-.778-.253-.039a4.804 4.804 0 0 0-.767-.066c-.236 0-.48.021-.769.067l-.255.04-.259.782a4.31 4.31 0 0 0-.613.253l-.734-.37-.21.152a4.874 4.874 0 0 0-1.085 1.086l-.151.211.367.735c-.1.197-.185.403-.253.613l-.779.259-.04.255a4.898 4.898 0 0 0-.066.77c0 .24.021.49.066.77l.04.256.78.26c.067.211.152.417.253.614l-.365.734.15.208c.158.22.32.412.497.59.165.166.357.329.588.498l.21.15.733-.367c.197.1.403.187.613.254l.26.781.254.04c.28.045.53.067.768.067.237 0 .488-.022.768-.066l.256-.04.259-.782a4.42 4.42 0 0 0 .612-.253l.735.368.209-.151a4.506 4.506 0 0 0 1.084-1.088l.151-.21-.368-.736a4.08 4.08 0 0 0 .254-.614l.78-.26.04-.256c.045-.28.066-.531.066-.768a4.313 4.313 0 0 0-.065-.769zm-.696.762v.006c0 .143-.01.289-.028.445l-.376.126-.333.113-.103.335a3.143 3.143 0 0 1-.23.56l-.164.31.333.668a3.859 3.859 0 0 1-.295.334l-.002.002c-.099.1-.209.197-.332.294l-.664-.333-.308.16a3.565 3.565 0 0 1-.568.236l-.333.104-.108.33-.126.377a3.61 3.61 0 0 1-.89 0l-.126-.377-.11-.333-.334-.104a3.191 3.191 0 0 1-.56-.23l-.31-.162-.314.156-.354.177a3.78 3.78 0 0 1-.63-.63l.332-.665-.161-.309a3.274 3.274 0 0 1-.233-.564l-.103-.335-.708-.235a3.623 3.623 0 0 1 0-.892l.706-.235.103-.334c.06-.193.138-.384.233-.567l.161-.308-.155-.312-.176-.354c.186-.232.397-.444.629-.63l.665.333.31-.163c.178-.094.368-.172.565-.234l.333-.104.11-.331.126-.377a3.96 3.96 0 0 1 .444-.028c.142 0 .29.01.444.028l.236.705.333.104c.193.06.384.139.565.233l.309.161.664-.333c.232.187.444.398.632.631l-.331.666.16.307c.094.183.174.375.234.57l.104.332.33.111.377.126c.02.16.029.303.027.44zM20.849 23a1.856 1.856 0 0 0 0 3.71 1.856 1.856 0 0 0 0-3.71zm.769 2.624a1.08 1.08 0 0 1-.769.32c-.29 0-.563-.113-.768-.32a1.083 1.083 0 0 1-.32-.77c0-.29.113-.563.32-.769a1.08 1.08 0 0 1 .768-.319c.29 0 .563.113.769.32a1.085 1.085 0 0 1 0 1.538z" id="b"/></defs><g fill="none" fill-rule="evenodd"><circle fill="#49A7FF" cx="30" cy="30" r="30"/><g fill-rule="nonzero"><g transform="translate(17 15)"><use fill="#FFF" fill-rule="evenodd" xlink:href="#a"/><path stroke="#49A7FF" stroke-width=".2" d="M20.817 7.724C20.817 3.513 17.412.1 13.211.1c-4.2 0-7.606 3.413-7.606 7.624 0 4.21 3.405 7.623 7.606 7.623 4.2 0 7.606-3.413 7.606-7.623zm-7.606 5.34a5.336 5.336 0 0 1-5.33-5.34 5.336 5.336 0 0 1 5.33-5.34 5.336 5.336 0 0 1 5.33 5.34 5.336 5.336 0 0 1-5.33 5.34zM2.387 28.688h.09v-.1h-.003l-.087.1zM.1 28.686l-.097-.097H0v.1h.1v-.003zm20.032-11.16c.083.051.166.104.249.159l.049-.184c-.1.006-.2.014-.298.024z"/></g><g transform="translate(17 15)"><use fill="#FFF" fill-rule="evenodd" xlink:href="#b"/><path stroke="#FFF" stroke-width=".2" d="M25.727 24.067c.047.287.07.545.066.785 0 .244-.022.5-.067.784l-.04.255-.068.08-.715.196c-.07.216-.157.427-.26.538l.368.736-.009.103-.15.211a4.604 4.604 0 0 1-1.107 1.11l-.21.151-.103.008-.645-.368c-.204.103-.414.19-.562.196l-.26.78-.079.068-.255.04c-.284.046-.54.068-.784.068s-.5-.022-.783-.068l-.255-.04-.08-.067-.194-.718c-.212-.067-.422-.155-.538-.26l-.734.368-.103-.008-.21-.152a5.018 5.018 0 0 1-.6-.508 4.891 4.891 0 0 1-.506-.601l-.151-.209-.009-.103.366-.643c-.102-.2-.19-.412-.196-.565l-.78-.26-.066-.08-.04-.255a4.954 4.954 0 0 1-.068-.785c0-.244.022-.5.067-.786l.04-.256.068-.079.715-.194c.07-.215.156-.425.259-.538l-.368-.735.008-.103.152-.211c.31-.427.682-.8 1.108-1.11l.21-.15.103-.009.643.37c.197-.1.408-.188.564-.196l.26-.781.079-.067.255-.04c.293-.047.542-.069.784-.069a4.9 4.9 0 0 1 .783.067l.253.04.08.067.194.714c.216.07.426.157.538.26l.735-.368.103.008.21.152c.423.307.796.68 1.11 1.109l.15.21.009.103-.369.645c.103.2.19.412.197.565l.78.261.066.08.04.254zm-.914.414l-.316-.106-.394-.176-.104-.333a3.427 3.427 0 0 0-.229-.553l-.16-.398.303-.607a4.075 4.075 0 0 0-.53-.529l-.695.306-.307-.161a3.473 3.473 0 0 0-.55-.227l-.398-.167-.215-.645a3.61 3.61 0 0 0-.74 0l-.105.316-.175.395-.333.104c-.191.06-.376.137-.549.227l-.4.164-.608-.304a4 4 0 0 0-.524.525l.148.296.154.403-.161.308a3.368 3.368 0 0 0-.227.55l-.167.4-.645.215a3.63 3.63 0 0 0 0 .746l.711.277.104.335c.055.182.13.365.225.547l.163.4-.303.607a3.616 3.616 0 0 0 .524.525l.296-.148.405-.156.31.162c.17.09.352.165.543.224l.4.167.11.333.105.316a3.634 3.634 0 0 0 .742 0l.105-.315.173-.395.333-.104c.19-.06.377-.137.551-.228l.4-.162.607.305c.1-.082.19-.163.273-.247l.002-.002c.085-.085.167-.176.25-.279l-.306-.698.164-.31c.092-.173.167-.356.223-.543l.167-.4.333-.114.316-.105a3.63 3.63 0 0 0 .02-.371v-.007a2.9 2.9 0 0 0-.019-.363zm-3.964-1.582a1.956 1.956 0 0 1 0 3.91 1.956 1.956 0 0 1 0-3.91zm.698 2.654a.985.985 0 0 0 0-1.398.976.976 0 0 0-.698-.29.98.98 0 0 0-.698.29.978.978 0 0 0-.29.699c0 .263.104.512.29.699.186.187.434.29.698.29a.98.98 0 0 0 .698-.29z"/></g></g></g></svg>