<svg xmlns="http://www.w3.org/2000/svg" width="30" height="28" viewBox="0 0 30 28">
  <metadata><?xpacket begin="﻿" id="W5M0MpCehiHzreSzNTczkc9d"?>
<x:xmpmeta xmlns:x="adobe:ns:meta/" x:xmptk="Adobe XMP Core 5.6-c138 79.159824, 2016/09/14-01:09:01        ">
   <rdf:RDF xmlns:rdf="http://www.w3.org/1999/02/22-rdf-syntax-ns#">
      <rdf:Description rdf:about=""/>
   </rdf:RDF>
</x:xmpmeta>
                                                                                                    
                                                                                                    
                                                                                                    
                                                                                                    
                                                                                                    
                                                                                                    
                                                                                                    
                                                                                                    
                                                                                                    
                                                                                                    
                                                                                                    
                                                                                                    
                                                                                                    
                                                                                                    
                                                                                                    
                                                                                                    
                                                                                                    
                                                                                                    
                                                                                                    
                                                                                                    
                           
<?xpacket end="w"?></metadata>
<defs>
    <style>
      .cls-1 {
        fill: #fff;
        fill-rule: evenodd;
      }
    </style>
  </defs>
  <path id="形状_541" data-name="形状 541" class="cls-1" d="M78.834,1601.05a1.5,1.5,0,0,1-1.454-1.85c0.271-1.32.21-1.43-.947-2.11l-0.734-.42a1.536,1.536,0,0,0-2.208.21,1.27,1.27,0,0,1-2.023-.02,1.521,1.521,0,0,0-2.21-.21c-0.408.23-.813,0.46-1.215,0.7a1.211,1.211,0,0,0-.6,1.52,1.542,1.542,0,0,1-1.5,2.21,0.968,0.968,0,0,0-.959.89,22.5,22.5,0,0,0-.045,3,1.041,1.041,0,0,0,1.111,1.05,1.55,1.55,0,0,1,1.5,1.84c-0.285,1.35-.227,1.48.962,2.16,0.272,0.16.526,0.32,0.794,0.47a1.482,1.482,0,0,0,2.028-.23c0.947-.84,1.276-0.82,2.238,0a13.163,13.163,0,0,0,1.217.74,22.8,22.8,0,0,0,2.552-1.76,1.06,1.06,0,0,0,.118-0.99,1.632,1.632,0,0,1,1.563-2.28,0.9,0.9,0,0,0,.915-0.82,29.389,29.389,0,0,0,.046-3.02,1.055,1.055,0,0,0-1.144-1.08h0Zm-0.9,3.72c-1.484.35-2.282,1.93-1.921,3.79a10.418,10.418,0,0,1-.992.55,0.582,0.582,0,0,1-.478-0.06,13.933,13.933,0,0,0-1.473-.79,2.407,2.407,0,0,0-2.357.56,1,1,0,0,1-1.412-.03,3.566,3.566,0,0,0-.376-0.25,2.995,2.995,0,0,0-1.981-3.79,0.942,0.942,0,0,1-.734-1.16,0.96,0.96,0,0,1,.707-1.18c1.59-.4,2.295-1.77,2.025-3.81,0.165-.1.376-0.19,0.525-0.3a0.978,0.978,0,0,1,1.365,0,2.443,2.443,0,0,0,3.291.05c0.781-.64,1.291-0.1,1.89.29a3.12,3.12,0,0,0,1.112,3.39,1.866,1.866,0,0,0,.809.38,0.94,0.94,0,0,1,.8,1.18,0.974,0.974,0,0,1-.8,1.18h0Zm0,0-20.552,1.16v-12.27a0.579,0.579,0,0,0-.015-0.16,1.034,1.034,0,0,0-1.021-.87,1.249,1.249,0,0,0-.764.26l-0.813.46a0.489,0.489,0,0,1-.193-0.04l-2.957-2.64,2.236-3.62c0.977-1.42,2.223-2.38,5.121-2.38H61.1l0.285,0.76a0.668,0.668,0,0,0,.153.25l2.312,2.73a1.273,1.273,0,0,0,1.889,0l2.329-2.72a0.682,0.682,0,0,0,.1-0.17l0.42-.84h2.027c3.123,0,4.053.59,4.924,1.86l2.42,4.12-3.048,2.47a0.528,0.528,0,0,1-.331.08l-0.66-.32c-0.044-.02-0.106-0.05-0.153-0.07l-0.119-.04a1.557,1.557,0,0,0-.525-0.11,0.954,0.954,0,0,0-.947,1.01v2.56a1.591,1.591,0,0,0,1.5-.55,0.657,0.657,0,0,0,.106-0.08v-0.95l0.181,0.1a0.939,0.939,0,0,1,.151.06,1.894,1.894,0,0,0,.524.08,2.038,2.038,0,0,0,1.231-.42l3.032-2.48a1.7,1.7,0,0,0,.437-2.18l-2.465-4.18c-1.319-1.96-2.9-2.61-6.259-2.61H68.088a0.81,0.81,0,0,0-.72.45l-0.6,1.19-1.968,2.34-1.951-2.31-0.433-1.16a0.818,0.818,0,0,0-.751-0.54h-2.7c-3.032,0-4.953.93-6.456,3.12l-2.25,3.66a1.652,1.652,0,0,0,.346,2.15l2.989,2.67a1.978,1.978,0,0,0,1.724.33,0.9,0.9,0,0,0,.2-0.08l0.272-.16v11.24a4.1,4.1,0,0,0,1.15,2.86,3.884,3.884,0,0,0,2.784,1.19h6.8a4.159,4.159,0,0,1,.148-1.34c0.017-.11-0.579-0.96-0.658-0.64H59c-1.276,0-1.619-.76-1.619-2.07h0Zm0,0,15.09-5.22a2.779,2.779,0,0,0-2.928,2.82,2.9,2.9,0,1,0,2.928-2.82h0Zm0.015,4.19a1.317,1.317,0,0,1-1.35-1.34,1.313,1.313,0,1,1,1.35,1.34h0Zm0,0" transform="translate(-50 -1583)"/>
</svg>
