<?xml version="1.0" encoding="UTF-8"?>
<svg width="30px" height="28px" viewBox="0 0 30 28" version="1.1" xmlns="http://www.w3.org/2000/svg" xmlns:xlink="http://www.w3.org/1999/xlink">
    <!-- Generator: Sketch 48.2 (47327) - http://www.bohemiancoding.com/sketch -->
    <title>Combined shape 3159</title>
    <desc>Created with Sketch.</desc>
    <defs></defs>
    <g id="Artboard" stroke="none" stroke-width="1" fill="none" fill-rule="evenodd" transform="translate(-50.000000, -1583.000000)">
        <g id="用户权限管理" fill="#FFFFFF">
            <g id="01">
                <path d="M78.83392,1601.05347 C79.55795,1601.11503 79.963332,1601.45417 79.97836,1602.13409 C80.023138,1603.12489 79.991178,1604.14875 79.932154,1605.15263 C79.887104,1605.63155 79.540882,1605.92527 79.016806,1605.97056 C77.725792,1606.09543 76.989182,1607.08458 77.45386,1608.24791 C77.575138,1608.5258 77.53036,1609.09682 77.33554,1609.23691 C76.566732,1609.90164 75.698576,1610.41156 74.783466,1611 C74.286862,1610.69171 73.883384,1610.52077 73.566912,1610.25851 C72.605086,1609.43599 72.276068,1609.42257 71.32927,1610.25851 C70.609728,1610.89063 70.127846,1610.9389 69.301782,1610.49039 C69.034236,1610.33719 68.77961,1610.17956 68.507814,1610.02443 C67.31897,1609.34373 67.261476,1609.20634 67.545988,1607.86138 C67.743494,1606.94644 67.081072,1606.11363 66.045058,1606.01957 C65.355164,1605.95835 64.964538,1605.63186 64.934618,1604.96728 C64.89035,1603.97844 64.89035,1602.95665 64.979668,1601.96589 C65.024072,1601.45417 65.382636,1601.14557 65.939046,1601.08403 C67.274566,1600.94664 67.81588,1600.14154 67.439874,1598.87268 C67.229924,1598.15937 67.48438,1597.6961 68.042762,1597.35455 C68.444166,1597.11197 68.849038,1596.87578 69.257378,1596.64601 C70.20421,1596.10317 70.609728,1596.13355 71.46748,1596.86239 C72.289158,1597.54278 72.665028,1597.54278 73.490956,1596.87535 C74.361152,1596.16439 74.753716,1596.13355 75.698576,1596.67403 L76.432874,1597.09201 C77.589758,1597.77267 77.65123,1597.88399 77.38008,1599.19874 C77.186824,1600.15688 77.785088,1600.97494 78.83392,1601.05347 Z M77.933566,1604.76565 C78.625908,1604.59534 78.732022,1604.2106 78.732022,1603.58951 C78.732022,1602.97289 78.640902,1602.52228 77.933566,1602.41471 C77.65123,1602.36895 77.365188,1602.21383 77.124978,1602.03009 C76.0126,1601.16373 75.713094,1600.00204 76.0126,1598.63934 C75.41369,1598.2519 74.90386,1597.71384 74.122846,1598.34831 C73.040014,1599.21467 71.914818,1599.13584 70.832224,1598.3002 C70.382302,1597.95895 69.932006,1597.89742 69.467192,1598.3002 C69.318476,1598.40972 69.108152,1598.50151 68.942606,1598.59538 C69.212226,1600.6367 68.50744,1602.01474 66.91743,1602.41471 C66.210332,1602.60068 66.225224,1603.05126 66.210332,1603.58951 C66.210332,1604.14934 66.255144,1604.58223 66.944766,1604.75344 C67.439228,1604.87549 67.921212,1605.21729 68.282224,1605.58672 C69.06385,1606.40462 69.167414,1607.44399 68.925776,1608.53981 C69.078742,1608.63548 69.197572,1608.6954 69.301408,1608.78927 C69.768534,1609.14332 70.159398,1609.2375 70.713292,1608.81996 C71.390606,1608.29454 72.199568,1607.93544 73.0699,1608.26416 C73.59605,1608.44712 74.046618,1608.80446 74.54312,1609.05317 C74.676842,1609.12782 74.887302,1609.17342 75.020888,1609.11455 C75.369184,1608.95751 75.713094,1608.72742 76.0126,1608.55664 C75.651622,1606.69937 76.449942,1605.12014 77.933566,1604.76565 Z M57.381076,1605.92543 C57.381076,1607.24193 57.723966,1607.99995 58.999952,1607.99995 L66.000008,1607.99995 C66.07933,1607.67674 66.675418,1608.52595 66.65835,1608.6352 C66.541934,1609.26998 66.448536,1609.67007 66.509872,1609.97852 L59.709974,1609.97852 C58.666038,1609.98047 57.664432,1609.55413 56.926156,1608.79358 C56.187982,1608.03287 55.774134,1607.00082 55.775936,1605.92527 L55.775936,1594.6944 L55.504276,1594.85207 C55.446884,1594.88053 55.385412,1594.91091 55.30881,1594.92613 C54.722752,1595.09703 54.079812,1594.97471 53.585112,1594.60277 L50.595798,1591.92502 C49.980466,1591.46129 49.79979,1590.5033 50.24995,1589.77703 L52.500342,1586.12356 C54.003448,1583.9295 55.924652,1582.99996 58.956568,1582.99996 L61.661098,1582.99996 C61.992428,1582.99996 62.29156,1583.21678 62.4126,1583.54237 L62.845692,1584.70214 L64.796816,1587.00734 L66.764838,1584.6713 L67.367998,1583.47919 C67.51634,1583.20128 67.783784,1583.03304 68.08754,1583.03304 L70.624484,1583.03304 C73.985146,1583.03304 75.564616,1583.68051 76.883068,1585.64492 L79.347762,1589.82263 C79.768172,1590.5489 79.57053,1591.50705 78.910522,1592.00354 L75.878776,1594.47759 C75.502906,1594.75566 75.082734,1594.8978 74.647466,1594.8978 C74.466892,1594.8978 74.301482,1594.86503 74.123084,1594.81912 C74.078578,1594.80154 74.01697,1594.77324 73.972328,1594.75566 L73.791754,1594.66387 L73.791754,1595.6068 C73.761868,1595.63975 73.730282,1595.65702 73.685504,1595.68547 C73.0699,1596.19539 72.649762,1596.38344 72.184574,1596.24131 L72.184574,1593.67503 C72.184574,1593.10206 72.588018,1592.66682 73.131508,1592.66682 C73.341968,1592.66682 73.507378,1592.73043 73.655992,1592.77619 L73.774958,1592.8243 C73.821538,1592.83964 73.883384,1592.87006 73.927924,1592.88763 L74.58817,1593.20935 C74.766296,1593.20935 74.843034,1593.18074 74.919262,1593.13247 L77.967838,1590.65635 L75.547684,1586.54361 C74.677216,1585.27285 73.747214,1584.68454 70.624076,1584.68454 L68.59686,1584.68454 L68.176484,1585.52228 C68.144524,1585.58577 68.115114,1585.64492 68.072512,1585.69262 L65.743614,1588.41418 C65.26367,1588.9719 64.331866,1588.9719 63.854098,1588.41418 L61.54237,1585.67756 C61.46604,1585.59873 61.421228,1585.52228 61.38954,1585.43036 L61.104926,1584.6713 L58.9735,1584.6713 C56.075578,1584.6713 54.829512,1585.62945 53.852794,1587.05353 L51.617192,1590.67377 L54.574274,1593.30533 C54.589132,1593.31887 54.678348,1593.34928 54.767666,1593.34928 L55.580742,1592.88779 C55.625146,1592.83964 55.941618,1592.62537 56.344926,1592.62537 C56.856728,1592.62537 57.259798,1592.97942 57.366048,1593.50469 C57.381076,1593.55044 57.381076,1593.61421 57.381076,1593.65997 L57.381076,1605.92543 Z M72.4715,1600.71225 C74.093334,1600.75828 75.352116,1601.8258 75.337088,1603.58877 C75.320292,1605.35441 73.955124,1606.43711 72.409382,1606.40419 C70.774866,1606.35859 69.54342,1605.30822 69.54342,1603.52767 C69.54342,1601.77992 70.923616,1600.68168 72.4715,1600.71225 Z M72.486392,1604.90363 C73.207872,1604.89052 73.762106,1604.30208 73.761732,1603.56044 C73.761732,1602.80137 73.176048,1602.21293 72.409382,1602.23023 C71.689976,1602.24557 71.135878,1602.81675 71.135878,1603.56044 C71.135878,1604.31535 71.734788,1604.92137 72.486392,1604.90363 Z" id="Combined-shape-3159"></path>
            </g>
        </g>
    </g>
</svg>