<svg width="60" height="60" xmlns="http://www.w3.org/2000/svg" xmlns:xlink="http://www.w3.org/1999/xlink"><defs><path d="M26.695 12.213L15.045.603a2.193 2.193 0 0 0-3.02 0L.371 12.213a1.194 1.194 0 0 0-.081 1.647c.416.48 1.13.515 1.59.084l11.652-11.61 11.653 11.61a1.098 1.098 0 0 0 1.59-.084 1.194 1.194 0 0 0-.081-1.647zm-3.112 4.305c-.623 0-1.127.522-1.127 1.167v8.98h-4.477v-7.78c0-1.29-1.008-2.334-2.254-2.334h-4.383c-1.246 0-2.254 1.044-2.254 2.334v7.78H4.61v-8.98c0-.645-.504-1.167-1.127-1.167s-1.127.522-1.127 1.167v8.98C2.357 27.957 3.365 29 4.61 29h17.845c1.246 0 2.254-1.044 2.254-2.334v-8.98c0-.646-.504-1.168-1.127-1.168zm-12.241 2.367h4.383v7.78h-4.383v-7.78z" id="a"/><path d="M21.645 23.802a.321.321 0 0 0 .376 0c.104-.08.104-.212 0-.294l-1.113-.869h4.826c.147 0 .266-.093.266-.208 0-.114-.12-.207-.266-.207h-4.826l1.113-.87c.104-.08.104-.212 0-.293a.321.321 0 0 0-.376 0l-1.567 1.224a.187.187 0 0 0-.078.146c0 .054.026.107.078.147l1.567 1.224zm4.336 1.688a.191.191 0 0 0-.01-.017l-.001-.001a.22.22 0 0 0-.048-.05l-1.567-1.224a.321.321 0 0 0-.376 0 .187.187 0 0 0-.078.147c0 .053.026.106.078.147l1.113.869h-4.826c-.147 0-.266.093-.266.208 0 .114.12.207.266.207h4.826l-1.113.87a.187.187 0 0 0-.078.146c0 .053.026.107.078.147a.321.321 0 0 0 .376 0l1.567-1.224c.078-.06.097-.15.059-.225z" id="b"/></defs><g fill="none" fill-rule="evenodd"><circle fill="#07D3CF" cx="30" cy="30" r="30"/><g transform="translate(15 15)"><g fill-rule="nonzero"><use fill="#FFF" fill-rule="evenodd" xlink:href="#a"/><path stroke="#06CDC9" stroke-width=".3" d="M26.592 12.323l-.003-.004L14.943.712c-.8-.75-2.016-.75-2.813-.003L.474 12.323a1.044 1.044 0 0 0-.07 1.438.947.947 0 0 0 1.371.077l11.652-11.61h.212l11.649 11.606a.948.948 0 0 0 1.375-.073 1.044 1.044 0 0 0-.07-1.438zm-3.01 4.345c-.538 0-.976.454-.976 1.017v8.98l-.15.15h-4.477l-.15-.15v-7.78c0-1.209-.942-2.184-2.104-2.184h-4.383c-1.162 0-2.104.975-2.104 2.184v7.78l-.15.15H4.61l-.15-.15v-8.98c0-.563-.438-1.017-.977-1.017-.54 0-.977.454-.977 1.017v8.98c0 1.21.942 2.185 2.104 2.185h17.845c1.162 0 2.104-.976 2.104-2.184v-8.98c0-.564-.438-1.018-.977-1.018zm-12.24 2.067h4.383l.15.15v7.78l-.15.15h-4.383l-.15-.15v-7.78l.15-.15z"/></g><circle fill="#07D3CF" cx="22.5" cy="23.5" r="7.5"/><circle stroke="#FFF" stroke-width="1.5" fill="#07D3CF" cx="23" cy="24" r="6"/><g stroke-linecap="round" stroke-linejoin="bevel" fill-rule="nonzero"><use fill="#FFF" fill-rule="evenodd" xlink:href="#b"/><path stroke="#FFF" stroke-width=".3" d="M21.344 22.074h4.39c.223 0 .416.15.416.357s-.193.358-.416.358h-4.39l.77.601c.18.141.18.39 0 .53a.47.47 0 0 1-.561 0h0l-1.567-1.223a.337.337 0 0 1-.136-.266c0-.102.05-.197.136-.265l1.567-1.223a.47.47 0 0 1 .56 0c.181.14.181.389 0 .53l-.77.6zm3.312 3.852h-4.39c-.223 0-.416-.15-.416-.357s.193-.358.416-.358h4.39l-.77-.601a.337.337 0 0 1-.135-.265c0-.103.05-.198.135-.265a.47.47 0 0 1 .561 0l1.567 1.223a.372.372 0 0 1 .081.087l.002.003.017.028h0a.326.326 0 0 1-.1.413l-1.567 1.223a.47.47 0 0 1-.56 0 .337.337 0 0 1-.136-.265c0-.102.05-.198.135-.265l.77-.6z"/></g></g></g></svg>