<svg xmlns="http://www.w3.org/2000/svg" width="23" height="30" viewBox="0 0 23 30">
  <metadata><?xpacket begin="﻿" id="W5M0MpCehiHzreSzNTczkc9d"?>
<x:xmpmeta xmlns:x="adobe:ns:meta/" x:xmptk="Adobe XMP Core 5.6-c138 79.159824, 2016/09/14-01:09:01        ">
   <rdf:RDF xmlns:rdf="http://www.w3.org/1999/02/22-rdf-syntax-ns#">
      <rdf:Description rdf:about=""/>
   </rdf:RDF>
</x:xmpmeta>
                                                                                                    
                                                                                                    
                                                                                                    
                                                                                                    
                                                                                                    
                                                                                                    
                                                                                                    
                                                                                                    
                                                                                                    
                                                                                                    
                                                                                                    
                                                                                                    
                                                                                                    
                                                                                                    
                                                                                                    
                                                                                                    
                                                                                                    
                                                                                                    
                                                                                                    
                                                                                                    
                           
<?xpacket end="w"?></metadata>
<defs>
    <style>
      .cls-1 {
        fill: #fff;
        fill-rule: evenodd;
      }
    </style>
  </defs>
  <path id="形状_30" data-name="形状 30" class="cls-1" d="M685.466,1113H665.533a1.435,1.435,0,0,0-1.533,1.51v25.02a1.014,1.014,0,0,0,.613.76l15.334,2.71H680.1a0.717,0.717,0,0,0,.766-0.75v-2.11h4.6a1.441,1.441,0,0,0,1.533-1.51v-24.12a1.436,1.436,0,0,0-1.534-1.51h0Zm-6.133,28.34-13.8-2.41v-23.97c0-.15,0-0.15.154-0.15l13.646,2.41v24.12Zm6.133-2.71h-4.6v-22.01a1.016,1.016,0,0,0-.613-0.76l-7.82-1.35h13.033v24.12ZM675.5,1128a1.6,1.6,0,1,1-1.634,1.6A1.619,1.619,0,0,1,675.5,1128Z" transform="translate(-664 -1113)"/>
</svg>
