<?xml version="1.0" encoding="UTF-8"?>
<svg width="60px" height="60px" viewBox="0 0 60 60" version="1.1" xmlns="http://www.w3.org/2000/svg" xmlns:xlink="http://www.w3.org/1999/xlink">
    <!-- Generator: Sketch 49.3 (51167) - http://www.bohemiancoding.com/sketch -->
    <title>业务报表-房间交易档案</title>
    <desc>Created with Sketch.</desc>
    <defs>
        <path d="M42.6946452,27.2127446 L31.0454441,15.6030184 C30.1876421,14.7989939 28.8821552,14.7989939 28.0243532,15.6030184 L16.3720215,27.2127446 C15.9086832,27.6439352 15.8742459,28.379877 16.2906242,28.8596982 C16.7070025,29.3395193 17.420794,29.3751817 17.8810016,28.9439911 L29.5333333,17.334265 L41.1856651,28.9439911 C41.6490034,29.3751817 42.3596641,29.3395193 42.7760425,28.8596982 C43.1924208,28.379877 43.1579835,27.6439352 42.6946452,27.2127446 Z M39.5827651,31.5181666 C38.9597629,31.5181666 38.455726,32.0401342 38.455726,32.685299 L38.455726,41.665735 L33.9788763,41.665735 L33.9788763,33.8848519 C33.9788763,32.5945221 32.9708025,31.5505869 31.7247982,31.5505869 L27.3418685,31.5505869 C26.0958642,31.5505869 25.0877903,32.5945221 25.0877903,33.8848519 L25.0877903,41.665735 L20.6109407,41.665735 L20.6109407,32.685299 C20.6109407,32.0401342 20.1069037,31.5181666 19.4839016,31.5181666 C18.8608994,31.5181666 18.3568625,32.0401342 18.3568625,32.685299 L18.3568625,41.665735 C18.3568625,42.9560648 19.3649364,44 20.6109407,44 L38.455726,44 C39.7017303,44 40.7098042,42.9560648 40.7098042,41.665735 L40.7098042,32.685299 C40.7098042,32.0401342 40.2057672,31.5181666 39.5827651,31.5181666 Z M27.3418685,33.8848519 L31.7247982,33.8848519 L31.7247982,41.665735 L27.3418685,41.665735 L27.3418685,33.8848519 Z" id="path-1"></path>
        <path d="M37.6450886,38.8021521 C37.7489316,38.8832796 37.9173707,38.8832796 38.0212349,38.8021521 C38.125106,38.7210742 38.125106,38.58956 38.0212349,38.508427 L36.9080888,37.6391771 L41.7340145,37.6391771 C41.8808958,37.6391771 41.9999963,37.5461958 41.9999963,37.4314882 C41.9999963,37.3167916 41.8809099,37.2238103 41.7340145,37.2238103 L36.9080888,37.2238103 L38.0212349,36.3545659 C38.125106,36.2734494 38.125106,36.1419462 38.0212349,36.0608353 C37.9173637,35.9797243 37.7489597,35.9797188 37.6450886,36.0608353 L36.0779016,37.2846422 C36.0259414,37.3252059 36,37.3783333 36,37.4314992 C36,37.4846431 36.0259696,37.5378035 36.0779016,37.5783618 L37.6450886,38.8021687 L37.6450886,38.8021521 Z M41.9805104,40.490387 C41.9774166,40.4844161 41.9738858,40.4785663 41.9700591,40.4727935 C41.969897,40.4725183 41.969742,40.4722376 41.9695658,40.471968 C41.957402,40.4538626 41.9415596,40.4369019 41.9220877,40.4216857 L40.3548937,39.1978623 C40.2510155,39.1167459 40.0826115,39.1167459 39.9787403,39.1978623 C39.9267871,39.2384315 39.9008317,39.2915699 39.9008317,39.3447249 C39.9008317,39.3978688 39.9268153,39.4510402 39.9787403,39.4915874 L41.0918864,40.3608319 L36.2659677,40.3608319 C36.1190864,40.3608319 36.0000141,40.4538131 36.0000141,40.5685207 C36.0000141,40.6832174 36.1190864,40.7761986 36.2659677,40.7761986 L41.0918935,40.7761986 L39.9787333,41.6454431 C39.926773,41.6860068 39.9008246,41.7391342 39.9008246,41.7923001 C39.9008246,41.845444 39.9268083,41.898632 39.9787263,41.9391627 C40.0826045,42.0202791 40.2510084,42.0202791 40.3548796,41.9391627 L41.9220947,40.7153998 C41.9999963,40.6545955 42.0194823,40.565417 41.9805174,40.4903815 L41.9805104,40.490387 Z" id="path-2"></path>
    </defs>
    <g id="icon" stroke="none" stroke-width="1" fill="none" fill-rule="evenodd">
        <g id="业务报表-房间交易档案">
            <circle id="Oval-Copy" fill="#07D3CF" cx="30" cy="30" r="30"></circle>
            <g id="Shape" fill-rule="nonzero">
                <use fill="#FFFFFF" fill-rule="evenodd" xlink:href="#path-1"></use>
                <path stroke="#06CDC9" stroke-width="0.3" d="M42.592457,27.3225515 L42.5887593,27.3189904 L30.9428641,15.7124595 C30.1427578,14.9625135 28.9270395,14.9625135 28.1302248,15.7092786 L16.4742097,27.3225515 C16.0709623,27.6978205 16.0396658,28.3416373 16.4039152,28.7613867 C16.7638653,29.1761817 17.379588,29.2082363 17.77513,28.837731 L29.4274618,17.2280048 L29.6392049,17.2280048 L41.2878533,28.8341841 C41.6898164,29.2082579 42.3026917,29.1763081 42.6627514,28.7613867 C43.0270008,28.3416373 42.9957043,27.6978205 42.592457,27.3225515 Z M39.5827651,31.6681666 C39.0438016,31.6681666 38.605726,32.1218263 38.605726,32.685299 L38.605726,41.665735 L38.455726,41.815735 L33.9788763,41.815735 L33.8288763,41.665735 L33.8288763,33.8848519 C33.8288763,32.6762142 32.8867639,31.7005869 31.7247982,31.7005869 L27.3418685,31.7005869 C26.1799028,31.7005869 25.2377903,32.6762142 25.2377903,33.8848519 L25.2377903,41.665735 L25.0877903,41.815735 L20.6109407,41.815735 L20.4609407,41.665735 L20.4609407,32.685299 C20.4609407,32.1218263 20.0228651,31.6681666 19.4839016,31.6681666 C18.9449381,31.6681666 18.5068625,32.1218263 18.5068625,32.685299 L18.5068625,41.665735 C18.5068625,42.8743727 19.448975,43.85 20.6109407,43.85 L38.455726,43.85 C39.6176917,43.85 40.5598042,42.8743727 40.5598042,41.665735 L40.5598042,32.685299 C40.5598042,32.1218263 40.1217286,31.6681666 39.5827651,31.6681666 Z M27.3418685,33.7348519 L31.7247982,33.7348519 L31.8747982,33.8848519 L31.8747982,41.665735 L31.7247982,41.815735 L27.3418685,41.815735 L27.1918685,41.665735 L27.1918685,33.8848519 L27.3418685,33.7348519 Z"></path>
            </g>
            <circle id="Oval" fill="#07D3CF" cx="38.5" cy="38.5" r="7.5"></circle>
            <circle id="Oval" stroke="#FFFFFF" stroke-width="1.5" fill="#07D3CF" cx="39" cy="39" r="6"></circle>
            <g id="Shape" stroke-linecap="round" stroke-linejoin="bevel" fill-rule="nonzero">
                <use fill="#FFFFFF" fill-rule="evenodd" xlink:href="#path-2"></use>
                <path stroke="#FFFFFF" stroke-width="0.3" d="M37.3438944,37.0738103 L41.7340145,37.0738103 C41.9567605,37.0738103 42.1499963,37.2246878 42.1499963,37.4314882 C42.1499963,37.6382941 41.9567534,37.7891771 41.7340145,37.7891771 L37.3438922,37.7891771 L38.1135699,38.3902143 C38.2943342,38.5314079 38.2943342,38.7792671 38.1135699,38.9203649 C37.9554425,39.0438769 37.7108487,39.0438769 37.5527419,38.9203557 L37.5527681,38.9203927 L35.9855744,37.6965806 C35.8996547,37.6294785 35.85,37.5338592 35.85,37.4314992 C35.85,37.329106 35.8996382,37.233511 35.9855812,37.1664181 L37.5527652,35.9426134 C37.7108906,35.8191281 37.9554253,35.8191306 38.1135543,35.9426104 C38.2943322,36.0837763 38.2943322,36.3316153 38.113555,36.4727902 L37.3438944,37.0738103 Z M40.6560835,40.9261986 L36.2659677,40.9261986 C36.0432339,40.9261986 35.8500141,40.7753171 35.8500141,40.5685207 C35.8500141,40.3617166 36.0432309,40.2108319 36.2659677,40.2108319 L40.6560808,40.2108319 L39.8864209,39.6098123 C39.8005013,39.5427193 39.7508317,39.4470857 39.7508317,39.3447249 C39.7508317,39.2423477 39.8004781,39.1467484 39.886417,39.0796405 C40.0445443,38.9561537 40.289079,38.9561537 40.4472147,39.0796386 L42.0144486,40.3034932 C42.045924,40.3280895 42.072754,40.3565815 42.0951386,40.3899224 C42.0960252,40.3913321 42.0966875,40.392385 42.0971993,40.3932014 C42.104449,40.4044746 42.105151,40.4057582 42.1136939,40.4213788 L42.1136388,40.4212534 C42.1876567,40.563791 42.1462673,40.7307098 42.0144121,40.8336263 L40.4472029,42.0573845 C40.2890756,42.1808713 40.0445409,42.1808713 39.8864224,42.0573997 C39.8004991,41.9903222 39.7508246,41.8946647 39.7508246,41.7923001 C39.7508246,41.689907 39.8004694,41.5943123 39.8864139,41.5272182 L40.6560835,40.9261986 Z"></path>
            </g>
        </g>
    </g>
</svg>