<?xml version="1.0" encoding="UTF-8"?>
<svg width="26px" height="29px" viewBox="0 0 26 29" version="1.1" xmlns="http://www.w3.org/2000/svg" xmlns:xlink="http://www.w3.org/1999/xlink">
    <!-- Generator: Sketch 48.2 (47327) - http://www.bohemiancoding.com/sketch -->
    <title>Combined shape 2927</title>
    <desc>Created with Sketch.</desc>
    <defs></defs>
    <g id="Artboard" stroke="none" stroke-width="1" fill="none" fill-rule="evenodd" transform="translate(-962.000000, -1114.000000)">
        <g id="业务报表" fill="#FFFFFF">
            <g id="业务报表1">
                <g id="01-拷贝-8">
                    <path d="M983.754512,1142.12497 L965.365362,1142.12497 C963.507506,1142.12497 962.928616,1140.53674 962.928616,1138.5751 L962.928616,1122.60214 C962.928616,1120.64035 963.507506,1119.05212 965.365362,1119.05212 L967.386368,1119.05212 L967.386368,1118.3356 C967.386368,1116.45874 968.869694,1114.93759 970.700146,1114.93759 L983.757372,1114.93759 C985.588058,1114.93759 987.07141,1116.45874 987.07141,1118.3356 L987.07141,1138.72696 C987.06829,1140.60367 985.585198,1142.12497 983.754512,1142.12497 Z M967.386368,1121.73139 C967.386368,1121.23336 966.785066,1120.82641 966.038996,1120.82641 C965.29589,1120.82641 964.691624,1121.23042 964.691624,1121.73139 L964.691624,1139.02297 C964.691624,1139.52085 965.29589,1139.92795 966.038996,1139.92795 C966.782206,1139.92795 967.386368,1139.52394 967.386368,1139.02297 L967.386368,1121.73139 Z M985.314356,1118.52769 C985.314356,1117.52563 984.510722,1116.71482 983.516794,1116.71482 L970.934666,1116.71482 C969.940842,1116.71482 969.428564,1117.68529 969.428564,1118.6875 L969.428564,1138.37491 C969.428564,1139.37712 969.940842,1140.34159 970.934666,1140.34159 L983.516794,1140.34159 C984.510722,1140.34159 985.314356,1139.53078 985.314356,1138.52887 L985.314356,1118.52769 Z M974.095798,1132.6111 L980.571436,1132.75009 L980.571436,1134.625 L974.071358,1134.625 L974.095798,1132.6111 Z M974.071358,1128.06253 L980.571436,1128.06253 L980.571436,1129.93756 L974.071358,1129.93756 L974.071358,1128.06253 Z M974.071358,1122.43756 L980.571436,1122.43756 L980.571436,1124.31247 L974.095798,1124.45452 L974.071358,1122.43756 Z" id="Combined-shape-2927"></path>
                </g>
            </g>
        </g>
    </g>
</svg>