<?xml version="1.0" encoding="UTF-8"?>
<svg width="23px" height="29px" viewBox="0 0 23 29" version="1.1" xmlns="http://www.w3.org/2000/svg" xmlns:xlink="http://www.w3.org/1999/xlink">
    <!-- Generator: Sketch 48.2 (47327) - http://www.bohemiancoding.com/sketch -->
    <title>Combined shape 2922</title>
    <desc>Created with Sketch.</desc>
    <defs></defs>
    <g id="Artboard" stroke="none" stroke-width="1" fill="none" fill-rule="evenodd" transform="translate(-664.000000, -1115.000000)">
        <g id="业务报表" fill="#FFFFFF">
            <g id="业务报表1">
                <g id="01-拷贝-7" transform="translate(624.000000, 1077.000000)">
                    <path d="M60.738064,38.823451 C61.58668,38.823451 62.153512,39.37274 62.153872,40.197991 L62.153872,62.190879 C62.153872,63.016006 61.58704,63.565419 60.738424,63.565419 L56.4916,63.565419 L56.4916,65.489806 C56.4916,65.901858 56.208736,66.176456 55.784416,66.176456 L55.642984,66.176456 L41.488504,63.702501 C41.205736,63.565419 40.923112,63.290697 40.923112,63.016006 L40.923112,40.197991 C40.923112,39.37274 41.488984,38.823451 42.33844,38.823451 L60.738064,38.823451 Z M55.076152,64.662943 L55.076152,42.672318 L42.479992,40.473116 C42.33844,40.473116 42.33844,40.473116 42.33844,40.610322 L42.33844,62.463307 L55.076152,64.662943 Z M60.738064,62.188709 L60.738064,40.197991 L48.707296,40.197991 L55.926088,41.43517 C56.208736,41.572376 56.4916,41.846974 56.4916,42.123029 L56.4916,62.188709 L60.738064,62.188709 Z M51.538432,52.500031 C52.366912,52.500031 53.038456,53.150535 53.038456,53.953094 C53.038456,54.755622 52.366912,55.406281 51.538432,55.406281 C50.710048,55.406281 50.038528,54.755622 50.038528,53.953094 C50.038528,53.150535 50.710048,52.500031 51.538432,52.500031 Z" id="Combined-shape-2922"></path>
                </g>
            </g>
        </g>
    </g>
</svg>