<svg xmlns="http://www.w3.org/2000/svg" width="26" height="29" viewBox="0 0 26 29">
  <metadata><?xpacket begin="﻿" id="W5M0MpCehiHzreSzNTczkc9d"?>
<x:xmpmeta xmlns:x="adobe:ns:meta/" x:xmptk="Adobe XMP Core 5.6-c138 79.159824, 2016/09/14-01:09:01        ">
   <rdf:RDF xmlns:rdf="http://www.w3.org/1999/02/22-rdf-syntax-ns#">
      <rdf:Description rdf:about=""/>
   </rdf:RDF>
</x:xmpmeta>
                                                                                                    
                                                                                                    
                                                                                                    
                                                                                                    
                                                                                                    
                                                                                                    
                                                                                                    
                                                                                                    
                                                                                                    
                                                                                                    
                                                                                                    
                                                                                                    
                                                                                                    
                                                                                                    
                                                                                                    
                                                                                                    
                                                                                                    
                                                                                                    
                                                                                                    
                                                                                                    
                           
<?xpacket end="w"?></metadata>
<defs>
    <style>
      .cls-1 {
        fill: #fff;
        fill-rule: evenodd;
      }
    </style>
  </defs>
  <path id="形状_33" data-name="形状 33" class="cls-1" d="M984.428,1143h-19.8c-2,0-2.624-1.69-2.624-3.79v-17.03c0-2.1.623-3.79,2.624-3.79H966.8v-0.77a3.594,3.594,0,0,1,3.568-3.62h14.062a3.594,3.594,0,0,1,3.569,3.62v21.76a3.6,3.6,0,0,1-3.572,3.62h0ZM966.8,1121.25a1.57,1.57,0,0,0-2.9,0v18.44a1.57,1.57,0,0,0,2.9,0v-18.44Zm19.307-3.42a1.93,1.93,0,0,0-1.936-1.93h-13.55A1.842,1.842,0,0,0,969,1118v21a1.842,1.842,0,0,0,1.622,2.1h13.55a1.938,1.938,0,0,0,1.936-1.94v-21.33Zm-12.082,15.02L981,1133v2h-7ZM974,1128h7v2h-7v-2Zm0-6h7v2l-6.974.15Zm0,0" transform="translate(-962 -1114)"/>
</svg>
