<?xml version="1.0" encoding="UTF-8"?>
<svg width="60px" height="60px" viewBox="0 0 60 60" version="1.1" xmlns="http://www.w3.org/2000/svg" xmlns:xlink="http://www.w3.org/1999/xlink">
    <!-- Generator: Sketch 49.3 (51167) - http://www.bohemiancoding.com/sketch -->
    <title>销项管理-销项发票采集</title>
    <desc>Created with Sketch.</desc>
    <defs>
        <path d="M19.1908033,14.1866117 L3.80728699,14.1866117 C3.27588678,14.1866117 2.84580837,14.5639487 2.84580837,15.030321 C2.84580837,15.4966933 3.27585139,15.8740302 3.80728699,15.8740302 L19.1907679,15.8740302 C19.7222035,15.8740302 20.1522466,15.4966933 20.1522466,15.030321 C20.1522466,14.5639487 19.7222389,14.1866117 19.1908033,14.1866117 Z M11.4990451,19.2488052 L3.80728699,19.2488052 C3.27588678,19.2488052 2.84580837,19.6261422 2.84580837,20.0925145 C2.84580837,20.5588868 3.27585139,20.9378686 3.80728699,20.9378686 L11.4990451,20.9378686 C12.0323551,20.9378686 12.4623628,20.5588557 12.4623628,20.0925145 C12.4623628,19.6261733 12.0323905,19.2488052 11.4990451,19.2488052 Z M21.9390909,0 L3.05903474,0 C1.37270729,0 0,1.08924675 0,2.42564475 L0,24.5727105 C0,25.9107843 1.37270726,27 3.05903474,27 L15.38532,27 L17.3082772,27 L18.0105629,27 L25,21.3923917 L25,2.4256758 C25,1.08924678 23.6272927,0 21.9390909,0 Z M17.3082772,25.2763964 L17.3082772,22.7815468 C17.3082772,22.3168193 17.7382849,21.9378375 18.2678814,21.9378375 L21.4696155,21.9378375 L17.3082772,25.2763964 Z M23.0770781,20.2488052 L18.2678814,20.2488052 C16.677288,20.2488052 15.38532,21.3841678 15.38532,22.7815468 L15.38532,25.3126436 L3.05903474,25.3126435 C2.4430759,25.3126435 1.92292186,24.9731985 1.92292186,24.5727415 L1.9229219,2.4256758 C1.9229219,2.02524984 2.44307593,1.68744959 3.05903477,1.68744959 L21.9390909,1.68744959 C22.5550144,1.68744959 23.0770782,2.02524984 23.0770782,2.4256758 L23.0770781,20.2488052 Z" id="path-1"></path>
        <path d="M42.7584448,38.5172281 L37.2410512,38.5172281 C37.1078034,38.5172281 37,38.6250315 37,38.7582792 C37,38.891527 37.1078034,38.9993304 37.2410512,38.9993304 L42.7584448,38.9993304 C42.8916926,38.9993304 42.999496,38.891527 42.999496,38.7582792 C42.999496,38.6250315 42.8916926,38.5172281 42.7584448,38.5172281 Z M38.5534409,37.7271159 L40.1303174,37.059538 C40.1557617,37.0488246 40.1785276,37.0334241 40.1986152,37.0140061 L42.8582132,34.3544081 C43.0463671,34.1662543 43.0477063,33.8595836 42.8595524,33.6714298 L42.3285702,33.1404476 C42.1404164,32.9522937 41.8337457,32.9536329 41.6455919,33.1417868 L38.9859939,35.8013848 C38.9665759,35.8208028 38.9511754,35.8442383 38.940462,35.8696826 L38.2722146,37.4458895 C38.2347177,37.5342749 38.2608316,37.6233299 38.3177464,37.6809144 C38.3746613,37.7384988 38.4643859,37.7646127 38.5534409,37.7271159 Z M41.9864115,33.4826063 L41.9877507,33.4812672 L42.5180633,34.0115798 L42.5167241,34.0129189 L42.1015804,34.4280626 L41.5712678,33.89775 L41.9864115,33.4826063 Z M39.3636407,36.1053771 L41.2304482,34.2385696 L41.7607608,34.7688822 L39.8939533,36.6356897 L38.9739413,37.0253891 L39.3636407,36.1053771 Z" id="path-2"></path>
    </defs>
    <g id="icon" stroke="none" stroke-width="1" fill="none" fill-rule="evenodd">
        <g id="销项管理-销项发票采集">
            <circle id="Oval-Copy" fill="#05DCAC" transform="translate(30.000000, 30.000000) scale(-1, 1) translate(-30.000000, -30.000000) " cx="30" cy="30" r="30"></circle>
            <g id="Group-32" transform="translate(17.000000, 15.000000)">
                <g id="Shape" fill-rule="nonzero" transform="translate(12.500000, 13.500000) scale(-1, 1) rotate(-180.000000) translate(-12.500000, -13.500000) ">
                    <use fill="#FFFFFF" fill-rule="evenodd" xlink:href="#path-1"></use>
                    <path stroke="#05DCAC" stroke-width="0.2" d="M19.1908033,14.2866117 L3.80728699,14.2866117 C3.32839396,14.2866117 2.94580837,14.6223182 2.94580837,15.030321 C2.94580837,15.4383351 3.32837128,15.7740302 3.80728699,15.7740302 L19.1907679,15.7740302 C19.6696836,15.7740302 20.0522466,15.4383351 20.0522466,15.030321 C20.0522466,14.6222996 19.6697113,14.2866117 19.1908033,14.2866117 Z M11.4990451,19.3488052 L3.80728699,19.3488052 C3.32839396,19.3488052 2.94580837,19.6845117 2.94580837,20.0925145 C2.94580837,20.5009105 3.32877881,20.8378686 3.80728699,20.8378686 L11.4990451,20.8378686 C11.9791425,20.8378686 12.3623628,20.5011186 12.3623628,20.0925145 C12.3623628,19.6842816 11.9795731,19.3488052 11.4990451,19.3488052 Z M21.9390909,0.1 L3.05903474,0.1 C1.42384388,0.1 0.1,1.14996355 0.1,2.42564475 L0.1,24.5727105 C0.1,25.8498144 1.42351625,26.9 3.05903474,26.9 L17.3082772,26.9 L17.9479842,26.9220006 L24.9,21.3923917 L24.9,2.4256758 C24.9,1.14974934 23.5758781,0.1 21.9390909,0.1 Z M17.2082772,25.2763964 L17.2082772,22.7815468 C17.2082772,22.258227 17.6860579,21.8378375 18.2678814,21.8378375 L21.4696155,21.8378375 L21.5321934,22.0158376 L17.3708551,25.3543964 L17.2082772,25.2763964 Z M23.0770781,20.3488052 L18.2678814,20.3488052 C16.7299181,20.3488052 15.48532,21.4424173 15.48532,22.7815468 L15.48532,25.3126436 L15.38532,25.4126436 L3.05903474,25.4126435 C2.39492033,25.4126435 1.82292186,25.0398867 1.82292186,24.5727415 L1.8229219,2.4256758 C1.8229219,1.95877453 2.39448146,1.58744959 3.05903477,1.58744959 L21.9390909,1.58744959 C22.6039528,1.58744959 23.1770782,1.95894302 23.1770782,2.4256758 L23.1770781,20.2488052 L23.0770781,20.3488052 Z"></path>
                </g>
                <path d="M6.77160494,17.0064586 L7.40740741,17.0064586 L7.40740741,18.7244349 L8.54320988,18.7244349 L8.54320988,22.1410118 C8.54320988,22.6576964 8.32716049,22.9224973 7.90123457,22.9224973 L7.31481481,22.9224973 L7.14814815,22.2831001 L7.69753086,22.3153929 C7.83333333,22.3153929 7.90123457,22.2055974 7.90123457,21.992465 L7.90123457,21.5726588 L6.27160494,21.5726588 L6.27160494,22.9354144 L5.62962963,22.9354144 L5.62962963,18.7244349 L6.77160494,18.7244349 L6.77160494,17.0064586 Z M6.27160494,20.4682454 L6.27160494,21.0043057 L7.90123457,21.0043057 L7.90123457,20.4682454 L6.27160494,20.4682454 Z M7.90123457,19.8998924 L7.90123457,19.3638321 L6.27160494,19.3638321 L6.27160494,19.8998924 L7.90123457,19.8998924 Z M6.00617284,17.2518837 C6.19135802,17.5683531 6.37037037,17.9171152 6.54320988,18.3046286 L6.02469136,18.5758881 C5.85185185,18.1883746 5.66666667,17.8331539 5.4691358,17.5231432 L6.00617284,17.2518837 Z M8.17283951,17.1808396 L8.7037037,17.452099 C8.55555556,17.8396125 8.37037037,18.2142088 8.13580247,18.5758881 L7.61728395,18.2917115 C7.85185185,17.9171152 8.03703704,17.5489774 8.17283951,17.1808396 Z M3.80246914,17 L4.41975309,17.1356297 C4.37654321,17.3164693 4.33333333,17.4843918 4.28395062,17.6458558 L5.30864198,17.6458558 L5.30864198,18.285253 L4.07407407,18.285253 C3.98148148,18.5242196 3.88271605,18.7502691 3.78395062,18.9569429 L5.2037037,18.9569429 L5.2037037,19.5575888 L4.63580247,19.5575888 L4.63580247,20.1646932 L5.41358025,20.1646932 L5.41358025,20.7847147 L4.63580247,20.7847147 L4.63580247,22.0441335 C4.88888889,21.9407966 5.14197531,21.818084 5.38888889,21.6630786 L5.5,22.2508073 C5.07407407,22.4833154 4.58641975,22.6770721 4.03703704,22.8320775 L3.77160494,22.2508073 C3.92592593,22.1926803 4.00617284,22.1022605 4.00617284,21.9860065 L4.00617284,20.7847147 L3.22839506,20.7847147 L3.22839506,20.1646932 L4.00617284,20.1646932 L4.00617284,19.5575888 L3.70987654,19.5575888 L3.70987654,19.1054898 C3.64814815,19.2217438 3.58641975,19.3315393 3.52469136,19.4348762 L3,19.0861141 C3.38271605,18.4337998 3.64814815,17.7362756 3.80246914,17 Z M9.97530864,18.2012917 L9.31481481,18.2012917 L9.31481481,17.5425188 L11.2777778,17.5425188 L11.2777778,18.2012917 L10.6296296,18.2012917 L10.6296296,20.8428418 C10.8641975,20.7588805 11.0802469,20.6749193 11.2901235,20.590958 L11.2901235,21.262648 C10.7469136,21.4951561 10.1296296,21.714747 9.42592593,21.9149623 L9.2345679,21.2497309 C9.49382716,21.1851453 9.74074074,21.1141012 9.97530864,21.0495156 L9.97530864,18.2012917 Z M11.4506173,17.1872982 L14.9320988,17.1872982 L14.9320988,17.846071 L13.5061728,17.846071 C13.4814815,18.0139935 13.4506173,18.181916 13.4135802,18.3369214 L14.7037037,18.3369214 L14.7037037,21.4951561 L14.0740741,21.4951561 L14.0740741,18.9569429 L12.2901235,18.9569429 L12.2901235,21.4951561 L11.6666667,21.4951561 L11.6666667,18.3369214 L12.7777778,18.3369214 C12.8148148,18.1754575 12.845679,18.0139935 12.8703704,17.846071 L11.4506173,17.846071 L11.4506173,17.1872982 Z M13.7839506,21.4370291 C14.2654321,21.7987083 14.6666667,22.1603875 15,22.5156082 L14.537037,23 C14.2592593,22.6512379 13.8641975,22.270183 13.3518519,21.8697524 L13.7839506,21.4370291 Z M12.845679,19.247578 L13.4876543,19.247578 L13.4876543,20.3842842 C13.4506173,21.088267 13.2654321,21.65662 12.9320988,22.0828848 C12.6049383,22.4703983 12.0740741,22.7739505 11.3333333,22.9870829 L10.9814815,22.4122713 C11.6975309,22.2055974 12.1851852,21.9537137 12.4382716,21.65662 C12.6790123,21.3336921 12.8148148,20.9074273 12.845679,20.3842842 L12.845679,19.247578 Z" id="销项" fill="#FFFFFF"></path>
            </g>
            <circle id="Oval-10" fill="#05DCAC" cx="39.5" cy="35.5" r="7.5"></circle>
            <circle id="Oval-11" stroke="#FFFFFF" stroke-width="1.5" fill="#05DCAC" cx="40" cy="36" r="6"></circle>
            <g id="Shape" fill-rule="nonzero">
                <use fill="#FFFFFF" fill-rule="evenodd" xlink:href="#path-2"></use>
                <path stroke="#FFFFFF" stroke-width="0.2" d="M42.7584448,38.4172281 C42.9469211,38.4172281 43.099496,38.569803 43.099496,38.7582792 C43.099496,38.9467554 42.9469211,39.0993304 42.7584448,39.0993304 L37.2410512,39.0993304 C37.052575,39.0993304 36.9,38.9467554 36.9,38.7582792 C36.9,38.569803 37.052575,38.4172281 37.2410512,38.4172281 L42.7584448,38.4172281 Z M38.5924266,37.8192034 L38.5922466,37.8192794 C38.4694817,37.8709699 38.3355807,37.8412141 38.2466235,37.7512103 C38.1578222,37.6613644 38.1284806,37.5286417 38.180147,37.4068566 L38.8482985,35.8308769 C38.8641035,35.7933399 38.886826,35.7591313 38.9152832,35.7306741 L41.5748812,33.0710761 C41.8022574,32.8436999 42.1722426,32.8426986 42.3992809,33.0697369 L42.9302631,33.6007191 C43.1573014,33.8277574 43.1563001,34.1977426 42.9289239,34.4251188 L40.2681174,37.085905 C40.2390036,37.1140483 40.2058275,37.1362471 40.1693031,37.1516256 L38.5924266,37.8192034 Z M41.9877507,33.6226885 L41.7126891,33.89775 L42.1015804,34.2866413 L42.3766419,34.0115798 L41.9877507,33.6226885 Z M39.448124,36.1623152 L39.1613036,36.8394479 L39.8232426,36.564979 L41.6193394,34.7688822 L41.2304482,34.379991 L39.448124,36.1623152 Z"></path>
            </g>
        </g>
    </g>
</svg>