<?xml version="1.0" encoding="UTF-8"?>
<svg width="30px" height="30px" viewBox="0 0 30 30" version="1.1" xmlns="http://www.w3.org/2000/svg" xmlns:xlink="http://www.w3.org/1999/xlink">
    <!-- Generator: Sketch 48.2 (47327) - http://www.bohemiancoding.com/sketch -->
    <title>Combined shape 2605</title>
    <desc>Created with Sketch.</desc>
    <defs></defs>
    <g id="Artboard" stroke="none" stroke-width="1" fill="none" fill-rule="evenodd" transform="translate(-50.000000, -288.000000)">
        <g id="销项管理" transform="translate(14.000000, 252.000000)" fill="#FFFFFF">
            <g id="01">
                <path d="M52.156204,58.483128 L52.156204,62.531168 L49.843694,62.531168 L49.843694,58.4825756 C48.7225223,58.4817284 47.6004877,58.4806359 46.480074,58.485066 C45.990372,58.488942 45.694844,58.196712 45.591008,57.898566 C45.399418,57.35885 45.728334,56.79377 46.282058,56.704214 C46.352404,56.694558 46.426694,56.690512 46.501256,56.690512 L49.843694,56.690512 L49.843694,53.312578 L52.156204,53.312578 L52.156204,56.690512 L55.50687,56.690512 C55.990146,56.690512 56.31981,56.930144 56.436974,57.362726 C56.581984,57.892752 56.198668,58.451848 55.661366,58.475376 C55.312424,58.492648 54.962734,58.483128 54.613826,58.483128 L52.156204,58.483128 Z M65.997366,61.727102 C65.997366,62.268926 66.003894,62.705214 65.993626,63.247174 C65.97105,64.410348 65.248414,65.431232 64.177278,65.820906 C63.956142,65.904784 63.720794,65.94147 63.489152,66.000018 L38.508298,66.000018 C38.474944,65.990498 38.444378,65.976762 38.41116,65.972886 C37.309458,65.793502 36.557446,65.171948 36.16104,64.108156 C36.08777,63.903714 36.053362,63.679756 35.999982,63.467256 L35.999982,51.764932 C36.046834,51.571982 36.081208,51.378998 36.141286,51.19006 C36.540378,49.98187 37.564832,49.243526 38.847584,49.243526 C38.97913,49.243526 39.052536,49.206398 39.116456,49.08376 C41.346414,44.93933 43.582016,40.797076 45.809186,36.652612 C45.979866,36.333148 46.191346,36.085628 46.550794,35.999948 L46.812696,35.999948 C46.924216,36.044794 47.041516,36.079678 47.145216,36.138226 C50.301572,37.885996 53.458982,39.631658 56.6151,41.383304 C57.131764,41.67193 57.269974,42.186316 56.98111,42.708624 C56.917326,42.821572 56.853678,42.93452 56.782958,43.059232 C56.8497,43.092314 56.886896,43.123322 56.941194,43.150726 C59.6343,44.573048 60.12424,44.908322 62.609742,46.305144 C63.19376,46.687066 63.310924,47.283562 63.004856,47.864112 C62.760124,48.331714 62.605764,48.615886 62.360624,49.08376 C62.336756,49.12864 62.317002,49.175424 62.286606,49.241588 L63.146126,49.241588 C63.667414,49.241588 64.160074,49.344676 64.611016,49.621708 C65.534218,50.196138 65.993626,51.040154 65.997366,52.142672 L65.997366,61.727102 Z M61.165014,47.569672 C58.58982,46.12814 58.367562,46.014886 55.896476,44.631596 C55.033318,46.164928 54.173662,47.68874 53.30333,49.237712 L54.149658,49.237712 C56.927968,49.237712 57.35375,49.237712 60.134508,49.241588 C60.234876,49.241588 60.302366,49.22384 60.352822,49.120888 C60.500518,48.826414 60.657734,48.534218 60.81223,48.241716 C60.917188,48.0471 61.05414,47.778296 61.165014,47.569672 Z M47.03101,38.108016 C45.032286,41.81813 43.033052,45.528074 41.033818,49.237712 L41.212046,49.237712 C44.516132,49.237712 47.81726,49.237712 51.12121,49.241588 C51.238374,49.241588 51.302294,49.202522 51.359414,49.101372 C52.560804,46.963928 53.763248,44.827266 54.966576,42.69074 C54.989424,42.649736 55.00945,42.605196 55.040118,42.550524 C52.370642,41.067546 49.707932,39.590994 47.03101,38.108016 Z M64.245006,63.106822 L64.245006,52.166234 C64.245006,51.901136 64.194448,51.653786 64.02931,51.441422 C63.794064,51.133586 63.475824,51.035972 63.106108,51.035972 L38.918066,51.035972 C38.787404,51.035972 38.653172,51.035972 38.528324,51.071128 C38.034644,51.197812 37.756286,51.593266 37.756286,52.156544 L37.756286,63.081492 C37.756286,63.77499 38.179518,64.205634 38.85826,64.205634 L63.149866,64.205634 C63.264344,64.205634 63.385078,64.194142 63.495952,64.162862 C63.965764,64.032166 64.245006,63.642662 64.245006,63.106822 Z" id="Combined-shape-2605"></path>
            </g>
        </g>
    </g>
</svg>