<svg width="60" height="60" xmlns="http://www.w3.org/2000/svg" xmlns:xlink="http://www.w3.org/1999/xlink"><defs><path d="M19.19 14.187H3.808c-.531 0-.961.377-.961.843 0 .467.43.844.961.844h15.384c.531 0 .961-.377.961-.844 0-.466-.43-.843-.961-.843zM11.5 19.249H3.807c-.531 0-.961.377-.961.844 0 .466.43.845.961.845H11.5c.533 0 .963-.38.963-.845 0-.467-.43-.844-.963-.844zM21.939 0H3.06C1.373 0 0 1.09 0 2.426v22.147C0 25.91 1.373 27 3.059 27h14.952L25 21.392V2.426C25 1.089 23.627 0 21.94 0zm-4.63 25.276v-2.494c0-.465.43-.844.959-.844h3.202l-4.162 3.338zm5.768-5.027h-4.81c-1.59 0-2.882 1.135-2.882 2.533v2.53H3.06c-.616 0-1.136-.339-1.136-.74V2.427c0-.4.52-.739 1.136-.739h18.88c.616 0 1.138.338 1.138.739v17.823z" id="a"/><path d="M25.758 23.517h-5.517a.24.24 0 1 0 0 .482h5.517a.24.24 0 1 0 0-.482zm-4.205-.79l1.577-.667a.222.222 0 0 0 .069-.046l2.66-2.66a.484.484 0 0 0 0-.683l-.53-.53a.484.484 0 0 0-.683 0l-2.66 2.66a.214.214 0 0 0-.046.069l-.668 1.576a.212.212 0 0 0 .046.235.212.212 0 0 0 .235.046zm3.433-4.244l.002-.002.53.53-.001.002-.415.415-.53-.53.414-.415zm-2.622 2.622l1.866-1.866.53.53-1.866 1.867-.92.39.39-.92z" id="b"/></defs><g fill="none" fill-rule="evenodd"><circle fill="#05DCAC" transform="matrix(-1 0 0 1 60 0)" cx="30" cy="30" r="30"/><g transform="translate(15 16)"><g fill-rule="nonzero" transform="matrix(1 0 0 -1 0 27)"><use fill="#FFF" fill-rule="evenodd" xlink:href="#a"/><path stroke="#05DCAC" stroke-width=".2" d="M19.19 14.287H3.808c-.479 0-.861.335-.861.743s.382.744.861.744h15.384c.479 0 .861-.336.861-.744s-.382-.743-.861-.743zM11.5 19.349H3.807c-.479 0-.861.336-.861.744s.383.745.861.745H11.5c.48 0 .863-.337.863-.745 0-.409-.382-.744-.863-.744zM21.939.1H3.06C1.424.1.1 1.15.1 2.426v22.147C.1 25.85 1.424 26.9 3.059 26.9h14.25l.639.022 6.952-5.53V2.426C24.9 1.15 23.576.1 21.94.1zm-4.73 25.176v-2.494c0-.524.477-.944 1.059-.944h3.202l.062.178-4.161 3.338-.163-.078zm5.868-4.927h-4.81c-1.537 0-2.782 1.093-2.782 2.433v2.53l-.1.1H3.06c-.664 0-1.236-.372-1.236-.84V2.427c0-.467.571-.839 1.236-.839h18.88c.665 0 1.238.372 1.238.839v17.823l-.1.1z"/></g><path d="M6.772 17.006h.635v1.718h1.136v3.417c0 .517-.216.781-.642.781h-.586l-.167-.639.55.032c.135 0 .203-.11.203-.323v-.42h-1.63v1.363H5.63v-4.21h1.142v-1.719zm-.5 3.462v.536h1.63v-.536h-1.63zm1.63-.568v-.536h-1.63v.536h1.63zm-1.896-2.648c.185.316.364.665.537 1.053l-.518.27a8.142 8.142 0 0 0-.556-1.052l.537-.271zm2.167-.071l.53.271a5.969 5.969 0 0 1-.567 1.124l-.519-.284c.235-.375.42-.743.556-1.111zM3.803 17l.617.136c-.043.18-.087.348-.136.51h1.025v.64H4.074a9.657 9.657 0 0 1-.29.67h1.42v.602h-.568v.607h.778v.62h-.778v1.26c.253-.104.506-.227.753-.382l.111.588a7.034 7.034 0 0 1-1.463.581l-.265-.581c.154-.058.234-.149.234-.265v-1.201h-.778v-.62h.778v-.607H3.71v-.453a7.516 7.516 0 0 1-.185.33L3 19.086A6.89 6.89 0 0 0 3.802 17zm6.172 1.201h-.66v-.658h1.963v.658h-.648v2.642c.234-.084.45-.168.66-.252v.672c-.543.232-1.16.452-1.864.652l-.191-.665c.259-.065.506-.136.74-.2V18.2zm1.476-1.014h3.481v.66h-1.426a5.727 5.727 0 0 1-.092.49h1.29v3.158h-.63v-2.538H12.29v2.538h-.623v-3.158h1.11c.038-.162.069-.323.093-.49h-1.42v-.66zm2.333 4.25c.481.362.883.723 1.216 1.079l-.463.484c-.278-.349-.673-.73-1.185-1.13l.432-.433zm-.938-2.19h.642v1.137c-.037.704-.223 1.273-.556 1.699-.327.387-.858.691-1.599.904l-.352-.575c.717-.206 1.204-.458 1.457-.755.241-.323.377-.75.408-1.273v-1.136z" fill="#FFF"/><circle fill="#05DCAC" cx="22.5" cy="20.5" r="7.5"/><circle stroke="#FFF" stroke-width="1.5" fill="#05DCAC" cx="23" cy="21" r="6"/><g fill-rule="nonzero"><use fill="#FFF" fill-rule="evenodd" xlink:href="#b"/><path stroke="#FFF" stroke-width=".2" d="M25.758 23.417a.34.34 0 1 1 0 .682h-5.517a.34.34 0 1 1 0-.682h5.517zm-4.166-.598h0a.311.311 0 0 1-.345-.068.312.312 0 0 1-.067-.344l.668-1.576a.314.314 0 0 1 .067-.1l2.66-2.66a.584.584 0 0 1 .824-.001l.531.53a.584.584 0 0 1-.001.825l-2.66 2.66a.321.321 0 0 1-.1.067l-1.577.667zm3.396-4.196l-.275.275.389.389.275-.275-.39-.39zm-2.54 2.54l-.287.676.662-.274 1.796-1.796-.389-.389-1.782 1.782z"/></g></g></g></svg>