<svg width="60" height="60" xmlns="http://www.w3.org/2000/svg" xmlns:xlink="http://www.w3.org/1999/xlink"><defs><path d="M19.19 14.187H3.808c-.531 0-.961.377-.961.843 0 .467.43.844.961.844h15.384c.531 0 .961-.377.961-.844 0-.466-.43-.843-.961-.843zM11.5 19.249H3.807c-.531 0-.961.377-.961.844 0 .466.43.845.961.845H11.5c.533 0 .963-.38.963-.845 0-.467-.43-.844-.963-.844zM21.939 0H3.06C1.373 0 0 1.09 0 2.426v22.147C0 25.91 1.373 27 3.059 27h14.952L25 21.392V2.426C25 1.089 23.627 0 21.94 0zm-4.63 25.276v-2.494c0-.465.43-.844.959-.844h3.202l-4.162 3.338zm5.768-5.027h-4.81c-1.59 0-2.882 1.135-2.882 2.533v2.53H3.06c-.616 0-1.136-.339-1.136-.74V2.427c0-.4.52-.739 1.136-.739h18.88c.616 0 1.138.338 1.138.739v17.823z" id="a"/><path d="M23 16a4 4 0 0 0-4 4c0 .918.313 1.761.833 2.436l.3-.313a3.555 3.555 0 0 1-.693-1.837h1.727c.13.843.828 1.491 1.69 1.558v1.722a3.552 3.552 0 0 1-1.787-.564l-.272.336A4 4 0 1 0 23 16zm-.143 5.416a1.426 1.426 0 0 1-1.257-1.13h1.257v1.13zm0-1.559h-1.271a1.42 1.42 0 0 1 1.271-1.272v1.272zm0-1.707a1.855 1.855 0 0 0-1.707 1.707h-1.714a3.566 3.566 0 0 1 3.421-3.421v1.714zm.429-1.707a3.567 3.567 0 0 1 3.278 3.414H24.85a1.856 1.856 0 0 0-1.564-1.69v-1.724zm0 2.159c.604.123 1.065.63 1.128 1.255h-1.128v-1.255zm0 1.684H24.4c-.114.559-.555.997-1.114 1.111v-1.111zm0 3.272V21.83a1.854 1.854 0 0 0 1.547-1.545h1.724a3.569 3.569 0 0 1-3.271 3.272z" id="b"/></defs><g fill="none" fill-rule="evenodd"><circle fill="#05DCAC" transform="matrix(-1 0 0 1 60 0)" cx="30" cy="30" r="30"/><circle fill="#05DCAC" cx="39.5" cy="35.5" r="7.5"/><g transform="translate(16 17)"><g fill-rule="nonzero" transform="matrix(1 0 0 -1 0 27)"><use fill="#FFF" fill-rule="evenodd" xlink:href="#a"/><path stroke="#05DCAC" stroke-width=".2" d="M19.19 14.287H3.808c-.479 0-.861.335-.861.743s.382.744.861.744h15.384c.479 0 .861-.336.861-.744s-.382-.743-.861-.743zM11.5 19.349H3.807c-.479 0-.861.336-.861.744s.383.745.861.745H11.5c.48 0 .863-.337.863-.745 0-.409-.382-.744-.863-.744zM21.939.1H3.06C1.424.1.1 1.15.1 2.426v22.147C.1 25.85 1.424 26.9 3.059 26.9h14.25l.639.022 6.952-5.53V2.426C24.9 1.15 23.576.1 21.94.1zm-4.73 25.176v-2.494c0-.524.477-.944 1.059-.944h3.202l.062.178-4.161 3.338-.163-.078zm5.868-4.927h-4.81c-1.537 0-2.782 1.093-2.782 2.433v2.53l-.1.1H3.06c-.664 0-1.236-.372-1.236-.84V2.427c0-.467.571-.839 1.236-.839h18.88c.665 0 1.238.372 1.238.839v17.823l-.1.1z"/></g><path d="M6.772 17.006h.635v1.718h1.136v3.417c0 .517-.216.781-.642.781h-.586l-.167-.639.55.032c.135 0 .203-.11.203-.323v-.42h-1.63v1.363H5.63v-4.21h1.142v-1.719zm-.5 3.462v.536h1.63v-.536h-1.63zm1.63-.568v-.536h-1.63v.536h1.63zm-1.896-2.648c.185.316.364.665.537 1.053l-.518.27a8.142 8.142 0 0 0-.556-1.052l.537-.271zm2.167-.071l.53.271a5.969 5.969 0 0 1-.567 1.124l-.519-.284c.235-.375.42-.743.556-1.111zM3.803 17l.617.136c-.043.18-.087.348-.136.51h1.025v.64H4.074a9.657 9.657 0 0 1-.29.67h1.42v.602h-.568v.607h.778v.62h-.778v1.26c.253-.104.506-.227.753-.382l.111.588a7.034 7.034 0 0 1-1.463.581l-.265-.581c.154-.058.234-.149.234-.265v-1.201h-.778v-.62h.778v-.607H3.71v-.453a7.516 7.516 0 0 1-.185.33L3 19.086A6.89 6.89 0 0 0 3.802 17zm6.172 1.201h-.66v-.658h1.963v.658h-.648v2.642c.234-.084.45-.168.66-.252v.672c-.543.232-1.16.452-1.864.652l-.191-.665c.259-.065.506-.136.74-.2V18.2zm1.476-1.014h3.481v.66h-1.426a5.727 5.727 0 0 1-.092.49h1.29v3.158h-.63v-2.538H12.29v2.538h-.623v-3.158h1.11c.038-.162.069-.323.093-.49h-1.42v-.66zm2.333 4.25c.481.362.883.723 1.216 1.079l-.463.484c-.278-.349-.673-.73-1.185-1.13l.432-.433zm-.938-2.19h.642v1.137c-.037.704-.223 1.273-.556 1.699-.327.387-.858.691-1.599.904l-.352-.575c.717-.206 1.204-.458 1.457-.755.241-.323.377-.75.408-1.273v-1.136z" fill="#FFF"/><circle stroke="#FFF" stroke-width="1.5" fill="#05DCAC" cx="23" cy="20" r="6"/><g fill-rule="nonzero"><use fill="#FFF" fill-rule="evenodd" xlink:href="#b"/><path stroke="#FFF" stroke-width=".2" d="M22.757 23.46v-1.526a1.952 1.952 0 0 1-1.674-1.548H19.55c.069.61.299 1.186.663 1.678l-.008.129-.3.313-.152-.009A4.077 4.077 0 0 1 18.9 20a4.1 4.1 0 1 1 1.843 3.421l-.022-.146.27-.336.133-.021a3.45 3.45 0 0 0 1.633.542zm0-2.16v-.914h-1.029c.143.47.54.824 1.029.915zm0-1.543V18.7c-.536.1-.956.52-1.056 1.057h1.056zm0-1.698v-1.518a3.466 3.466 0 0 0-3.216 3.216h1.519a1.956 1.956 0 0 1 1.697-1.698zm.629-1.506v1.53c.821.164 1.45.84 1.554 1.674h1.519a3.468 3.468 0 0 0-3.073-3.204zm0 2.177v1.027h.913a1.327 1.327 0 0 0-.913-1.027zm0 1.656v.883a1.33 1.33 0 0 0 .885-.883h-.885zm0 3.062a3.47 3.47 0 0 0 3.061-3.062h-1.53a1.955 1.955 0 0 1-1.531 1.529v1.533z"/></g></g></g></svg>