<?xml version="1.0" encoding="UTF-8"?>
<svg width="60px" height="60px" viewBox="0 0 60 60" version="1.1" xmlns="http://www.w3.org/2000/svg" xmlns:xlink="http://www.w3.org/1999/xlink">
    <!-- Generator: Sketch 49.3 (51167) - http://www.bohemiancoding.com/sketch -->
    <title>销项管理-销项发票匹配</title>
    <desc>Created with Sketch.</desc>
    <defs>
        <path d="M19.1908033,14.1866117 L3.80728699,14.1866117 C3.27588678,14.1866117 2.84580837,14.5639487 2.84580837,15.030321 C2.84580837,15.4966933 3.27585139,15.8740302 3.80728699,15.8740302 L19.1907679,15.8740302 C19.7222035,15.8740302 20.1522466,15.4966933 20.1522466,15.030321 C20.1522466,14.5639487 19.7222389,14.1866117 19.1908033,14.1866117 Z M11.4990451,19.2488052 L3.80728699,19.2488052 C3.27588678,19.2488052 2.84580837,19.6261422 2.84580837,20.0925145 C2.84580837,20.5588868 3.27585139,20.9378686 3.80728699,20.9378686 L11.4990451,20.9378686 C12.0323551,20.9378686 12.4623628,20.5588557 12.4623628,20.0925145 C12.4623628,19.6261733 12.0323905,19.2488052 11.4990451,19.2488052 Z M21.9390909,0 L3.05903474,0 C1.37270729,0 0,1.08924675 0,2.42564475 L0,24.5727105 C0,25.9107843 1.37270726,27 3.05903474,27 L15.38532,27 L17.3082772,27 L18.0105629,27 L25,21.3923917 L25,2.4256758 C25,1.08924678 23.6272927,0 21.9390909,0 Z M17.3082772,25.2763964 L17.3082772,22.7815468 C17.3082772,22.3168193 17.7382849,21.9378375 18.2678814,21.9378375 L21.4696155,21.9378375 L17.3082772,25.2763964 Z M23.0770781,20.2488052 L18.2678814,20.2488052 C16.677288,20.2488052 15.38532,21.3841678 15.38532,22.7815468 L15.38532,25.3126436 L3.05903474,25.3126435 C2.4430759,25.3126435 1.92292186,24.9731985 1.92292186,24.5727415 L1.9229219,2.4256758 C1.9229219,2.02524984 2.44307593,1.68744959 3.05903477,1.68744959 L21.9390909,1.68744959 C22.5550144,1.68744959 23.0770782,2.02524984 23.0770782,2.4256758 L23.0770781,20.2488052 Z" id="path-1"></path>
        <path d="M40.0000431,32 C37.7909148,32 36,33.7908991 36,35.9999569 C36,36.9180045 36.3125657,37.7612136 36.8326365,38.4362868 L37.1331885,38.1233687 C36.7457374,37.6011599 36.4953387,36.9714001 36.4403925,36.285629 L38.1669788,36.285629 C38.2974918,37.1285013 38.9949085,37.777284 39.8570308,37.8439854 L39.8570308,39.5661077 C39.1998606,39.539825 38.5889906,39.3364784 38.0696872,39.0018512 L37.7984331,39.3379742 C38.4301273,39.7554358 39.1862023,39.9999373 40.0000431,39.9999373 C42.2091557,39.9999373 44,38.2090774 44,35.9999491 C44,33.7908991 42.2091479,32 40.0000431,32 Z M39.8570308,37.4158728 C39.2312652,37.3530402 38.723161,36.8916748 38.6001192,36.285629 L39.8570308,36.285629 L39.8570308,37.4158728 Z M39.8570308,35.8570622 L38.5857326,35.8570622 C38.6535853,35.1837981 39.1845734,34.6529666 39.8570308,34.584926 L39.8570308,35.8570622 Z M39.8570308,34.1496789 C38.9457811,34.2192545 38.2195521,34.9456793 38.1499765,35.8570622 L36.4358032,35.8570622 C36.5094826,33.9992188 37.9993206,32.5094121 39.8570308,32.4356152 L39.8570308,34.1496789 Z M40.2855977,32.4426401 C42.0764263,32.5848536 43.4923814,34.0468817 43.5641733,35.8570622 L41.8497964,35.8570622 C41.7838938,34.9939296 41.1287284,34.2973979 40.2855977,34.1667282 L40.2855977,32.4426401 Z M40.2855977,34.6015446 C40.8896307,34.7252677 41.3510353,35.2318056 41.4140402,35.8570622 L40.2855977,35.8570622 L40.2855977,34.6015446 Z M40.2855977,36.285629 L41.3996536,36.285629 C41.2860803,36.8450378 40.8448107,37.2833705 40.2855977,37.397312 L40.2855977,36.285629 Z M40.2855977,39.5576496 L40.2855977,37.8309458 C41.08123,37.7073246 41.7095409,37.0817155 41.8327941,36.2856368 L43.5569761,36.2856368 C43.4185297,38.0296953 42.0293038,39.419258 40.2855977,39.5576496 Z" id="path-2"></path>
    </defs>
    <g id="icon" stroke="none" stroke-width="1" fill="none" fill-rule="evenodd">
        <g id="销项管理-销项发票匹配">
            <circle id="Oval-Copy" fill="#05DCAC" transform="translate(30.000000, 30.000000) scale(-1, 1) translate(-30.000000, -30.000000) " cx="30" cy="30" r="30"></circle>
            <g id="Group-32" transform="translate(17.000000, 16.000000)">
                <g id="Shape" fill-rule="nonzero" transform="translate(12.500000, 13.500000) scale(-1, 1) rotate(-180.000000) translate(-12.500000, -13.500000) ">
                    <use fill="#FFFFFF" fill-rule="evenodd" xlink:href="#path-1"></use>
                    <path stroke="#05DCAC" stroke-width="0.2" d="M19.1908033,14.2866117 L3.80728699,14.2866117 C3.32839396,14.2866117 2.94580837,14.6223182 2.94580837,15.030321 C2.94580837,15.4383351 3.32837128,15.7740302 3.80728699,15.7740302 L19.1907679,15.7740302 C19.6696836,15.7740302 20.0522466,15.4383351 20.0522466,15.030321 C20.0522466,14.6222996 19.6697113,14.2866117 19.1908033,14.2866117 Z M11.4990451,19.3488052 L3.80728699,19.3488052 C3.32839396,19.3488052 2.94580837,19.6845117 2.94580837,20.0925145 C2.94580837,20.5009105 3.32877881,20.8378686 3.80728699,20.8378686 L11.4990451,20.8378686 C11.9791425,20.8378686 12.3623628,20.5011186 12.3623628,20.0925145 C12.3623628,19.6842816 11.9795731,19.3488052 11.4990451,19.3488052 Z M21.9390909,0.1 L3.05903474,0.1 C1.42384388,0.1 0.1,1.14996355 0.1,2.42564475 L0.1,24.5727105 C0.1,25.8498144 1.42351625,26.9 3.05903474,26.9 L17.3082772,26.9 L17.9479842,26.9220006 L24.9,21.3923917 L24.9,2.4256758 C24.9,1.14974934 23.5758781,0.1 21.9390909,0.1 Z M17.2082772,25.2763964 L17.2082772,22.7815468 C17.2082772,22.258227 17.6860579,21.8378375 18.2678814,21.8378375 L21.4696155,21.8378375 L21.5321934,22.0158376 L17.3708551,25.3543964 L17.2082772,25.2763964 Z M23.0770781,20.3488052 L18.2678814,20.3488052 C16.7299181,20.3488052 15.48532,21.4424173 15.48532,22.7815468 L15.48532,25.3126436 L15.38532,25.4126436 L3.05903474,25.4126435 C2.39492033,25.4126435 1.82292186,25.0398867 1.82292186,24.5727415 L1.8229219,2.4256758 C1.8229219,1.95877453 2.39448146,1.58744959 3.05903477,1.58744959 L21.9390909,1.58744959 C22.6039528,1.58744959 23.1770782,1.95894302 23.1770782,2.4256758 L23.1770781,20.2488052 L23.0770781,20.3488052 Z"></path>
                </g>
                <path d="M6.77160494,17.0064586 L7.40740741,17.0064586 L7.40740741,18.7244349 L8.54320988,18.7244349 L8.54320988,22.1410118 C8.54320988,22.6576964 8.32716049,22.9224973 7.90123457,22.9224973 L7.31481481,22.9224973 L7.14814815,22.2831001 L7.69753086,22.3153929 C7.83333333,22.3153929 7.90123457,22.2055974 7.90123457,21.992465 L7.90123457,21.5726588 L6.27160494,21.5726588 L6.27160494,22.9354144 L5.62962963,22.9354144 L5.62962963,18.7244349 L6.77160494,18.7244349 L6.77160494,17.0064586 Z M6.27160494,20.4682454 L6.27160494,21.0043057 L7.90123457,21.0043057 L7.90123457,20.4682454 L6.27160494,20.4682454 Z M7.90123457,19.8998924 L7.90123457,19.3638321 L6.27160494,19.3638321 L6.27160494,19.8998924 L7.90123457,19.8998924 Z M6.00617284,17.2518837 C6.19135802,17.5683531 6.37037037,17.9171152 6.54320988,18.3046286 L6.02469136,18.5758881 C5.85185185,18.1883746 5.66666667,17.8331539 5.4691358,17.5231432 L6.00617284,17.2518837 Z M8.17283951,17.1808396 L8.7037037,17.452099 C8.55555556,17.8396125 8.37037037,18.2142088 8.13580247,18.5758881 L7.61728395,18.2917115 C7.85185185,17.9171152 8.03703704,17.5489774 8.17283951,17.1808396 Z M3.80246914,17 L4.41975309,17.1356297 C4.37654321,17.3164693 4.33333333,17.4843918 4.28395062,17.6458558 L5.30864198,17.6458558 L5.30864198,18.285253 L4.07407407,18.285253 C3.98148148,18.5242196 3.88271605,18.7502691 3.78395062,18.9569429 L5.2037037,18.9569429 L5.2037037,19.5575888 L4.63580247,19.5575888 L4.63580247,20.1646932 L5.41358025,20.1646932 L5.41358025,20.7847147 L4.63580247,20.7847147 L4.63580247,22.0441335 C4.88888889,21.9407966 5.14197531,21.818084 5.38888889,21.6630786 L5.5,22.2508073 C5.07407407,22.4833154 4.58641975,22.6770721 4.03703704,22.8320775 L3.77160494,22.2508073 C3.92592593,22.1926803 4.00617284,22.1022605 4.00617284,21.9860065 L4.00617284,20.7847147 L3.22839506,20.7847147 L3.22839506,20.1646932 L4.00617284,20.1646932 L4.00617284,19.5575888 L3.70987654,19.5575888 L3.70987654,19.1054898 C3.64814815,19.2217438 3.58641975,19.3315393 3.52469136,19.4348762 L3,19.0861141 C3.38271605,18.4337998 3.64814815,17.7362756 3.80246914,17 Z M9.97530864,18.2012917 L9.31481481,18.2012917 L9.31481481,17.5425188 L11.2777778,17.5425188 L11.2777778,18.2012917 L10.6296296,18.2012917 L10.6296296,20.8428418 C10.8641975,20.7588805 11.0802469,20.6749193 11.2901235,20.590958 L11.2901235,21.262648 C10.7469136,21.4951561 10.1296296,21.714747 9.42592593,21.9149623 L9.2345679,21.2497309 C9.49382716,21.1851453 9.74074074,21.1141012 9.97530864,21.0495156 L9.97530864,18.2012917 Z M11.4506173,17.1872982 L14.9320988,17.1872982 L14.9320988,17.846071 L13.5061728,17.846071 C13.4814815,18.0139935 13.4506173,18.181916 13.4135802,18.3369214 L14.7037037,18.3369214 L14.7037037,21.4951561 L14.0740741,21.4951561 L14.0740741,18.9569429 L12.2901235,18.9569429 L12.2901235,21.4951561 L11.6666667,21.4951561 L11.6666667,18.3369214 L12.7777778,18.3369214 C12.8148148,18.1754575 12.845679,18.0139935 12.8703704,17.846071 L11.4506173,17.846071 L11.4506173,17.1872982 Z M13.7839506,21.4370291 C14.2654321,21.7987083 14.6666667,22.1603875 15,22.5156082 L14.537037,23 C14.2592593,22.6512379 13.8641975,22.270183 13.3518519,21.8697524 L13.7839506,21.4370291 Z M12.845679,19.247578 L13.4876543,19.247578 L13.4876543,20.3842842 C13.4506173,21.088267 13.2654321,21.65662 12.9320988,22.0828848 C12.6049383,22.4703983 12.0740741,22.7739505 11.3333333,22.9870829 L10.9814815,22.4122713 C11.6975309,22.2055974 12.1851852,21.9537137 12.4382716,21.65662 C12.6790123,21.3336921 12.8148148,20.9074273 12.845679,20.3842842 L12.845679,19.247578 Z" id="销项" fill="#FFFFFF"></path>
            </g>
            <circle id="Oval-10" fill="#05DCAC" cx="39.5" cy="35.5" r="7.5"></circle>
            <circle id="Oval-11" stroke="#FFFFFF" stroke-width="1.5" fill="#05DCAC" cx="40" cy="36" r="6"></circle>
            <g id="Shape" fill-rule="nonzero">
                <use fill="#FFFFFF" fill-rule="evenodd" xlink:href="#path-2"></use>
                <path stroke="#FFFFFF" stroke-width="0.2" d="M39.7570308,39.4604856 L39.7570308,37.9343735 C38.9221934,37.8303188 38.2473788,37.2049793 38.083191,36.385629 L36.550431,36.385629 C36.618753,36.9964133 36.848548,37.5719018 37.2134979,38.0637834 L37.2053099,38.19264 L36.9047579,38.505558 L36.7534186,38.4973156 C36.2034637,37.7834517 35.9,36.9144165 35.9,35.9999569 C35.9,33.7356624 37.7356946,31.9 40.0000431,31.9 C42.264359,31.9 44.1,33.7356534 44.1,35.9999491 C44.1,38.2643062 42.2643838,40.0999373 40.0000431,40.0999373 C39.1872579,40.0999373 38.4092286,39.8614887 37.7432989,39.4214021 L37.720613,39.2751727 L37.9918671,38.9390497 L38.1238534,38.9177915 C38.6116011,39.232085 39.1698214,39.4195501 39.7570308,39.4604856 Z M39.7570308,37.3007195 L39.7570308,36.385629 L38.7284153,36.385629 C38.8711112,36.855586 39.2683708,37.2103958 39.7570308,37.3007195 Z M39.7570308,35.7570622 L39.7570308,34.7002022 C39.2207225,34.8001149 38.8006415,35.220402 38.7009553,35.7570622 L39.7570308,35.7570622 Z M39.7570308,34.059218 L39.7570308,32.5412084 C38.0345822,32.660805 36.6608707,34.0345734 36.5413892,35.7570622 L38.0595134,35.7570622 C38.169417,34.870719 38.8708456,34.1691364 39.7570308,34.059218 Z M40.3855977,32.5525816 L40.3855977,34.0829414 C41.207175,34.2474834 41.8366871,34.9229031 41.9402514,35.7570622 L43.4585851,35.7570622 C43.3426154,34.0861374 42.0446374,32.7362691 40.3855977,32.5525816 Z M40.3855977,34.7300748 L40.3855977,35.7570622 L41.2988332,35.7570622 C41.2084549,35.2696723 40.8543477,34.873325 40.3855977,34.7300748 Z M40.3855977,36.385629 L40.3855977,37.2690047 C40.8093141,37.1406321 41.1432327,36.8078645 41.2713647,36.385629 L40.3855977,36.385629 Z M40.3855977,39.4477108 C41.9936018,39.2696791 43.2689738,37.9940345 43.4470368,36.3856368 L41.9165836,36.3856368 C41.7623343,37.1555126 41.1565167,37.7600575 40.3855977,37.9147029 L40.3855977,39.4477108 Z"></path>
            </g>
        </g>
    </g>
</svg>