<svg xmlns="http://www.w3.org/2000/svg" width="30" height="30" viewBox="0 0 30 30">
  <metadata><?xpacket begin="﻿" id="W5M0MpCehiHzreSzNTczkc9d"?>
<x:xmpmeta xmlns:x="adobe:ns:meta/" x:xmptk="Adobe XMP Core 5.6-c138 79.159824, 2016/09/14-01:09:01        ">
   <rdf:RDF xmlns:rdf="http://www.w3.org/1999/02/22-rdf-syntax-ns#">
      <rdf:Description rdf:about=""/>
   </rdf:RDF>
</x:xmpmeta>
                                                                                                    
                                                                                                    
                                                                                                    
                                                                                                    
                                                                                                    
                                                                                                    
                                                                                                    
                                                                                                    
                                                                                                    
                                                                                                    
                                                                                                    
                                                                                                    
                                                                                                    
                                                                                                    
                                                                                                    
                                                                                                    
                                                                                                    
                                                                                                    
                                                                                                    
                                                                                                    
                           
<?xpacket end="w"?></metadata>
<defs>
    <style>
      .cls-1 {
        fill: #fff;
        fill-rule: evenodd;
      }
    </style>
  </defs>
  <path id="形状_13" data-name="形状 13" class="cls-1" d="M80,313.727v-9.584a2.8,2.8,0,0,0-1.386-2.521,2.725,2.725,0,0,0-1.465-.38H76.287c0.03-.067.05-0.113,0.074-0.158,0.245-.468.4-0.752,0.644-1.22a1.117,1.117,0,0,0-.4-1.559c-2.485-1.4-2.975-1.732-5.669-3.154-0.054-.028-0.091-0.059-0.158-0.092l0.2-.35a0.909,0.909,0,0,0-.366-1.326q-4.734-2.626-9.47-5.245A2.883,2.883,0,0,0,60.813,288H60.551a1.14,1.14,0,0,0-.742.653q-3.341,6.216-6.693,12.431a0.259,0.259,0,0,1-.269.159,2.756,2.756,0,0,0-2.706,1.947c-0.06.189-.095,0.382-0.141,0.575v11.7c0.053,0.213.088,0.437,0.161,0.641a2.728,2.728,0,0,0,2.25,1.865,0.712,0.712,0,0,1,.1.027H77.489a6.065,6.065,0,0,0,.688-0.179,2.784,2.784,0,0,0,1.816-2.574c0.01-.542,0-0.978,0-1.52h0ZM75.165,299.57c-0.111.208-.248,0.477-0.353,0.672-0.154.292-.312,0.584-0.459,0.879a0.2,0.2,0,0,1-.218.121c-2.781,0-3.207,0-5.985,0H67.3c0.87-1.549,1.73-3.073,2.593-4.606,2.471,1.383,2.693,1.5,5.269,2.938h0Zm-14.134-9.462c2.677,1.483,5.34,2.96,8.009,4.443-0.031.054-.051,0.1-0.073,0.14q-1.8,3.2-3.607,6.41a0.238,0.238,0,0,1-.238.141q-4.956-.006-9.909,0H55.034l6-11.13h0Zm17.214,25a1.02,1.02,0,0,1-.749,1.056,1.306,1.306,0,0,1-.346.043H52.858a1.034,1.034,0,0,1-1.1-1.125V304.157a1.025,1.025,0,0,1,.772-1.086,1.449,1.449,0,0,1,.39-0.035H77.106a1.074,1.074,0,0,1,.923.4,1.134,1.134,0,0,1,.216.725v10.941Zm-8.738-6.416H60.5a1.572,1.572,0,0,0-.219.013,0.9,0.9,0,0,0,.2,1.781c1.5-.006,3.013,0,4.517,0h3.617c0.349,0,.7.01,1.048-0.008a0.9,0.9,0,0,0-.154-1.784h0Zm0,0-5.661-3.383h2.308v9.23H63.846v-9.23Z" transform="translate(-50 -288)"/>
</svg>
