<svg width="60" height="60" xmlns="http://www.w3.org/2000/svg" xmlns:xlink="http://www.w3.org/1999/xlink"><defs><rect id="a" x="0" y="7" width="30" height="18" rx="2"/></defs><g fill="none" fill-rule="evenodd"><circle fill="#1EC9C6" cx="30" cy="30" r="30"/><g transform="translate(15 16)"><use fill="#1EC9C6" xlink:href="#a"/><rect stroke="#FFF" stroke-width="1.5" x=".75" y="7.75" width="28.5" height="16.5" rx="2"/><g transform="translate(18 15)"><circle fill="#1EC9C6" cx="6.5" cy="6.5" r="6.5"/><path d="M2 5.085V4a1 1 0 0 1 1-1h7a1 1 0 0 1 1 1v1.085c-.477.206-.818.762-.818 1.415s.341 1.209.818 1.415V9a1 1 0 0 1-1 1H3a1 1 0 0 1-1-1V7.915c.477-.206.818-.762.818-1.415S2.477 5.291 2 5.085z" stroke="#FFF" fill="#1EC9C6"/><path d="M4.468 4.055c.363.286.672.573.925.86l-.413.407c-.21-.276-.512-.573-.908-.892l.396-.375zm3.133 4.962c-.297 0-.622-.006-.969-.011a4.073 4.073 0 0 1-.87-.094 1.181 1.181 0 0 1-.567-.38c-.072-.094-.138-.138-.204-.138-.104 0-.292.243-.567.738L4 8.742c.275-.441.518-.722.738-.843v-1.51H4.01v-.528h1.261V7.96l.055.055c.121.143.248.254.375.325.16.083.396.127.715.138.314.005.683.01 1.102.01.275 0 .55-.005.837-.005.28-.01.495-.022.644-.033l-.138.568h-1.26zM5.696 4.82h.584V4h.556v.82h.694v-.809h.561v.81h.634v.534H8.09v.93h.81v.54h-.81V8.29H7.53V6.825h-.826c-.154.622-.43 1.085-.832 1.388l-.347-.457c.287-.21.49-.518.612-.931h-.634v-.54h.744c.022-.176.033-.358.033-.556v-.374h-.584V4.82zm1.14.535v.242c0 .242-.017.473-.039.688h.733v-.93h-.694z" fill="#FFF"/></g><path d="M5 11h10v1.005h-3.248v.648h2.478v2.68H5.77v-2.68h2.478v-.648H5V11zm5.647 1.653v-.648H9.353v.648h1.294zm2.467 1.741v-.804h-1.362v.804h1.362zm-2.467 0v-.804H9.353v.804h1.294zm-2.4 0v-.804h-1.36v.804h1.36zm-1.952 1.519h7.488v.96H6.295v-.96zm-1.116 1.485h9.642v.994h-4.14v1.43c0 .758-.39 1.138-1.16 1.138H8.492l-.234-1.027c.312.033.614.056.893.056.268 0 .413-.146.413-.425v-1.172H5.179v-.994zm7.243 1.15c.993.514 1.83 1.016 2.522 1.519l-.815.815c-.58-.491-1.395-1.027-2.466-1.597l.759-.737zm-4.62.022l.747.682c-.736.625-1.64 1.16-2.712 1.63l-.703-.916c1.06-.402 1.953-.86 2.667-1.396zM19 11h8v1.5h-8zM19 14h8v1.5h-8z" fill="#FFF"/><rect fill="#FFF" x="5" y="4" width="20" height="1.5" rx=".75"/><rect fill="#FFF" x="8" width="14" height="2" rx="1"/></g></g></svg>