<?xml version="1.0" encoding="UTF-8"?>
<svg width="60px" height="60px" viewBox="0 0 60 60" version="1.1" xmlns="http://www.w3.org/2000/svg" xmlns:xlink="http://www.w3.org/1999/xlink">
    <!-- Generator: Sketch 49.3 (51167) - http://www.bohemiancoding.com/sketch -->
    <title>selfContainedProductAssociation</title>
    <desc>Created with Sketch.</desc>
    <defs>
        <rect id="path-1" x="0" y="7" width="30" height="18" rx="2"></rect>
    </defs>
    <g id="icon" stroke="none" stroke-width="1" fill="none" fill-rule="evenodd">
        <g id="selfContainedProductAssociation">
            <circle id="Oval-Copy" fill="#1EC9C6" cx="30" cy="30" r="30"></circle>
            <g id="Group-68" transform="translate(15.000000, 16.000000)">
                <g id="Rectangle-21">
                    <use fill="#1EC9C6" fill-rule="evenodd" xlink:href="#path-1"></use>
                    <rect stroke="#FFFFFF" stroke-width="1.5" x="0.75" y="7.75" width="28.5" height="16.5" rx="2"></rect>
                </g>
                <g id="Group-6" transform="translate(18.000000, 15.000000)">
                    <circle id="Oval-6" fill="#1EC9C6" cx="6.5" cy="6.5" r="6.5"></circle>
                    <g id="Group-5" transform="translate(2.000000, 3.000000)">
                        <path d="M0,2.08535285 L0,1 C-6.76353751e-17,0.44771525 0.44771525,1.01453063e-16 1,0 L8,0 C8.55228475,-1.01453063e-16 9,0.44771525 9,1 L9,2.08535285 C8.52333039,2.29127106 8.18181818,2.84689059 8.18181818,3.5 C8.18181818,4.15310941 8.52333039,4.70872894 9,4.91464715 L9,6 C9,6.55228475 8.55228475,7 8,7 L1,7 C0.44771525,7 6.76353751e-17,6.55228475 0,6 L0,4.91464715 C0.476669607,4.70872894 0.818181818,4.15310941 0.818181818,3.5 C0.818181818,2.84689059 0.476669607,2.29127106 9.71445147e-17,2.08535285 Z" id="Combined-Shape" stroke="#FFFFFF" fill="#1EC9C6"></path>
                        <path d="M2.46806167,1.05506608 C2.8314978,1.34140969 3.13986784,1.6277533 3.39317181,1.91409692 L2.98017621,2.3215859 C2.77092511,2.04625551 2.46806167,1.74889868 2.0715859,1.42951542 L2.46806167,1.05506608 Z M5.60132159,6.01651982 C5.30396476,6.01651982 4.97907489,6.01101322 4.63215859,6.00550661 C4.27973568,6 3.99339207,5.96696035 3.76211454,5.91189427 C3.54185022,5.84581498 3.35462555,5.719163 3.19493392,5.53193833 C3.12334802,5.43832599 3.05726872,5.39427313 2.99118943,5.39427313 C2.88656388,5.39427313 2.69933921,5.63656388 2.42400881,6.13215859 L2,5.74118943 C2.2753304,5.30066079 2.51762115,5.01982379 2.73788546,4.89867841 L2.73788546,3.38986784 L2.01101322,3.38986784 L2.01101322,2.86123348 L3.27202643,2.86123348 L3.27202643,4.9592511 L3.32709251,5.01431718 C3.44823789,5.15748899 3.57488987,5.26762115 3.70154185,5.33920705 C3.86123348,5.42180617 4.09801762,5.46585903 4.41740088,5.47687225 C4.73127753,5.48237885 5.10022026,5.48788546 5.51872247,5.48788546 C5.79405286,5.48788546 6.06938326,5.48237885 6.35572687,5.48237885 C6.63656388,5.47136564 6.85132159,5.46035242 7,5.44933921 L6.8623348,6.01651982 L5.60132159,6.01651982 Z M3.69603524,1.82048458 L4.27973568,1.82048458 L4.27973568,1 L4.83590308,1 L4.83590308,1.82048458 L5.52973568,1.82048458 L5.52973568,1.01101322 L6.09140969,1.01101322 L6.09140969,1.82048458 L6.7246696,1.82048458 L6.7246696,2.35462555 L6.09140969,2.35462555 L6.09140969,3.28524229 L6.90088106,3.28524229 L6.90088106,3.82488987 L6.09140969,3.82488987 L6.09140969,5.28964758 L5.52973568,5.28964758 L5.52973568,3.82488987 L4.70374449,3.82488987 C4.54955947,4.44713656 4.27422907,4.90969163 3.8722467,5.21255507 L3.5253304,4.75550661 C3.81167401,4.54625551 4.0154185,4.23788546 4.13656388,3.82488987 L3.50330396,3.82488987 L3.50330396,3.28524229 L4.24669604,3.28524229 C4.26872247,3.10903084 4.27973568,2.92731278 4.27973568,2.72907489 L4.27973568,2.35462555 L3.69603524,2.35462555 L3.69603524,1.82048458 Z M4.83590308,2.35462555 L4.83590308,2.5969163 C4.83590308,2.83920705 4.81938326,3.07048458 4.79735683,3.28524229 L5.52973568,3.28524229 L5.52973568,2.35462555 L4.83590308,2.35462555 Z" id="进" fill="#FFFFFF"></path>
                    </g>
                </g>
                <path d="M5,11 L15,11 L15,12.0049327 L11.7522321,12.0049327 L11.7522321,12.6525561 L14.2299107,12.6525561 L14.2299107,15.3323767 L5.77008929,15.3323767 L5.77008929,12.6525561 L8.24776786,12.6525561 L8.24776786,12.0049327 L5,12.0049327 L5,11 Z M10.6473214,12.6525561 L10.6473214,12.0049327 L9.35267857,12.0049327 L9.35267857,12.6525561 L10.6473214,12.6525561 Z M13.1138393,14.3944395 L13.1138393,13.5904933 L11.7522321,13.5904933 L11.7522321,14.3944395 L13.1138393,14.3944395 Z M10.6473214,14.3944395 L10.6473214,13.5904933 L9.35267857,13.5904933 L9.35267857,14.3944395 L10.6473214,14.3944395 Z M8.24776786,14.3944395 L8.24776786,13.5904933 L6.88616071,13.5904933 L6.88616071,14.3944395 L8.24776786,14.3944395 Z M6.29464286,15.9130045 L13.7834821,15.9130045 L13.7834821,16.8732736 L6.29464286,16.8732736 L6.29464286,15.9130045 Z M5.17857143,17.3980718 L14.8214286,17.3980718 L14.8214286,18.3918386 L10.6808036,18.3918386 L10.6808036,19.8210763 C10.6808036,20.5803588 10.2901786,20.96 9.52008929,20.96 L8.49330357,20.96 L8.25892857,19.9327355 C8.57142857,19.9662332 8.87276786,19.9885651 9.15178571,19.9885651 C9.41964286,19.9885651 9.56473214,19.8434081 9.56473214,19.5642601 L9.56473214,18.3918386 L5.17857143,18.3918386 L5.17857143,17.3980718 Z M12.421875,18.5481615 C13.4151786,19.0617938 14.2522321,19.5642601 14.9441964,20.0667265 L14.1294643,20.8818386 C13.5491071,20.3905382 12.734375,19.854574 11.6629464,19.2851121 L12.421875,18.5481615 Z M7.80133929,18.5704933 L8.54910714,19.2516144 C7.8125,19.8769059 6.90848214,20.41287 5.83705357,20.8818386 L5.13392857,19.9662332 C6.19419643,19.5642601 7.08705357,19.1064574 7.80133929,18.5704933 Z" id="票" fill="#FFFFFF"></path>
                <rect id="Rectangle-22" fill="#FFFFFF" x="19" y="11" width="8" height="1.5"></rect>
                <rect id="Rectangle-22-Copy" fill="#FFFFFF" x="19" y="14" width="8" height="1.5"></rect>
                <rect id="Rectangle-23" fill="#FFFFFF" x="5" y="4" width="20" height="1.5" rx="0.75"></rect>
                <rect id="Rectangle-23-Copy" fill="#FFFFFF" x="8" y="0" width="14" height="2" rx="1"></rect>
            </g>
        </g>
    </g>
</svg>