<svg width="60" height="60" xmlns="http://www.w3.org/2000/svg" xmlns:xlink="http://www.w3.org/1999/xlink"><defs><rect id="a" x=".5" y="4" width="24" height="24" rx="2"/><path d="M21.85 21.597h4.461s.002-.002 0-.002l-1.682-1.902a.454.454 0 0 1-.01-.57.307.307 0 0 1 .484-.01l2.292 2.59a.442.442 0 0 1 .105.29.44.44 0 0 1-.105.29l-2.304 2.604a.316.316 0 0 1-.237.113.317.317 0 0 1-.247-.123.455.455 0 0 1 .01-.57l1.682-1.902v-.002h-4.457c-.182 0-.33-.167-.341-.378-.012-.234.15-.428.349-.428z" id="b"/></defs><g fill="none" fill-rule="evenodd"><circle fill="#5473F2" cx="30" cy="30" r="30"/><g transform="translate(14 16)"><rect stroke="#FFF" stroke-width="1.5" x="5.25" y=".75" width="22.5" height="22.5" rx="2"/><use fill="#5473F2" xlink:href="#a"/><rect stroke="#FFF" stroke-width="1.5" x="1.25" y="4.75" width="22.5" height="22.5" rx="2"/><rect fill="#FFF" x="4.5" y="8" width="15" height="1.5" rx=".75"/><rect fill="#FFF" x="4.5" y="13" width="15" height="1.5" rx=".75"/><circle fill="#5473F2" cx="24" cy="21.5" r="7.5"/><circle stroke="#FFF" stroke-width="1.5" fill="#5473F2" cx="24.5" cy="22" r="6"/><g fill-rule="nonzero"><use fill="#FFF" fill-rule="evenodd" xlink:href="#b"/><path stroke="#FFF" stroke-width=".25" d="M26.036 21.472l-1.5-1.697a.578.578 0 0 1-.013-.73.432.432 0 0 1 .674-.015l2.292 2.59c.087.1.136.235.136.373 0 .14-.049.273-.136.373l-2.304 2.604a.44.44 0 0 1-.331.155.441.441 0 0 1-.344-.17.58.58 0 0 1 .013-.73l1.5-1.697h-4.181c-.252 0-.452-.222-.466-.497-.015-.3.198-.559.474-.559h4.186z"/></g><path d="M4.68 19.566h.673v3.49h-.674v-3.49zm4.364 3.458h-.537l-.162-.607.57.02c.13 0 .2-.097.2-.278v-2.742H6.758v-.613h3.024v3.536c0 .451-.246.684-.738.684zm-3.056-3.2h2.48v2.542h-2.48v-2.542zM7.84 21.81v-.465H6.629v.465h1.21zm-1.211-.994h1.21v-.451H6.63v.451zM5.515 18.54c.337.303.596.568.777.8l-.499.342a8.305 8.305 0 0 0-.77-.839l.492-.303zm-.182-.478a5.294 5.294 0 0 1-.511.717l-.57-.368c.389-.426.66-.878.822-1.355l.648.142c-.039.097-.071.187-.104.277H7.18v.587h-.81c.13.181.234.349.311.51l-.595.226a5.116 5.116 0 0 0-.415-.736h-.337zm2.76 0a4.673 4.673 0 0 1-.396.626l-.57-.367a3.59 3.59 0 0 0 .667-1.259l.641.142c-.032.09-.064.181-.09.271h1.787v.587h-.926c.117.162.207.317.285.459l-.596.225a6.034 6.034 0 0 0-.395-.684h-.408zm4.332 1.64h-.764v-2.433h4.099V19.7h-2.545c-.09.13-.188.258-.292.374h3.329c-.02.71-.058 1.284-.117 1.723-.064.432-.168.735-.304.91-.136.167-.356.258-.667.27h-.926l-.168-.632c.265.02.524.033.77.033.279 0 .46-.11.55-.317.091-.219.15-.683.176-1.393h-.46c-.557 1.187-1.438 1.98-2.63 2.368l-.382-.568c1.05-.323 1.82-.923 2.312-1.8h-.628c-.453.684-1.172 1.226-2.156 1.62l-.428-.523c.83-.29 1.444-.658 1.846-1.097h-.777c-.311.22-.654.42-1.036.6l-.37-.594c.693-.258 1.218-.587 1.568-.974zm2.668-.569v-.387h-2.765v.387h2.765zm-2.765-.916h2.765v-.38h-2.765v.38z" fill="#FFF"/></g></g></svg>