<?xml version="1.0" encoding="UTF-8"?>
<svg width="60px" height="60px" viewBox="0 0 60 60" version="1.1" xmlns="http://www.w3.org/2000/svg" xmlns:xlink="http://www.w3.org/1999/xlink">
    <!-- Generator: Sketch 49.3 (51167) - http://www.bohemiancoding.com/sketch -->
    <title>系统维护-科目税率对应表</title>
    <desc>Created with Sketch.</desc>
    <defs>
        <rect id="path-1" x="0" y="0.768939394" width="22.2857143" height="24.5" rx="1.92"></rect>
        <rect id="path-2" x="14.5714286" y="18.375" width="12" height="7" rx="2"></rect>
    </defs>
    <g id="icon" stroke="none" stroke-width="1" fill="none" fill-rule="evenodd">
        <g id="系统维护-科目税率对应表">
            <circle id="Oval-Copy" fill="#07D3CF" cx="30" cy="30" r="30"></circle>
            <g id="Group-11" transform="translate(18.000000, 16.000000)">
                <g id="Rectangle-15-Copy">
                    <use fill="#07D3CF" fill-rule="evenodd" xlink:href="#path-1"></use>
                    <rect stroke="#FFFFFF" stroke-width="1.5" x="0.75" y="1.51893939" width="20.7857143" height="23" rx="1.92"></rect>
                </g>
                <rect id="Rectangle-16" fill="#FFFFFF" x="2.46428571" y="5.01136364" width="13.7142857" height="1.5" rx="0.75"></rect>
                <rect id="Rectangle-18" fill="#07D3CF" x="13.8571429" y="17.625" width="17.1428571" height="10.5"></rect>
                <rect id="Rectangle-16-Copy" fill="#FFFFFF" x="2.57142857" y="8.81628788" width="13.7142857" height="1.5" rx="0.75"></rect>
                <rect id="Rectangle-16-Copy-3" fill="#FFFFFF" x="2.57142857" y="12.6212121" width="13.7142857" height="1.5" rx="0.75"></rect>
                <g id="Rectangle-19">
                    <use fill="#07D3CF" fill-rule="evenodd" xlink:href="#path-2"></use>
                    <rect stroke="#FFFFFF" stroke-width="1" x="15.0714286" y="18.875" width="11" height="6" rx="2"></rect>
                </g>
                <path d="M18.6193952,20.9246812 L18.9912111,20.9246812 C18.9054074,20.7015143 18.8124534,20.5043836 18.7123492,20.3295696 L19.012662,20.1807917 C19.1163414,20.3667641 19.2164457,20.5750531 19.31655,20.8056589 L19.0877402,20.9246812 L19.4667064,20.9246812 C19.5846864,20.6791977 19.6883659,20.4188363 19.7741695,20.1398778 L20.1316848,20.2737779 C20.0458811,20.5118225 19.9529272,20.7312699 19.8492477,20.9246812 L20.2246388,20.9246812 L20.2246388,22.2078905 L19.8492477,22.2078905 L19.8492477,23.1005579 C19.8492477,23.167508 19.8706986,23.2047024 19.9171756,23.2047024 L20.0387308,23.2047024 C20.067332,23.2047024 20.0923581,23.1823858 20.1066587,23.1377524 C20.1245345,23.0856801 20.1352599,22.9369022 20.1424102,22.6914187 L20.4713243,22.7955632 C20.4462982,23.1637885 20.4069715,23.3832359 20.3497691,23.4539054 C20.2925667,23.5208555 20.2103381,23.5543305 20.0995084,23.5543305 L19.8063459,23.5543305 C19.6061373,23.5543305 19.5060331,23.4278693 19.5060331,23.1786663 L19.5060331,22.2078905 L19.2807985,22.2078905 C19.2414718,22.8587938 19.0198123,23.3311637 18.6193952,23.625 L18.4191867,23.2865303 C18.7266498,23.0745218 18.9018323,22.7137354 18.9375838,22.2078905 L18.6193952,22.2078905 L18.6193952,20.9246812 Z M19.8849993,21.8657014 L19.8849993,21.2668704 L18.9626099,21.2668704 L18.9626099,21.8657014 L19.8849993,21.8657014 Z M17.2393863,21.1255313 L17.7184567,21.1255313 L17.7184567,20.7089532 C17.5826009,20.7275505 17.4467451,20.7461477 17.303739,20.7610255 L17.2286608,20.4039586 C17.654104,20.3667641 18.0366453,20.2960946 18.3727097,20.1882306 L18.5049903,20.5452976 C18.3691345,20.582492 18.2261284,20.6196865 18.075972,20.6494421 L18.075972,21.1255313 L18.4799642,21.1255313 L18.4799642,21.5011955 L18.075972,21.5011955 L18.075972,21.6722901 C18.2368539,21.8433847 18.3977357,22.0293571 18.5621928,22.2339267 L18.3512588,22.5649575 C18.2440042,22.3715462 18.1546254,22.2153294 18.075972,22.0888682 L18.075972,23.5766472 L17.7184567,23.5766472 L17.7184567,22.1297821 C17.607627,22.4124601 17.4717712,22.669102 17.3108893,22.9071467 L17.1428571,22.4533741 C17.3859675,22.1706961 17.5683003,21.854543 17.6827052,21.5011955 L17.2393863,21.5011955 L17.2393863,21.1255313 Z M20.8181141,20.441153 L22.1695218,20.441153 C22.12662,20.3518863 22.080143,20.266339 22.0300909,20.1919501 L22.4090571,20.125 C22.4519589,20.2179862 22.4984359,20.3221307 22.5449129,20.441153 L23.9427976,20.441153 L23.9427976,20.8056589 L22.455534,20.8056589 C22.3768807,20.9655951 22.2875019,21.1032147 22.1945479,21.2147981 L22.502011,21.1850425 C22.5735141,21.0883369 22.6485923,20.9879118 22.7272456,20.8837673 L23.06331,21.0176674 C22.7486966,21.4119288 22.476985,21.7169235 22.2446,21.9326514 L22.7057947,21.8657014 C22.6736184,21.787593 22.641442,21.7169235 22.6092656,21.6536929 L22.923879,21.5458289 C23.0382839,21.7503985 23.134813,21.9698459 23.2206167,22.2078905 L22.8881275,22.3641073 C22.8631014,22.2897184 22.8380754,22.2190489 22.8166245,22.1520988 C22.7308208,22.1669766 22.6485923,22.178135 22.5699389,22.1930128 L22.5699389,22.5240436 L24,22.5240436 L24,22.8922689 L22.5699389,22.8922689 L22.5699389,23.6175611 L22.1909727,23.6175611 L22.1909727,22.8922689 L20.768062,22.8922689 L20.768062,22.5240436 L22.1909727,22.5240436 L22.1909727,22.2413656 C22.0408163,22.2562434 21.8906599,22.2711211 21.7369283,22.2822795 L21.6618501,21.9438098 C21.7011768,21.9363709 21.7405035,21.9252125 21.7834053,21.9140542 C21.8978102,21.854543 22.0515418,21.7206429 22.2374497,21.504915 C22.080143,21.5197928 21.915686,21.5309511 21.7440787,21.5458289 L21.6761508,21.2408342 C21.8334575,21.1701647 21.9657381,21.0251063 22.0729927,20.8056589 L20.8181141,20.8056589 L20.8181141,20.441153 Z M21.3901385,21.5830234 L21.6690004,21.7987513 C21.4830925,22.0293571 21.2900343,22.2227683 21.0898257,22.3752657 L20.839565,22.0851488 C21.0433487,21.9438098 21.2256815,21.7764346 21.3901385,21.5830234 Z M21.1255772,20.8502922 C21.3257858,20.9916312 21.4973931,21.1404091 21.6368241,21.289187 L21.3794131,21.5569872 C21.2578579,21.4156482 21.0898257,21.2668704 20.8717414,21.1069341 L21.1255772,20.8502922 Z M23.3707731,21.5793039 C23.5888574,21.754118 23.7747654,21.928932 23.9249218,22.103746 L23.649635,22.386424 C23.5280798,22.2078905 23.3564725,22.0181987 23.134813,21.8136291 L23.3707731,21.5793039 Z M23.5602562,20.8391339 L23.8498436,21.0623007 C23.6925369,21.2594315 23.5245047,21.4230871 23.3493222,21.5532678 L23.1133621,21.2780287 C23.2778192,21.1515675 23.4244004,21.006509 23.5602562,20.8391339 Z" id="税率" fill="#FFFFFF"></path>
                <polygon id="￥" fill="#FFFFFF" points="4.28571429 15.75 5.53193564 15.75 6.85714286 18.3321078 8.18235007 15.75 9.42857143 15.75 7.74353974 18.7352941 8.8668942 18.7352941 8.8668942 19.3014706 7.41882009 19.3014706 7.41004388 19.310049 7.41004388 20.0220588 8.8668942 20.0220588 8.8668942 20.5882353 7.41004388 20.5882353 7.41004388 21.875 6.30424183 21.875 6.30424183 20.5882353 4.85616772 20.5882353 4.85616772 20.0220588 6.30424183 20.0220588 6.30424183 19.310049 6.29546563 19.3014706 4.85616772 19.3014706 4.85616772 18.7352941 5.97074598 18.7352941"></polygon>
            </g>
        </g>
    </g>
</svg>