<svg width="60" height="60" xmlns="http://www.w3.org/2000/svg" xmlns:xlink="http://www.w3.org/1999/xlink"><defs><rect id="a" x="0" y=".828" width="23.963" height="26.385" rx="1.92"/><rect id="b" x="15.668" y="19.788" width="12.903" height="7.538" rx="2"/></defs><g fill="none" fill-rule="evenodd"><circle fill="#07D3CF" cx="30" cy="30" r="30"/><g transform="translate(15 16)"><use fill="#07D3CF" xlink:href="#a"/><rect stroke="#FFF" stroke-width="1.5" x=".75" y="1.578" width="22.463" height="24.885" rx="1.92"/><rect fill="#FFF" x="2.65" y="5.397" width="14.747" height="1.615" rx=".808"/><path fill="#07D3CF" d="M14.9 18.981h14.747v8.346H14.9z"/><rect fill="#FFF" x="2.765" y="9.494" width="14.747" height="1.615" rx=".808"/><rect fill="#FFF" x="2.765" y="13.592" width="14.747" height="1.615" rx=".808"/><use fill="#07D3CF" xlink:href="#b"/><rect stroke="#FFF" x="16.168" y="20.288" width="11.903" height="6.538" rx="2"/><path d="M20.02 22.534h.4a4.634 4.634 0 0 0-.3-.64l.324-.16c.111.2.219.424.326.672l-.246.128h.408a6.06 6.06 0 0 0 .33-.845l.385.144a5.294 5.294 0 0 1-.304.701h.404v1.382h-.404v.962c0 .072.023.112.073.112h.131c.03 0 .058-.024.073-.072.02-.056.03-.217.039-.481l.353.112c-.027.397-.069.633-.13.71-.062.071-.15.107-.27.107h-.315c-.215 0-.323-.136-.323-.404v-1.046h-.242c-.042.701-.28 1.21-.711 1.526l-.215-.364c.33-.229.519-.617.557-1.162h-.342v-1.382zm1.362 1.014v-.645h-.992v.645h.992zm-2.845-.797h.515v-.45c-.146.021-.292.041-.446.057l-.08-.385c.457-.04.868-.116 1.23-.232l.142.385c-.146.04-.3.08-.461.112v.513h.434v.404h-.434v.184c.173.185.346.385.522.605l-.226.357a12.29 12.29 0 0 0-.296-.513v1.602h-.385v-1.558c-.12.304-.265.58-.438.837l-.18-.488a2.96 2.96 0 0 0 .58-1.026h-.477v-.404zm3.848-.737h1.453a2.17 2.17 0 0 0-.15-.269l.408-.072c.046.1.096.212.146.34h1.503v.393h-1.6c-.084.172-.18.32-.28.44l.33-.031c.078-.104.158-.213.243-.325l.361.144c-.338.425-.63.753-.88.986l.496-.072a3.157 3.157 0 0 0-.104-.229l.338-.116c.123.22.227.457.32.713l-.358.168c-.027-.08-.054-.156-.077-.228-.092.016-.18.028-.265.044v.357h1.537v.396H24.27v.781h-.408v-.78h-1.53v-.397h1.53v-.305c-.161.016-.323.032-.488.044l-.08-.364c.042-.008.084-.02.13-.032.123-.064.288-.209.488-.44-.169.015-.346.027-.53.043l-.073-.328c.169-.076.311-.233.426-.469h-1.349v-.392zm.615 1.23l.3.232c-.2.248-.407.456-.623.62l-.269-.312c.22-.152.415-.332.592-.54zm-.284-.79c.215.152.4.313.55.473l-.277.288a3.275 3.275 0 0 0-.546-.484l.273-.277zm2.414.785c.234.189.434.377.596.565l-.296.304a3.716 3.716 0 0 0-.554-.616l.254-.253zm.204-.797l.311.24c-.17.213-.35.389-.538.53l-.254-.297c.177-.136.335-.293.48-.473zM4.608 16.962h1.34l1.425 2.78 1.425-2.78h1.34l-1.812 3.214h1.208v.61H7.977l-.01.01v.766h1.567v.61H7.968v1.386h-1.19v-1.386H5.223v-.61h1.557v-.767l-.01-.009H5.222v-.61H6.42z" fill="#FFF"/></g></g></svg>