<?xml version="1.0" encoding="UTF-8"?>
<svg width="30px" height="29px" viewBox="0 0 30 29" version="1.1" xmlns="http://www.w3.org/2000/svg" xmlns:xlink="http://www.w3.org/1999/xlink">
    <!-- Generator: Sketch 48.2 (47327) - http://www.bohemiancoding.com/sketch -->
    <title>Combined shape 2637</title>
    <desc>Created with Sketch.</desc>
    <defs></defs>
    <g id="Artboard" stroke="none" stroke-width="1" fill="none" fill-rule="evenodd" transform="translate(-660.000000, -756.000000)">
        <g id="进项税台账" transform="translate(14.000000, 719.000000)" fill="#FFFFFF">
            <g id="01-拷贝-7" transform="translate(610.000000, 0.000000)">
                <g id="组-2" transform="translate(36.000000, 37.000000)">
                    <path d="M23.032737,23.218968 L24.524172,23.218968 C24.787755,23.22672 24.997446,23.446812 24.997446,23.715624 C24.997446,23.843484 24.947532,23.966268 24.85872,24.056712 C24.770052,24.147012 24.649677,24.197976 24.524172,24.197976 L23.032737,24.197976 L23.032737,25.517472 C23.025159,25.78614 22.809186,25.99998 22.545594,25.99998 C22.420089,25.99998 22.299588,25.94916 22.21092,25.85856 C22.122243,25.76826 22.07232,25.645476 22.07232,25.517472 L22.07232,24.197976 L20.469492,24.197976 C20.343987,24.197976 20.223747,24.147012 20.134944,24.056712 C20.046141,23.966268 19.996344,23.843484 19.996344,23.715624 C19.996218,23.446812 20.205909,23.22672 20.469492,23.218968 L22.07232,23.218968 L22.07232,21.650928 L20.469492,21.650928 C20.205909,21.643176 19.996218,21.423084 19.996344,21.154416 C19.996344,21.026268 20.046141,20.903628 20.134944,20.813184 C20.223747,20.722584 20.343987,20.671764 20.469492,20.671764 L22.07232,20.671764 L22.07232,19.7051033 L20.274687,17.840988 C20.18268,17.752632 20.130579,17.629392 20.130579,17.5005 C20.130579,17.371752 20.18268,17.24838 20.274687,17.160012 C20.364012,17.065392 20.487078,17.01204 20.615661,17.01204 C20.744379,17.01204 20.867445,17.065392 20.956761,17.160012 L22.5508026,18.8131718 C22.5530963,18.8131964 22.5553863,18.8132371 22.5576724,18.8132938 L24.176142,17.145852 C24.265458,17.051232 24.388524,16.99788 24.517242,16.99788 C24.645825,16.99788 24.769026,17.051232 24.858207,17.145852 C25.042239,17.33406 25.042239,17.638632 24.858207,17.82684 L23.074443,19.664448 C23.0611323,19.6777454 23.0472082,19.6902849 23.032737,19.7020354 L23.032737,20.671764 L24.524172,20.671764 C24.649677,20.671764 24.770052,20.722584 24.85872,20.813184 C24.947532,20.903628 24.997446,21.026268 24.997446,21.154416 C24.997446,21.423084 24.787755,21.643176 24.524172,21.650928 L23.032737,21.650928 L23.032737,23.218968 Z M18.576256,4.81424 C19.008864,4.81424 19.359456,5.16176 19.359456,5.590752 C19.359456,6.019616 19.008864,6.367264 18.576256,6.367264 L5.733376,6.367264 C5.300512,6.367264 4.950176,6.019616 4.950176,5.590752 C4.950176,5.16176 5.300512,4.81424 5.733376,4.81424 L18.576256,4.81424 Z M18.576256,8.696608 C19.008864,8.696608 19.359456,9.044256 19.359456,9.47296 C19.359456,9.901952 19.008864,10.2496 18.576256,10.2496 L5.733376,10.2496 C5.300512,10.2496 4.950176,9.901952 4.950176,9.47296 C4.950176,9.044256 5.300512,8.696608 5.733376,8.696608 L18.576256,8.696608 Z M14.347456,12.578944 C14.779904,12.578944 15.130496,12.926432 15.130496,13.355456 C15.130496,13.784448 14.779904,14.131936 14.347456,14.131936 L5.733376,14.131936 C5.300512,14.131936 4.950176,13.784448 4.950176,13.355456 C4.950176,12.926432 5.300512,12.578944 5.733376,12.578944 L14.347456,12.578944 Z M22.221312,13.574048 C26.510432,13.574048 29.999968,17.03408 29.999968,21.28688 C29.999968,25.540128 26.510432,29.000032 22.221312,29.000032 C17.931808,29.000032 14.442272,25.540128 14.442272,21.28688 C14.442272,17.033952 17.931808,13.574048 22.221312,13.574048 Z M22.221312,27.44704 C25.646912,27.44704 28.433824,24.683616 28.433824,21.28688 C28.433824,17.890176 25.646912,15.126912 22.221312,15.126912 C18.795584,15.126912 16.008544,17.890176 16.008544,21.28688 C16.008544,24.683616 18.795584,27.44704 22.221312,27.44704 Z M12.937888,23.76032 C13.370336,23.76032 13.720928,24.107968 13.720928,24.536832 C13.720928,24.965696 13.370336,25.313344 12.937888,25.313344 L2.267712,25.313344 C1.01728,25.313344 3.2e-05,24.304512 3.2e-05,23.064736 L3.2e-05,2.248416 C3.2e-05,1.0088 1.01728,-3.2e-05 2.267712,-3.2e-05 L21.885216,-3.2e-05 C23.13552,-3.2e-05 24.152928,1.0088 24.1528,2.248416 L24.1528,10.870688 C24.1528,11.29952 23.802208,11.647168 23.3696,11.647168 C22.936992,11.647168 22.586528,11.29952 22.586528,10.870688 L22.586528,2.248416 C22.586528,1.865024 22.271744,1.552992 21.885088,1.552992 L2.267712,1.552992 C1.880928,1.552992 1.566272,1.865024 1.566272,2.248416 L1.566272,23.064896 C1.566272,23.448 1.8808,23.76032 2.267712,23.76032 L12.937888,23.76032 Z M22.5508026,18.8131718 C22.5490685,18.8131533 22.5473323,18.813144 22.545594,18.813144 C22.420089,18.813144 22.299588,18.863964 22.21092,18.954552 C22.122243,19.045008 22.07232,19.167648 22.07232,19.29564 L22.07232,19.7051033 L22.183713,19.820616 C22.271742,19.910316 22.39353,19.956804 22.517748,19.94832 C22.644153,19.953228 22.766193,19.901376 22.851792,19.806456 C22.8556215,19.802772 22.8593818,19.7990281 22.8630722,19.7952263 C22.9244572,19.7747751 22.9819649,19.7432618 23.032737,19.7020354 L23.032737,19.29564 C23.0252751,19.0309455 22.8157533,18.819703 22.5576724,18.8132938 L22.5542852,18.8167836 L22.5508026,18.8131718 Z M22.5542852,18.8167836 L22.851792,19.125324 C22.943799,19.213836 22.9959,19.33692 22.9959,19.465968 C22.9959,19.5894953 22.9480458,19.707688 22.8630722,19.7952263 C22.823535,19.8083987 22.7823894,19.8169821 22.740399,19.820616 C22.611555,19.816884 22.488237,19.766676 22.392504,19.678752 C22.213872,19.482804 22.213872,19.179564 22.392504,18.98346 L22.5542852,18.8167836 Z M22.07232,20.671764 L22.07232,21.650928 L23.032737,21.650928 L23.032737,20.671764 L22.07232,20.671764 Z M23.032737,23.218968 L22.07232,23.218968 L22.07232,24.197976 L23.032737,24.197976 L23.032737,23.218968 Z" id="Combined-shape-2637"></path>
                </g>
            </g>
        </g>
    </g>
</svg>