<svg xmlns="http://www.w3.org/2000/svg" width="30" height="30" viewBox="0 0 30 30">
  <metadata><?xpacket begin="﻿" id="W5M0MpCehiHzreSzNTczkc9d"?>
<x:xmpmeta xmlns:x="adobe:ns:meta/" x:xmptk="Adobe XMP Core 5.6-c138 79.159824, 2016/09/14-01:09:01        ">
   <rdf:RDF xmlns:rdf="http://www.w3.org/1999/02/22-rdf-syntax-ns#">
      <rdf:Description rdf:about=""/>
   </rdf:RDF>
</x:xmpmeta>
                                                                                                    
                                                                                                    
                                                                                                    
                                                                                                    
                                                                                                    
                                                                                                    
                                                                                                    
                                                                                                    
                                                                                                    
                                                                                                    
                                                                                                    
                                                                                                    
                                                                                                    
                                                                                                    
                                                                                                    
                                                                                                    
                                                                                                    
                                                                                                    
                                                                                                    
                                                                                                    
                           
<?xpacket end="w"?></metadata>
<defs>
    <style>
      .cls-1 {
        fill: #fff;
        fill-rule: evenodd;
      }
    </style>
  </defs>
  <path id="形状_597" data-name="形状 597" class="cls-1" d="M395.09,2056.01a0.487,0.487,0,0,0-.12-0.01,0.5,0.5,0,0,0-.124.01A15,15,0,0,0,380,2070.95V2071a15,15,0,1,0,15.09-14.99h0Zm0.937,10.71a20.588,20.588,0,0,0,4.679-.75,18.348,18.348,0,0,1,.653,3.94h-5.332v-3.19Zm0-2.15v-6.38c0.067,0.01.138,0.01,0.205,0.02a18.249,18.249,0,0,1,3.768,5.72,17.945,17.945,0,0,1-3.973.64h0Zm-2.115-6.37v6.36a18.806,18.806,0,0,1-3.855-.67,18.421,18.421,0,0,1,3.832-5.69h0.023Zm0,8.51v3.2h-5.281a18.14,18.14,0,0,1,.7-4,19.883,19.883,0,0,0,4.585.8h0Zm-7.433,3.2h-4.287a12.828,12.828,0,0,1,2.219-6.2,20.145,20.145,0,0,0,2.888,1.48,20.618,20.618,0,0,0-.82,4.72h0Zm-0.007,2.11a20.406,20.406,0,0,0,.82,4.83,21.023,21.023,0,0,0-2.861,1.47,12.757,12.757,0,0,1-2.246-6.3h4.287Zm2.153,0h5.287v3.31a20.415,20.415,0,0,0-4.591.8,17.827,17.827,0,0,1-.7-4.11h0Zm5.287,5.47v6.32c-0.033,0-.07-0.01-0.1-0.01a18.293,18.293,0,0,1-3.768-5.64,17.7,17.7,0,0,1,3.872-.67h0Zm2.115,6.32v-6.34a18.451,18.451,0,0,1,3.889.62,18.179,18.179,0,0,1-3.889,5.72h0Zm0-8.49v-3.3h5.325a18.167,18.167,0,0,1-.7,4.04,20.117,20.117,0,0,0-4.622-.74h0Zm7.474-3.3h4.314a12.764,12.764,0,0,1-2.179,6.2,20.854,20.854,0,0,0-2.955-1.47,20.187,20.187,0,0,0,.82-4.73h0Zm0.006-2.11a20.217,20.217,0,0,0-.766-4.64,20.311,20.311,0,0,0,2.912-1.46,12.824,12.824,0,0,1,2.155,6.09h-4.3v0.01Zm0.784-7.79a18.114,18.114,0,0,1-2.253,1.11,20.208,20.208,0,0,0-2.312-4.18,12.882,12.882,0,0,1,4.565,3.07h0Zm-13.913-3.11a20.283,20.283,0,0,0-2.353,4.16,19.445,19.445,0,0,1-2.232-1.13,12.755,12.755,0,0,1,4.585-3.03h0Zm-4.565,20.98a19.1,19.1,0,0,1,2.2-1.11,20.606,20.606,0,0,0,2.292,4.1,13.041,13.041,0,0,1-4.491-2.99h0Zm13.718,3.04a20.1,20.1,0,0,0,2.424-4.26,19.152,19.152,0,0,1,2.312,1.14,12.786,12.786,0,0,1-4.736,3.12h0Zm0,0" transform="translate(-380 -2056)"/>
</svg>
