<svg width="60" height="60" xmlns="http://www.w3.org/2000/svg"><g fill="none" fill-rule="evenodd"><circle fill="#49A7FF" cx="30" cy="30" r="30"/><path d="M40.875 42.75h-21.75a1.877 1.877 0 0 1-1.875-1.875V27.38h25.5v13.495c0 1.034-.84 1.875-1.875 1.875m-21.75-22.5H21v1.875a1.125 1.125 0 0 0 2.25 0V20.25h13.5v1.875a1.125 1.125 0 0 0 2.25 0V20.25h1.875c1.034 0 1.875.841 1.875 1.875v3.005h-25.5v-3.005c0-1.034.84-1.875 1.875-1.875M40.875 18H39v-1.875a1.125 1.125 0 0 0-2.25 0V18h-13.5v-1.875a1.125 1.125 0 0 0-2.25 0V18h-1.875A4.13 4.13 0 0 0 15 22.125v18.75A4.13 4.13 0 0 0 19.125 45h21.75A4.13 4.13 0 0 0 45 40.875v-18.75A4.13 4.13 0 0 0 40.875 18M20.25 33h7.5a1.125 1.125 0 0 0 0-2.25h-7.5a1.125 1.125 0 1 0 0 2.25m19.5 3h-19.5a1.125 1.125 0 1 0 0 2.25h19.5a1.125 1.125 0 1 0 0-2.25" fill="#FFF" fill-rule="nonzero"/></g></svg>