<svg xmlns="http://www.w3.org/2000/svg" width="30" height="29" viewBox="0 0 30 29">
  <metadata><?xpacket begin="﻿" id="W5M0MpCehiHzreSzNTczkc9d"?>
<x:xmpmeta xmlns:x="adobe:ns:meta/" x:xmptk="Adobe XMP Core 5.6-c138 79.159824, 2016/09/14-01:09:01        ">
   <rdf:RDF xmlns:rdf="http://www.w3.org/1999/02/22-rdf-syntax-ns#">
      <rdf:Description rdf:about=""/>
   </rdf:RDF>
</x:xmpmeta>
                                                                                                    
                                                                                                    
                                                                                                    
                                                                                                    
                                                                                                    
                                                                                                    
                                                                                                    
                                                                                                    
                                                                                                    
                                                                                                    
                                                                                                    
                                                                                                    
                                                                                                    
                                                                                                    
                                                                                                    
                                                                                                    
                                                                                                    
                                                                                                    
                                                                                                    
                                                                                                    
                           
<?xpacket end="w"?></metadata>
<defs>
    <style>
      .cls-1 {
        fill: #fff;
        fill-rule: evenodd;
      }
    </style>
  </defs>
  <path id="形状_42" data-name="形状 42" class="cls-1" d="M685,1360v-8l-6-7H662.6a2.6,2.6,0,0,0-2.6,2.56v23.88a2.6,2.6,0,0,0,2.6,2.56h20.833v-0.03a6.991,6.991,0,0,0,6.563-6.9c0-3.37-1.214-5.35-5-7.07h0Zm-5.9-12.27L683,1352h-3a1.324,1.324,0,0,1-.9-1.27v-3ZM663,1372a1.1,1.1,0,0,1-1-1v-24c0-.48.514,0,1,0h15v4a1.71,1.71,0,0,0,2,2h3v7c-3.715.2-7.1,3.36-7.1,7.07A5.947,5.947,0,0,0,678,1372H663Zm19.951,0.29a5.221,5.221,0,1,1,5.313-5.22,5.286,5.286,0,0,1-5.313,5.22h0Zm0,0,1.945-7.37-2.813,2.77-1.111-1.09a0.851,0.851,0,0,0-1.215,0,0.84,0.84,0,0,0,0,1.19l1.736,1.67a0.934,0.934,0,0,0,1.25,0l3.438-3.38a0.81,0.81,0,0,0,0-1.19,0.965,0.965,0,0,0-1.285.03h0Zm-7.084-6.55a0.865,0.865,0,0,0,.869.69h0.173a0.878,0.878,0,0,0,.695-0.99l-0.591-2.87a0.745,0.745,0,0,0-.382-0.54,0.829,0.829,0,0,0-.659-0.14l-3.056.58a0.865,0.865,0,0,0-.694.99,0.878,0.878,0,0,0,1.007.68l0.868-.17-4.236,5.05-3.3-.65a0.794,0.794,0,0,0-.764.24l-3.715,3.62a0.81,0.81,0,0,0,0,1.19,0.847,0.847,0,0,0,.625.24,0.905,0.905,0,0,0,.625-0.24l3.368-3.31,3.333,0.65a0.866,0.866,0,0,0,.833-0.31l4.827-5.7Zm0,0" transform="translate(-660 -1345)"/>
</svg>
