<?xml version="1.0" encoding="UTF-8"?>
<svg width="30px" height="29px" viewBox="0 0 30 29" version="1.1" xmlns="http://www.w3.org/2000/svg" xmlns:xlink="http://www.w3.org/1999/xlink">
    <!-- Generator: Sketch 48.2 (47327) - http://www.bohemiancoding.com/sketch -->
    <title>Combined shape 3080</title>
    <desc>Created with Sketch.</desc>
    <defs></defs>
    <g id="Artboard" stroke="none" stroke-width="1" fill="none" fill-rule="evenodd" transform="translate(-660.000000, -1345.000000)">
        <g id="管理分析报表" fill="#FFFFFF">
            <g id="01-拷贝-7">
                <path d="M685,1360.00008 C688.786368,1361.72027 689.999968,1363.69645 689.999968,1367.07426 C689.999968,1370.72459 687.083296,1373.72716 683.437472,1373.96604 L683.437472,1374 L662.604192,1374 C661.180512,1374 660.000032,1372.84012 660.000032,1371.44118 L660.000032,1347.55878 C660.000032,1346.15988 661.180512,1344.99996 662.604192,1344.99996 L679,1345.00013 L685,1351.99993 L685,1360.00008 Z M679.09728,1347.72943 L679.09728,1350.7317 C679.09728,1351.20944 679.513824,1351.99993 679.999936,1351.99993 L683,1351.99993 L679.09728,1347.72943 Z M662.999968,1371.99997 L678.000064,1371.99997 C676.506944,1370.73756 675.902784,1369.15534 675.902784,1367.07409 C675.902784,1363.35536 679.284896,1360.20468 683,1360.00008 L683,1353.00009 L679.999936,1353.00009 C678.576512,1353.00009 678.000064,1352.3987 678.000064,1350.99993 L678.000064,1347 L662.999968,1347 C662.513856,1347 662.000032,1346.52229 662.000032,1347 L662.000032,1370.99997 C662.000032,1371.47768 662.513856,1371.99997 662.999968,1371.99997 Z M682.95136,1372.29413 C685.868032,1372.29413 688.263808,1369.94005 688.263808,1367.07409 C688.263808,1364.20831 685.868032,1361.85409 682.95136,1361.85409 C680.03472,1361.85409 677.638944,1364.20831 677.638944,1367.07409 C677.638944,1369.94005 680.03472,1372.29413 682.95136,1372.29413 Z M684.895936,1364.92477 C685.208288,1364.58352 685.76384,1364.58352 686.180512,1364.89048 C686.527648,1365.19762 686.527648,1365.74344 686.180512,1366.08466 L682.742976,1369.4623 C682.569344,1369.63291 682.361056,1369.70103 682.118144,1369.70103 C681.874944,1369.70103 681.66656,1369.63291 681.493184,1369.4623 L679.756896,1367.79056 C679.409632,1367.48343 679.444544,1366.93777 679.756896,1366.59652 C680.069504,1366.2553 680.625024,1366.2553 680.972288,1366.59652 L682.08336,1367.68832 L684.895936,1364.92477 Z M677.812448,1358.37407 L677.638944,1357.38477 L672.812384,1363.08238 C672.604096,1363.3211 672.291616,1363.45772 671.979264,1363.38935 L668.645792,1362.74113 L665.277792,1366.0507 C665.10416,1366.22118 664.86112,1366.28942 664.652832,1366.28942 C664.409664,1366.28942 664.201376,1366.22118 664.027872,1366.0507 C663.680608,1365.74344 663.680608,1365.19762 664.027872,1364.85636 L667.743008,1361.23999 C667.91664,1361.03526 668.22912,1360.93289 668.506944,1361.00114 L671.805504,1361.64949 L676.04176,1356.60009 L675.173632,1356.7707 C674.722304,1356.83878 674.270816,1356.56594 674.166752,1356.08823 C674.097184,1355.64477 674.37504,1355.20116 674.861152,1355.09892 L677.916768,1354.51881 C678.15984,1354.48469 678.402752,1354.51881 678.576384,1354.65517 C678.784672,1354.79166 678.923648,1354.96243 678.958304,1355.20116 L679.548608,1358.06711 C679.618176,1358.51056 679.34032,1358.95402 678.854208,1359.05638 L678.680576,1359.05638 C678.263776,1359.05638 677.881888,1358.7834 677.812448,1358.37407 Z" id="Combined-shape-3080"></path>
            </g>
        </g>
    </g>
</svg>