<svg width="60" height="60" xmlns="http://www.w3.org/2000/svg" xmlns:xlink="http://www.w3.org/1999/xlink"><defs><path d="M23.155 2.121v16.457H2.042V2.12h21.113zm0-2.118H2.042C.926.003.022.95.022 2.12v16.457c0 1.17.904 2.118 2.02 2.118h21.113c1.116 0 2.02-.948 2.02-2.118V2.12c0-1.17-.906-2.118-2.02-2.118zm1.01 24.952H1.032c-.558 0-1.01-.473-1.01-1.059 0-.585.452-1.059 1.01-1.059h23.133c.558 0 1.01.474 1.01 1.06 0 .585-.452 1.058-1.01 1.058z" id="a"/></defs><g fill="none" fill-rule="evenodd"><circle fill="#07D3CF" cx="30" cy="30" r="30"/><g transform="translate(15 17)"><g fill-rule="nonzero"><use fill="#FFF" fill-rule="evenodd" xlink:href="#a"/><path stroke="#FFF" d="M23.655 1.621v17.457H1.542V1.62h22.113zm-.5-1.118H2.042c-.835 0-1.52.718-1.52 1.618v16.457c0 .9.685 1.618 1.52 1.618h21.113c.835 0 1.52-.719 1.52-1.618V2.12c0-.899-.687-1.618-1.52-1.618zm1.01 23.952c.276 0 .51-.244.51-.559 0-.314-.234-.559-.51-.559H1.032c-.276 0-.51.245-.51.56 0 .314.234.558.51.558h23.133z"/></g><ellipse fill="#07D3CF" cx="23.182" cy="19.276" rx="6.818" ry="6.724"/><ellipse stroke="#FFF" stroke-width="1.5" fill="#07D3CF" cx="23.455" cy="19.379" rx="5.455" ry="5.379"/><path d="M23.218 18.11h.559a5.93 5.93 0 0 0-.42-.842l.452-.21c.156.263.306.558.456.884l-.343.168h.569c.177-.347.333-.715.462-1.11l.537.19a6.746 6.746 0 0 1-.424.92h.563v1.816h-.563v1.263c0 .095.032.147.102.147h.182c.043 0 .08-.031.102-.094.027-.074.043-.285.054-.632l.494.147c-.038.521-.097.832-.183.932-.086.095-.21.142-.376.142h-.44c-.3 0-.451-.179-.451-.531v-1.374h-.338c-.06.92-.392 1.59-.994 2.005l-.3-.479c.461-.3.724-.81.778-1.526h-.478V18.11zm1.901 1.332v-.847h-1.385v.847h1.385zm-3.974-1.047h.72v-.59c-.204.026-.409.053-.623.074l-.113-.505a8.332 8.332 0 0 0 1.718-.306l.2.506a9.68 9.68 0 0 1-.645.147v.674h.607v.531h-.607v.242c.241.242.483.505.73.795l-.317.468a15.937 15.937 0 0 0-.413-.673v2.105h-.537v-2.048c-.167.4-.37.764-.613 1.1L21 20.273c.365-.4.64-.847.811-1.347h-.666v-.531z" fill="#FFF"/></g></g></svg>