<?xml version="1.0" encoding="UTF-8"?>
<svg width="26px" height="28px" viewBox="0 0 26 28" version="1.1" xmlns="http://www.w3.org/2000/svg" xmlns:xlink="http://www.w3.org/1999/xlink">
    <!-- Generator: Sketch 48.2 (47327) - http://www.bohemiancoding.com/sketch -->
    <title>组 1 拷贝 2</title>
    <desc>Created with Sketch.</desc>
    <defs></defs>
    <g id="Artboard" stroke="none" stroke-width="1" fill="none" fill-rule="evenodd" transform="translate(-1853.000000, -877.000000)">
        <g id="其他台账" transform="translate(14.000000, 839.000000)">
            <g id="01-拷贝-11" transform="translate(1800.000000, 1.000000)">
                <g id="文字" transform="translate(39.000000, 30.000000)">
                    <g id="组-1-拷贝-2" transform="translate(0.000000, 7.000000)">
                        <rect id="Rectangle" stroke="#FFFFFF" stroke-width="1.7" x="0.85" y="0.85" width="24.3" height="26.3" rx="2"></rect>
                        <path d="M8.999945,8.999942 L8.999945,6.000044 L10.00001,6.000044 L10.00001,8.999942 L12.999958,8.999942 L12.999958,9.999968 L10.00001,9.999968 L10.00001,13.00001 L8.999945,13.00001 L8.999945,9.999968 L5.999997,9.999968 L5.999997,8.999942 L8.999945,8.999942 Z M21.025121,7.123298 C21.191181,7.285712 21.191181,7.549772 21.025121,7.712042 L6.574918,21.87797 C6.492914,21.96023 6.383455,22.00001 6.275402,22.00001 C6.166323,22.00001 6.056845,21.96023 5.974841,21.87797 C5.8088,21.715106 5.8088,21.451946 5.974841,21.289532 L20.425177,7.123298 C20.59061,6.960578 20.859707,6.960578 21.025121,7.123298 Z M14.999955,18.999968 L20.999965,18.999968 L20.999965,19.999976 L14.999955,19.999976 L14.999955,18.999968 Z" id="Combined-shape-2751" fill="#FFFFFF"></path>
                    </g>
                </g>
            </g>
        </g>
    </g>
</svg>