<?xml version="1.0" encoding="UTF-8"?>
<svg width="60px" height="60px" viewBox="0 0 60 60" version="1.1" xmlns="http://www.w3.org/2000/svg" xmlns:xlink="http://www.w3.org/1999/xlink">
    <!-- Generator: Sketch 49.3 (51167) - http://www.bohemiancoding.com/sketch -->
    <title>系统维护-税收分类编码</title>
    <desc>Created with Sketch.</desc>
    <defs>
        <rect id="path-1" x="3.21428571" y="0" width="20.0892857" height="23.6480938" rx="1.92"></rect>
        <rect id="path-2" x="0" y="3.50342131" width="20.0892857" height="23.6480938" rx="1.92"></rect>
        <rect id="path-3" x="0.414746544" y="0.833746898" width="13.2718894" height="8.25806452" rx="2"></rect>
    </defs>
    <g id="icon" stroke="none" stroke-width="1" fill="none" fill-rule="evenodd">
        <g id="系统维护-税收分类编码">
            <circle id="Oval-Copy" fill="#07D3CF" cx="30" cy="30" r="30"></circle>
            <g id="Group-30" transform="translate(15.000000, 16.000000)">
                <g id="Group-29">
                    <g id="Rectangle-15">
                        <use fill="#07D3CF" fill-rule="evenodd" xlink:href="#path-1"></use>
                        <rect stroke="#FFFFFF" stroke-width="1.5" x="3.96428571" y="0.75" width="18.5892857" height="22.1480938" rx="1.92"></rect>
                    </g>
                    <g id="Rectangle-15-Copy">
                        <use fill="#07D3CF" fill-rule="evenodd" xlink:href="#path-2"></use>
                        <rect stroke="#FFFFFF" stroke-width="1.5" x="0.75" y="4.25342131" width="18.5892857" height="22.1480938" rx="1.92"></rect>
                    </g>
                    <rect id="Rectangle-16" fill="#FFFFFF" x="3.21428571" y="7.88269795" width="11.6129032" height="1.35483871" rx="0.677419355"></rect>
                    <rect id="Rectangle-18" fill="#07D3CF" x="13.4101382" y="17.1612903" width="16.5898618" height="10.8387097"></rect>
                    <rect id="Rectangle-16-Copy" fill="#FFFFFF" x="3.21428571" y="12.2619746" width="11.6129032" height="1.35483871" rx="0.677419355"></rect>
                    <rect id="Rectangle-16-Copy-3" fill="#FFFFFF" x="3.21428571" y="16.6412512" width="11.6129032" height="1.35483871" rx="0.677419355"></rect>
                    <rect id="Rectangle-16-Copy-2" fill="#FFFFFF" x="3.21428571" y="21.0205279" width="8.29493088" height="1.35483871" rx="0.677419355"></rect>
                </g>
                <g id="Group-31" transform="translate(14.516129, 18.307692)">
                    <g id="Rectangle-19">
                        <use fill="#07D3CF" fill-rule="evenodd" xlink:href="#path-3"></use>
                        <rect stroke="#FFFFFF" stroke-width="1" x="0.914746544" y="1.3337469" width="12.2718894" height="7.25806452" rx="2"></rect>
                    </g>
                    <path d="M4.56492097,3.6115923 L4.94634693,3.6115923 L4.94634693,7.08815956 L4.43922378,7.08815956 L4.43922378,4.2981413 C4.25284519,4.48803783 4.01878836,4.62924294 3.73271889,4.72175664 L3.73271889,4.15693619 C3.87141924,4.11798305 4.01878836,4.04981507 4.17482625,3.95243223 C4.33086414,3.84531111 4.46089571,3.73332085 4.56492097,3.6115923 Z M6.68443564,3.54342432 C6.98350826,3.54342432 7.23056826,3.64080715 7.42561562,3.83557283 C7.61632859,4.0303385 7.71168508,4.27866473 7.71168508,4.59028981 C7.71168508,4.8921766 7.60765982,5.16484854 7.40827807,5.41317477 C7.28691527,5.55924903 7.07019598,5.74427642 6.76678897,5.97312608 C6.45037881,6.20684489 6.25966583,6.41134885 6.19031566,6.58663795 L7.71601947,6.58663795 L7.71601947,7.08815956 L5.55749533,7.08815956 C5.55749533,6.73271221 5.6571862,6.42595627 5.86523672,6.16302261 C5.97793075,6.01694836 6.21632197,5.80270612 6.576076,5.52516504 C6.77545774,5.3693525 6.91415809,5.23788567 7.00084581,5.13563369 C7.13521177,4.96521373 7.20456194,4.78018634 7.20456194,4.58542067 C7.20456194,4.39552414 7.1568837,4.25431902 7.07019598,4.16180533 C6.97917388,4.06929163 6.84480792,4.02546936 6.6670981,4.02546936 C6.47638512,4.02546936 6.33335039,4.09850648 6.2379939,4.24458074 C6.14263741,4.38091671 6.09062478,4.59028981 6.08195601,4.86296175 L5.57483287,4.86296175 C5.57916726,4.4734304 5.67885813,4.16180533 5.87823988,3.92321738 C6.08195601,3.670022 6.35068793,3.54342432 6.68443564,3.54342432 Z M9.26772959,3.54342432 C9.57980537,3.54342432 9.83553414,3.62619973 10.0262471,3.79661969 C10.2126257,3.96703966 10.3079822,4.20075846 10.3079822,4.50264525 C10.3079822,4.88243832 10.1346068,5.13563369 9.79219028,5.26223138 C9.97423448,5.32553022 10.1172692,5.41804392 10.2126257,5.5446416 C10.316651,5.67610843 10.3686636,5.8465284 10.3686636,6.05103235 C10.3686636,6.37239571 10.2689727,6.63532937 10.069591,6.83983333 C9.86154045,7.04920642 9.58847415,7.15632754 9.25039205,7.15632754 C8.9296475,7.15632754 8.66958435,7.06381385 8.47453699,6.87878646 C8.2578177,6.6742825 8.13645489,6.37239571 8.11044858,5.98286437 L8.62624049,5.98286437 C8.63490926,6.20684489 8.69559067,6.382134 8.81695347,6.50386254 C8.92531311,6.6158528 9.06834785,6.6742825 9.24605767,6.6742825 C9.44110503,6.6742825 9.59714292,6.61098366 9.70983695,6.48925511 C9.80952782,6.37726485 9.86154045,6.24092888 9.86154045,6.07537806 C9.86154045,5.87574325 9.80519344,5.72966899 9.70116818,5.6371553 C9.59714292,5.53977246 9.44543941,5.49595018 9.24605767,5.49595018 L9.02933837,5.49595018 L9.02933837,5.06746571 L9.24605767,5.06746571 C9.42810187,5.06746571 9.56680222,5.02364343 9.6621587,4.93599888 C9.75318081,4.84835432 9.80085905,4.71688749 9.80085905,4.54646753 C9.80085905,4.37604757 9.75751519,4.24944988 9.67516186,4.16180533 C9.58413976,4.07416078 9.4497738,4.0303385 9.27206398,4.0303385 C9.09001978,4.0303385 8.95131943,4.07902992 8.85162856,4.1812819 C8.7476033,4.28353387 8.68692189,4.43934641 8.66958435,4.64871951 L8.17112998,4.64871951 C8.1971363,4.2981413 8.30983033,4.02546936 8.51788085,3.83070368 C8.71292821,3.63593801 8.96432259,3.54342432 9.26772959,3.54342432 Z" id="123" fill="#FFFFFF"></path>
                </g>
            </g>
        </g>
    </g>
</svg>