<svg width="60" height="60" xmlns="http://www.w3.org/2000/svg" xmlns:xlink="http://www.w3.org/1999/xlink"><defs><rect id="a" x="3.214" y="0" width="20.089" height="23.648" rx="1.92"/><rect id="b" x="0" y="3.503" width="20.089" height="23.648" rx="1.92"/><rect id="c" x=".415" y=".834" width="13.272" height="8.258" rx="2"/></defs><g fill="none" fill-rule="evenodd"><circle fill="#07D3CF" cx="30" cy="30" r="30"/><g transform="translate(15 16)"><use fill="#07D3CF" xlink:href="#a"/><rect stroke="#FFF" stroke-width="1.5" x="3.964" y=".75" width="18.589" height="22.148" rx="1.92"/><use fill="#07D3CF" xlink:href="#b"/><rect stroke="#FFF" stroke-width="1.5" x=".75" y="4.253" width="18.589" height="22.148" rx="1.92"/><rect fill="#FFF" x="3.214" y="7.883" width="11.613" height="1.355" rx=".677"/><path fill="#07D3CF" d="M13.41 17.161H30V28H13.41z"/><rect fill="#FFF" x="3.214" y="12.262" width="11.613" height="1.355" rx=".677"/><rect fill="#FFF" x="3.214" y="16.641" width="11.613" height="1.355" rx=".677"/><rect fill="#FFF" x="3.214" y="21.021" width="8.295" height="1.355" rx=".677"/></g><g transform="translate(29.516 34.308)"><use fill="#07D3CF" xlink:href="#c"/><rect stroke="#FFF" x=".915" y="1.334" width="12.272" height="7.258" rx="2"/></g><path d="M34.081 37.92h.381v3.476h-.507v-2.79c-.186.19-.42.33-.706.423v-.564a1.73 1.73 0 0 0 .442-.205c.156-.107.286-.219.39-.34zm2.12-.069c.299 0 .546.097.74.292.191.195.287.443.287.755 0 .302-.104.575-.304.823-.121.146-.338.331-.641.56-.316.234-.507.438-.577.613h1.526v.502h-2.158c0-.356.1-.662.307-.925.113-.146.351-.36.711-.638.2-.156.338-.287.425-.39a.878.878 0 0 0 .204-.55c0-.19-.048-.331-.135-.424-.09-.092-.225-.136-.403-.136a.478.478 0 0 0-.429.22c-.095.136-.147.345-.156.618h-.507c.004-.39.104-.702.303-.94a.984.984 0 0 1 .807-.38zm2.583 0c.312 0 .568.083.758.253.187.17.282.404.282.706 0 .38-.173.633-.516.76a.864.864 0 0 1 .42.282.794.794 0 0 1 .157.507c0 .321-.1.584-.3.789-.207.209-.48.316-.818.316-.321 0-.581-.092-.776-.278-.217-.204-.338-.506-.364-.895h.515c.009.224.07.399.191.52.108.113.251.171.43.171a.605.605 0 0 0 .463-.185.599.599 0 0 0 .152-.414c0-.2-.057-.346-.16-.438-.105-.098-.256-.141-.456-.141h-.217v-.429h.217c.182 0 .32-.044.416-.131.091-.088.139-.22.139-.39s-.043-.297-.126-.385c-.09-.087-.225-.131-.403-.131-.182 0-.32.049-.42.151-.104.102-.165.258-.182.467h-.499c.026-.35.139-.623.347-.818.195-.194.446-.287.75-.287z" fill="#FFF"/></g></svg>