<?xml version="1.0" encoding="UTF-8"?>
<svg width="30px" height="20px" viewBox="0 0 30 20" version="1.1" xmlns="http://www.w3.org/2000/svg" xmlns:xlink="http://www.w3.org/1999/xlink">
    <!-- Generator: Sketch 48.2 (47327) - http://www.bohemiancoding.com/sketch -->
    <title>Combined shape 3163</title>
    <desc>Created with Sketch.</desc>
    <defs></defs>
    <g id="Artboard" stroke="none" stroke-width="1" fill="none" fill-rule="evenodd" transform="translate(-50.000000, -1827.000000)">
        <g id="系统维护" transform="translate(14.000000, 1786.000000)" fill="#FFFFFF">
            <g id="01">
                <path d="M63.843738,40.999944 C65.062604,40.999944 66.000052,41.971032 66.000052,43.233024 L66.000052,58.767024 C66.000052,60.02916 65.062604,61.000128 63.843738,61.000128 L38.15616,61.000128 C36.937566,61.000128 35.999982,60.02916 35.999982,58.767024 L35.999982,43.233024 C35.999982,41.971032 36.937566,40.999944 38.15616,40.999944 L63.843738,40.999944 Z M63.843738,57.699072 L63.750068,57.699072 L63.750068,44.300832 C63.750068,43.718496 63.375082,43.233024 62.718814,43.233024 L39.187414,43.233024 C38.531282,43.233024 38.15616,43.718496 38.15616,44.300832 L38.15616,57.699072 C38.15616,58.281552 38.531282,58.767024 39.187414,58.767024 L62.812484,58.767024 C63.375082,58.767024 63.843738,58.37856 63.843738,57.699072 Z M43.593712,47.601888 C43.9688,47.310576 44.343786,47.019408 44.531296,47.019408 L45.46871,47.019408 L45.46871,55.563144 L44.156174,55.563144 L44.156174,48.669864 C43.781188,49.058184 43.12492,49.446504 42.374982,49.640808 L42.374982,48.184536 C42.84374,48.08736 43.12492,47.796048 43.593712,47.601888 Z M50.249994,52.650408 C49.500056,53.232888 48.93756,53.621376 48.656278,53.912688 L52.593784,53.912688 L52.593784,55.174968 L47.062426,55.174968 C47.062426,54.39816 47.249936,53.621376 47.812534,52.94172 C48.09368,52.650408 48.656278,52.067928 49.593726,51.388416 C50.062518,50.999952 50.43747,50.611632 50.62498,50.417472 C51.000068,49.931976 51.187442,49.446504 51.187442,49.058184 C51.187442,48.669864 51.093772,48.281688 50.906262,48.08736 C50.718786,47.893368 50.3438,47.796048 49.875008,47.796048 C49.500056,47.796048 49.031264,48.08736 48.843754,48.378696 C48.468802,48.669864 48.375098,49.252488 48.375098,49.931976 L47.062426,49.931976 C47.062426,48.961176 47.249936,48.184536 47.812534,47.601888 C48.28119,47.019408 49.031264,46.728096 49.875008,46.728096 C50.62498,46.728096 51.281248,46.922256 51.843846,47.407728 C52.406308,47.893368 52.593784,48.475704 52.593784,49.252488 C52.593784,49.931976 52.406308,50.70864 51.843846,51.291264 C51.656234,51.679752 51.000068,52.067928 50.249994,52.650408 Z M58.031336,50.805792 C58.499992,50.902944 58.968784,51.194112 59.249964,51.291264 C59.625052,51.679752 59.718722,51.97092 59.718722,52.553544 C59.718722,53.33004 59.531246,53.81568 58.968784,54.39816 C58.406322,54.98064 57.656248,55.174968 56.81247,55.174968 C55.968828,55.174968 55.312424,54.98064 54.749962,54.495168 C54.281204,53.912688 53.906354,53.232888 53.812412,52.262232 L55.124948,52.262232 C55.218754,52.844568 55.406366,53.33004 55.687546,53.621376 C55.875022,54.009696 56.250008,54.106848 56.7188,54.106848 C57.281262,54.106848 57.656248,53.912688 57.93753,53.621376 C58.312516,53.427192 58.406322,53.13588 58.406322,52.650408 C58.406322,52.16508 58.21871,51.77676 57.93753,51.582432 C57.562544,51.388416 57.281262,51.291264 56.7188,51.291264 L56.156202,51.291264 L56.156202,50.320464 L56.7188,50.320464 C57.093786,50.320464 57.562544,50.223312 57.750054,50.029152 C57.93753,49.834992 58.031336,49.446504 58.031336,49.058184 C58.031336,48.669864 57.93753,48.281688 57.750054,48.08736 C57.562544,47.893368 57.093786,47.796048 56.7188,47.796048 C56.343814,47.796048 55.968828,47.893368 55.687546,48.08736 C55.406366,48.281688 55.218754,48.572712 55.218754,49.155336 L53.906354,49.155336 C53.906354,48.184536 54.1875,47.601888 54.749962,47.11656 C55.312424,46.631088 55.875022,46.533936 56.624994,46.533936 C57.375068,46.533936 58.031336,46.728096 58.593798,47.213568 C59.15626,47.601888 59.34377,48.184536 59.34377,48.961176 C59.34377,49.931976 58.875114,50.514624 58.031336,50.805792 Z" id="Combined-shape-3163"></path>
            </g>
        </g>
    </g>
</svg>