<svg xmlns="http://www.w3.org/2000/svg" width="30" height="20" viewBox="0 0 30 20">
  <metadata><?xpacket begin="﻿" id="W5M0MpCehiHzreSzNTczkc9d"?>
<x:xmpmeta xmlns:x="adobe:ns:meta/" x:xmptk="Adobe XMP Core 5.6-c138 79.159824, 2016/09/14-01:09:01        ">
   <rdf:RDF xmlns:rdf="http://www.w3.org/1999/02/22-rdf-syntax-ns#">
      <rdf:Description rdf:about=""/>
   </rdf:RDF>
</x:xmpmeta>
                                                                                                    
                                                                                                    
                                                                                                    
                                                                                                    
                                                                                                    
                                                                                                    
                                                                                                    
                                                                                                    
                                                                                                    
                                                                                                    
                                                                                                    
                                                                                                    
                                                                                                    
                                                                                                    
                                                                                                    
                                                                                                    
                                                                                                    
                                                                                                    
                                                                                                    
                                                                                                    
                           
<?xpacket end="w"?></metadata>
<defs>
    <style>
      .cls-1 {
        fill: #fff;
        fill-rule: evenodd;
      }
    </style>
  </defs>
  <path id="形状_541" data-name="形状 541" class="cls-1" d="M77.844,1706H52.156A2.159,2.159,0,0,0,50,1708.23v15.54a2.159,2.159,0,0,0,2.156,2.23H77.844A2.159,2.159,0,0,0,80,1723.77v-15.54a2.159,2.159,0,0,0-2.156-2.23h0Zm0,16.7a1,1,0,0,1-1.031,1.07H53.187a1,1,0,0,1-1.031-1.07v-13.4a1,1,0,0,1,1.031-1.07H76.719a1,1,0,0,1,1.031,1.07v13.4h0.094Zm0,0-20.25-10.1a6.128,6.128,0,0,1-1.219.58v1.46a3.9,3.9,0,0,0,1.781-.97v6.89h1.313v-8.54H58.531a2.646,2.646,0,0,0-.938.58h0Zm6.656,5.05a6.42,6.42,0,0,0,1.594-1.36,2.9,2.9,0,0,0,.75-2.04,2.205,2.205,0,0,0-.75-1.84,2.856,2.856,0,0,0-1.969-.68,2.58,2.58,0,0,0-2.062.87,3.161,3.161,0,0,0-.75,2.33h1.313a1.916,1.916,0,0,1,.469-1.55,1.418,1.418,0,0,1,1.031-.58,1.444,1.444,0,0,1,1.031.29,1.472,1.472,0,0,1,.281.97,2.367,2.367,0,0,1-.562,1.36,13.747,13.747,0,0,1-1.031.97,12.863,12.863,0,0,0-1.781,1.55,3.386,3.386,0,0,0-.75,2.23h5.531v-1.26H62.656c0.281-.29.844-0.68,1.594-1.26h0Zm7.781-1.84a1.8,1.8,0,0,0,1.313-1.85,1.923,1.923,0,0,0-.75-1.75,2.9,2.9,0,0,0-1.969-.68,2.557,2.557,0,0,0-1.875.59,2.4,2.4,0,0,0-.844,2.04h1.313a1.142,1.142,0,0,1,.469-1.07,1.8,1.8,0,0,1,1.031-.29,1.606,1.606,0,0,1,1.031.29,1.813,1.813,0,0,1,0,1.94,1.668,1.668,0,0,1-1.031.29H70.156v0.97h0.563a2.319,2.319,0,0,1,1.219.29,1.29,1.29,0,0,1,.469,1.07,0.91,0.91,0,0,1-.469.97,1.6,1.6,0,0,1-1.219.49,1,1,0,0,1-1.031-.49,2.573,2.573,0,0,1-.563-1.36H67.812a4.068,4.068,0,0,0,.938,2.24,2.982,2.982,0,0,0,2.063.67,2.846,2.846,0,0,0,2.156-.77,2.339,2.339,0,0,0,.75-1.85,1.519,1.519,0,0,0-.469-1.26,7.275,7.275,0,0,0-1.219-.48h0Zm0,0" transform="translate(-50 -1706)"/>
</svg>
