<?xml version="1.0" encoding="UTF-8"?>
<svg width="60px" height="60px" viewBox="0 0 60 60" version="1.1" xmlns="http://www.w3.org/2000/svg" xmlns:xlink="http://www.w3.org/1999/xlink">
    <!-- Generator: Sketch 49.3 (51167) - http://www.bohemiancoding.com/sketch -->
    <title>系统维护-税收分类编码</title>
    <desc>Created with Sketch.</desc>
    <defs>
        <rect id="path-1" x="3.32142857" y="0" width="20.7589286" height="21.9589443" rx="1.92"></rect>
        <rect id="path-2" x="0" y="3.25317693" width="20.7589286" height="21.9589443" rx="1.92"></rect>
        <rect id="path-3" x="0.428571429" y="0.774193548" width="13.7142857" height="7.66820276" rx="2"></rect>
    </defs>
    <g id="icon" stroke="none" stroke-width="1" fill="none" fill-rule="evenodd">
        <g id="系统维护-税收分类编码">
            <circle id="Oval-Copy" fill="#07D3CF" cx="30" cy="30" r="30"></circle>
            <g id="Group-30" transform="translate(15.000000, 17.000000)">
                <g id="Group-29">
                    <g id="Rectangle-15">
                        <use fill="#07D3CF" fill-rule="evenodd" xlink:href="#path-1"></use>
                        <rect stroke="#FFFFFF" stroke-width="1.5" x="4.07142857" y="0.75" width="19.2589286" height="20.4589443" rx="1.92"></rect>
                    </g>
                    <g id="Rectangle-15-Copy">
                        <use fill="#07D3CF" fill-rule="evenodd" xlink:href="#path-2"></use>
                        <rect stroke="#FFFFFF" stroke-width="1.5" x="0.75" y="4.00317693" width="19.2589286" height="20.4589443" rx="1.92"></rect>
                    </g>
                    <rect id="Rectangle-16" fill="#FFFFFF" x="3.32142857" y="7.31964809" width="12" height="1.25806452" rx="0.629032258"></rect>
                    <rect id="Rectangle-18" fill="#07D3CF" x="13.8571429" y="15.9354839" width="17.1428571" height="10.0645161"></rect>
                    <rect id="Rectangle-16-Copy" fill="#FFFFFF" x="3.32142857" y="11.3861193" width="12" height="1.25806452" rx="0.629032258"></rect>
                    <rect id="Rectangle-16-Copy-3" fill="#FFFFFF" x="3.32142857" y="15.4525904" width="12" height="1.25806452" rx="0.629032258"></rect>
                    <rect id="Rectangle-16-Copy-2" fill="#FFFFFF" x="3.32142857" y="19.5190616" width="8.57142857" height="1.25806452" rx="0.629032258"></rect>
                </g>
                <g id="Group-31" transform="translate(15.000000, 17.000000)">
                    <g id="Rectangle-19">
                        <use fill="#07D3CF" fill-rule="evenodd" xlink:href="#path-3"></use>
                        <rect stroke="#FFFFFF" stroke-width="1" x="0.928571429" y="1.27419355" width="12.7142857" height="6.66820276" rx="2"></rect>
                    </g>
                    <path d="M4.71708501,3.35362142 L5.11122516,3.35362142 L5.11122516,6.58186245 L4.58719791,6.58186245 L4.58719791,3.99113121 C4.3946067,4.1674637 4.15274797,4.29858273 3.85714286,4.38448831 L3.85714286,3.86001217 C4.00046655,3.82384141 4.15274797,3.76054256 4.31398712,3.67011564 C4.47522628,3.57064603 4.60959224,3.46665507 4.71708501,3.35362142 Z M6.90725016,3.29032258 C7.21629187,3.29032258 7.4715872,3.3807495 7.67313614,3.56160334 C7.87020621,3.74245718 7.96874125,3.97304582 7.96874125,4.26241196 C7.96874125,4.54273541 7.86124848,4.79593079 7.65522068,5.02651943 C7.52981245,5.16215981 7.30586918,5.33397096 6.99234861,5.54647422 C6.66539143,5.76349883 6.46832136,5.95339536 6.39665951,6.11616381 L7.97322012,6.11616381 L7.97322012,6.58186245 L5.74274517,6.58186245 C5.74274517,6.25180419 5.84575907,5.96695939 6.06074461,5.72280671 C6.17719511,5.58716633 6.42353271,5.38822711 6.79527853,5.13051039 C7.00130634,4.98582732 7.14463003,4.86375098 7.23420733,4.76880271 C7.37305216,4.6105556 7.44471401,4.43874446 7.44471401,4.25789062 C7.44471401,4.08155813 7.39544649,3.95043909 7.30586918,3.86453352 C7.21181301,3.77862795 7.07296818,3.73793583 6.8893347,3.73793583 C6.69226463,3.73793583 6.54446207,3.80575602 6.44592703,3.9413964 C6.34739199,4.06799409 6.29364561,4.26241196 6.28468788,4.51560734 L5.76066063,4.51560734 C5.7651395,4.15389966 5.8681534,3.86453352 6.07418121,3.64298757 C6.28468788,3.40787758 6.56237753,3.29032258 6.90725016,3.29032258 Z M9.57665391,3.29032258 C9.89913222,3.29032258 10.1633853,3.36718546 10.3604554,3.52543257 C10.5530466,3.68367968 10.6515816,3.90070429 10.6515816,4.18102774 C10.6515816,4.53369272 10.472427,4.76880271 10.1185966,4.88635771 C10.306709,4.94513521 10.4545115,5.03104078 10.5530466,5.14859577 C10.6605393,5.27067212 10.7142857,5.42891922 10.7142857,5.61881576 C10.7142857,5.91722459 10.6112718,6.16137727 10.405244,6.3512738 C10.1902585,6.54569168 9.90808995,6.64516129 9.55873845,6.64516129 C9.22730242,6.64516129 8.9585705,6.55925572 8.75702155,6.38744457 C8.53307829,6.19754804 8.40767006,5.91722459 8.38079686,5.55551691 L8.91378184,5.55551691 C8.92273957,5.76349883 8.98544369,5.92626728 9.11085192,6.03930093 C9.22282355,6.14329189 9.37062611,6.19754804 9.55425959,6.19754804 C9.75580853,6.19754804 9.91704768,6.13877054 10.0334982,6.02573689 C10.1365121,5.92174594 10.1902585,5.79514825 10.1902585,5.64142249 C10.1902585,5.4560473 10.1320332,5.32040692 10.0245404,5.23450135 C9.91704768,5.14407443 9.76028739,5.10338231 9.55425959,5.10338231 L9.33031632,5.10338231 L9.33031632,4.70550387 L9.55425959,4.70550387 C9.74237193,4.70550387 9.88569562,4.66481176 9.98423066,4.58342753 C10.0782868,4.5020433 10.1275544,4.37996696 10.1275544,4.22171985 C10.1275544,4.06347274 10.0827657,3.94591775 9.99766726,3.86453352 C9.90361109,3.78314929 9.76476626,3.74245718 9.58113278,3.74245718 C9.39302043,3.74245718 9.24969674,3.78767064 9.14668284,3.8826189 C9.03919007,3.97756717 8.97648596,4.12225024 8.9585705,4.31666812 L8.44350098,4.31666812 C8.47037417,3.99113121 8.58682467,3.73793583 8.80181021,3.55708199 C9.00335915,3.37622815 9.26313334,3.29032258 9.57665391,3.29032258 Z" id="123" fill="#FFFFFF"></path>
                </g>
            </g>
        </g>
    </g>
</svg>