<svg id="组_1_拷贝_2" data-name="组 1 拷贝 2" xmlns="http://www.w3.org/2000/svg" width="26" height="28" viewBox="0 0 26 28">
  <metadata><?xpacket begin="﻿" id="W5M0MpCehiHzreSzNTczkc9d"?>
<x:xmpmeta xmlns:x="adobe:ns:meta/" x:xmptk="Adobe XMP Core 5.6-c138 79.159824, 2016/09/14-01:09:01        ">
   <rdf:RDF xmlns:rdf="http://www.w3.org/1999/02/22-rdf-syntax-ns#">
      <rdf:Description rdf:about=""/>
   </rdf:RDF>
</x:xmpmeta>
                                                                                                    
                                                                                                    
                                                                                                    
                                                                                                    
                                                                                                    
                                                                                                    
                                                                                                    
                                                                                                    
                                                                                                    
                                                                                                    
                                                                                                    
                                                                                                    
                                                                                                    
                                                                                                    
                                                                                                    
                                                                                                    
                                                                                                    
                                                                                                    
                                                                                                    
                                                                                                    
                           
<?xpacket end="w"?></metadata>
<defs>
    <style>
      .cls-1 {
        fill: #fff;
        fill-rule: evenodd;
      }
    </style>
  </defs>
  <path id="形状_17_拷贝_4" data-name="形状 17 拷贝 4" class="cls-1" d="M1877.69,903.344h-22.25a0.743,0.743,0,0,1-.75-0.741V879.4a0.742,0.742,0,0,1,.75-0.741h21.12a0.748,0.748,0,0,1,.75.741v24.064a0.845,0.845,0,0,0,1.69,0V879.4a2.426,2.426,0,0,0-2.44-2.4h-21.12a2.426,2.426,0,0,0-2.44,2.4v23.2a2.426,2.426,0,0,0,2.44,2.4h22.25a0.829,0.829,0,1,0,0-1.657h0Zm0,0" transform="translate(-1853 -877)"/>
  <path id="形状_26" data-name="形状 26" class="cls-1" d="M1874.03,884.123a0.431,0.431,0,0,0-.6,0l-14.46,14.167a0.42,0.42,0,0,0,0,.588,0.458,0.458,0,0,0,.31.122,0.411,0.411,0,0,0,.29-0.122l14.46-14.166a0.421,0.421,0,0,0,0-.589h0ZM1868,896h6v1h-6v-1Zm-9-10h7v1h-7v-1Zm3-3h1v7h-1v-7Z" transform="translate(-1853 -877)"/>
</svg>
