<?xml version="1.0" encoding="UTF-8"?>
<svg width="30px" height="29px" viewBox="0 0 30 29" version="1.1" xmlns="http://www.w3.org/2000/svg" xmlns:xlink="http://www.w3.org/1999/xlink">
    <!-- Generator: Sketch 48.2 (47327) - http://www.bohemiancoding.com/sketch -->
    <title>Combined shape 2743</title>
    <desc>Created with Sketch.</desc>
    <defs></defs>
    <g id="Artboard" stroke="none" stroke-width="1" fill="none" fill-rule="evenodd" transform="translate(-1270.000000, -877.000000)">
        <g id="其他台账" transform="translate(14.000000, 839.000000)" fill="#FFFFFF">
            <g id="01-拷贝" transform="translate(1220.000000, 1.000000)">
                <g id="组-3-拷贝" transform="translate(36.000000, 37.000000)">
                    <path d="M12.4814942,10 L14,10 C14.5522847,10 15,10.4477153 15,11 C15,11.5522847 14.5522847,12 14,12 L12,12 L12,13 L14,13 C14.5522847,13 15,13.4477153 15,14 C15,14.5522847 14.5522847,15 14,15 L12,15 L12,17 C12,17.5522847 11.5522847,18 11,18 C10.4477153,18 10,17.5522847 10,17 L10,15 L8,15 C7.44771525,15 7,14.5522847 7,14 C7,13.4477153 7.44771525,13 8,13 L10,13 L10,12 L8,12 C7.44771525,12 7,11.5522847 7,11 C7,10.4477153 7.44771525,10 8,10 L10,10 C10,9.99890477 10.0000018,9.99780995 10.0000053,9.99671554 C9.9828516,9.98174317 9.96608715,9.96608715 9.94974747,9.94974747 L7.12132034,7.12132034 C6.73079605,6.73079605 6.73079605,6.09763107 7.12132034,5.70710678 C7.51184464,5.31658249 8.14500961,5.31658249 8.53553391,5.70710678 L11.2426407,8.41421356 L13.9497475,5.70710678 C14.3402718,5.31658249 14.9734367,5.31658249 15.363961,5.70710678 C15.7544853,6.09763107 15.7544853,6.73079605 15.363961,7.12132034 L12.5355339,9.94974747 C12.5179954,9.96728597 12.4999675,9.98403681 12.4814942,10 Z M24.273844,23.3757 C23.83252,23.3757 23.47372,23.747928 23.47372,24.205236 C23.47372,24.662856 23.83252,25.03494 24.273844,25.03494 C24.715036,25.03494 25.07398,24.662712 25.07398,24.205236 C25.07398,23.747928 24.715036,23.3757 24.273844,23.3757 Z M19.726516,17.96076 C19.285192,17.96076 18.92626,18.332988 18.92626,18.790308 C18.92626,19.247772 19.285192,19.62 19.726516,19.62 C20.167708,19.62 20.52664,19.247772 20.52664,18.790308 C20.52664,18.332988 20.167708,17.96076 19.726516,17.96076 Z M18.8395,23.951772 L24.322096,18.261024 C24.541924,18.032736 24.89842,18.032736 25.1185,18.261024 C25.338328,18.489156 25.338328,18.859152 25.118632,19.08744 L19.635784,24.778488 C19.415956,25.006632 19.05946,25.006632 18.8395,24.778488 C18.619684,24.5502 18.619552,24.18006 18.8395,23.951772 Z M22.221242,13.573999 C26.510483,13.573999 30.000002,17.034064 30.000002,21.286861 C30.000002,25.540092 26.510483,29.000002 22.221242,29.000002 C17.931704,29.000002 14.442185,25.540092 14.442185,21.286861 C14.442185,17.033909 17.931704,13.573999 22.221242,13.573999 Z M22.221242,27.446995 C25.64684,27.446995 28.433888,24.683562 28.433888,21.286861 C28.433888,17.890284 25.64684,15.126851 22.221242,15.126851 C18.795611,15.126851 16.008563,17.890284 16.008563,21.286861 C16.008563,24.683562 18.795611,27.446995 22.221242,27.446995 Z M12.937913,23.760289 C13.370378,23.760289 13.72097,24.107923 13.72097,24.536808 C13.72097,24.965662 13.370378,25.313296 12.937913,25.313296 L2.267759,25.313296 C1.017323,25.313296 6.49999999e-05,24.304494 6.49999999e-05,23.064711 L6.49999999e-05,2.248521 C6.49999999e-05,1.008738 1.017323,9.1e-05 2.267759,9.1e-05 L21.885269,9.1e-05 C23.135573,9.1e-05 24.152831,1.008738 24.152699,2.248521 L24.152699,10.870644 C24.152699,11.299498 23.802239,11.647132 23.369642,11.647132 C22.937045,11.647132 22.586453,11.299498 22.586453,10.870644 L22.586453,2.248521 C22.586453,1.865113 22.271798,1.552943 21.885005,1.552943 L2.267759,1.552943 C1.880999,1.552943 1.566311,1.865113 1.566311,2.248521 L1.566311,23.064866 C1.566311,23.448119 1.880867,23.760289 2.267759,23.760289 L12.937913,23.760289 Z M19.726768,16.999932 C20.678848,16.999932 21.453304,17.804004 21.453304,18.79224 C21.453304,19.780488 20.678848,20.58456 19.726768,20.58456 C18.774448,20.58456 17.99998,19.780644 17.99998,18.79224 C17.99998,17.804004 18.774448,16.999932 19.726768,16.999932 Z M24.274108,22.414872 C25.226176,22.414872 26.000632,23.218932 26.000632,24.207324 C26.000632,25.195428 25.226176,25.999644 24.274108,25.999644 C23.321776,25.999644 22.547308,25.195572 22.547308,24.207324 C22.547308,23.218932 23.321776,22.414872 24.274108,22.414872 Z" id="Combined-shape-2743"></path>
                </g>
            </g>
        </g>
    </g>
</svg>