<svg id="组_3_拷贝" data-name="组 3 拷贝" xmlns="http://www.w3.org/2000/svg" width="30" height="29" viewBox="0 0 30 29">
  <metadata><?xpacket begin="﻿" id="W5M0MpCehiHzreSzNTczkc9d"?>
<x:xmpmeta xmlns:x="adobe:ns:meta/" x:xmptk="Adobe XMP Core 5.6-c138 79.159824, 2016/09/14-01:09:01        ">
   <rdf:RDF xmlns:rdf="http://www.w3.org/1999/02/22-rdf-syntax-ns#">
      <rdf:Description rdf:about=""/>
   </rdf:RDF>
</x:xmpmeta>
                                                                                                    
                                                                                                    
                                                                                                    
                                                                                                    
                                                                                                    
                                                                                                    
                                                                                                    
                                                                                                    
                                                                                                    
                                                                                                    
                                                                                                    
                                                                                                    
                                                                                                    
                                                                                                    
                                                                                                    
                                                                                                    
                                                                                                    
                                                                                                    
                                                                                                    
                                                                                                    
                           
<?xpacket end="w"?></metadata>
<defs>
    <style>
      .cls-1 {
        fill: #fff;
        fill-rule: evenodd;
      }
    </style>
  </defs>
  <path id="形状_17_拷贝_6" data-name="形状 17 拷贝 6" class="cls-1" d="M1292.22,890.574a7.713,7.713,0,1,0,7.78,7.713,7.755,7.755,0,0,0-7.78-7.713h0Zm0,13.873a6.16,6.16,0,1,1,6.21-6.16,6.195,6.195,0,0,1-6.21,6.16h0Zm0,0-9.28-3.687h-10.67a0.7,0.7,0,0,1-.7-0.695V879.249a0.7,0.7,0,0,1,.7-0.7h19.62a0.7,0.7,0,0,1,.7.7v8.622a0.78,0.78,0,0,0,1.56,0v-8.622a2.255,2.255,0,0,0-2.26-2.249h-19.62a2.263,2.263,0,0,0-2.27,2.249v20.816a2.262,2.262,0,0,0,2.27,2.248h10.67a0.777,0.777,0,1,0,0-1.553h0Zm0,0" transform="translate(-1270 -877)"/>
  <path id="形状_23" data-name="形状 23" class="cls-1" d="M1289.73,894a1.794,1.794,0,1,0,1.72,1.792,1.76,1.76,0,0,0-1.72-1.792h0Zm5.39,1.261a0.553,0.553,0,0,0-.8,0l-5.48,5.691a0.6,0.6,0,0,0,0,.827,0.553,0.553,0,0,0,.8,0l5.48-5.692a0.6,0.6,0,0,0,0-.826h0Zm0,0M1289.73,894a1.794,1.794,0,1,0,1.72,1.792,1.76,1.76,0,0,0-1.72-1.792h0Zm4.59,1.261-5.48,5.691m0.89-5.991a0.83,0.83,0,1,0,.8.829,0.817,0.817,0,0,0-.8-0.829h0Zm0,0a0.83,0.83,0,1,0,.8.829,0.817,0.817,0,0,0-.8-0.829h0Zm4.54,4.454a1.794,1.794,0,1,0,1.73,1.792,1.758,1.758,0,0,0-1.73-1.792h0Zm0,0a1.794,1.794,0,1,0,1.73,1.792,1.758,1.758,0,0,0-1.73-1.792h0Zm0,0.961a0.83,0.83,0,1,0,.8.829,0.817,0.817,0,0,0-.8-0.829h0Zm0,0a0.83,0.83,0,1,0,.8.829,0.817,0.817,0,0,0-.8-0.829h0Z" transform="translate(-1270 -877)"/>
  <path id="形状_20_拷贝" data-name="形状 20 拷贝" class="cls-1" d="M1281.52,885.931a0.6,0.6,0,0,1-.46-0.17l-2.68-2.64a0.615,0.615,0,0,1,0-.908,0.683,0.683,0,0,1,.96,0l2.65,2.621a0.643,0.643,0,0,1-.47,1.1h0Zm0,0,0.32-.17a0.774,0.774,0,0,1-.49-0.189,0.667,0.667,0,0,1,0-.927l2.5-2.451a0.647,0.647,0,0,1,.47-0.2,0.67,0.67,0,0,1,.48.2,0.626,0.626,0,0,1,0,.908l-2.5,2.451a0.752,0.752,0,0,1-.46.208h0Zm0,0M1281.56,894a0.658,0.658,0,0,1-.46-0.188,0.619,0.619,0,0,1-.2-0.455v-8.3a0.618,0.618,0,0,1,.2-0.455,0.653,0.653,0,0,1,.46-0.188,0.679,0.679,0,0,1,.69.643v8.3a0.679,0.679,0,0,1-.69.643h0Zm0,0,2.77-5.8h-5.67a0.678,0.678,0,0,1-.67-0.662,0.619,0.619,0,0,1,.2-0.455,0.664,0.664,0,0,1,.47-0.188h5.67a0.664,0.664,0,0,1,.47.188,0.619,0.619,0,0,1,.2.455,0.678,0.678,0,0,1-.67.662h0Zm0,3.4h-5.67a0.66,0.66,0,0,1-.47-0.188,0.618,0.618,0,0,1-.2-0.455,0.678,0.678,0,0,1,.67-0.662h5.67a0.678,0.678,0,0,1,.67.662,0.618,0.618,0,0,1-.2.455,0.66,0.66,0,0,1-.47.188h0Zm0,0" transform="translate(-1270 -877)"/>
</svg>
