<svg width="60" height="60" xmlns="http://www.w3.org/2000/svg" xmlns:xlink="http://www.w3.org/1999/xlink"><defs><rect id="a" x="0" y="0" width="25" height="27" rx="2"/></defs><g fill="none" fill-rule="evenodd"><circle fill="#49A7FF" cx="30" cy="30" r="30"/><g transform="translate(16 16)"><use fill="#49A7FF" xlink:href="#a"/><rect stroke="#FFF" stroke-width="1.5" x=".75" y=".75" width="23.5" height="25.5" rx="2"/><circle fill="#49A7FF" cx="20.5" cy="20.5" r="7.5"/><path fill="#FFF" d="M4 18h1.454L7 20.53 8.546 18H10l-1.966 2.924h1.31v.555H7.656l-.01.008v.698h1.7v.554h-1.7V24h-1.29v-1.26h-1.69v-.555h1.69v-.698l-.01-.008h-1.68v-.555h1.3z"/><rect fill="#FFF" x="4" y="5" width="16" height="1.5" rx=".75"/><rect fill="#FFF" x="4" y="9" width="16" height="1.5" rx=".75"/><rect fill="#FFF" x="4" y="13" width="8" height="1.5" rx=".75"/><path d="M21 27a6 6 0 1 1 0-12 6 6 0 0 1 0 12zm0-1.241a4.759 4.759 0 1 0 0-9.518 4.759 4.759 0 0 0 0 9.518z" fill="#FFF" fill-rule="nonzero"/><path d="M18.678 20.016c-.096.06-.186.126-.276.186l-.402-.48c.684-.402 1.284-.978 1.8-1.722l.63.144c-.084.126-.162.246-.24.354h1.974v.468a7.345 7.345 0 0 1-.588.66h1.332V21.6h-1.356v1.038c0 .168.066.258.21.258h.888c.072 0 .126-.042.162-.114.036-.078.066-.318.078-.714l.594.186c-.048.606-.126.966-.234 1.086-.102.108-.264.162-.48.162h-1.2c-.432 0-.642-.246-.642-.732V21.6h-.168c-.036.102-.078.198-.12.294-.306.684-1.044 1.26-2.22 1.716l-.402-.486c1.032-.384 1.698-.852 2.01-1.398.024-.048.042-.09.06-.126h-1.41v-1.584zm2.112-.39c.186-.168.372-.354.564-.564H19.74c-.186.204-.378.39-.57.564h1.62zm1.512 1.386v-.804h-1.278a5.465 5.465 0 0 1-.096.804h1.374zm-2.016 0c.054-.246.09-.516.108-.804H19.29v.804h.996z" fill="#FFF"/></g></g></svg>