<svg xmlns="http://www.w3.org/2000/svg" width="28" height="28" viewBox="0 0 28 28">
  <metadata><?xpacket begin="﻿" id="W5M0MpCehiHzreSzNTczkc9d"?>
<x:xmpmeta xmlns:x="adobe:ns:meta/" x:xmptk="Adobe XMP Core 5.6-c138 79.159824, 2016/09/14-01:09:01        ">
   <rdf:RDF xmlns:rdf="http://www.w3.org/1999/02/22-rdf-syntax-ns#">
      <rdf:Description rdf:about=""/>
   </rdf:RDF>
</x:xmpmeta>
                                                                                                    
                                                                                                    
                                                                                                    
                                                                                                    
                                                                                                    
                                                                                                    
                                                                                                    
                                                                                                    
                                                                                                    
                                                                                                    
                                                                                                    
                                                                                                    
                                                                                                    
                                                                                                    
                                                                                                    
                                                                                                    
                                                                                                    
                                                                                                    
                                                                                                    
                                                                                                    
                           
<?xpacket end="w"?></metadata>
<defs>
    <style>
      .cls-1 {
        fill: #fff;
        fill-rule: evenodd;
      }
    </style>
  </defs>
  <path id="形状_35" data-name="形状 35" class="cls-1" d="M688.78,1251.44l-0.366.36a0.749,0.749,0,0,1-1.008,0l-2.564-2.59a7.62,7.62,0,0,1-4.214,1.34,6.911,6.911,0,1,1,7.236-6.86,6.928,6.928,0,0,1-1.556,4.37l2.564,2.49a0.673,0.673,0,0,1-.092.89m-8.059-12.91a5.08,5.08,0,1,0,5.311,5.07,5.284,5.284,0,0,0-5.311-5.07m-0.061-11.98a1.3,1.3,0,0,1,1.309-1.28h3.277a1.3,1.3,0,0,1,1.312,1.28v10.19a9.3,9.3,0,0,1,1.31,1.18v-12.65a1.292,1.292,0,0,0-1.31-1.27h-5.9a1.292,1.292,0,0,0-1.31,1.27v9.81a9.408,9.408,0,0,1,1.31-.14v-8.39Zm0,0-6.589,11.47H672.8a1.294,1.294,0,0,1-1.311-1.28v-10.19a1.3,1.3,0,0,1,1.311-1.28h3.276a1.3,1.3,0,0,1,1.31,1.28v9.1a11.186,11.186,0,0,1,1.312-.43v-9.95a1.292,1.292,0,0,0-1.312-1.27h-5.9a1.292,1.292,0,0,0-1.31,1.27v21.67a1.292,1.292,0,0,0,1.31,1.27h1.5a8.71,8.71,0,0,1,1.089-10.19h0Zm0,0M668.208,1224h-5.9a1.292,1.292,0,0,0-1.311,1.27v21.67a1.292,1.292,0,0,0,1.311,1.27h5.9a1.291,1.291,0,0,0,1.311-1.27v-21.67a1.291,1.291,0,0,0-1.311-1.27h0Zm-1.31,14.02h-3.277a1.293,1.293,0,0,1-1.31-1.28v-10.19a1.293,1.293,0,0,1,1.31-1.28H666.9a1.3,1.3,0,0,1,1.311,1.28v10.19h0a1.293,1.293,0,0,1-1.31,1.28h0Zm0,0-3.277-12.75H666.9a1.3,1.3,0,0,1,1.311,1.28,1.3,1.3,0,0,0-1.311-1.28h-3.276a1.293,1.293,0,0,0-1.31,1.28h0a1.3,1.3,0,0,1,1.31-1.28h0Zm0,0,3.276,12.75a1.293,1.293,0,0,0,1.311-1.28h0a1.293,1.293,0,0,1-1.311,1.28h0Zm0,0M662,1241h6v4h-6v-4Zm2-14h3v1h-3v-1Zm0,3h3v1h-3v-1Zm0,3h3v1h-3v-1Zm9-6h3v1h-3v-1Zm0,3h3v1h-3v-1Zm0,3h3v1h-3v-1Zm9-6h3v1h-3v-1Zm0,3h3v1h-3v-1Zm0,3h3v1h-3v-1Z" transform="translate(-661 -1224)"/>
</svg>
