<svg id="组_7_拷贝" data-name="组 7 拷贝" xmlns="http://www.w3.org/2000/svg" viewBox="0 0 30 23"><defs><style>.cls-1{fill:#fff;}</style></defs><title>税收优惠</title><path id="形状_600" data-name="形状 600" class="cls-1" d="M9.31,20.91H2.07V15.68c1.78-1.09,2.3-1.72,2.58-4A4.83,4.83,0,0,0,2.07,6.27V2.09h8.28m-3.1,0H27.93V6.21a5.77,5.77,0,0,0-3.1,5,8.64,8.64,0,0,0,1,3.45c.78,1,2,1.89,2.07,2.09l2.06-1c-.13-.22-1.26,0-2.07-1a10.16,10.16,0,0,1-1-2.09,10.92,10.92,0,0,1,.25-3.23,5.37,5.37,0,0,1,2.86-2V2.09C29.65.44,28.39,0,27,0H2.48A2.45,2.45,0,0,0,0,2.42s0,0,0,.06V7.61A3.77,3.77,0,0,1,2.4,9.24a3.52,3.52,0,0,1,.7,2,5.15,5.15,0,0,1-.7,2.1A3.87,3.87,0,0,1,0,14.91V20c0,1.4.67,3,2.07,3H29l1-2.1L8.53,21m-2.32-.06V2.09h4.14V20.91H6.21v0Z" transform="translate(0 0)"/><path id="矩形_610" data-name="矩形 610" class="cls-1" d="M28,15h2v6l-2,1Z" transform="translate(0 0)"/><path id="形状_7_拷贝" data-name="形状 7 拷贝" class="cls-1" d="M23.13,6.69a1,1,0,0,0-1.41,0h0l-8.78,8.78a1,1,0,1,0,1.42,1.42h0l8.78-8.78a1,1,0,0,0,0-1.41h0ZM15.19,11.5A2.55,2.55,0,1,0,12.64,9a2.55,2.55,0,0,0,2.55,2.55Zm0-3.69a1.14,1.14,0,1,1-1.14,1.14,1.14,1.14,0,0,1,1.14-1.14Zm5.68,4.27a2.55,2.55,0,1,0,2.55,2.55,2.55,2.55,0,0,0-2.55-2.55Zm0,3.69A1.14,1.14,0,1,1,22,14.63a1.14,1.14,0,0,1-1.14,1.14Z" transform="translate(0 0)"/></svg>