<?xml version="1.0" encoding="UTF-8"?>
<svg width="30px" height="23px" viewBox="0 0 30 23" version="1.1" xmlns="http://www.w3.org/2000/svg" xmlns:xlink="http://www.w3.org/1999/xlink">
    <!-- Generator: Sketch 48.2 (47327) - http://www.bohemiancoding.com/sketch -->
    <title>Combined shape 3246</title>
    <desc>Created with Sketch.</desc>
    <defs></defs>
    <g id="Artboard" stroke="none" stroke-width="1" fill="none" fill-rule="evenodd" transform="translate(-379.000000, -53.000000)">
        <g id="基础信息" transform="translate(13.000000, 13.000000)" fill="#FFFFFF">
            <g id="01-拷贝-5" transform="translate(330.000000, 0.000000)">
                <g id="组-7-拷贝" transform="translate(36.000000, 40.000000)">
                    <path d="M28.00005,20.9146704 L28.00005,16.6922863 L27.931016,16.727164 C27.891474,16.52985 26.643096,15.681548 25.862082,14.636374 C25.107384,13.626664 24.818656,11.37392 24.818656,11.183028 C24.818656,8.930856 26.137108,7.300084 27.920986,6.212894 L27.931016,2.090932 L10.344822,2.090932 L10.343802,2.10948736 L10.343802,2.093766 L7.24152968,2.093766 L7.241336,2.090932 L10.344822,2.090932 L2.068916,2.090932 L2.068916,6.272798 C3.852692,7.359988 5.01199,8.720308 4.65346,11.648974 C4.370342,13.961492 3.852692,14.594644 2.068916,15.681834 L2.068916,20.90916 L8.52738964,20.90916 L8.52718708,20.906196 L9.31053493,20.906196 L9.310372,20.90916 L8.52738964,20.90916 L8.531432,20.96831 L28.00005,20.9146704 Z M29.9402845,21.0299438 L28.965466,22.99995 L2.068916,22.99995 C0.672944,22.99995 -1.8e-05,21.434126 -1.8e-05,20.036262 L-1.8e-05,14.9107 C0.93063,14.677636 1.861414,14.211976 2.404224,13.357694 C2.714542,12.73632 3.102346,11.959674 3.102346,11.26082 C3.102346,10.484174 2.792028,9.785138 2.404224,9.241556 C1.9389,8.387274 0.93063,7.843666 -1.8e-05,7.610628 L-1.8e-05,2.485066 C-1.8e-05,1.087202 1.085772,1.2e-05 2.48188,1.2e-05 L26.990236,1.2e-05 C28.386208,1.2e-05 29.652912,0.436916 30.000052,2.090932 L30.000052,7.318258 C28.991918,7.551322 27.688324,8.46491 27.145378,9.319348 C26.835196,9.86293 26.896566,11.846418 26.896566,12.545428 C26.896566,12.715312 27.629572,14.25758 27.931016,14.636374 C28.0453993,14.780121 28.1658938,14.8998045 28.2888882,14.999954 L30.000055,14.999954 L30.000055,21.000058 L29.9402845,21.0299438 Z M20.133884,6.694196 C20.525156,7.084908 20.525156,7.71866 20.133884,8.109666 L11.35132,16.884656 C10.960174,17.275522 10.3261,17.275522 9.934828,16.884656 C9.543668,16.493944 9.543668,15.860346 9.934828,15.469494 L18.717266,6.694196 C19.108412,6.30319 19.742738,6.30319 20.133884,6.694196 Z M12.192636,11.499234 C10.783718,11.499234 9.641458,10.357954 9.641458,8.950086 C9.641458,7.542232 10.783718,6.400952 12.192636,6.400952 C13.601694,6.400952 14.74394,7.542232 14.74394,8.950086 C14.74394,10.357954 13.601694,11.499234 12.192636,11.499234 Z M12.192762,7.808652 C11.563448,7.808652 11.053204,8.318574 11.053204,8.947258 C11.053204,9.576082 11.563448,10.08585 12.192762,10.08585 C12.82209,10.08585 13.332194,9.576082 13.332194,8.947258 C13.332194,8.318574 12.82209,7.808652 12.192762,7.808652 Z M17.876062,12.079772 C19.28498,12.079772 20.42724,13.220912 20.42724,14.628766 C20.42724,16.03648 19.28498,17.177914 17.876062,17.177914 C16.467144,17.177914 15.324884,16.03648 15.324884,14.628766 C15.324884,13.220912 16.467144,12.079772 17.876062,12.079772 Z M17.876062,15.767512 C18.50539,15.767512 19.01562,15.257604 19.01562,14.628766 C19.01562,13.999942 18.50539,13.490174 17.876062,13.490174 C17.246734,13.490174 16.736504,13.999942 16.736504,14.628766 C16.736504,15.257604 17.246734,15.767512 17.876062,15.767512 Z" id="Combined-shape-3246"></path>
                </g>
            </g>
        </g>
    </g>
</svg>