<svg id="组_7_拷贝" data-name="组 7 拷贝" xmlns="http://www.w3.org/2000/svg" width="30" height="23" viewBox="0 0 30 23">
  <metadata><?xpacket begin="﻿" id="W5M0MpCehiHzreSzNTczkc9d"?>
<x:xmpmeta xmlns:x="adobe:ns:meta/" x:xmptk="Adobe XMP Core 5.6-c138 79.159824, 2016/09/14-01:09:01        ">
   <rdf:RDF xmlns:rdf="http://www.w3.org/1999/02/22-rdf-syntax-ns#">
      <rdf:Description rdf:about=""/>
   </rdf:RDF>
</x:xmpmeta>
                                                                                                    
                                                                                                    
                                                                                                    
                                                                                                    
                                                                                                    
                                                                                                    
                                                                                                    
                                                                                                    
                                                                                                    
                                                                                                    
                                                                                                    
                                                                                                    
                                                                                                    
                                                                                                    
                                                                                                    
                                                                                                    
                                                                                                    
                                                                                                    
                                                                                                    
                                                                                                    
                           
<?xpacket end="w"?></metadata>
<defs>
    <style>
      .cls-1 {
        fill: #fff;
        fill-rule: evenodd;
      }
    </style>
  </defs>
  <path id="形状_600" data-name="形状 600" class="cls-1" d="M388.31,73.909h-7.241V68.682c1.784-1.087,2.3-1.72,2.584-4.033a4.829,4.829,0,0,0-2.584-5.376V55.091h8.276m-3.1,0h20.69l-0.01,4.122a5.771,5.771,0,0,0-3.1,4.97,8.637,8.637,0,0,0,1.043,3.453c0.781,1.045,2.029,1.893,2.069,2.091L409,68.682c-0.131-.218-1.255-0.022-2.069-1.046a10.162,10.162,0,0,1-1.034-2.091,10.921,10.921,0,0,1,.248-3.226,5.369,5.369,0,0,1,2.855-2V55.091C408.653,53.437,407.386,53,405.99,53H381.482A2.452,2.452,0,0,0,379,55.485v5.126a3.772,3.772,0,0,1,2.4,1.631,3.516,3.516,0,0,1,.7,2.019,5.155,5.155,0,0,1-.7,2.1,3.866,3.866,0,0,1-2.4,1.553v5.126c0,1.4.673,2.964,2.069,2.964h26.9L409,73.909l-21.469.059m14.736,2.33-17.06-21.207h4.138V73.909h-4.138V55.091Z" transform="translate(-379 -53)"/>
  <path id="矩形_610" data-name="矩形 610" class="cls-1" d="M407,68h2v6l-2,1V68Z" transform="translate(-379 -53)"/>
  <path id="形状_7_拷贝" data-name="形状 7 拷贝" class="cls-1" d="M399.134,59.694a1,1,0,0,0-1.417,0l-8.782,8.775a1,1,0,0,0,1.416,1.415l8.783-8.775a1,1,0,0,0,0-1.415h0ZM391.193,64.5a2.549,2.549,0,1,0-2.552-2.549,2.55,2.55,0,0,0,2.552,2.549h0Zm0-3.69a1.139,1.139,0,1,1-1.14,1.139,1.139,1.139,0,0,1,1.14-1.139h0Zm5.683,4.271a2.549,2.549,0,1,0,2.551,2.549,2.55,2.55,0,0,0-2.551-2.549h0Zm0,3.688a1.139,1.139,0,1,1,1.14-1.139,1.139,1.139,0,0,1-1.14,1.139h0Zm0,0" transform="translate(-379 -53)"/>
</svg>
