<svg id="组_1" data-name="组 1" xmlns="http://www.w3.org/2000/svg" width="28.031" height="32" viewBox="0 0 28.031 32">
  <metadata><?xpacket begin="﻿" id="W5M0MpCehiHzreSzNTczkc9d"?>
<x:xmpmeta xmlns:x="adobe:ns:meta/" x:xmptk="Adobe XMP Core 5.6-c138 79.159824, 2016/09/14-01:09:01        ">
   <rdf:RDF xmlns:rdf="http://www.w3.org/1999/02/22-rdf-syntax-ns#">
      <rdf:Description rdf:about=""/>
   </rdf:RDF>
</x:xmpmeta>
                                                                                                    
                                                                                                    
                                                                                                    
                                                                                                    
                                                                                                    
                                                                                                    
                                                                                                    
                                                                                                    
                                                                                                    
                                                                                                    
                                                                                                    
                                                                                                    
                                                                                                    
                                                                                                    
                                                                                                    
                                                                                                    
                                                                                                    
                                                                                                    
                                                                                                    
                                                                                                    
                           
<?xpacket end="w"?></metadata>
<defs>
    <style>
      .cls-1 {
        fill: #fff;
        fill-rule: evenodd;
      }
    </style>
  </defs>
  <path id="形状_6_拷贝" data-name="形状 6 拷贝" class="cls-1" d="M63.112,1223a10.955,10.955,0,0,0-7.823,18.55,10.782,10.782,0,0,0,3.264,2.33,12.52,12.52,0,0,0-7.546,10.01,1.02,1.02,0,0,0,.238.78,0.978,0.978,0,0,0,1.705-.54,10.478,10.478,0,0,1,9.774-9.21,0.15,0.15,0,0,0,.134-0.15v-1.75a0.146,0.146,0,0,0-.142-0.15,8.934,8.934,0,1,1,9.29-8.92,8.723,8.723,0,0,1-.1,1.3,1,1,0,0,0,.227.79,1,1,0,0,0,1.74-.51A10.947,10.947,0,0,0,63.112,1223h0Zm0,0" transform="translate(-51 -1223)"/>
  <path id="形状_32_拷贝_2" data-name="形状 32 拷贝 2" class="cls-1" d="M78.762,1250.5l-3.718-3.69a5.584,5.584,0,1,0-1.225,1.08l3.8,3.76a0.823,0.823,0,0,0,1.147,0,0.815,0.815,0,0,0,0-1.15h0Zm-12.076-7.39a4.054,4.054,0,1,1,4.054,4.06,4.061,4.061,0,0,1-4.054-4.06h0Zm0,0" transform="translate(-51 -1223)"/>
</svg>
