<svg width="60" height="60" xmlns="http://www.w3.org/2000/svg" xmlns:xlink="http://www.w3.org/1999/xlink"><defs><rect id="a" x="3.875" y="0" width="24.219" height="26.182" rx="1.92"/><rect id="b" x="0" y="3.879" width="24.219" height="26.182" rx="1.92"/></defs><g fill="none" fill-rule="evenodd"><circle fill="#42CE07" cx="30" cy="30" r="30"/><g transform="translate(15 15)"><use fill="#42CE07" xlink:href="#a"/><rect stroke="#FFF" stroke-width="1.5" x="4.625" y=".75" width="22.719" height="24.682" rx="1.92"/><use fill="#42CE07" xlink:href="#b"/><rect stroke="#FFF" stroke-width="1.5" x=".75" y="4.629" width="22.719" height="24.682" rx="1.92"/><rect fill="#FFF" x="4" y="9" width="14" height="2" rx="1"/><rect fill="#FFF" x="4" y="16.136" width="14" height="2" rx="1"/><rect fill="#FFF" x="3.875" y="23.273" width="10" height="2" rx="1"/><path fill="#42CE07" d="M19 18h12v13H19z"/><g transform="translate(20 20)"><path d="M2 1c0 2.21 1.12 4 2.5 4S7 3.21 7 1" stroke="#FFF" fill="#42CE07" stroke-linecap="round"/><path d="M3 4a1.5 1.5 0 0 0 3 0" fill-opacity=".9" fill="#FFF" opacity=".6"/><path d="M2 9c0-1.657 1.12-3 2.5-3S7 7.343 7 9" stroke="#FFF" fill="#42CE07" stroke-linecap="round"/><rect fill="#FFF" width="9" height="1" rx=".5"/><rect fill="#FFF" y="9" width="9" height="1" rx=".5"/><path fill-opacity=".9" fill="#FFF" opacity=".6" d="M2 8h5v1H2z"/></g></g></g></svg>