<svg width="60" height="60" xmlns="http://www.w3.org/2000/svg" xmlns:xlink="http://www.w3.org/1999/xlink"><defs><rect id="a" x="3.875" y="0" width="24.219" height="26.182" rx="1.92"/><rect id="b" x="0" y="3.879" width="24.219" height="26.182" rx="1.92"/></defs><g fill="none" fill-rule="evenodd"><circle fill="#49A7FF" cx="30" cy="30" r="30"/><g transform="translate(15 14)"><use fill="#49A7FF" xlink:href="#a"/><rect stroke="#FFF" stroke-width="1.5" x="4.625" y=".75" width="22.719" height="24.682" rx="1.92"/><use fill="#49A7FF" xlink:href="#b"/><rect stroke="#FFF" stroke-width="1.5" x=".75" y="4.629" width="22.719" height="24.682" rx="1.92"/><rect fill="#FFF" x="4" y="9" width="14" height="2" rx="1"/><rect fill="#FFF" x="4" y="16.136" width="14" height="2" rx="1"/><rect fill="#FFF" x="3.875" y="23.273" width="10" height="2" rx="1"/><ellipse fill="#49A7FF" cx="23.969" cy="24.961" rx="6.5" ry="6.506"/><g fill-rule="nonzero" stroke="#FFF"><path d="M23.795 25.206V20a5.003 5.003 0 0 0 .207 10 4.98 4.98 0 0 0 3.22-1.176l-3.427-3.618zM24.21 20v4.79H29A5.001 5.001 0 0 0 24.21 20zm0 5.206v.011l3.231 3.411a4.983 4.983 0 0 0 1.557-3.422H24.21z"/></g></g></g></svg>