<?xml version="1.0" encoding="UTF-8"?>
<svg width="26px" height="26px" viewBox="0 0 26 26" version="1.1" xmlns="http://www.w3.org/2000/svg" xmlns:xlink="http://www.w3.org/1999/xlink">
    <!-- Generator: Sketch 48.2 (47327) - http://www.bohemiancoding.com/sketch -->
    <title>Combined shape 3356</title>
    <desc>Created with Sketch.</desc>
    <defs></defs>
    <g id="Artboard" stroke="none" stroke-width="1" fill="none" fill-rule="evenodd" transform="translate(-382.000000, -1704.000000)">
        <g id="用户权限管理-拷贝" fill="#FFFFFF">
            <g id="01-拷贝-5">
                <path d="M391.00001,1705.99998 L391.00001,1726.00001 L395.00003,1726.00001 L394.8545,1728.20375 L383.99993,1728.00005 C383.46161,1728.00005 382.57511,1728.09749 382.3481,1727.86921 C381.99776,1727.5177 381.99866,1726.9288 381.99956,1726.11386 L381.9998,1712.2428 C381.9998,1710.69398 382.65596,1710.00003 383.99993,1710.00003 L389,1710.00003 L389,1705.99998 C389,1704.9952 389.59175,1703.99994 391.10897,1703.99994 L398.1188,1703.99994 C399.7106,1703.99994 399.99998,1705.11529 399.99998,1705.99998 L399.99998,1713.99997 L405.99998,1713.99997 C407.53646,1713.99997 407.00006,1715.2068 407.00006,1715.99998 L407.00006,1719.00004 L405.00005,1717 L405.00005,1715.99998 L399.99998,1715.99998 L399.99998,1720.99994 L397.99997,1722.99995 L397.99997,1705.99998 L391.00001,1705.99998 Z M383.99993,1712.00007 L383.99993,1726.00001 L389,1726.00001 L389,1712.00007 L383.99993,1712.00007 Z M407.76734,1721.23567 C407.91683,1721.38528 407.99921,1721.58508 407.99999,1721.79802 C407.99999,1722.01096 407.91746,1722.21108 407.76758,1722.36085 L406.28681,1723.8465 C406.1369,1723.99684 405.93749,1724.07969 405.72614,1724.07969 C405.51425,1724.07969 405.31484,1723.9967 405.16532,1723.8465 L403.68428,1722.36071 C403.53428,1722.21063 403.45214,1722.01096 403.45214,1721.79802 C403.45214,1721.58525 403.53479,1721.38528 403.68428,1721.23536 C403.8338,1721.08545 404.03297,1721.00305 404.24522,1721.00305 C404.45708,1721.00305 404.65637,1721.08576 404.80562,1721.23567 L405.7382,1722.17132 L406.10303,1721.7882 L404.22032,1719.92555 L397.59278,1726.60322 L397.60868,1728.4277 L399.47471,1728.40908 L403.66133,1724.18505 C403.81148,1724.03469 404.01062,1723.95215 404.22275,1723.95215 C404.43476,1723.95215 404.63393,1724.03483 404.78342,1724.18491 C404.93318,1724.33466 405.01556,1724.53463 405.01556,1724.74757 C405.01556,1724.96034 404.93267,1725.16049 404.78303,1725.31023 L400.34042,1729.76778 C400.18964,1729.91752 399.99008,1729.99992 399.77885,1729.99992 L396.81689,1729.99992 C396.37943,1729.99992 396.02345,1729.6429 396.02345,1729.20436 L396.02345,1726.2566 C396.02345,1726.04411 396.10595,1725.84386 396.25535,1725.69305 L403.67222,1718.25216 C403.82198,1718.1018 404.02115,1718.0194 404.23304,1718.0194 C404.4449,1718.0194 404.64431,1718.10211 404.79356,1718.2523 L407.76734,1721.23567 Z" id="Combined-shape-3356"></path>
            </g>
        </g>
    </g>
</svg>