<svg width="60" height="60" xmlns="http://www.w3.org/2000/svg" xmlns:xlink="http://www.w3.org/1999/xlink"><defs><rect id="a" x="3.875" y="0" width="24.219" height="26.182" rx="1.92"/><rect id="b" x="0" y="3.879" width="24.219" height="26.182" rx="1.92"/></defs><g fill="none" fill-rule="evenodd"><circle fill="#07D3CF" cx="30" cy="30" r="30"/><g transform="translate(15 14)"><use fill="#07D3CF" xlink:href="#a"/><rect stroke="#FFF" stroke-width="1.5" x="4.625" y=".75" width="22.719" height="24.682" rx="1.92"/><use fill="#07D3CF" xlink:href="#b"/><rect stroke="#FFF" stroke-width="1.5" x=".75" y="4.629" width="22.719" height="24.682" rx="1.92"/><rect fill="#FFF" x="3.875" y="8.727" width="14" height="1.5" rx=".75"/><rect fill="#FFF" x="3.875" y="13.576" width="14" height="1.5" rx=".75"/><rect fill="#FFF" x="3.875" y="18.424" width="14" height="1.5" rx=".75"/><rect fill="#FFF" x="3.875" y="23.273" width="10" height="1.5" rx=".75"/><ellipse fill="#07D3CF" cx="23.734" cy="24.727" rx="7.266" ry="7.273"/><ellipse stroke="#FFF" stroke-width="1.44" fill="#07D3CF" cx="24.219" cy="25.212" rx="5.813" ry="5.818"/><path d="M23.891 23.613h.65a7.04 7.04 0 0 0-.488-.993l.525-.249c.18.31.356.659.53 1.044l-.4.198h.663c.206-.41.387-.844.537-1.31l.624.224c-.15.397-.312.763-.493 1.086h.655v2.142h-.655v1.49c0 .112.037.175.118.175h.213c.05 0 .093-.038.118-.112.031-.087.05-.336.063-.745l.574.174c-.044.614-.112.98-.212 1.099-.1.111-.244.167-.437.167h-.512c-.35 0-.525-.21-.525-.627v-1.62h-.393c-.069 1.086-.456 1.875-1.155 2.365l-.35-.565c.537-.354.843-.956.906-1.8h-.556v-2.143zm2.21 1.571v-1h-1.61v1h1.61zm-4.62-1.235h.837v-.696c-.238.031-.475.062-.725.087l-.13-.596a9.557 9.557 0 0 0 1.997-.36l.231.596c-.237.062-.487.124-.749.174v.795h.705v.627h-.705v.285c.28.286.562.596.85.938l-.37.553a18.856 18.856 0 0 0-.48-.795v2.483h-.624v-2.415c-.194.472-.431.9-.712 1.298l-.294-.758c.425-.472.743-1 .943-1.59h-.774v-.626z" fill="#FFF"/></g></g></svg>