<svg xmlns="http://www.w3.org/2000/svg" width="30" height="30" viewBox="0 0 30 30">
  <metadata><?xpacket begin="﻿" id="W5M0MpCehiHzreSzNTczkc9d"?>
<x:xmpmeta xmlns:x="adobe:ns:meta/" x:xmptk="Adobe XMP Core 5.6-c138 79.159824, 2016/09/14-01:09:01        ">
   <rdf:RDF xmlns:rdf="http://www.w3.org/1999/02/22-rdf-syntax-ns#">
      <rdf:Description rdf:about=""/>
   </rdf:RDF>
</x:xmpmeta>
                                                                                                    
                                                                                                    
                                                                                                    
                                                                                                    
                                                                                                    
                                                                                                    
                                                                                                    
                                                                                                    
                                                                                                    
                                                                                                    
                                                                                                    
                                                                                                    
                                                                                                    
                                                                                                    
                                                                                                    
                                                                                                    
                                                                                                    
                                                                                                    
                                                                                                    
                                                                                                    
                           
<?xpacket end="w"?></metadata>
<defs>
    <style>
      .cls-1 {
        fill: #fff;
        fill-rule: evenodd;
      }
    </style>
  </defs>
  <path id="形状_40" data-name="形状 40" class="cls-1" d="M65.063,1346.07l-2.105.05a13.958,13.958,0,1,0,14.926,14.92l0.046-2.1H65.063v-12.87Zm10.743,15.01a11.641,11.641,0,0,1-11.85,10.86,11.9,11.9,0,0,1-11.9-11.9,11.647,11.647,0,0,1,10.87-11.85v12.89H75.806Zm0,0M66.134,1344v13.87H80A14.087,14.087,0,0,0,66.134,1344h0Zm2.142,2.22a8.715,8.715,0,0,1,2.49.77,11.575,11.575,0,0,1,3.74,2.55,11.337,11.337,0,0,1,2.531,3.69,8.87,8.87,0,0,1,.737,2.5h-9.5v-9.51Zm0,0" transform="translate(-50 -1344)"/>
</svg>
