<svg xmlns="http://www.w3.org/2000/svg" width="28.031" height="24" viewBox="0 0 28.031 24">
  <metadata><?xpacket begin="﻿" id="W5M0MpCehiHzreSzNTczkc9d"?>
<x:xmpmeta xmlns:x="adobe:ns:meta/" x:xmptk="Adobe XMP Core 5.6-c138 79.159824, 2016/09/14-01:09:01        ">
   <rdf:RDF xmlns:rdf="http://www.w3.org/1999/02/22-rdf-syntax-ns#">
      <rdf:Description rdf:about=""/>
   </rdf:RDF>
</x:xmpmeta>
                                                                                                    
                                                                                                    
                                                                                                    
                                                                                                    
                                                                                                    
                                                                                                    
                                                                                                    
                                                                                                    
                                                                                                    
                                                                                                    
                                                                                                    
                                                                                                    
                                                                                                    
                                                                                                    
                                                                                                    
                                                                                                    
                                                                                                    
                                                                                                    
                                                                                                    
                                                                                                    
                           
<?xpacket end="w"?></metadata>
<defs>
    <style>
      .cls-1 {
        fill: #fff;
        fill-rule: evenodd;
      }
    </style>
  </defs>
  <path id="形状_41" data-name="形状 41" class="cls-1" d="M388.974,1365.1a2.632,2.632,0,0,0,2.3-1.35,2.53,2.53,0,0,0-.107-2.63l2.817-4.61h0.454l2.808,4.61a2.539,2.539,0,0,0,.489,3.35,2.639,2.639,0,0,0,3.44-.03,2.551,2.551,0,0,0,.415-3.37l4.622-7.99h0.174a2.609,2.609,0,0,0,2.534-1.95,2.564,2.564,0,0,0-1.313-2.9,2.643,2.643,0,0,0-3.166.56,2.553,2.553,0,0,0-.21,3.17l-4.636,7.99h-0.4l-2.807-4.61a2.542,2.542,0,0,0-.474-3.34,2.645,2.645,0,0,0-3.427,0,2.542,2.542,0,0,0-.474,3.34l-2.807,4.61h-0.227a2.575,2.575,0,1,0,0,5.15h-0.007Zm0,0M383,1369v-22h-2v22.86a1.139,1.139,0,0,0,1.076,1.14H409v-2H383Z" transform="translate(-381 -1347)"/>
</svg>
