<svg width="60" height="60" xmlns="http://www.w3.org/2000/svg"><g fill="none" fill-rule="evenodd"><circle fill="#F79E45" cx="30" cy="30" r="30"/><g fill="#FFF" fill-rule="nonzero"><path d="M31.882 42.973h-14.56a.866.866 0 0 1-.867-.881v-26.21c0-.49.391-.882.867-.882h14.574c.489 0 .88.392.88.881v26.225a.896.896 0 0 1-.894.867zm-13.693-1.749h12.825V16.748H18.19v24.476z"/><path d="M22.944 21.63h-2.028a.877.877 0 0 1-.88-.882c0-.49.39-.88.88-.88h2.042c.49 0 .881.39.881.88a.89.89 0 0 1-.895.882zm5.343 0h-2.028a.877.877 0 0 1-.881-.882c0-.49.391-.88.881-.88h2.028c.49 0 .881.39.881.88s-.391.882-.881.882zm-5.343 4.167h-2.028a.877.877 0 0 1-.88-.88c0-.49.39-.882.88-.882h2.042c.49 0 .881.392.881.881a.89.89 0 0 1-.895.881zm5.343 0h-2.028a.877.877 0 0 1-.881-.88c0-.49.391-.882.881-.882h2.028c.49 0 .881.392.881.881 0 .49-.391.881-.881.881zm-5.343 4.168h-2.028a.877.877 0 0 1-.88-.88c0-.49.39-.882.88-.882h2.042c.49 0 .881.392.881.881a.89.89 0 0 1-.895.881zm5.343 0h-2.028a.877.877 0 0 1-.881-.88c0-.49.391-.882.881-.882h2.028c.49 0 .881.392.881.881 0 .49-.391.881-.881.881zM22.944 34.147h-2.028a.877.877 0 0 1-.88-.88c0-.49.39-.868.88-.868h2.042c.49 0 .881.392.881.867a.899.899 0 0 1-.895.881zm5.343 0h-2.028a.877.877 0 0 1-.881-.88c0-.49.391-.868.881-.868h2.028a.875.875 0 1 1 0 1.748zM22.944 38.315h-2.028a.877.877 0 0 1-.88-.88c0-.49.39-.882.88-.882h2.042c.49 0 .881.392.881.881a.89.89 0 0 1-.895.881zm5.343 0h-2.028a.877.877 0 0 1-.881-.88c0-.49.391-.882.881-.882h2.028c.49 0 .881.392.881.881 0 .49-.391.881-.881.881zM40.651 42.973h-8.742a.877.877 0 0 1-.88-.881c0-.49.391-.882.88-.882h7.86l-.013-18.378-8.056-2.196a.878.878 0 0 1-.616-1.076.878.878 0 0 1 1.077-.616l8.7 2.378a.869.869 0 0 1 .643.839l.028 19.93a.878.878 0 0 1-.252.616.89.89 0 0 1-.629.266z"/><path d="M42.106 42.973H15.88a.877.877 0 0 1-.881-.881c0-.49.392-.882.881-.882h26.225c.49 0 .88.392.88.882s-.405.88-.88.88z"/></g><g transform="translate(31 30)"><circle fill="#F79E45" cx="7.5" cy="7.5" r="7.5"/><g fill="#FFF"><path d="M7.692 14.385A6.692 6.692 0 1 1 7.692 1a6.692 6.692 0 0 1 0 13.385zm0-1.385a5.308 5.308 0 1 0 0-10.615 5.308 5.308 0 0 0 0 10.615z" fill-rule="nonzero"/><path d="M8 8h3.5a.5.5 0 1 1 0 1h-4a.5.5 0 0 1-.5-.5v-4a.5.5 0 0 1 1 0V8z"/></g></g></g></svg>