<svg width="60" height="60" xmlns="http://www.w3.org/2000/svg" xmlns:xlink="http://www.w3.org/1999/xlink"><defs><rect id="a" x="0" y="0" width="25" height="27" rx="2"/></defs><g fill="none" fill-rule="evenodd"><circle fill="#F79E45" cx="30" cy="30" r="30"/><g transform="translate(15 15)"><use fill="#F79E45" xlink:href="#a"/><rect stroke="#FFF" stroke-width="1.5" x=".75" y=".75" width="23.5" height="25.5" rx="2"/><circle fill="#F79E45" cx="22.5" cy="22.5" r="7.5"/><g fill="#FFF"><path d="M22.692 29.385a6.692 6.692 0 1 1 0-13.385 6.692 6.692 0 0 1 0 13.385zm0-1.385a5.308 5.308 0 1 0 0-10.615 5.308 5.308 0 0 0 0 10.615z" fill-rule="nonzero"/><path d="M23 23h3.5a.5.5 0 1 1 0 1h-4a.5.5 0 0 1-.5-.5v-4a.5.5 0 0 1 1 0V23z"/></g><rect fill="#FFF" x="5" y="5" width="15" height="1.5" rx=".75"/><rect fill="#FFF" x="5" y="10" width="15" height="1.5" rx=".75"/><rect fill="#FFF" x="5" y="15" width="10" height="1.5" rx=".75"/></g></g></svg>