<?xml version="1.0" encoding="UTF-8"?>
<svg width="30px" height="29px" viewBox="0 0 30 29" version="1.1" xmlns="http://www.w3.org/2000/svg" xmlns:xlink="http://www.w3.org/1999/xlink">
    <!-- Generator: Sketch 48.2 (47327) - http://www.bohemiancoding.com/sketch -->
    <title>Combined shape 2616</title>
    <desc>Created with Sketch.</desc>
    <defs></defs>
    <g id="Artboard" stroke="none" stroke-width="1" fill="none" fill-rule="evenodd" transform="translate(-381.000000, -638.000000)">
        <g id="销项税台账" transform="translate(14.000000, 602.000000)" fill="#F1F2F7">
            <g id="01-拷贝-9" transform="translate(330.000000, 0.000000)">
                <g id="组-9" transform="translate(37.000000, 36.000000)">
                    <path d="M22.00004,21.999995 L25.499956,21.999995 C25.77612,21.999995 26.00005,22.223813 26.00005,22.499928 C26.00005,22.776197 25.77612,23.000015 25.499956,23.000015 L21.499946,23.000015 C21.223908,23.000015 20.999978,22.776197 20.999978,22.499928 L20.999978,18.500009 C20.999978,18.223894 21.223908,17.999929 21.499946,17.999929 C21.77611,17.999929 22.00004,18.223894 22.00004,18.500009 L22.00004,21.999995 Z M18.999979,5 C19.432576,5 20.000044,5.571168 20.000044,6.000032 C20.000044,6.429024 19.432576,7.000032 18.999979,7.000032 L5.999992,7.000032 C5.567296,7.000032 4.999927,6.429024 4.999927,6.000032 C4.999927,5.571168 5.567296,5 5.999992,5 L18.999979,5 Z M18.999979,8.999936 C19.432576,8.999936 20.000044,9.571072 20.000044,9.999936 C20.000044,10.42896 19.432576,11.000096 18.999979,11.000096 L5.999992,11.000096 C5.567296,11.000096 4.999927,10.42896 4.999927,9.999936 C4.999927,9.571072 5.567296,8.999936 5.999992,8.999936 L18.999979,8.999936 Z M14.000017,13 C14.432482,13 14.99995,13.570848 14.99995,14 C14.99995,14.428864 14.432482,15.000032 14.000017,15.000032 L5.999992,15.000032 C5.567296,15.000032 4.999927,14.428864 4.999927,14 C4.999927,13.570848 5.567296,13 5.999992,13 L14.000017,13 Z M22.221274,13.573984 C26.510548,13.573984 29.999935,17.034176 29.999935,21.286816 C29.999935,25.539904 26.510548,28.999968 22.221274,28.999968 C17.931769,28.999968 14.44225,25.539904 14.44225,21.286816 C14.44225,17.033888 17.931769,13.573984 22.221274,13.573984 Z M22.221274,27.446976 C25.646905,27.446976 28.433821,24.683552 28.433821,21.286816 C28.433821,17.890272 25.646905,15.126976 22.221274,15.126976 C18.795544,15.126976 16.008496,17.890272 16.008496,21.286816 C16.008496,24.683552 18.795544,27.446976 22.221274,27.446976 Z M12.937846,23.760256 C13.370443,23.760256 13.720903,24.107776 13.720903,24.536768 C13.720903,24.965632 13.370443,25.31328 12.937846,25.31328 L2.267692,25.31328 C1.017388,25.31328 -2e-06,24.304608 -2e-06,23.064672 L-2e-06,2.248512 C-2e-06,1.008576 1.017388,6.4e-05 2.267692,6.4e-05 L21.885202,6.4e-05 C23.135506,6.4e-05 24.152896,1.008576 24.152764,2.248512 L24.152764,10.870752 C24.152764,11.299616 23.802172,11.647104 23.369575,11.647104 C22.93711,11.647104 22.586518,11.299616 22.586518,10.870752 L22.586518,2.248512 C22.586518,1.865088 22.271731,1.553056 21.88507,1.553056 L2.267692,1.553056 C1.880899,1.553056 1.566244,1.865088 1.566244,2.248512 L1.566244,23.064832 C1.566244,23.448096 1.880899,23.760256 2.267692,23.760256 L12.937846,23.760256 Z" id="Combined-shape-2616"></path>
                </g>
            </g>
        </g>
    </g>
</svg>