<svg id="组_9" data-name="组 9" xmlns="http://www.w3.org/2000/svg" width="30" height="29" viewBox="0 0 30 29">
  <metadata><?xpacket begin="﻿" id="W5M0MpCehiHzreSzNTczkc9d"?>
<x:xmpmeta xmlns:x="adobe:ns:meta/" x:xmptk="Adobe XMP Core 5.6-c138 79.159824, 2016/09/14-01:09:01        ">
   <rdf:RDF xmlns:rdf="http://www.w3.org/1999/02/22-rdf-syntax-ns#">
      <rdf:Description rdf:about=""/>
   </rdf:RDF>
</x:xmpmeta>
                                                                                                    
                                                                                                    
                                                                                                    
                                                                                                    
                                                                                                    
                                                                                                    
                                                                                                    
                                                                                                    
                                                                                                    
                                                                                                    
                                                                                                    
                                                                                                    
                                                                                                    
                                                                                                    
                                                                                                    
                                                                                                    
                                                                                                    
                                                                                                    
                                                                                                    
                                                                                                    
                           
<?xpacket end="w"?></metadata>
<defs>
    <style>
      .cls-1 {
        fill: #f1f2f7;
        fill-rule: evenodd;
      }
    </style>
  </defs>
  <path id="形状_17_拷贝" data-name="形状 17 拷贝" class="cls-1" d="M400,643H387a1,1,0,0,0,0,2h13a1,1,0,0,0,0-2h0Zm0,0,0,4H387a1,1,0,0,0,0,2h13a1,1,0,0,0,0-2h0Zm0,0-5,4h-8a1,1,0,0,0,0,2h8a1,1,0,0,0,0-2h0Zm0,0,8.221,0.574A7.713,7.713,0,1,0,411,659.287a7.755,7.755,0,0,0-7.779-7.713h0Zm0,13.873a6.16,6.16,0,1,1,6.213-6.16,6.194,6.194,0,0,1-6.213,6.16h0Zm0,0-9.283-3.687h-10.67a0.7,0.7,0,0,1-.7-0.695V640.248a0.7,0.7,0,0,1,.7-0.7h19.617a0.7,0.7,0,0,1,.7.7v8.623a0.783,0.783,0,0,0,1.566,0v-8.623A2.261,2.261,0,0,0,402.885,638H383.268A2.261,2.261,0,0,0,381,640.248v20.817a2.26,2.26,0,0,0,2.268,2.248h10.67a0.777,0.777,0,1,0,0-1.553h0Zm0,0" transform="translate(-381 -638)"/>
  <path id="圆角矩形_1" data-name="圆角矩形 1" class="cls-1" d="M402.5,656a0.5,0.5,0,0,1,.5.5v4a0.5,0.5,0,0,1-1,0v-4A0.5,0.5,0,0,1,402.5,656Zm0,4h4a0.5,0.5,0,0,1,0,1h-4A0.5,0.5,0,0,1,402.5,660Z" transform="translate(-381 -638)"/>
</svg>
