<?xml version="1.0" encoding="UTF-8"?>
<svg width="60px" height="60px" viewBox="0 0 60 60" version="1.1" xmlns="http://www.w3.org/2000/svg" xmlns:xlink="http://www.w3.org/1999/xlink">
    <!-- Generator: Sketch 49.3 (51167) - http://www.bohemiancoding.com/sketch -->
    <title>销项管理-未开票销售台账-地产</title>
    <desc>Created with Sketch.</desc>
    <defs></defs>
    <g id="icon" stroke="none" stroke-width="1" fill="none" fill-rule="evenodd">
        <g id="销项管理-未开票销售台账-地产">
            <circle id="Oval-Copy" fill="#F79E45" cx="30" cy="30" r="30"></circle>
            <g id="Group-16" transform="translate(16.000000, 15.000000)" fill="#FFFFFF" fill-rule="nonzero">
                <path d="M16.8815141,27.9726829 L2.32173268,27.9726829 C1.83221073,27.9726829 1.45457951,27.5810654 1.45457951,27.0915434 L1.45457951,0.881139512 C1.45457951,0.391617561 1.84619707,0 2.32173268,0 L16.8955005,0 C17.3850224,0 17.77664,0.391617561 17.77664,0.881139512 L17.77664,27.1055298 C17.7626537,27.5810654 17.3710361,27.9726829 16.8815141,27.9726829 Z M3.18888585,26.2243902 L16.014361,26.2243902 L16.014361,1.74829268 L3.18888585,1.74829268 L3.18888585,26.2243902 Z" id="Shape"></path>
                <path d="M7.94424195,6.62952585 L5.91622244,6.62952585 C5.42670049,6.62952585 5.03508293,6.23790829 5.03508293,5.74838634 C5.03508293,5.25886439 5.42670049,4.86724683 5.91622244,4.86724683 L7.95822829,4.86724683 C8.44775024,4.86724683 8.8393678,5.25886439 8.8393678,5.74838634 C8.8393678,6.23790829 8.4337639,6.62952585 7.94424195,6.62952585 Z M13.2870244,6.62952585 L11.2590049,6.62952585 C10.7694829,6.62952585 10.3778654,6.23790829 10.3778654,5.74838634 C10.3778654,5.25886439 10.7694829,4.86724683 11.2590049,4.86724683 L13.2870244,4.86724683 C13.7765463,4.86724683 14.1681639,5.25886439 14.1681639,5.74838634 C14.1681639,6.23790829 13.7765463,6.62952585 13.2870244,6.62952585 Z M7.94424195,10.7974556 L5.91622244,10.7974556 C5.42670049,10.7974556 5.03508293,10.405838 5.03508293,9.9163161 C5.03508293,9.42679415 5.42670049,9.03517659 5.91622244,9.03517659 L7.95822829,9.03517659 C8.44775024,9.03517659 8.8393678,9.42679415 8.8393678,9.9163161 C8.8393678,10.405838 8.4337639,10.7974556 7.94424195,10.7974556 Z M13.2870244,10.7974556 L11.2590049,10.7974556 C10.7694829,10.7974556 10.3778654,10.405838 10.3778654,9.9163161 C10.3778654,9.42679415 10.7694829,9.03517659 11.2590049,9.03517659 L13.2870244,9.03517659 C13.7765463,9.03517659 14.1681639,9.42679415 14.1681639,9.9163161 C14.1681639,10.405838 13.7765463,10.7974556 13.2870244,10.7974556 Z M7.94424195,14.9653854 L5.91622244,14.9653854 C5.42670049,14.9653854 5.03508293,14.5737678 5.03508293,14.0842459 C5.03508293,13.5947239 5.42670049,13.2031063 5.91622244,13.2031063 L7.95822829,13.2031063 C8.44775024,13.2031063 8.8393678,13.5947239 8.8393678,14.0842459 C8.8393678,14.5737678 8.4337639,14.9653854 7.94424195,14.9653854 Z M13.2870244,14.9653854 L11.2590049,14.9653854 C10.7694829,14.9653854 10.3778654,14.5737678 10.3778654,14.0842459 C10.3778654,13.5947239 10.7694829,13.2031063 11.2590049,13.2031063 L13.2870244,13.2031063 C13.7765463,13.2031063 14.1681639,13.5947239 14.1681639,14.0842459 C14.1681639,14.5737678 13.7765463,14.9653854 13.2870244,14.9653854 Z" id="Shape"></path>
                <path d="M7.94424195,19.1473015 L5.91622244,19.1473015 C5.42670049,19.1473015 5.03508293,18.7556839 5.03508293,18.266162 C5.03508293,17.77664 5.42670049,17.3990088 5.91622244,17.3990088 L7.95822829,17.3990088 C8.44775024,17.3990088 8.8393678,17.7906263 8.8393678,18.266162 C8.82538146,18.7556839 8.4337639,19.1473015 7.94424195,19.1473015 Z M13.2870244,19.1473015 L11.2590049,19.1473015 C10.7694829,19.1473015 10.3778654,18.7556839 10.3778654,18.266162 C10.3778654,17.77664 10.7694829,17.3990088 11.2590049,17.3990088 L13.2870244,17.3990088 C13.7765463,17.3990088 14.1681639,17.7906263 14.1681639,18.266162 C14.1681639,18.7556839 13.7765463,19.1473015 13.2870244,19.1473015 Z" id="Shape"></path>
                <path d="M7.94424195,23.3152312 L5.91622244,23.3152312 C5.42670049,23.3152312 5.03508293,22.9236137 5.03508293,22.4340917 C5.03508293,21.9445698 5.42670049,21.5529522 5.91622244,21.5529522 L7.95822829,21.5529522 C8.44775024,21.5529522 8.8393678,21.9445698 8.8393678,22.4340917 C8.8393678,22.9236137 8.4337639,23.3152312 7.94424195,23.3152312 Z M13.2870244,23.3152312 L11.2590049,23.3152312 C10.7694829,23.3152312 10.3778654,22.9236137 10.3778654,22.4340917 C10.3778654,21.9445698 10.7694829,21.5529522 11.2590049,21.5529522 L13.2870244,21.5529522 C13.7765463,21.5529522 14.1681639,21.9445698 14.1681639,22.4340917 C14.1681639,22.9236137 13.7765463,23.3152312 13.2870244,23.3152312 Z" id="Shape"></path>
                <path d="M25.6509502,27.9726829 L16.9094868,27.9726829 C16.4199649,27.9726829 16.0283473,27.5810654 16.0283473,27.0915434 C16.0283473,26.6020215 16.4199649,26.2104039 16.9094868,26.2104039 L24.7698107,26.2104039 L24.7558244,7.83235122 L16.6996917,5.63649561 C16.2381424,5.51061854 15.9584156,5.03508293 16.0842927,4.55954732 C16.2101698,4.09799805 16.6857054,3.81827122 17.161241,3.94414829 L25.8607454,6.32182634 C26.2383766,6.41973073 26.5041171,6.76938927 26.5041171,7.16100683 L26.5320898,27.0915434 C26.5320898,27.3293112 26.4341854,27.5530927 26.2803356,27.7069424 C26.1124995,27.8747785 25.888718,27.9726829 25.6509502,27.9726829 Z" id="Shape"></path>
                <path d="M27.1055298,27.9726829 L0.881139512,27.9726829 C0.391617561,27.9726829 0,27.5810654 0,27.0915434 C0,26.6020215 0.391617561,26.2104039 0.881139512,26.2104039 L27.1055298,26.2104039 C27.5950517,26.2104039 27.9866693,26.6020215 27.9866693,27.0915434 C27.9866693,27.5810654 27.5810654,27.9726829 27.1055298,27.9726829 Z" id="Shape"></path>
            </g>
            <g id="Group-17" transform="translate(32.000000, 30.000000)">
                <circle id="Oval-2" fill="#F79E45" cx="7.5" cy="7.5" r="7.5"></circle>
                <g id="Group-2" transform="translate(1.000000, 1.000000)" fill="#FFFFFF">
                    <path d="M6.69230769,13.3846154 C2.99624821,13.3846154 0,10.3883672 0,6.69230769 C0,2.99624821 2.99624821,0 6.69230769,0 C10.3883672,0 13.3846154,2.99624821 13.3846154,6.69230769 C13.3846154,10.3883672 10.3883672,13.3846154 6.69230769,13.3846154 Z M6.69230769,12 C9.62366521,12 12,9.62366521 12,6.69230769 C12,3.76095017 9.62366521,1.38461538 6.69230769,1.38461538 C3.76095017,1.38461538 1.38461538,3.76095017 1.38461538,6.69230769 C1.38461538,9.62366521 3.76095017,12 6.69230769,12 Z" id="Oval-3" fill-rule="nonzero"></path>
                    <path d="M7,7 L10.5,7 C10.7761424,7 11,7.22385763 11,7.5 C11,7.77614237 10.7761424,8 10.5,8 L6.5,8 C6.22385763,8 6,7.77614237 6,7.5 L6,3.5 C6,3.22385763 6.22385763,3 6.5,3 C6.77614237,3 7,3.22385763 7,3.5 L7,7 Z" id="Combined-Shape" transform="translate(8.500000, 5.500000) rotate(-360.000000) translate(-8.500000, -5.500000) "></path>
                </g>
            </g>
        </g>
    </g>
</svg>