<svg xmlns="http://www.w3.org/2000/svg" width="28" height="30" viewBox="0 0 28 30">
  <metadata><?xpacket begin="﻿" id="W5M0MpCehiHzreSzNTczkc9d"?>
<x:xmpmeta xmlns:x="adobe:ns:meta/" x:xmptk="Adobe XMP Core 5.6-c138 79.159824, 2016/09/14-01:09:01        ">
   <rdf:RDF xmlns:rdf="http://www.w3.org/1999/02/22-rdf-syntax-ns#">
      <rdf:Description rdf:about=""/>
   </rdf:RDF>
</x:xmpmeta>
                                                                                                    
                                                                                                    
                                                                                                    
                                                                                                    
                                                                                                    
                                                                                                    
                                                                                                    
                                                                                                    
                                                                                                    
                                                                                                    
                                                                                                    
                                                                                                    
                                                                                                    
                                                                                                    
                                                                                                    
                                                                                                    
                                                                                                    
                                                                                                    
                                                                                                    
                                                                                                    
                           
<?xpacket end="w"?></metadata>
<defs>
    <style>
      .cls-1 {
        fill: #fff;
        fill-rule: evenodd;
      }
    </style>
  </defs>
  <path id="形状_28" data-name="形状 28" class="cls-1" d="M401.71,1025a7.22,7.22,0,1,1,7.29-7.24,7.283,7.283,0,0,1-7.29,7.24h0Zm0-12.75a5.53,5.53,0,1,0,0,11.06,5.53,5.53,0,1,0,0-11.06h0Zm0,6.36a0.858,0.858,0,0,1-.869-0.85v-3.72a0.835,0.835,0,0,1,.869-0.83,0.826,0.826,0,0,1,.843.83v3.72a0.85,0.85,0,0,1-.843.85h0Zm2.679,2.65a0.792,0.792,0,0,1-.6-0.24l-2.68-2.67a0.871,0.871,0,0,1,0-1.19,0.9,0.9,0,0,1,1.209,0l2.679,2.67a0.869,0.869,0,0,1,0,1.19,0.8,0.8,0,0,1-.606.24h0Zm-8.714-.36h-10.21a4.439,4.439,0,0,1-4.465-4.38V999.408A4.443,4.443,0,0,1,385.465,995h0.722a0.845,0.845,0,0,1,0,1.69h-0.722a2.733,2.733,0,0,0-2.753,2.718v17.112a2.747,2.747,0,0,0,2.753,2.71h10.21a0.836,0.836,0,1,1,0,1.67h0Zm7.845-8.41a0.82,0.82,0,0,1-.843-0.83V999.408a2.733,2.733,0,0,0-2.752-2.718H399.2a0.845,0.845,0,0,1,0-1.69h0.723a4.439,4.439,0,0,1,4.443,4.408v12.252a0.82,0.82,0,0,1-.844.83h0Zm-7.385-15.8h-6.881a0.845,0.845,0,0,1,0-1.69h6.878a0.845,0.845,0,0,1,0,1.69h0Zm3.863,7.44H385.4a0.835,0.835,0,1,1,0-1.67H400a0.835,0.835,0,1,1,0,1.67h0Zm0,4.69H385.4a0.851,0.851,0,0,1-.843-0.86,0.82,0.82,0,0,1,.843-0.83H400a0.833,0.833,0,0,1,.843.83,0.875,0.875,0,0,1-.843.86h0Zm-2.1,4.65h-12.5a0.845,0.845,0,0,1,0-1.69h12.5a0.845,0.845,0,1,1,0,1.69h0Zm0,0" transform="translate(-381 -995)"/>
</svg>
