<?xml version="1.0" encoding="UTF-8"?>
<svg width="30px" height="29px" viewBox="0 0 30 29" version="1.1" xmlns="http://www.w3.org/2000/svg" xmlns:xlink="http://www.w3.org/1999/xlink">
    <!-- Generator: Sketch 48.2 (47327) - http://www.bohemiancoding.com/sketch -->
    <title>Combined Shape</title>
    <desc>Created with Sketch.</desc>
    <defs></defs>
    <g id="Artboard" stroke="none" stroke-width="1" fill="none" fill-rule="evenodd" transform="translate(-380.000000, -995.000000)">
        <g id="纳税申报" fill="#FFFFFF">
            <g id="01-拷贝-5" transform="translate(344.000000, 959.000000)">
                <g id="文字" transform="translate(36.000000, 17.000000)">
                    <path d="M6.05299123,20 L6.05299123,20 C6.05299123,20.5522847 5.60527598,21 5.05299123,21 L1.97070312,21 C2.04284668,21 1.97070312,27.848877 1.97070312,33.184021 C1.97070312,34.8767728 1.97070313,37.8154472 1.97070313,42.0000441 C1.97070313,42.0647164 3.357788,42.0322423 6.05299123,42.0000441 C7.22984205,41.9859849 9.56005835,41.9859849 13.0436401,42.0000441 C13.476238,42.0000441 14.045105,42.5950544 14.045105,43.0240479 C14.045105,43.4529133 13.476238,44.024353 13.0436401,44.024353 L1.97070313,44.024353 C0.720396499,44.024353 0,43.3046245 0,42.0647164 L0,21.2484554 C0,20.0085153 1.01739214,19 2.26769876,19 L5.05299123,19 C5.60527598,19 6.05299123,19.4477153 6.05299123,20 Z M19.0000378,19 L21.88525,19 C23.1355566,19 24.0700783,19.7600599 24.0699463,21 L23.9996948,30.0000232 C23.9996948,30.4288566 23.4326232,31.0000298 23.0000253,31.0000298 C22.5675594,31.0000298 22.0000902,30.4288566 22.0000902,30.0000232 L22.0000902,21 C21.0000727,21 20.0000553,21 19.0000378,21 L19.0000378,21 C18.4477531,21 18.0000378,20.5522847 18.0000378,20 L18.0000378,20 C18.0000378,19.4477153 18.4477531,19 19.0000378,19 Z M25.0000275,41.0000088 L25.0000275,42.0000441 L21.0000231,42.0000441 L21.0000231,36.9999316 L22.0000902,36.9999316 L22.0000902,41.0000088 L25.0000275,41.0000088 Z M14.4422823,40.2868545 C14.4422823,36.0338804 17.9318087,32.5739649 22.2213227,32.5739649 C26.5106057,32.5739649 30,36.0341684 30,40.2868545 C30,44.5399565 26.5106057,48 22.2213227,48 C17.9318087,48 14.4422823,44.5399565 14.4422823,40.2868545 Z M16.0085316,40.2868545 C16.0085316,43.6835697 18.7955855,46.4470029 22.2213227,46.4470029 C25.6469609,46.4470029 28.4338827,43.6835697 28.4338827,40.2868545 C28.4338827,36.8902672 25.6469609,34.1269621 22.2213227,34.1269621 C18.7955855,34.1269621 16.0085316,36.8902672 16.0085316,40.2868545 Z M6,25.0000232 L18.0000399,25.0000232 C18.5523246,25.0000232 19.0000399,25.4477384 19.0000399,26.0000232 C19.0000399,26.5523145 18.5523246,27.0000298 18.0000399,27.0000298 L6,27.0000298 C5.44771525,27.0000298 5,26.5523145 5,26.0000298 C5,25.4477384 5.44771525,25.0000232 6,25.0000232 Z M6,30.0000232 L18.0000399,30.0000232 C18.5523246,30.0000232 19.0000399,30.4477384 19.0000399,31.0000232 C19.0000399,31.5523145 18.5523246,32.0000298 18.0000399,32.0000298 L6,32.0000298 C5.44771525,32.0000298 5,31.5523145 5,31.0000298 C5,30.4477384 5.44771525,30.0000232 6,30.0000232 Z M8.94152832,19 L15.0085316,19 C15.5608164,19 16.0085316,19.4477153 16.0085316,20 C16.0085316,20.5522847 15.5608164,21 15.0085316,21 L8.94152832,21 C8.38924357,21 7.94152832,20.5522847 7.94152832,20 C7.94152832,19.4477153 8.38924357,19 8.94152832,19 Z" id="Combined-Shape"></path>
                </g>
            </g>
        </g>
    </g>
</svg>