<?xml version="1.0" encoding="UTF-8"?>
<svg width="24px" height="30px" viewBox="0 0 24 30" version="1.1" xmlns="http://www.w3.org/2000/svg" xmlns:xlink="http://www.w3.org/1999/xlink">
    <!-- Generator: Sketch 48.2 (47327) - http://www.bohemiancoding.com/sketch -->
    <title>Combined shape 3161</title>
    <desc>Created with Sketch.</desc>
    <defs></defs>
    <g id="Artboard" stroke="none" stroke-width="1" fill="none" fill-rule="evenodd" transform="translate(-663.000000, -1582.000000)">
        <g id="用户权限管理" fill="#FFFFFF">
            <g id="01-拷贝-7">
                <path d="M684.77275,1586.4635 C685.552178,1586.4635 686.141572,1587.29204 686.142872,1588.09792 L686.142872,1597.72466 C686.141806,1597.84841 686.116664,1597.97061 686.069006,1598.08413 C685.569936,1604.41644 681.122922,1609.74255 675.159302,1611.09967 C675.037284,1611.12766 674.910742,1611.12766 674.788724,1611.09967 C668.73075,1609.72017 664.236052,1604.24176 663.858428,1597.77674 L663.857102,1588.09792 C663.857102,1587.31597 664.471144,1586.4635 665.227354,1586.4635 L665.48439,1586.4635 C669.097272,1586.4635 672.286302,1585.33343 673.607232,1583.41571 C673.742718,1583.10704 674.206142,1582.93936 674.716262,1582.93936 L675.282516,1582.93936 C675.77337,1582.93936 676.133002,1583.12973 676.302548,1583.30569 C677.681042,1585.30376 680.943808,1586.4635 684.515584,1586.4635 L684.77275,1586.4635 Z M684.285718,1597.03023 L684.285718,1588.57581 C680.247658,1588.55467 676.767532,1586.96366 675.104624,1584.7006 L674.874992,1584.7006 C673.093758,1587.04358 669.771868,1588.53898 665.730454,1588.54794 C665.571984,1588.4431 665.714256,1597.96977 665.714256,1597.96977 C666.039802,1603.53679 669.753746,1608.05733 674.974728,1609.33676 C680.19584,1608.06027 683.958872,1603.58775 684.285718,1597.96977 C684.28967,1597.88397 684.257014,1597.11086 684.285718,1597.03023 Z M671.4549,1592.75058 C671.4549,1590.79368 673.042512,1589.20139 674.997842,1589.20139 C676.953432,1589.20139 678.543774,1590.79368 678.543774,1592.75058 C678.543774,1594.39929 677.410174,1595.776 675.885482,1596.17339 L675.928616,1598.90917 L677.78577,1598.90917 C678.275298,1598.90917 678.714282,1599.35811 678.714282,1599.84844 C678.714282,1600.33879 678.275298,1600.78786 677.78577,1600.78786 L675.885482,1600.73578 L675.885482,1602.50851 L677.657668,1602.50851 C678.140046,1602.50219 678.63623,1602.81421 678.714282,1603.6061 C678.748602,1604.10638 678.268148,1604.55179 677.78577,1604.54537 L675.928616,1604.54537 L675.885482,1606.05798 C675.877994,1606.55491 675.482248,1607.37003 675,1607.36358 C674.510472,1607.36358 674.113192,1606.54834 674.113192,1606.05798 L674.113192,1596.17339 C672.589826,1595.776 671.4549,1594.39929 671.4549,1592.75058 Z M676.771692,1592.75058 C676.771692,1591.7699 675.978432,1590.97676 674.999272,1590.97676 C674.020242,1590.97676 673.226982,1591.77142 673.226982,1592.75058 C673.226982,1593.73003 674.020242,1594.52471 674.999272,1594.52471 C675.978432,1594.52471 676.771692,1593.73003 676.771692,1592.75058 Z" id="Combined-shape-3161"></path>
            </g>
        </g>
    </g>
</svg>