<svg width="60" height="60" xmlns="http://www.w3.org/2000/svg" xmlns:xlink="http://www.w3.org/1999/xlink"><defs><path d="M29.283 22.726l-.04-.255-.78-.261a4.126 4.126 0 0 0-.253-.614l.367-.735-.15-.211a4.97 4.97 0 0 0-1.088-1.087l-.21-.15-.734.367a4.162 4.162 0 0 0-.613-.254l-.26-.778-.252-.04a4.804 4.804 0 0 0-.768-.065c-.236 0-.48.021-.768.067l-.255.04-.26.781a4.31 4.31 0 0 0-.613.254l-.734-.37-.209.152a4.874 4.874 0 0 0-1.086 1.086l-.151.21.368.736c-.1.197-.185.402-.253.613l-.78.259-.04.255a4.898 4.898 0 0 0-.066.77c0 .239.021.49.066.77l.04.255.78.261c.068.21.153.417.254.614l-.366.733.15.209c.158.22.32.412.497.59.165.166.357.328.588.498l.21.15.733-.367c.198.1.403.187.613.254l.26.781.255.04c.28.045.53.066.767.066s.488-.02.769-.066l.255-.04.259-.781a4.42 4.42 0 0 0 .612-.253l.735.368.21-.151a4.506 4.506 0 0 0 1.083-1.088l.151-.21-.367-.736a4.08 4.08 0 0 0 .254-.614l.779-.26.04-.256c.045-.28.066-.531.066-.769a4.313 4.313 0 0 0-.065-.768zm-.696.762v.005c0 .144-.01.29-.028.446l-.376.126-.333.113-.103.335a3.143 3.143 0 0 1-.23.56l-.164.31.334.668a3.859 3.859 0 0 1-.296.334l-.002.002c-.099.1-.208.197-.332.294l-.664-.333-.308.16a3.565 3.565 0 0 1-.568.235l-.333.105-.108.33-.125.376a3.61 3.61 0 0 1-.891 0l-.126-.376-.109-.333-.335-.104a3.191 3.191 0 0 1-.56-.23l-.31-.162-.314.156-.354.177a3.78 3.78 0 0 1-.63-.63l.333-.665-.162-.309a3.274 3.274 0 0 1-.233-.564l-.103-.335-.708-.235a3.623 3.623 0 0 1 0-.892l.706-.235.103-.335c.06-.192.138-.383.233-.566l.161-.308-.155-.312-.176-.354c.186-.232.397-.444.629-.63l.665.333.31-.163c.178-.094.369-.173.565-.234l.333-.105.11-.33.126-.377a3.96 3.96 0 0 1 .444-.028c.143 0 .29.01.444.028l.236.705.333.103c.194.061.384.14.566.234l.308.161.664-.333c.232.186.444.398.633.631l-.332.665.16.308c.094.183.174.375.234.57l.104.332.331.111.376.126c.02.16.029.303.027.44zm-4.083-1.846a1.856 1.856 0 0 0 0 3.71 1.856 1.856 0 0 0 0-3.71zm.769 2.624a1.08 1.08 0 0 1-.769.32c-.29 0-.563-.114-.768-.32a1.083 1.083 0 0 1-.32-.77c0-.29.114-.563.32-.769a1.08 1.08 0 0 1 .768-.319c.29 0 .564.113.769.32a1.085 1.085 0 0 1 0 1.538z" id="a"/><path d="M11.422 11.643a6.827 6.827 0 0 1-.133-2.407c-1.693-.235-2.994-1.672-2.994-3.41 0-1.9 1.559-3.442 3.479-3.442 1.274 0 2.388.678 2.993 1.688a6.915 6.915 0 0 1 2.298-.801A5.893 5.893 0 0 0 11.774 0C8.522 0 5.887 2.609 5.887 5.826c0 3.102 2.448 5.638 5.535 5.817zm11.914 5.416a11.813 11.813 0 0 0-5.14-1.169c-6.503 0-11.774 5.218-11.774 11.653 0 .66.538 1.192 1.204 1.192.666 0 1.204-.533 1.204-1.192 0-5.118 4.194-9.269 9.365-9.269.646 0 1.278.066 1.887.189a7.5 7.5 0 0 1 3.254-1.404zm.746-6.995c0-3.218-2.635-5.827-5.887-5.827-3.25 0-5.886 2.61-5.886 5.827 0 3.218 2.635 5.826 5.886 5.826 3.252 0 5.887-2.608 5.887-5.826zm-5.887 3.443c-1.92 0-3.478-1.543-3.478-3.443 0-1.9 1.559-3.443 3.478-3.443 1.92 0 3.479 1.543 3.479 3.443 0 1.9-1.559 3.443-3.479 3.443zm-5.662.56a6.82 6.82 0 0 1-1.107-2.41C5.084 11.841 0 16.986 0 23.305c0 .659.539 1.192 1.204 1.192.666 0 1.204-.533 1.204-1.192 0-5.118 4.195-9.27 9.366-9.27.257 0 .508.01.759.03z" id="b"/></defs><g fill="none" fill-rule="evenodd"><circle fill="#49A7FF" cx="30" cy="30" r="30"/><g fill-rule="nonzero"><g transform="translate(15 16)"><use fill="#FFF" fill-rule="evenodd" xlink:href="#a"/><path stroke="#FFF" stroke-width=".2" d="M29.382 22.71c.047.286.07.544.066.784 0 .245-.022.501-.067.784l-.04.256-.068.08-.715.196c-.07.216-.157.427-.26.538l.368.736-.008.103-.152.21a4.604 4.604 0 0 1-1.107 1.11l-.209.152-.103.008-.645-.368c-.204.103-.414.19-.562.195l-.26.781-.079.068-.255.04c-.284.045-.54.067-.784.067s-.5-.022-.783-.067l-.255-.04-.08-.068-.194-.717c-.212-.067-.422-.155-.538-.26l-.734.368-.103-.008-.21-.152a5.018 5.018 0 0 1-.6-.508 4.891 4.891 0 0 1-.506-.601l-.151-.209-.009-.103.367-.643c-.103-.2-.19-.412-.197-.565l-.78-.26-.066-.08-.04-.255a4.954 4.954 0 0 1-.068-.785c0-.244.022-.5.067-.786l.04-.256.068-.08.715-.194c.07-.214.157-.424.26-.537l-.369-.735.008-.103.152-.212c.31-.426.682-.8 1.109-1.109l.209-.15.103-.009.643.37c.197-.1.408-.188.564-.196l.26-.781.079-.067.255-.04c.293-.047.542-.07.784-.07a4.9 4.9 0 0 1 .783.068l.253.04.08.067.195.714c.215.07.425.157.537.26l.735-.368.103.008.21.152c.423.307.796.68 1.11 1.109l.15.21.009.103-.368.645c.102.2.19.412.196.565l.78.26.067.08.04.255zm-.914.413l-.316-.105-.394-.176-.104-.333a3.427 3.427 0 0 0-.228-.553l-.16-.398.302-.607a4.075 4.075 0 0 0-.53-.529l-.695.306-.307-.162a3.473 3.473 0 0 0-.55-.226l-.397-.167-.216-.645a3.61 3.61 0 0 0-.74 0l-.105.316-.175.395-.333.104c-.19.06-.376.137-.549.227l-.4.164-.608-.304a4 4 0 0 0-.524.525l.148.296.154.403-.161.308a3.368 3.368 0 0 0-.226.55l-.167.4-.645.214a3.63 3.63 0 0 0 0 .746l.71.277.104.336c.055.182.13.365.226.547l.162.4-.303.607a3.616 3.616 0 0 0 .524.525l.296-.148.405-.156.31.162c.17.09.352.165.544.224l.4.167.11.333.105.316a3.634 3.634 0 0 0 .74 0l.106-.316.174-.394.332-.104c.191-.06.377-.137.552-.228l.399-.162.607.305c.1-.082.19-.163.273-.247l.002-.002c.085-.085.168-.176.25-.279l-.306-.698.164-.31c.092-.174.167-.356.224-.543l.166-.401.333-.113.316-.105a3.63 3.63 0 0 0 .02-.372v-.006a2.9 2.9 0 0 0-.019-.364zm-3.964-1.581a1.956 1.956 0 0 1 0 3.91 1.956 1.956 0 0 1 0-3.91zm.698 2.653a.985.985 0 0 0 0-1.398.976.976 0 0 0-.698-.289.98.98 0 0 0-.698.29.978.978 0 0 0-.29.699c0 .263.104.511.29.699.187.187.434.29.698.29a.98.98 0 0 0 .698-.29z"/></g><g transform="translate(15 16)"><use fill="#FFF" fill-rule="evenodd" xlink:href="#b"/><path stroke="#49A7FF" stroke-width=".3" d="M11.232 11.478a6.993 6.993 0 0 1-.109-2.116c-1.71-.307-2.978-1.787-2.978-3.536 0-1.983 1.626-3.592 3.629-3.592 1.245 0 2.382.627 3.045 1.638a7.061 7.061 0 0 1 2.02-.714A5.744 5.744 0 0 0 11.773.15c-3.17 0-5.737 2.542-5.737 5.676 0 2.943 2.27 5.383 5.195 5.652zm11.622 5.525a11.674 11.674 0 0 0-4.659-.963c-6.42 0-11.623 5.151-11.623 11.503 0 .576.47 1.042 1.054 1.042.583 0 1.054-.466 1.054-1.042 0-5.2 4.262-9.419 9.515-9.419.623 0 1.242.06 1.85.179a7.652 7.652 0 0 1 2.81-1.3zm1.078-6.94c0-3.134-2.568-5.676-5.737-5.676-3.168 0-5.736 2.542-5.736 5.677s2.568 5.676 5.736 5.676c3.169 0 5.737-2.541 5.737-5.676zm-5.737 3.594c-2.002 0-3.628-1.61-3.628-3.593 0-1.983 1.626-3.593 3.628-3.593 2.003 0 3.629 1.61 3.629 3.593 0 1.983-1.626 3.593-3.629 3.593zm-5.961.24a6.971 6.971 0 0 1-.925-2.087C5.091 12.055.15 17.121.15 23.306c0 .576.471 1.042 1.054 1.042.583 0 1.054-.466 1.054-1.042 0-5.201 4.262-9.42 9.516-9.42.155 0 .308.004.46.011z"/></g></g></g></svg>