<?xml version="1.0" encoding="UTF-8"?>
<svg width="30px" height="30px" viewBox="0 0 30 30" version="1.1" xmlns="http://www.w3.org/2000/svg" xmlns:xlink="http://www.w3.org/1999/xlink">
    <!-- Generator: Sketch 48.2 (47327) - http://www.bohemiancoding.com/sketch -->
    <title>Combined shape 3158</title>
    <desc>Created with Sketch.</desc>
    <defs></defs>
    <g id="Artboard" stroke="none" stroke-width="1" fill="none" fill-rule="evenodd" transform="translate(-380.000000, -1582.000000)">
        <g id="用户权限管理" fill="#FFFFFF">
            <g id="01-拷贝-5">
                <path d="M409.8351,1602.94025 C409.851402,1603.0279 410.000001,1603.8391 410.000001,1604.49267 C410.000001,1605.179 409.8351,1606.03793 409.837542,1606.04535 C409.727685,1606.62919 409.351287,1607.0077 408.88008,1607.0077 L408.801276,1607.0077 C407.878332,1607.00948 407.130321,1607.75723 407.128902,1608.68033 C407.141475,1608.89969 407.191503,1609.11531 407.276346,1609.31779 C407.501043,1609.84084 407.328948,1610.4497 406.86378,1610.77781 L406.817712,1610.80926 L404.876322,1611.87797 C404.710167,1611.9577 404.528172,1611.9997 404.343768,1612.00033 C403.980075,1612.00033 403.620111,1611.84668 403.391454,1611.59159 C403.14006,1611.32053 402.478773,1610.7592 402.012549,1610.7592 C401.556357,1610.7592 400.882497,1611.32053 400.647504,1611.57681 C400.273713,1611.96113 399.703539,1612.0793 399.207681,1611.87546 L397.287477,1610.80791 C396.781356,1610.45791 396.605037,1609.82788 396.835113,1609.31542 C396.875175,1609.22035 396.981435,1608.92024 396.981435,1608.68287 C396.981435,1607.76049 396.227616,1607.00918 395.306355,1607.00918 L395.239992,1607.00918 C394.757598,1607.00918 394.382619,1606.63024 394.271244,1606.04535 C394.253787,1605.95655 394.106211,1605.14534 394.106211,1604.49415 C394.106211,1603.84148 394.253787,1603.0279 394.271244,1602.94147 C394.382619,1602.35776 394.757598,1601.97645 395.22897,1601.97645 L395.30751,1601.97645 C396.230586,1601.97645 396.979884,1601.22959 396.98259,1600.30649 C396.970908,1600.08654 396.920451,1599.87032 396.833727,1599.6678 C396.610152,1599.14373 396.782379,1598.53445 397.24758,1598.20528 L397.29378,1598.17769 L399.285066,1597.08397 L399.322653,1597.06892 C399.815178,1596.87386 400.376475,1596.99081 400.750167,1597.36632 C400.992585,1597.62025 401.644005,1598.1503 402.095082,1598.1503 C402.540252,1598.1503 403.187547,1597.63157 403.430196,1597.37899 C403.807617,1597.00708 404.370069,1596.89514 404.861439,1597.0941 L406.816293,1598.17531 C407.323833,1598.52653 407.501439,1599.15894 407.270043,1599.6714 C407.231301,1599.76647 407.12646,1600.06403 407.12646,1600.30394 C407.128506,1601.22649 407.876418,1601.97331 408.798834,1601.97407 L408.866352,1601.97407 C409.347558,1601.97407 409.723824,1602.3539 409.8351,1602.94025 Z M402.020139,1601.52913 C403.650273,1601.52973 404.972319,1602.85012 404.975157,1604.48046 C404.971692,1606.11079 403.650405,1607.43148 402.020139,1607.43415 C400.389444,1607.43208 399.067794,1606.11092 399.06522,1604.48046 C399.067794,1602.85012 400.38984,1601.52973 402.020139,1601.52913 Z M402.020139,1605.91408 C402.400233,1605.91454 402.764685,1605.76373 403.033404,1605.49491 C403.302255,1605.22609 403.452801,1604.86161 403.452669,1604.48148 C403.420461,1603.71377 402.788676,1603.10759 402.020139,1603.10759 C401.251569,1603.10759 400.619685,1603.71377 400.587576,1604.48148 C400.588236,1605.27246 401.229228,1605.91335 402.020139,1605.91408 Z M408.380097,1605.51415 C408.420126,1605.25038 408.47649,1604.82287 408.47649,1604.49029 C408.47649,1604.15785 408.420126,1603.73284 408.380097,1603.46792 C406.803852,1603.26035 405.602685,1601.91656 405.602685,1600.30276 C405.608724,1599.97388 405.666474,1599.64771 405.773988,1599.33655 L404.3901,1598.56765 C404.262555,1598.6851 404.063763,1598.85778 403.818903,1599.02915 C403.215003,1599.454 402.637635,1599.66902 402.095082,1599.66902 C401.545038,1599.66902 400.961268,1599.454 400.353771,1599.01784 C400.107525,1598.84155 399.906291,1598.66543 399.781419,1598.54399 L398.335029,1599.33909 C398.416275,1599.579 398.506365,1599.93276 398.506365,1600.30394 C398.504946,1601.90685 397.316748,1603.26094 395.727534,1603.47046 C395.687604,1603.73152 395.631405,1604.15395 395.631405,1604.49267 C395.640117,1604.83448 395.672226,1605.17544 395.727534,1605.5128 C397.317903,1605.72007 398.507256,1607.07548 398.506365,1608.67898 C398.506365,1609.04795 398.412678,1609.40544 398.333874,1609.64654 L399.672717,1610.39412 C399.852897,1610.22127 400.043604,1610.05973 400.243914,1609.91044 C400.858869,1609.46296 401.45508,1609.23167 402.011262,1609.23167 C402.575133,1609.23167 403.176228,1609.46801 403.796463,1609.92532 C403.998687,1610.07656 404.190813,1610.24123 404.371488,1610.41795 L405.772602,1609.64654 C405.692643,1609.40544 405.602685,1609.05168 405.602685,1608.68033 C405.601662,1607.07696 406.790355,1605.72202 408.380097,1605.51415 Z M393.006189,1581.99997 C397.23372,1581.99997 400.672551,1585.41144 400.675224,1589.60505 C400.675224,1591.94633 399.599985,1594.12384 397.732515,1595.58402 L397.251309,1595.95771 C396.271242,1596.82885 394.40265,1597.12017 393.166338,1597.21524 L393.008763,1597.21151 C392.657643,1597.21151 392.309988,1597.23013 391.967481,1597.26157 L391.952598,1597.26157 L391.955172,1597.26395 C386.365038,1597.79162 381.975048,1602.47653 381.975048,1608.16537 L381.975048,1609.83801 L394.226331,1609.83801 C394.547916,1610.53315 394.528545,1611.39607 395.000016,1612 L380.999997,1612 C380.454969,1612 379.999932,1611.35419 379.999932,1610.81672 L379.999932,1608.16537 C379.999932,1602.86026 383.217531,1598.1564 388.198716,1596.1802 L388.76262,1595.95771 L388.283823,1595.58402 C386.412525,1594.12384 385.341345,1591.94633 385.341345,1589.60505 C385.341345,1585.41144 388.779912,1581.99997 393.006189,1581.99997 Z M393.007608,1595.25514 C396.14637,1595.25514 398.698722,1592.72134 398.698722,1589.60505 C398.698722,1586.48892 396.14637,1583.95617 393.007608,1583.95617 C389.869968,1583.95617 387.317484,1586.49133 387.317484,1589.60505 C387.317484,1592.72031 389.869968,1595.25514 393.007608,1595.25514 Z" id="Combined-shape-3158"></path>
            </g>
        </g>
    </g>
</svg>