<svg xmlns="http://www.w3.org/2000/svg" width="30" height="30" viewBox="0 0 30 30">
  <metadata><?xpacket begin="﻿" id="W5M0MpCehiHzreSzNTczkc9d"?>
<x:xmpmeta xmlns:x="adobe:ns:meta/" x:xmptk="Adobe XMP Core 5.6-c138 79.159824, 2016/09/14-01:09:01        ">
   <rdf:RDF xmlns:rdf="http://www.w3.org/1999/02/22-rdf-syntax-ns#">
      <rdf:Description rdf:about=""/>
   </rdf:RDF>
</x:xmpmeta>
                                                                                                    
                                                                                                    
                                                                                                    
                                                                                                    
                                                                                                    
                                                                                                    
                                                                                                    
                                                                                                    
                                                                                                    
                                                                                                    
                                                                                                    
                                                                                                    
                                                                                                    
                                                                                                    
                                                                                                    
                                                                                                    
                                                                                                    
                                                                                                    
                                                                                                    
                                                                                                    
                           
<?xpacket end="w"?></metadata>
<defs>
    <style>
      .cls-1 {
        fill: #fff;
        fill-rule: evenodd;
      }
    </style>
  </defs>
  <path id="形状_541" data-name="形状 541" class="cls-1" d="M402.02,1601.53a2.95,2.95,0,1,0,2.955,2.95,2.955,2.955,0,0,0-2.955-2.95h0Zm0,4.38a1.4,1.4,0,1,1,1.433-1.43,1.41,1.41,0,0,1-.42,1.01,1.426,1.426,0,0,1-1.013.42h0Zm0,0,7.815-2.97a1.045,1.045,0,0,0-.969-0.97H408.8a1.669,1.669,0,0,1-1.673-1.67,1.981,1.981,0,0,1,.144-0.63,1.214,1.214,0,0,0-.454-1.49l-1.955-1.09a1.351,1.351,0,0,0-1.431.29,1.546,1.546,0,0,1-2.68-.01,1.308,1.308,0,0,0-1.427-.3l-0.038.01-1.991,1.1-0.046.03a1.2,1.2,0,0,0-.414,1.46,1.893,1.893,0,0,1,.149.64,1.677,1.677,0,0,1-1.675,1.67h-0.079a1.043,1.043,0,0,0-.958.96,7.41,7.41,0,0,0,0,3.11,1.044,1.044,0,0,0,.969.96h0.066a1.676,1.676,0,0,1,1.675,1.67,2.018,2.018,0,0,1-.146.64,1.216,1.216,0,0,0,.452,1.49l1.921,1.07a1.328,1.328,0,0,0,1.44-.3,1.553,1.553,0,0,1,2.743.01,1.282,1.282,0,0,0,.953.41,1.224,1.224,0,0,0,.532-0.12l1.942-1.07,0.046-.03a1.206,1.206,0,0,0,.412-1.46,1.939,1.939,0,0,1-.147-0.64,1.673,1.673,0,0,1,1.672-1.67h0.079a1.041,1.041,0,0,0,.958-0.96,10.931,10.931,0,0,0,.162-1.56,10.019,10.019,0,0,0-.165-1.55h0Zm-1.455,2.57a3.141,3.141,0,0,0-2.607,4.14l-1.4.77a5.046,5.046,0,0,0-.575-0.49,2.631,2.631,0,0,0-3.552-.02,6.587,6.587,0,0,0-.571.48l-1.339-.74a3.135,3.135,0,0,0-2.606-4.14,5.411,5.411,0,0,1,0-2.04,3.194,3.194,0,0,0,2.778-3.17,3.087,3.087,0,0,0-.171-0.96l1.446-.8a4.664,4.664,0,0,0,.573.48,2.649,2.649,0,0,0,3.465.01,5.033,5.033,0,0,0,.571-0.46l1.384,0.77a3.069,3.069,0,0,0-.171.96,3.2,3.2,0,0,0,2.777,3.17,5.467,5.467,0,0,1,0,2.04h0Zm0,0M393.006,1582a7.644,7.644,0,0,0-7.665,7.61,7.531,7.531,0,0,0,2.943,5.97l0.479,0.38-0.564.22a12.862,12.862,0,0,0-8.2,11.99v2.65a1.193,1.193,0,0,0,1,1.18h14a10.316,10.316,0,0,1-.774-2.16H381.975v-1.67a11.006,11.006,0,0,1,9.98-10.91h0.012c0.343-.03.691-0.05,1.042-0.05l0.157,0.01a7.658,7.658,0,0,0,4.085-1.26l0.482-.38a7.542,7.542,0,0,0,2.942-5.97,7.648,7.648,0,0,0-7.669-7.61h0Zm0,13.26a5.65,5.65,0,1,1,5.691-5.65,5.681,5.681,0,0,1-5.691,5.65h0Zm0,0" transform="translate(-380 -1582)"/>
</svg>
