<?xml version="1.0" encoding="UTF-8"?>
<svg width="24px" height="30px" viewBox="0 0 24 30" version="1.1" xmlns="http://www.w3.org/2000/svg" xmlns:xlink="http://www.w3.org/1999/xlink">
    <!-- Generator: Sketch 48.2 (47327) - http://www.bohemiancoding.com/sketch -->
    <title>Combined shape 3161</title>
    <desc>Created with Sketch.</desc>
    <defs></defs>
    <g id="Artboard" stroke="none" stroke-width="1" fill="none" fill-rule="evenodd" transform="translate(-663.000000, -1582.000000)">
        <g id="用户权限管理" transform="translate(13.000000, 1545.000000)" fill="#FFFFFF">
            <g id="01-拷贝-7" transform="translate(611.000000, 0.000000)">
                <path d="M61.5245,40.751439 C62.363884,40.751439 62.998616,41.63343 63.000016,42.491364 L63.000016,52.739217 C62.998868,52.870821 62.971792,53.000907 62.920468,53.121753 C62.383008,59.862597 57.593916,65.532426 51.171556,66.977001 C51.040152,67.006833 50.903876,67.006833 50.772472,66.977001 C44.2485,65.508501 39.408056,59.676675 39.001384,52.794657 L38.999956,42.491364 C38.999956,41.658906 39.661232,40.751439 40.475612,40.751439 L40.75242,40.751439 C44.643216,40.751439 48.077556,39.548457 49.500096,37.507011 C49.646004,37.178496 50.145076,36.999999 50.694436,36.999999 L51.304248,36.999999 C51.83286,36.999999 52.220156,37.202553 52.402744,37.389993 C53.887276,39.516975 57.401024,40.751439 61.247552,40.751439 L61.5245,40.751439 Z M61.000004,51.999951 L61.000004,43.000026 C56.651324,42.97752 52.903496,41.283927 51.112672,38.874894 L50.865376,38.874894 C48.947124,41.368935 45.369704,42.960855 41.017412,42.970458 C40.846752,42.858819 40.999968,53.000016 40.999968,53.000016 C41.350556,58.926288 45.350188,63.73848 50.972784,65.100456 C56.59552,63.741549 60.648016,58.980441 61.000004,53.000016 C61.00426,52.908738 60.969092,52.085751 61.000004,51.999951 Z M47.1822,47.444235 C47.1822,45.360912 48.891936,43.665933 50.997676,43.665933 C53.103696,43.665933 54.816372,45.360912 54.816372,47.444235 C54.816372,49.199274 53.595572,50.664738 51.953596,51.087732 L52.000048,54.000048 L54.00006,54.000048 C54.527244,54.000048 54.999996,54.477987 54.999996,54.999981 C54.999996,55.521975 54.527244,56.000013 54.00006,56.000013 L51.953596,55.944606 L51.953596,57.831645 L53.862104,57.831645 C54.381588,57.824979 54.91594,58.157091 54.999996,59.000043 C55.036956,59.532531 54.519544,60.006741 54.00006,59.999976 L52.000048,59.999976 L51.953596,61.610079 C51.945532,62.139102 51.519344,63.006771 51,62.999973 C50.472816,62.999973 50.044976,62.132073 50.044976,61.610079 L50.044976,51.087732 C48.404428,50.664738 47.1822,49.199274 47.1822,47.444235 Z M52.907976,47.444235 C52.907976,46.40028 52.053696,45.555909 50.999216,45.555909 C49.944876,45.555909 49.090596,46.401831 49.090596,47.444235 C49.090596,48.486804 49.944876,49.332825 50.999216,49.332825 C52.053696,49.332825 52.907976,48.486804 52.907976,47.444235 Z" id="Combined-shape-3161"></path>
            </g>
        </g>
    </g>
</svg>