<svg id="组_2_拷贝" data-name="组 2 拷贝" xmlns="http://www.w3.org/2000/svg" width="30" height="29" viewBox="0 0 30 29">
  <metadata><?xpacket begin="﻿" id="W5M0MpCehiHzreSzNTczkc9d"?>
<x:xmpmeta xmlns:x="adobe:ns:meta/" x:xmptk="Adobe XMP Core 5.6-c138 79.159824, 2016/09/14-01:09:01        ">
   <rdf:RDF xmlns:rdf="http://www.w3.org/1999/02/22-rdf-syntax-ns#">
      <rdf:Description rdf:about=""/>
   </rdf:RDF>
</x:xmpmeta>
                                                                                                    
                                                                                                    
                                                                                                    
                                                                                                    
                                                                                                    
                                                                                                    
                                                                                                    
                                                                                                    
                                                                                                    
                                                                                                    
                                                                                                    
                                                                                                    
                                                                                                    
                                                                                                    
                                                                                                    
                                                                                                    
                                                                                                    
                                                                                                    
                                                                                                    
                                                                                                    
                           
<?xpacket end="w"?></metadata>
<defs>
    <style>
      .cls-1 {
        fill: #fff;
        fill-rule: evenodd;
      }
    </style>
  </defs>
  <path id="形状_17_拷贝_5" data-name="形状 17 拷贝 5" class="cls-1" d="M403.221,1127.57a7.715,7.715,0,1,0,7.779,7.72,7.757,7.757,0,0,0-7.779-7.72h0Zm0,13.88a6.16,6.16,0,1,1,6.213-6.16,6.2,6.2,0,0,1-6.213,6.16h0Zm0,0-9.283-3.69h-10.67a0.7,0.7,0,0,1-.7-0.7v-20.81a0.706,0.706,0,0,1,.7-0.7h19.617a0.706,0.706,0,0,1,.7.7v8.62a0.783,0.783,0,0,0,1.566,0v-8.62a2.262,2.262,0,0,0-2.268-2.25H383.268a2.262,2.262,0,0,0-2.268,2.25v20.81a2.262,2.262,0,0,0,2.268,2.25h10.67a0.774,0.774,0,0,0,.783-0.77,0.782,0.782,0,0,0-.783-0.78h0Zm0,0M402,1132h1v5h-1v-5Zm0,4h4v1h-4v-1Z" transform="translate(-381 -1114)"/>
  <path id="形状_34" data-name="形状 34" class="cls-1" d="M388,1125v-5h2v-1h-6v1.03l2-.03v5h2Zm14-.01-2-2.99,2-3h-2l-1.107,1.57c-0.121.14-.242,0.28-0.355,0.42-0.1-.14-0.233-0.3-0.378-0.46l-1.288-1.52L395,1119l2,3-1.577,2.49L393,1119h-2l-2.275,6H390l1-2h2l1.191,2h1.481v-0.01L397,1125l1.345-2.04c0.041-.05.089-0.12,0.153-0.2,0.04,0.06.081,0.1,0.121,0.15L400,1125Zm-10.714-2.66,0.627-1.41c0.073-.17.137-0.33,0.193-0.49,0.073,0.18.162,0.37,0.258,0.58l0.6,1.32h-1.674Z" transform="translate(-381 -1114)"/>
</svg>
