<?xml version="1.0" encoding="UTF-8"?>
<svg width="60px" height="60px" viewBox="0 0 60 60" version="1.1" xmlns="http://www.w3.org/2000/svg" xmlns:xlink="http://www.w3.org/1999/xlink">
    <!-- Generator: Sketch 49.3 (51167) - http://www.bohemiancoding.com/sketch -->
    <title>销项管理-期初未纳税销售额台账-地产</title>
    <desc>Created with Sketch.</desc>
    <defs>
        <rect id="path-1" x="17" y="15" width="25" height="27" rx="2"></rect>
        <path d="M39,37.8666667 L39,34.8 C39,34.3581722 39.3581722,34 39.8,34 L40.2,34 C40.6418278,34 41,34.3581722 41,34.8 L41,37.8666667 C41,38.3084945 40.6418278,38.6666667 40.2,38.6666667 L39.8,38.6666667 C39.3581722,38.6666667 39,38.3084945 39,37.8666667 Z M39,40.2222222 C39,40.651777 39.4477153,41 40,41 C40.5522847,41 41,40.651777 41,40.2222222 C41,39.7926674 40.5522847,39.4444444 40,39.4444444 C39.4477153,39.4444444 39,39.7926674 39,40.2222222 Z" id="path-2"></path>
    </defs>
    <g id="icon" stroke="none" stroke-width="1" fill="none" fill-rule="evenodd">
        <g id="销项管理-期初未纳税销售额台账-地产">
            <circle id="Oval-Copy" fill="#05DCAC" cx="30" cy="30" r="30"></circle>
            <g id="Rectangle-4">
                <use fill="#05DCAC" fill-rule="evenodd" xlink:href="#path-1"></use>
                <rect stroke="#FFFFFF" stroke-width="1.5" x="17.75" y="15.75" width="23.5" height="25.5" rx="2"></rect>
            </g>
            <rect id="Rectangle-3" fill="#FFFFFF" x="22" y="20" width="15" height="1.5" rx="0.75"></rect>
            <rect id="Rectangle-3-Copy" fill="#FFFFFF" x="22" y="25" width="15" height="1.5" rx="0.75"></rect>
            <rect id="Rectangle-3-Copy-2" fill="#FFFFFF" x="22" y="30" width="10" height="1.5" rx="0.75"></rect>
            <circle id="Oval-2" fill="#05DCAC" cx="39.5" cy="37.5" r="7.5"></circle>
            <g id="Shape" fill-rule="nonzero">
                <use fill="#FFFFFF" fill-rule="evenodd" xlink:href="#path-2"></use>
                <path stroke="#05DCAC" stroke-width="0.2" d="M39.1,37.8666667 C39.1,38.253266 39.4134007,38.5666667 39.8,38.5666667 L40.2,38.5666667 C40.5865993,38.5666667 40.9,38.253266 40.9,37.8666667 L40.9,34.8 C40.9,34.4134007 40.5865993,34.1 40.2,34.1 L39.8,34.1 C39.4134007,34.1 39.1,34.4134007 39.1,34.8 L39.1,37.8666667 Z M39.1,40.2222222 C39.1,40.5902696 39.4982249,40.9 40,40.9 C40.5017751,40.9 40.9,40.5902696 40.9,40.2222222 C40.9,39.8541749 40.5017751,39.5444444 40,39.5444444 C39.4982249,39.5444444 39.1,39.8541749 39.1,40.2222222 Z"></path>
            </g>
            <path d="M39.6923077,44.3846154 C35.9962482,44.3846154 33,41.3883672 33,37.6923077 C33,33.9962482 35.9962482,31 39.6923077,31 C43.3883672,31 46.3846154,33.9962482 46.3846154,37.6923077 C46.3846154,41.3883672 43.3883672,44.3846154 39.6923077,44.3846154 Z M39.6923077,43 C42.6236652,43 45,40.6236652 45,37.6923077 C45,34.7609502 42.6236652,32.3846154 39.6923077,32.3846154 C36.7609502,32.3846154 34.3846154,34.7609502 34.3846154,37.6923077 C34.3846154,40.6236652 36.7609502,43 39.6923077,43 Z" id="Oval-3" fill="#FFFFFF" fill-rule="nonzero"></path>
        </g>
    </g>
</svg>